<svg xmlns="http://www.w3.org/2000/svg" width="69.558" height="238.378" viewBox="0 0 69.558 238.378">
  <g id="Group_5588" data-name="Group 5588" transform="translate(-3439.221 -941)">
    <g id="Group_5583" data-name="Group 5583" transform="translate(1801 33)">
      <rect id="Rectangle_673" data-name="Rectangle 673" width="3" height="13" transform="translate(1667 908)" fill="#fff"/>
      <rect id="Rectangle_677" data-name="Rectangle 677" width="3" height="14" transform="translate(1667 962)" fill="#fff"/>
      <rect id="Rectangle_681" data-name="Rectangle 681" width="3" height="13" transform="translate(1667 1017)" fill="#fff"/>
      <rect id="Rectangle_685" data-name="Rectangle 685" width="3" height="14" transform="translate(1667 1071)" fill="#fff"/>
      <rect id="Rectangle_675" data-name="Rectangle 675" width="3" height="14" transform="translate(1667 935)" fill="#fff"/>
      <rect id="Rectangle_679" data-name="Rectangle 679" width="3" height="14" transform="translate(1667 989)" fill="#fff"/>
      <rect id="Rectangle_683" data-name="Rectangle 683" width="3" height="14" transform="translate(1667 1044)" fill="#fff"/>
      <rect id="Rectangle_674" data-name="Rectangle 674" width="3" height="14" transform="translate(1667 921)" fill="#e22b3d"/>
      <rect id="Rectangle_678" data-name="Rectangle 678" width="3" height="13" transform="translate(1667 976)" fill="#e22b3d"/>
      <rect id="Rectangle_682" data-name="Rectangle 682" width="3" height="14" transform="translate(1667 1030)" fill="#e22b3d"/>
      <rect id="Rectangle_676" data-name="Rectangle 676" width="3" height="13" transform="translate(1667 949)" fill="#e22b3d"/>
      <rect id="Rectangle_680" data-name="Rectangle 680" width="3" height="14" transform="translate(1667 1003)" fill="#e22b3d"/>
      <rect id="Rectangle_684" data-name="Rectangle 684" width="3" height="13" transform="translate(1667 1058)" fill="#e22b3d"/>
    </g>
    <g id="Group_5578" data-name="Group 5578" transform="matrix(0.899, 0.438, -0.438, 0.899, 2829.655, -2529.671)">
      <path id="Path_8890" data-name="Path 8890" d="M742.307,860.321l-.033-.062q-.1-.179-.216-.348l-.016-.022c-1.526-2.184-5.264-3.28-8.6-4.258-.679-.2-1.477-.432-2.17-.661l.068-.034c2.285-1.13,4.876-2.41,4.856-4.593-.018-2.019-2.485-3.14-8.538-5.4-.687-.256-1.487-.555-2.2-.836l.1-.043c2.245-.928,4.566-1.887,4.909-3.8.416-2.31-2.675-3.67-9.142-6.286-1.034-.418-2.288-.926-3.255-1.355.193-.091.38-.176.538-.249,1.777-.817,3.181-1.462,3.449-2.782a1.91,1.91,0,0,0-.552-1.758,48.338,48.338,0,0,0-7.066-4.673c-6.195-3.461-8.454-3.243-9.614-2.778s-2.944,1.868-5.031,8.651c-.651,2.116-1.223,4.44-1.56,6.133v.007c-.054.27-.1.524-.143.759l0,.019q-.029.169-.054.322l0,.03c-.032.2-.058.382-.076.541l0,.036c-.008.074-.015.142-.02.206,0,.011,0,.022,0,.033-.005.063-.009.122-.01.173a1.91,1.91,0,0,0,.815,1.652c1.106.769,2.566.265,4.416-.372.165-.057.359-.124.561-.192-.4.979-.959,2.212-1.417,3.229-2.868,6.36-4.163,9.478-2.267,10.861,1.568,1.143,3.908.233,6.172-.648l.1-.04c-.321.7-.694,1.464-1.013,2.124-2.816,5.815-3.826,8.329-2.443,9.8,1.494,1.592,4.252.728,6.685-.035l.072-.023c-.343.644-.758,1.364-1.112,1.977-1.939,3.361-4.137,7.171-3.042,9.9.985,2.456,4.868,1.953,8.142,1.241a93.187,93.187,0,0,0,23.862-9.568c2.859-1.746,6.014-4.066,5.029-6.522A3.916,3.916,0,0,0,742.307,860.321Z" transform="translate(1471.119 2169.598)" fill="#3e302e" opacity="0.1"/>
      <g id="Group_5320" data-name="Group 5320" transform="translate(2164.889 2990.923)">
        <path id="Path_8324" data-name="Path 8324" d="M749.073,829.413c-.678-.2-1.477-.432-2.169-.661l.068-.034c2.286-1.13,4.876-2.41,4.857-4.593-.018-2.019-2.486-3.14-8.538-5.4-.687-.256-1.487-.555-2.2-.836l.1-.043c2.245-.928,4.566-1.887,4.909-3.8.416-2.31-2.675-3.67-9.142-6.286-1.034-.418-2.288-.926-3.255-1.355.193-.091.379-.176.538-.249,1.777-.817,3.181-1.462,3.449-2.782a1.91,1.91,0,0,0-.552-1.758,48.358,48.358,0,0,0-7.066-4.673c-6.195-3.461-8.454-3.243-9.614-2.778s-2.944,1.868-5.032,8.651a48.342,48.342,0,0,0-1.88,8.26,1.91,1.91,0,0,0,.816,1.652c1.106.769,2.566.265,4.415-.372.165-.057.359-.124.562-.192-.4.979-.958,2.212-1.417,3.229-2.869,6.36-4.163,9.478-2.267,10.861,1.567,1.143,3.908.233,6.172-.648l.1-.041c-.321.7-.693,1.464-1.013,2.124-2.816,5.814-3.825,8.329-2.443,9.8,1.494,1.592,4.252.728,6.685-.035l.072-.023c-.343.644-.759,1.364-1.112,1.977-1.939,3.361-4.137,7.171-3.042,9.9.985,2.456,4.868,1.953,8.141,1.241a93.194,93.194,0,0,0,23.862-9.568c2.859-1.747,6.014-4.066,5.029-6.522C757.019,831.74,752.8,830.5,749.073,829.413Z" transform="translate(-713.549 -793.914)" fill="#d4a563"/>
        <path id="Path_8325" data-name="Path 8325" d="M758.114,872.286a4.393,4.393,0,0,0-1.023-1.487c2.906,7.33-31.046,18.1-33.422,14.933s6.532-13.314,5.238-14.543-4.807.635-6.484.084,4.456-8.322,4.419-11.412-6.185,1.775-7.659.968,3.029-7.611,3.236-11.363-2.488-1.029-5.507-.2-2.954-2.906-2.953-2.914a18.19,18.19,0,0,0-.407,2.551,1.91,1.91,0,0,0,.816,1.652c1.106.769,2.566.265,4.415-.372.165-.057.359-.124.562-.192-.4.979-.958,2.212-1.417,3.229-2.869,6.36-4.163,9.478-2.267,10.861,1.567,1.143,3.908.233,6.172-.648l.1-.04c-.321.7-.693,1.464-1.013,2.124-2.816,5.815-3.825,8.329-2.443,9.8,1.494,1.592,4.252.728,6.685-.035l.072-.023c-.343.644-.759,1.365-1.112,1.977-1.939,3.361-4.137,7.171-3.042,9.9.985,2.456,4.868,1.953,8.141,1.241a93.191,93.191,0,0,0,23.862-9.568C755.944,877.062,759.1,874.742,758.114,872.286Z" transform="translate(-713.549 -831.729)" fill="#c18a38" opacity="0.1" style="mix-blend-mode: multiply;isolation: isolate"/>
        <path id="Path_8326" data-name="Path 8326" d="M750.388,834.31c-.362-.95,5.46-2.391,5.383-4.319-.072-1.795-9.9-4.856-10.891-6.018s5.287-2.1,5.543-3.963-11.6-5.935-12.169-7.162,5.348-2.436,4.3-3.549c-1-1.061-10.742-8.22-13.367-7.168s-4.721,12.958-4.712,14.417c.01,1.53,5.125-1.687,5.56-.4s-5.32,12.417-3.849,13.585,6.656-2.486,6.745-.964-4.9,10.528-3.716,11.875c1.277,1.448,6.481-1.533,6.876-.6.707,1.676-5.271,9-3.935,12.33,1.649,4.112,31.247-7.756,29.6-11.869C760.415,837.173,751.035,836.011,750.388,834.31Z" transform="translate(-721.428 -799.764)" fill="#35b676"/>
        <path id="Path_8327" data-name="Path 8327" d="M729.185,802.389c-2.625,1.052-4.721,12.958-4.712,14.417.01,1.53,5.125-1.687,5.56-.4s-5.32,12.417-3.849,13.585,6.656-2.486,6.745-.964-4.9,10.528-3.716,11.875c1.277,1.448,6.481-1.533,6.876-.6.707,1.676-5.271,9-3.935,12.33,1.237,3.084,16.036-2.85,16.036-2.85S730.722,801.773,729.185,802.389Z" transform="translate(-721.428 -800.022)" fill="#05925a"/>
        <path id="Path_8328" data-name="Path 8328" d="M737.671,815.68c.3-2.379,2.378-4.542,3.843-2.139s7.812,19.872,9.174,23.27c1.7,4.231,7.8,16.865,6.142,18.6s-12.679,4.958-11.472,1.011,4.894-10.3,2.189-11.109-4.03.735-2.777-4.112.7-6.924-3.16-6.005-.455-4.886.014-7.467,2.037-4.847-.977-4S736.929,821.644,737.671,815.68Z" transform="translate(-730.749 -807.313)" fill="#f4f5f5" opacity="0.1"/>
        <path id="Path_8329" data-name="Path 8329" d="M768.014,826.7a1.091,1.091,0,1,0-.623,1.377A1.069,1.069,0,0,0,768.014,826.7Z" transform="translate(-751.317 -817.094)" fill="#ed2238"/>
        <path id="Path_8330" data-name="Path 8330" d="M752.027,867.03a2.537,2.537,0,1,0-1.447,3.2A2.485,2.485,0,0,0,752.027,867.03Z" transform="translate(-737.784 -845.559)" fill="#fff"/>
        <path id="Path_8331" data-name="Path 8331" d="M802.57,900.739a1.548,1.548,0,1,0-.883,1.953A1.516,1.516,0,0,0,802.57,900.739Z" transform="translate(-775.606 -870.294)" fill="#ed2238"/>
        <ellipse id="Ellipse_72" data-name="Ellipse 72" cx="2.155" cy="2.068" rx="2.155" ry="2.068" transform="matrix(0.928, -0.372, 0.372, 0.928, 17.007, 42.8)" fill="#fff"/>
        <path id="Path_8332" data-name="Path 8332" d="M747.288,807.869c2.365,3.14,11.715,3.979,10.822,6.25s-6.584,3.06-3.389,5.239,15.7,1.835,10.13,9.361c2.286-1.13,4.876-2.41,4.857-4.593-.018-2.019-2.486-3.14-8.538-5.4-.687-.256-1.487-.555-2.2-.836l.1-.043c2.245-.928,4.566-1.887,4.909-3.8.416-2.31-2.675-3.67-9.142-6.286-1.034-.418-2.288-.926-3.255-1.355.193-.091.38-.176.538-.249,1.777-.817,3.181-1.462,3.449-2.782a1.91,1.91,0,0,0-.552-1.758,48.351,48.351,0,0,0-7.066-4.673c-6.195-3.461-8.454-3.243-9.614-2.778a51.663,51.663,0,0,1,9.6,6.721C751.82,804.567,744.923,804.728,747.288,807.869Z" transform="translate(-731.43 -793.914)" fill="#f4f5f5" opacity="0.2"/>
        <path id="Path_8333" data-name="Path 8333" d="M743.818,824.408l-.516-.15a.2.2,0,0,1-.148-.195l0-.526a.213.213,0,0,0-.388-.113l-.321.433a.222.222,0,0,1-.24.081l-.516-.15a.215.215,0,0,0-.241.326l.317.419a.2.2,0,0,1,0,.245l-.321.434a.206.206,0,0,0,.239.315l.517-.175a.214.214,0,0,1,.24.07l.317.418a.219.219,0,0,0,.389-.132l0-.527a.216.216,0,0,1,.149-.2l.517-.175A.207.207,0,0,0,743.818,824.408Z" transform="translate(-733.638 -815.131)" fill="#f4c32d"/>
        <path id="Path_8334" data-name="Path 8334" d="M790.516,861.938l-.331-.408a.2.2,0,0,1-.007-.245l.306-.443a.206.206,0,0,0-.249-.307l-.511.191a.215.215,0,0,1-.242-.062l-.331-.408a.219.219,0,0,0-.385.144l.015.526a.216.216,0,0,1-.143.206l-.511.191a.206.206,0,0,0,.012.4l.521.134a.2.2,0,0,1,.154.19l.015.526a.214.214,0,0,0,.392.1l.306-.443a.224.224,0,0,1,.238-.089l.521.134A.214.214,0,0,0,790.516,861.938Z" transform="translate(-767.231 -841.703)" fill="#fff"/>
        <path id="Path_8335" data-name="Path 8335" d="M766.424,910.812l-.437-.3a.2.2,0,0,1-.077-.231l.17-.5a.209.209,0,0,0-.329-.225l-.44.32a.221.221,0,0,1-.253.006l-.438-.3a.218.218,0,0,0-.331.241l.165.5a.209.209,0,0,1-.079.235l-.44.32a.2.2,0,0,0,.125.374l.543-.013a.207.207,0,0,1,.2.139l.166.5a.217.217,0,0,0,.409-.01l.17-.5a.222.222,0,0,1,.2-.149l.543-.013A.21.21,0,0,0,766.424,910.812Z" transform="translate(-749.822 -877.279)" fill="#f4c32d"/>
        <path id="Path_8336" data-name="Path 8336" d="M823.236,943.439l-.666.5a.339.339,0,0,1-.388.017l-.682-.446a.334.334,0,0,0-.5.379l.27.757a.321.321,0,0,1-.114.363l-.666.5a.315.315,0,0,0,.2.57l.833-.036a.318.318,0,0,1,.317.207l.27.757a.333.333,0,0,0,.627-.027l.245-.779a.34.34,0,0,1,.31-.234l.833-.036a.322.322,0,0,0,.184-.587l-.681-.446a.308.308,0,0,1-.126-.352l.245-.779A.321.321,0,0,0,823.236,943.439Z" transform="translate(-790.578 -901.699)" fill="#fff"/>
      </g>
    </g>
  </g>
</svg>
