<svg xmlns="http://www.w3.org/2000/svg" width="59.524" height="218.762" viewBox="0 0 59.524 218.762">
  <g id="Group_5584" data-name="Group 5584" transform="translate(-3306.738 -956)">
    <g id="Group_5581" data-name="Group 5581" transform="translate(1668 48)">
      <rect id="Rectangle_673" data-name="Rectangle 673" width="3" height="13" transform="translate(1667 908)" fill="#fff"/>
      <rect id="Rectangle_677" data-name="Rectangle 677" width="3" height="14" transform="translate(1667 962)" fill="#fff"/>
      <rect id="Rectangle_681" data-name="Rectangle 681" width="3" height="13" transform="translate(1667 1017)" fill="#fff"/>
      <rect id="Rectangle_685" data-name="Rectangle 685" width="3" height="14" transform="translate(1667 1071)" fill="#fff"/>
      <rect id="Rectangle_675" data-name="Rectangle 675" width="3" height="14" transform="translate(1667 935)" fill="#fff"/>
      <rect id="Rectangle_679" data-name="Rectangle 679" width="3" height="14" transform="translate(1667 989)" fill="#fff"/>
      <rect id="Rectangle_683" data-name="Rectangle 683" width="3" height="14" transform="translate(1667 1044)" fill="#fff"/>
      <rect id="Rectangle_674" data-name="Rectangle 674" width="3" height="14" transform="translate(1667 921)" fill="#e22b3d"/>
      <rect id="Rectangle_678" data-name="Rectangle 678" width="3" height="13" transform="translate(1667 976)" fill="#e22b3d"/>
      <rect id="Rectangle_682" data-name="Rectangle 682" width="3" height="14" transform="translate(1667 1030)" fill="#e22b3d"/>
      <rect id="Rectangle_676" data-name="Rectangle 676" width="3" height="13" transform="translate(1667 949)" fill="#e22b3d"/>
      <rect id="Rectangle_680" data-name="Rectangle 680" width="3" height="14" transform="translate(1667 1003)" fill="#e22b3d"/>
      <rect id="Rectangle_684" data-name="Rectangle 684" width="3" height="13" transform="translate(1667 1058)" fill="#e22b3d"/>
    </g>
    <g id="Group_5579" data-name="Group 5579" transform="translate(3301.208 1135.543) rotate(-30)">
      <circle id="Ellipse_155" data-name="Ellipse 155" cx="21.153" cy="21.153" r="21.153" transform="translate(1.571 8.339) rotate(-9.206)" fill="#ffde27"/>
      <circle id="Ellipse_156" data-name="Ellipse 156" cx="19.577" cy="19.577" r="19.577" transform="translate(0 35.788) rotate(-66.067)" fill="#fff"/>
      <g id="Group_5446" data-name="Group 5446" transform="translate(7.846 7.845)">
        <path id="Path_9150" data-name="Path 9150" d="M516.533-202.037,503.986-200.5a1.338,1.338,0,0,0-1.133,1.626,17.9,17.9,0,0,0,5.129,9.064,1.335,1.335,0,0,0,1.972-.139l7.784-9.96A1.324,1.324,0,0,0,516.533-202.037Z" transform="translate(-502.414 220.811)" fill="#ffcf00"/>
        <path id="Path_9151" data-name="Path 9151" d="M516.707-216.026l-9.96-7.783a1.335,1.335,0,0,0-1.947.341,17.9,17.9,0,0,0-2.787,10.035,1.338,1.338,0,0,0,1.493,1.3l12.547-1.539A1.325,1.325,0,0,0,516.707-216.026Z" transform="translate(-502.008 231.833)" fill="#ffcf00"/>
        <path id="Path_9152" data-name="Path 9152" d="M523.822-225.051,522.283-237.6a1.337,1.337,0,0,0-1.626-1.133,17.9,17.9,0,0,0-9.064,5.129,1.335,1.335,0,0,0,.14,1.972l9.96,7.784A1.324,1.324,0,0,0,523.822-225.051Z" transform="translate(-506.615 239.171)" fill="#ffcf00"/>
        <path id="Path_9153" data-name="Path 9153" d="M534.553-238.079l1.539,12.547a1.324,1.324,0,0,0,2.358.654l7.784-9.96a1.334,1.334,0,0,0-.342-1.947,17.9,17.9,0,0,0-10.035-2.787A1.338,1.338,0,0,0,534.553-238.079Z" transform="translate(-518.277 239.577)" fill="#ffcf00"/>
        <path id="Path_9154" data-name="Path 9154" d="M539.547-197.341l1.539,12.547a1.338,1.338,0,0,0,1.627,1.133,17.905,17.905,0,0,0,9.064-5.129,1.335,1.335,0,0,0-.139-1.972l-9.96-7.784A1.325,1.325,0,0,0,539.547-197.341Z" transform="translate(-520.774 219.202)" fill="#ffcf00"/>
        <path id="Path_9155" data-name="Path 9155" d="M544.243-217.762,556.79-219.3a1.337,1.337,0,0,0,1.133-1.626,17.9,17.9,0,0,0-5.129-9.064,1.335,1.335,0,0,0-1.972.139l-7.784,9.96A1.325,1.325,0,0,0,544.243-217.762Z" transform="translate(-522.383 234.969)" fill="#ffcf00"/>
        <path id="Path_9156" data-name="Path 9156" d="M544.063-203.134l9.96,7.784a1.335,1.335,0,0,0,1.947-.341,17.9,17.9,0,0,0,2.786-10.035,1.337,1.337,0,0,0-1.492-1.3l-12.547,1.539A1.324,1.324,0,0,0,544.063-203.134Z" transform="translate(-522.782 223.308)" fill="#ffcf00"/>
        <path id="Path_9157" data-name="Path 9157" d="M525.559-197.521l-7.784,9.96a1.335,1.335,0,0,0,.341,1.947,17.9,17.9,0,0,0,10.035,2.787,1.338,1.338,0,0,0,1.3-1.493l-1.539-12.547A1.324,1.324,0,0,0,525.559-197.521Z" transform="translate(-509.751 218.803)" fill="#ffcf00"/>
      </g>
    </g>
  </g>
</svg>
