<svg xmlns="http://www.w3.org/2000/svg" width="78.742" height="225.79" viewBox="0 0 78.742 225.79">
  <g id="Group_5600" data-name="Group 5600" transform="translate(-3833.747 -511)">
    <g id="Group_5599" data-name="Group 5599" transform="translate(2199 -397)">
      <rect id="Rectangle_673" data-name="Rectangle 673" width="3" height="13" transform="translate(1667 908)" fill="#fff"/>
      <rect id="Rectangle_677" data-name="Rectangle 677" width="3" height="14" transform="translate(1667 962)" fill="#fff"/>
      <rect id="Rectangle_681" data-name="Rectangle 681" width="3" height="13" transform="translate(1667 1017)" fill="#fff"/>
      <rect id="Rectangle_685" data-name="Rectangle 685" width="3" height="14" transform="translate(1667 1071)" fill="#fff"/>
      <rect id="Rectangle_675" data-name="Rectangle 675" width="3" height="14" transform="translate(1667 935)" fill="#fff"/>
      <rect id="Rectangle_679" data-name="Rectangle 679" width="3" height="14" transform="translate(1667 989)" fill="#fff"/>
      <rect id="Rectangle_683" data-name="Rectangle 683" width="3" height="14" transform="translate(1667 1044)" fill="#fff"/>
      <rect id="Rectangle_674" data-name="Rectangle 674" width="3" height="14" transform="translate(1667 921)" fill="#e22b3d"/>
      <rect id="Rectangle_678" data-name="Rectangle 678" width="3" height="13" transform="translate(1667 976)" fill="#e22b3d"/>
      <rect id="Rectangle_682" data-name="Rectangle 682" width="3" height="14" transform="translate(1667 1030)" fill="#e22b3d"/>
      <rect id="Rectangle_676" data-name="Rectangle 676" width="3" height="13" transform="translate(1667 949)" fill="#e22b3d"/>
      <rect id="Rectangle_680" data-name="Rectangle 680" width="3" height="14" transform="translate(1667 1003)" fill="#e22b3d"/>
      <rect id="Rectangle_684" data-name="Rectangle 684" width="3" height="13" transform="translate(1667 1058)" fill="#e22b3d"/>
    </g>
    <g id="Group_5577" data-name="Group 5577" transform="matrix(0.951, -0.309, 0.309, 0.951, 1353.616, -1746.925)">
      <path id="Path_8175" data-name="Path 8175" d="M1223.1,1091.559c0-.046,0-.092,0-.137q0-.365-.021-.728h0v0c0-.057-.006-.113-.01-.169q-.018-.3-.047-.593h0c0-.044-.009-.087-.014-.13s-.01-.1-.015-.147c-.019-.163-.041-.325-.065-.487h0c-.016-.112-.032-.225-.051-.337,0-.01,0-.02,0-.03a16.216,16.216,0,0,0-.394-1.728c-.015-.049-.03-.1-.045-.148q-.1-.336-.214-.669c-.025-.073-.052-.146-.078-.219q-.108-.3-.228-.594-.047-.117-.1-.233-.126-.3-.265-.587c-.033-.069-.064-.139-.1-.207-.063-.128-.13-.255-.2-.381h0c-.054-.1-.108-.206-.164-.308-.015-.026-.027-.053-.042-.079q-.216-.385-.454-.759c-.032-.051-.068-.1-.1-.151-.125-.192-.253-.381-.387-.568-.057-.08-.118-.159-.177-.238-.116-.156-.234-.31-.356-.462-.069-.086-.139-.17-.209-.254q-.182-.217-.373-.429c-.073-.082-.147-.164-.223-.245-.139-.148-.282-.292-.428-.436-.068-.068-.135-.136-.2-.2-.217-.207-.44-.41-.672-.607a16.135,16.135,0,0,0-1.978-1.441c-.312-.192-.63-.369-.951-.538h0c-.149-.079-.3-.159-.448-.232q-.357-.173-.72-.328a15.971,15.971,0,0,0-3.5-1.035l-.073-.013c-.189-.032-.377-.06-.566-.085l-.172-.023c-.17-.021-.341-.038-.511-.054l-.233-.02q-.236-.018-.472-.029l-.276-.011c-.147,0-.293-.007-.44-.008-.1,0-.207,0-.311,0-.085,0-.17,0-.255,0-.052,0-.1.006-.157.008-.114,0-.228.012-.342.019s-.257.015-.385.027-.25.025-.375.039-.235.025-.353.04c-.143.019-.285.043-.427.065-.1.016-.2.029-.3.047q-.358.064-.712.143c-.054.012-.108.027-.162.041q-.588.139-1.166.323a15.788,15.788,0,0,0-5.742,3.256h0c-.183.162-.363.328-.54.5-.038.036-.074.075-.111.112-.141.139-.281.278-.417.423q-.267.283-.521.582l-6.2,7.285c-.286-4.12-1.282-9.037-4.4-10.481h0a3.5,3.5,0,0,0-1.42-.3c-.087,0-.175,0-.264,0a6.638,6.638,0,0,0-1.414.221,11.528,11.528,0,0,0-2.165.829q-.159.078-.32.162c-.492.257-.988.549-1.482.871-.519.338-1.035.708-1.541,1.106-.163.128-.326.259-.487.392q-.309.257-.612.526c-.4.358-.793.732-1.168,1.117l-.014.015q-.417.428-.806.874-.132.151-.259.3c-.133.158-.262.318-.388.479a17.1,17.1,0,0,0-1.194,1.712,13.177,13.177,0,0,0-.634,1.174c-.067.141-.132.282-.192.423q-.068.159-.129.318a6.82,6.82,0,0,0-.513,3.071v0c.017.179.042.354.072.526.01.056.023.11.034.165.024.117.049.232.078.345.016.062.034.123.052.184.031.105.064.209.1.311.021.06.042.119.065.178.041.106.085.21.132.313.022.05.043.1.067.15.068.142.141.281.22.417l.015.028c.082.14.171.277.263.411.032.047.067.092.1.138.064.088.13.176.2.261.042.052.085.1.128.153q.1.116.2.229c.047.05.094.1.142.15.073.075.149.147.226.219.048.045.095.091.144.135.1.087.2.172.3.256.054.044.108.087.163.13.107.083.216.165.329.243.063.045.129.087.194.13.081.054.162.107.244.159s.148.09.223.134.156.091.236.135.16.088.242.131.156.079.234.118.172.086.26.127c.071.033.144.064.217.1q.3.132.607.251c.051.019.1.04.152.059.113.042.228.081.343.12l.186.063c.117.038.235.074.354.11l.182.053c.124.036.249.07.375.1l.152.038a17.825,17.825,0,0,0,1.975.373l.07.009c.16.021.32.039.481.055l.092.009c.092.009.183.02.276.028.072.006.144.009.216.014l.052,0c.132.009.264.02.4.027h0l-3.317,3.895h0l-3.785,4.445h0l-3.785,4.445h0l-4.158,4.883-3.412,4.007h0l-.161.19a4.8,4.8,0,0,0-1.149,3.095v0c0,.024,0,.047,0,.071,0,.136.007.273.019.409,0,.049.013.1.019.146.015.114.03.227.052.34.011.057.025.113.039.169.024.1.051.207.082.309.018.06.038.119.059.178.034.1.07.193.11.287.025.06.051.12.079.179.043.092.091.182.14.272.032.058.063.115.1.172.054.089.113.176.174.263.037.053.072.106.111.157.07.091.146.179.222.266.037.042.071.086.11.127a4.881,4.881,0,0,0,.377.359v0a4.849,4.849,0,0,0,.8.555,4.614,4.614,0,0,0,.429.209,4.8,4.8,0,0,0,2.7.317h0l.012,0c.066-.011.131-.028.2-.042s.155-.032.231-.052.133-.04.2-.06.148-.046.221-.073c.024-.009.05-.015.075-.025.04-.015.078-.036.117-.052.074-.03.146-.062.219-.1.03-.015.062-.026.092-.041s.06-.035.09-.051c.073-.039.145-.08.216-.122.056-.034.113-.068.168-.1.074-.048.146-.1.217-.153.036-.027.074-.05.109-.077l.039-.034c.078-.062.153-.13.228-.2.039-.035.079-.068.117-.1.11-.107.217-.219.319-.338l0,0,19.041-22.359q.108.325.226.648l.005.015c.165.454.343.9.53,1.344l0,.006a18.6,18.6,0,0,0,3.064,5.1l.022.023c.091.1.181.189.271.274a6,6,0,0,0,2.161,1.338,5.485,5.485,0,0,0,1.534.3,5.584,5.584,0,0,0,.769-.015q.191-.017.38-.047a6.136,6.136,0,0,0,3.113-1.492,6.493,6.493,0,0,0,.566-.569,6.849,6.849,0,0,0,1.523-3,4.992,4.992,0,0,1,.741-1.575c.072-.109.147-.218.225-.328.2-.281.423-.566.658-.856s.46-.559.7-.844c.2-.233.4-.469.6-.707q.178-.21.355-.424c.182-.22.362-.441.538-.665q.227-.29.441-.586c.129-.177.255-.355.373-.534.167-.252.323-.507.463-.763a7.105,7.105,0,0,0,.519-1.169,4.116,4.116,0,0,0-.176-3.244,3.134,3.134,0,0,0-.22-.376c-.027-.04-.058-.075-.087-.113-.057-.076-.115-.153-.178-.223-.037-.042-.079-.08-.119-.12-.061-.061-.123-.122-.189-.179-.046-.039-.094-.075-.142-.112-.067-.052-.135-.1-.206-.15-.052-.035-.106-.068-.161-.1-.073-.044-.148-.086-.226-.127-.057-.03-.116-.059-.176-.087-.081-.038-.164-.073-.248-.108-.062-.025-.123-.05-.187-.073-.089-.032-.181-.062-.273-.091-.064-.02-.127-.041-.192-.059-.1-.028-.2-.053-.308-.077-.063-.015-.123-.03-.187-.044-.124-.026-.251-.048-.379-.069-.048-.008-.094-.018-.142-.025q-.267-.04-.544-.068c-.045,0-.093-.007-.139-.011-.141-.013-.283-.025-.429-.034l-.223-.01c-.121-.005-.242-.011-.365-.014l-.251,0c-.118,0-.235,0-.355,0l-.267,0-.354.01-.275.011-.169.007h.033c-1.479.077-3.043.274-4.552.492l6.292-7.389a6.224,6.224,0,0,1,3.473-2.086c.12-.027.24-.054.361-.074.07-.011.14-.018.209-.027.127-.017.254-.034.382-.043.059,0,.118,0,.177-.006.139-.006.279-.012.418-.009.02,0,.04,0,.06,0a6.4,6.4,0,0,1,1.548.242c.041.012.082.02.123.032.13.039.257.089.385.137.062.023.124.043.185.069.118.049.234.106.349.162a6.319,6.319,0,0,1,3.351,3.986c.013.046.024.093.036.139.036.138.068.276.094.416.009.045.018.089.026.135.026.156.045.313.06.471,0,.051.01.1.014.152.011.16.016.321.016.482,0,.051,0,.1,0,.153,0,.164-.014.328-.031.491,0,.042-.011.083-.016.125-.02.155-.044.31-.074.464-.006.031-.011.061-.018.091-.036.166-.08.331-.129.494-.012.041-.024.083-.037.124-.052.162-.112.321-.177.479-.017.042-.036.084-.054.126-.07.159-.145.315-.229.469-.019.034-.039.068-.058.1a6.411,6.411,0,0,1-.7,1,4.74,4.74,0,0,0-.3.392,4.828,4.828,0,0,0,1.649,6.962q.211.116.429.209a4.821,4.821,0,0,0,5.566-1.31h0a15.944,15.944,0,0,0,3.167-5.86h0a16.054,16.054,0,0,0,.627-3.627h0C1223.088,1092.132,1223.1,1091.846,1223.1,1091.559Z" transform="translate(449.026 2006.115)" fill="#3e302e" opacity="0.1"/>
      <g id="Group_5008" data-name="Group 5008" transform="translate(1608.269 3076.131)">
        <g id="Group_5005" data-name="Group 5005">
          <path id="Path_8181" data-name="Path 8181" d="M1158.546,1108.929a4.822,4.822,0,0,1-.545-6.8l33.432-39.259a16.045,16.045,0,0,1,24.432,20.806,4.822,4.822,0,1,1-7.343-6.253,6.4,6.4,0,0,0-9.746-8.3l-33.432,39.258A4.822,4.822,0,0,1,1158.546,1108.929Z" transform="translate(-1156.85 -1057.237)" fill="#009159"/>
        </g>
        <g id="Group_5006" data-name="Group 5006">
          <path id="Path_8182" data-name="Path 8182" d="M1158.546,1108.929a4.822,4.822,0,0,1-.545-6.8l33.432-39.259a16.045,16.045,0,0,1,24.432,20.806,4.822,4.822,0,1,1-7.343-6.253,6.4,6.4,0,0,0-9.746-8.3l-33.432,39.258A4.822,4.822,0,0,1,1158.546,1108.929Z" transform="translate(-1156.85 -1057.237)" fill="#fefefc"/>
        </g>
        <g id="Group_5007" data-name="Group 5007" transform="translate(1.313 0.001)">
          <path id="Path_8183" data-name="Path 8183" d="M1211.852,1136.831l4.884,9.141,3.785-4.445-4.884-9.141Z" transform="translate(-1196.712 -1109.908)" fill="#e22b3d"/>
          <path id="Path_8184" data-name="Path 8184" d="M1237.16,1107.114l4.884,9.141,3.785-4.445-4.884-9.141Z" transform="translate(-1214.449 -1089.08)" fill="#e22b3d"/>
          <path id="Path_8185" data-name="Path 8185" d="M1267.351,1083.813l-4.884-9.141,2.989-3.51a16.077,16.077,0,0,1,2.16-2.1l3.52,10.3Z" transform="translate(-1232.186 -1065.528)" fill="#e22b3d"/>
          <path id="Path_8186" data-name="Path 8186" d="M1165.023,1191.822l-3.785,4.445,4.312,8.071a4.8,4.8,0,0,0,2.869-1.628l1.488-1.747Z" transform="translate(-1161.238 -1151.565)" fill="#e22b3d"/>
          <path id="Path_8187" data-name="Path 8187" d="M1186.545,1166.549l4.884,9.141,3.785-4.445-4.884-9.141Z" transform="translate(-1178.975 -1130.737)" fill="#e22b3d"/>
          <path id="Path_8188" data-name="Path 8188" d="M1312.442,1059.084l-4.51,8.523a6.416,6.416,0,0,0-4.535-.529l-1.984-9.439A16.08,16.08,0,0,1,1312.442,1059.084Z" transform="translate(-1259.482 -1057.242)" fill="#e22b3d"/>
          <path id="Path_8189" data-name="Path 8189" d="M1341.49,1097.88l-9.916-1.215a6.415,6.415,0,0,0,.572-5.44l8.153-5.364A16.134,16.134,0,0,1,1341.49,1097.88Z" transform="translate(-1280.621 -1077.3)" fill="#e22b3d"/>
        </g>
        <path id="Path_8190" data-name="Path 8190" d="M1209.068,1101.344a4.823,4.823,0,0,1-.545-6.8,6.4,6.4,0,0,0-9.746-8.3l-33.432,39.258a4.822,4.822,0,0,1-8.493-3.161,4.069,4.069,0,0,0,5.689,1.846c3.994-1.86,15.193-16.929,23.435-26.812s10.625-15.263,16.249-15.683a9.1,9.1,0,0,1,9.963,8.08c.281,4.291-3.947,7.229-1.5,9.839a4.393,4.393,0,0,0,5.174,1.186A4.823,4.823,0,0,1,1209.068,1101.344Z" transform="translate(-1156.852 -1074.358)" fill="#3e302e" opacity="0.1" style="mix-blend-mode: multiply;isolation: isolate"/>
        <path id="Path_8191" data-name="Path 8191" d="M1170.2,1098.793l30.589-35.921a16.038,16.038,0,0,1,28.227,11.319l0,0a1.939,1.939,0,0,1-1.958,1.189c-1.343-.233-2.459-2.007-2.349-5.755s-3.1-8.825-9.794-9.425-9.763,2.8-13.363,7.026C1185.924,1085.576,1174.626,1102.563,1170.2,1098.793Z" transform="translate(-1166.206 -1057.237)" fill="#f4f5f5" opacity="0.2"/>
      </g>
      <g id="Group_5011" data-name="Group 5011" transform="translate(1617.222 3078.272)">
        <g id="Group_5010" data-name="Group 5010" transform="translate(0 0)">
          <path id="Path_8192" data-name="Path 8192" d="M1206.292,1079.753c.092-3.755-.01-12.988-4.49-15.06s-15.584,7.1-15,13.3,9.319,8.341,16.073,6.869C1206.613,1084.048,1206.256,1081.23,1206.292,1079.753Z" transform="translate(-1186.778 -1064.394)" fill="#ed2238"/>
          <path id="Path_8193" data-name="Path 8193" d="M1186.852,1098.394c.583,6.2,9.319,8.341,16.073,6.869a4.668,4.668,0,0,0,2.315-1.121l1-2.62s-1.327-7.779-3.783-8.012-1.436,4.168-4.086,1.416-5.451-.459-4.619,3.268S1189.133,1103.511,1186.852,1098.394Z" transform="translate(-1186.83 -1084.795)" fill="#d61f32"/>
          <path id="Path_8194" data-name="Path 8194" d="M1186.8,1077.993c.486,5.174,6.643,7.517,12.591,7.3-.41-.017-5.575-.291-3.04-2.987,2.639-2.806-5.48-5.043-3.456-9.7s8.906-7.909,8.906-7.909C1197.322,1062.621,1186.217,1071.789,1186.8,1077.993Z" transform="translate(-1186.778 -1064.394)" fill="#ec5665" opacity="0.4"/>
          <path id="Path_8195" data-name="Path 8195" d="M1248.447,1121.22c4.576-.048,15.62-3.466,17.8.974s-4.693,8.452-5.441,11.693c-1.08,4.686-6.474,6.872-10.047,3.484S1242.659,1121.28,1248.447,1121.22Z" transform="translate(-1228.059 -1103.309)" fill="#ed2238"/>
          <path id="Path_8196" data-name="Path 8196" d="M1254.643,1135.618c1.624-1.325-.315-2.7-.244-4.264s5.322-1.244,4.075-3.914-8.256-2.087-8.256-2.087a3.4,3.4,0,0,0-3.6,0c-2.116,2.08-.324,8.449,2.024,12.58C1250.182,1132.46,1253.019,1136.943,1254.643,1135.618Z" transform="translate(-1228.061 -1106.759)" fill="#d61f32"/>
          <path id="Path_8197" data-name="Path 8197" d="M1252.973,1127.528s7.492,1.687,7.289,3.055-2.922.7-3.378,1.626,2.223,3.947.858,4.425-6.852-6.694-6.7-7.912S1252.973,1127.528,1252.973,1127.528Z" transform="translate(-1231.816 -1108.642)" fill="#bc202d"/>
          <path id="Path_8198" data-name="Path 8198" d="M1229.713,1106.464s-1.849-7.88-3.42-7,.368,3.079-.6,3.572-3.357-2.093-4.249-.867,2.69,4.011,5.3,5.663S1230.274,1107.839,1229.713,1106.464Z" transform="translate(-1210.974 -1088.927)" fill="#bc202d"/>
          <path id="Path_8199" data-name="Path 8199" d="M1235.684,1126.325s1.81,2.92,1.116,3.769-3.315-5.767-4.53-6.515-4.457-.109-5.442-1.848,4.6-.578,6.413,1.525A33.994,33.994,0,0,1,1235.684,1126.325Z" transform="translate(-1214.766 -1103.987)" fill="#bc202d"/>
          <path id="Path_8200" data-name="Path 8200" d="M1240.537,1117.836c1.326-1.229,2.069-2.644,2.772-1.59s2.422.739,2.792,2.172-2.261,3.884-3.36,4.465-1.628-1.8-2.572-1.694S1238.029,1120.161,1240.537,1117.836Z" transform="translate(-1223.407 -1100.476)" fill="#ed2238"/>
          <path id="Path_8201" data-name="Path 8201" d="M1272.128,1124.259c.092-1.164,7.674-2.075,8.255-1S1271.976,1126.176,1272.128,1124.259Z" transform="translate(-1246.595 -1105.314)" fill="#ec5665"/>
          <path id="Path_8202" data-name="Path 8202" d="M1271.381,1133.887c.747-3.242,7.623-7.253,5.441-11.693-.988-2.01-3.792-2.41-6.991-2.24,1.311-.017,3.922.285,4.284,2.915.486,3.532-4.483,3.519-4.578,7.91s-4.7,8.591-8.773,5.982a7.615,7.615,0,0,0,.571.611C1264.907,1140.759,1270.3,1138.573,1271.381,1133.887Z" transform="translate(-1238.632 -1103.309)" fill="#ec5665" opacity="0.4"/>
          <path id="Path_8203" data-name="Path 8203" d="M1248.557,1118.35c1.011.511.338,1.919-.661,2.8a7.4,7.4,0,0,1-2.916,1.2c.6.6,1.1,1.823,1.924,1.389,1.1-.581,3.73-3.032,3.36-4.465s-2.088-1.117-2.792-2.171A1.771,1.771,0,0,0,1248.557,1118.35Z" transform="translate(-1227.57 -1101.341)" fill="#d61f32"/>
          <g id="Group_5009" data-name="Group 5009" transform="translate(17.031 16.209)">
            <path id="Path_8204" data-name="Path 8204" d="M1246.863,1120.328c.453.194,1.707-1.322,1.362-1.653C1247.657,1118.129,1246.41,1120.134,1246.863,1120.328Z" transform="translate(-1245.853 -1118.581)" fill="#ec5665"/>
            <path id="Path_8205" data-name="Path 8205" d="M1243.8,1125.944c-.325-.261.3-1.107.659-.82C1244.875,1125.456,1244.062,1126.151,1243.8,1125.944Z" transform="translate(-1243.713 -1123.125)" fill="#ec5665"/>
          </g>
        </g>
      </g>
    </g>
  </g>
</svg>
