<svg xmlns="http://www.w3.org/2000/svg" width="97.404" height="255.3" viewBox="0 0 97.404 255.3">
  <g id="Group_5598" data-name="Group 5598" transform="translate(-3507.297 -905)">
    <g id="Group_5596" data-name="Group 5596" transform="translate(1879 -3)">
      <rect id="Rectangle_673" data-name="Rectangle 673" width="3" height="13" transform="translate(1667 908)" fill="#fff"/>
      <rect id="Rectangle_677" data-name="Rectangle 677" width="3" height="14" transform="translate(1667 962)" fill="#fff"/>
      <rect id="Rectangle_681" data-name="Rectangle 681" width="3" height="13" transform="translate(1667 1017)" fill="#fff"/>
      <rect id="Rectangle_685" data-name="Rectangle 685" width="3" height="14" transform="translate(1667 1071)" fill="#fff"/>
      <rect id="Rectangle_675" data-name="Rectangle 675" width="3" height="14" transform="translate(1667 935)" fill="#fff"/>
      <rect id="Rectangle_679" data-name="Rectangle 679" width="3" height="14" transform="translate(1667 989)" fill="#fff"/>
      <rect id="Rectangle_683" data-name="Rectangle 683" width="3" height="14" transform="translate(1667 1044)" fill="#fff"/>
      <rect id="Rectangle_674" data-name="Rectangle 674" width="3" height="14" transform="translate(1667 921)" fill="#e22b3d"/>
      <rect id="Rectangle_678" data-name="Rectangle 678" width="3" height="13" transform="translate(1667 976)" fill="#e22b3d"/>
      <rect id="Rectangle_682" data-name="Rectangle 682" width="3" height="14" transform="translate(1667 1030)" fill="#e22b3d"/>
      <rect id="Rectangle_676" data-name="Rectangle 676" width="3" height="13" transform="translate(1667 949)" fill="#e22b3d"/>
      <rect id="Rectangle_680" data-name="Rectangle 680" width="3" height="14" transform="translate(1667 1003)" fill="#e22b3d"/>
      <rect id="Rectangle_684" data-name="Rectangle 684" width="3" height="13" transform="translate(1667 1058)" fill="#e22b3d"/>
    </g>
    <g id="Group_5576" data-name="Group 5576" transform="matrix(-0.602, -0.799, 0.799, -0.602, 2585.25, 4567.438)">
      <path id="Path_8889" data-name="Path 8889" d="M1990.625,1215.282h0v0q-.2-.27-.42-.529l-.053-.062q-.192-.228-.394-.447l-.091-.1q-.187-.2-.381-.39l-.123-.12q-.183-.175-.374-.344c-.05-.045-.1-.089-.151-.133q-.183-.158-.373-.309c-.057-.046-.114-.092-.171-.138-.125-.1-.253-.191-.382-.284-.062-.045-.122-.09-.185-.134-.135-.094-.274-.185-.414-.275-.058-.037-.114-.077-.173-.113-.2-.124-.4-.244-.608-.359a13.934,13.934,0,0,0-2.285-1.01,13.675,13.675,0,0,0-3.148-.666,13.91,13.91,0,0,0-6.915,1.154,2.132,2.132,0,0,1-.622.172,1.9,1.9,0,0,1-.661-.036,2.1,2.1,0,0,1-1.378-1.034,1.99,1.99,0,0,1-.231-.69c-.006-.043-.009-.087-.012-.131s-.005-.1,0-.15,0-.084,0-.126c0-.06.012-.12.022-.18.006-.035.009-.069.017-.1a2.133,2.133,0,0,1,.082-.292q.174-.478.379-.951c.007-.015.015-.03.021-.045.118-.269.245-.536.379-.8.043-.085.089-.169.133-.253q.162-.306.339-.6c.048-.082.1-.165.147-.246.168-.27.342-.537.531-.8,4.11-5.667,8.066-9.977,6.671-13.337q-.066-.159-.143-.317c-.014-.029-.031-.057-.045-.086l-.021-.04-.049-.1c-.017-.031-.032-.062-.049-.093s-.037-.061-.055-.092c-.042-.073-.085-.145-.13-.217l-.018-.027c-.012-.019-.026-.038-.039-.057-.048-.073-.1-.147-.149-.219-.018-.025-.038-.05-.056-.075l-.066-.088-.05-.065-.052-.067c-.019-.023-.039-.046-.058-.069-.06-.073-.121-.145-.184-.216l-.044-.047-.061-.065c-.051-.054-.1-.108-.153-.161l-.071-.068c-.051-.049-.1-.1-.153-.147l0,0-.047-.041-.013-.012h0l0,0c-.117-.1-.239-.2-.364-.3l-.073-.056c-.146-.11-.3-.216-.451-.314l-.024-.014c-.151-.095-.306-.182-.465-.264l-.042-.024,0,0a5.841,5.841,0,0,0-1.492-.523h0l-.02,0c-.075-.015-.151-.026-.227-.038-.049-.008-.1-.016-.147-.022-.073-.009-.148-.015-.222-.022-.053,0-.105-.009-.159-.012-.073,0-.145-.005-.219-.006-.056,0-.113,0-.17,0s-.143.005-.215.01-.119.007-.178.013-.142.015-.213.025-.124.017-.185.027-.14.026-.211.041-.128.028-.192.044-.138.036-.208.056-.132.04-.2.062-.137.046-.206.072-.136.053-.2.081-.135.056-.2.087-.14.067-.209.1-.132.066-.2.1-.143.082-.215.124-.129.076-.194.117-.147.1-.221.149-.125.085-.188.131-.152.117-.228.177c-.06.047-.12.093-.18.143-.08.067-.16.14-.24.212-.056.05-.112.1-.167.15-.089.084-.178.175-.267.266-.046.046-.092.089-.137.138q-.2.213-.4.448c-4.371,5.154-5.544,12.255-6.059,12.821-.129.141-1.036-.41-2.379-1.368-.336-.239-.7-.5-1.083-.79-.962-.714-2.061-1.56-3.212-2.466-.461-.362-.93-.735-1.4-1.113-.944-.755-1.9-1.532-2.828-2.294s-1.822-1.51-2.645-2.207c-.411-.349-.8-.685-1.174-1-.923-.8-1.7-1.489-2.243-2l-.056-.053-.219-.207-.112-.107-.231-.217-.1-.1-.32-.3-.108-.1-.246-.228-.131-.12-.314-.286-.112-.1-.3-.267-.152-.134-.258-.226-.144-.125q-.184-.159-.372-.318l-.16-.134-.254-.211-.179-.147-.317-.255-.21-.165c-.1-.075-.191-.149-.288-.223l-.194-.147-.258-.192-.184-.135q-.2-.144-.4-.283l-.2-.134-.255-.172c-.069-.046-.137-.091-.206-.136-.106-.069-.213-.136-.32-.2-.086-.054-.171-.106-.257-.158s-.187-.111-.28-.166l-.21-.119-.263-.144-.2-.1c-.136-.07-.271-.137-.407-.2-.067-.032-.134-.062-.2-.093-.086-.039-.173-.078-.259-.114-.068-.029-.136-.058-.2-.086q-.177-.071-.354-.135c-.074-.027-.147-.051-.221-.076-.1-.031-.19-.062-.285-.09-.066-.02-.132-.038-.2-.056-.093-.025-.184-.048-.276-.069-.057-.013-.114-.028-.171-.04-.122-.025-.243-.047-.364-.065l.009,0a4.287,4.287,0,0,0-4.125,1.464,4.855,4.855,0,0,0-.847,5.556h0q.087.193.186.386l0,.009c.134.258.284.513.448.767l.008.011c1.941,2.98,5.887,5.653,8.474,7.455l.012.008.294.206.195.137.1.074.186.132.074.053.24.174.057.042.179.133.062.047c.073.055.143.109.209.16,2.316,1.813,3.07,3.287,3.1,4.459a2.8,2.8,0,0,1-.053.609,3.052,3.052,0,0,1-.285.8c-.044.087-.094.173-.148.257-.017.026-.036.051-.053.077-.039.057-.079.115-.123.171-.023.029-.048.058-.073.086-.043.05-.087.1-.134.149-.028.029-.059.057-.088.084-.049.046-.1.091-.153.134-.033.027-.067.053-.1.078q-.085.063-.177.12c-.037.023-.074.046-.113.068-.067.038-.138.073-.21.107-.039.019-.078.038-.119.055-.082.034-.169.065-.258.094-.038.013-.074.027-.114.039-.114.033-.235.062-.36.087a8.96,8.96,0,0,1-4.156-.428c-4.106-1.2-16.333-7.032-18.234.9a4.21,4.21,0,0,0,.21,2.748l-.017-.021c.019.043.042.085.062.127s.047.1.072.147c.047.089.1.177.15.263.024.04.047.081.073.121.08.124.166.246.259.364l.022.026c.087.11.18.218.277.323.035.038.073.075.109.113.073.075.148.149.226.223.044.041.089.081.133.121q.117.1.239.2c.047.038.093.076.141.114.091.071.185.14.28.209.041.03.081.06.122.089q.207.144.425.281l.08.048c.122.075.246.148.373.22.054.031.11.06.165.091q.154.085.312.166l.184.093c.105.052.212.1.32.154l.182.085c.123.056.248.111.374.165l.139.06q.257.109.521.211l.131.049q.2.077.406.151l.2.07.352.121.208.069q.179.059.359.115l.195.061q.213.065.425.127l.127.037q.274.079.548.153l.158.042.394.1.2.051.348.086.207.05.349.082.187.043.426.1.093.021.5.108.163.034.334.069.19.038.289.058.193.038.263.051.2.039.161.031.225.044c.294.057.633.127,1.009.21l.289.064c.494.11,1.044.239,1.637.382l.361.088c.366.089.747.183,1.139.282l.4.1.813.208.416.107c1.535.4,3.176.84,4.784,1.29q.658.184,1.3.369c.718.2,1.421.41,2.1.61l.4.12c.663.2,1.3.393,1.884.58l.348.111c1.369.439,2.471.828,3.122,1.119l.153.071c.287.137.458.249.49.33a.064.064,0,0,1,0,.038.73.73,0,0,1-.086.191c-.047.08-.11.176-.189.288s-.173.239-.28.381c-.321.427-.761.987-1.263,1.662q-.126.169-.256.347a32.312,32.312,0,0,0-3.876,6.693c-.02.049-.04.1-.06.148-.063.158-.126.317-.186.478q-.038.1-.076.205-.081.219-.156.443c-.025.074-.051.148-.075.222-.05.153-.1.307-.144.462-.021.068-.042.136-.062.2-.064.222-.125.445-.182.671-.048.193-.09.382-.126.569-.012.061-.021.12-.031.18-.022.123-.043.247-.06.367,0,.021-.008.044-.01.065-.006.048-.009.094-.014.142-.013.109-.024.216-.033.321-.005.07-.01.139-.014.208-.006.1-.009.2-.012.3,0,.037,0,.076,0,.113s0,.058,0,.088c0,.1,0,.2.008.292,0,.062.005.124.01.185.007.1.018.2.029.3.006.051.01.1.017.153.019.136.042.269.068.4,0,.011,0,.023.006.034h0a5.634,5.634,0,0,0,.6,1.6,5.31,5.31,0,0,0,.7.969,5.639,5.639,0,0,0,1.182.985q.162.1.329.193a6.361,6.361,0,0,0,.688.322,6.732,6.732,0,0,0,.716.239,6.943,6.943,0,0,0,1.83.245,6.266,6.266,0,0,0,1.4-.156,3.764,3.764,0,0,0,.369-.108c.038-.013.075-.029.112-.043.083-.031.165-.066.245-.1.04-.019.08-.038.12-.058q.118-.061.233-.13c.034-.021.069-.04.1-.062.1-.067.206-.137.3-.214l.012-.008c.1-.081.2-.168.3-.26.029-.027.057-.056.087-.084.07-.068.139-.137.206-.21.032-.034.064-.07.1-.106q.1-.112.195-.231c.027-.034.055-.067.082-.1.085-.109.169-.222.25-.34l.013-.018c.087-.126.172-.258.256-.394l.066-.11c.061-.1.122-.206.181-.313l.076-.137q.087-.161.172-.327l.066-.129c.074-.149.147-.3.219-.457l.007-.015c.077-.167.152-.339.227-.514.016-.037.032-.076.048-.114q.087-.206.172-.418c.02-.05.04-.1.06-.152q.082-.207.163-.421l.053-.139c.8-2.148,1.543-4.732,2.456-7.472q.168-.505.375-.991a15.774,15.774,0,0,1,1.505-2.73,2.138,2.138,0,0,1,.228-.279c.026-.026.053-.048.08-.073a2.043,2.043,0,0,1,.179-.152l.016-.011c.027-.019.054-.036.081-.054a2.092,2.092,0,0,1,.2-.113l.093-.044a1.982,1.982,0,0,1,.231-.083c.023-.007.046-.015.069-.021a2.007,2.007,0,0,1,.3-.053l.033,0a2.128,2.128,0,0,1,.976.145h0c.05.02.1.039.148.063.029.014.057.032.085.048.051.028.1.057.151.09.03.02.059.043.088.065.045.033.088.068.129.106s.055.052.082.078.077.081.113.124.049.059.072.09c.034.046.066.1.1.146.019.032.039.063.057.1.031.057.057.119.083.18.012.03.027.059.038.09a2.142,2.142,0,0,1,.085.3,13.8,13.8,0,0,0,7.229,9.569c.28.144.563.273.847.4.078.034.156.066.234.1q.358.147.72.273c.052.018.1.038.156.055.287.1.576.18.866.256.07.018.141.034.212.052q.355.086.712.154c.071.013.142.028.213.041.294.05.588.093.882.124.046,0,.093.007.139.012q.383.037.766.052l.227.008a13.842,13.842,0,0,0,1.777-.073l.211-.025q.383-.046.762-.113l.127-.021q.439-.083.872-.194c.054-.014.108-.029.162-.044q.367-.1.729-.216l.168-.054c.285-.1.567-.2.845-.318l.066-.029c.255-.107.505-.223.754-.345l.17-.085a13.98,13.98,0,0,0,1.558-.924c.05-.034.1-.069.149-.1q.332-.233.651-.487c.021-.016.043-.031.064-.047l-.006,0a14.016,14.016,0,0,0,2.416-19.355Z" transform="translate(221.407 1646.428)" fill="#3e302e" opacity="0.1"/>
      <g id="Group_5318" data-name="Group 5318" transform="translate(2139.188 2822.639)">
        <g id="Group_5031" data-name="Group 5031" transform="translate(0 0)">
          <path id="Path_8231" data-name="Path 8231" d="M1976.384,1173.193c1.4,3.36-2.561,7.67-6.671,13.337a15.124,15.124,0,0,0-1.93,3.7,2.056,2.056,0,0,0,2.783,2.572,13.8,13.8,0,0,1,12.349.522,13.973,13.973,0,0,1-13.153,24.65,13.807,13.807,0,0,1-7.229-9.569,2.053,2.053,0,0,0-3.706-.736,15.127,15.127,0,0,0-1.88,3.721c-2.211,6.642-3.41,12.37-6.953,13.192s-8.917-1.561-7.275-8.118,6.731-11.645,6.89-12.394-15.94-5.169-20.647-6.077-14.686-2.835-13.262-8.777c1.9-7.934,14.128-2.105,18.233-.9s5.7.136,6.379-1.178.612-3.235-2.758-5.872-15.228-9.183-9.887-15.349c4-4.619,11.378,2.372,14.858,5.67s16.449,13.813,16.965,13.247,1.688-7.666,6.06-12.821S1974.989,1169.833,1976.384,1173.193Z" transform="translate(-1915.563 -1164.379)" fill="#c18a38"/>
          <path id="Path_8232" data-name="Path 8232" d="M1976.384,1173.193c1.4,3.36-2.561,7.67-6.671,13.337a15.124,15.124,0,0,0-1.93,3.7,2.056,2.056,0,0,0,2.783,2.572,13.8,13.8,0,0,1,12.349.522,13.973,13.973,0,0,1-13.153,24.65,13.807,13.807,0,0,1-7.229-9.569,2.053,2.053,0,0,0-3.706-.736,15.127,15.127,0,0,0-1.88,3.721c-2.211,6.642-3.41,12.37-6.953,13.192s-8.917-1.561-7.275-8.118,6.731-11.645,6.89-12.394-15.94-5.169-20.647-6.077-14.686-2.835-13.262-8.777c1.9-7.934,14.128-2.105,18.233-.9s5.7.136,6.379-1.178.612-3.235-2.758-5.872-15.228-9.183-9.887-15.349c4-4.619,11.378,2.372,14.858,5.67s16.449,13.813,16.965,13.247,1.688-7.666,6.06-12.821S1974.989,1169.833,1976.384,1173.193Z" transform="translate(-1915.563 -1164.379)" fill="#d4a563"/>
          <path id="Path_8233" data-name="Path 8233" d="M1959.428,1193.618c1.815,1.235,3.543,3.394,2.765,6.052a2.926,2.926,0,0,1-3.322,2.192h0a3,3,0,0,0,2.272-1.618c.675-1.315.611-3.235-2.758-5.872-2.355-1.843-8.855-5.6-10.734-9.794h0C1951.06,1189.38,1957.612,1192.384,1959.428,1193.618Z" transform="translate(-1936.393 -1177.491)" fill="#c18a38"/>
          <path id="Path_8234" data-name="Path 8234" d="M1916.505,1242.93c.845,1.153,2.815,2.086,8.322,3.481s17.222,4.279,19.41,4.837,7.075,1.407,7.064,3.327-1.93,3.539-4.9,7.865a19.015,19.015,0,0,0-3.229,8.729,8.252,8.252,0,0,1,.162-3.717c1.643-6.556,6.73-11.645,6.89-12.394s-15.94-5.169-20.647-6.078C1925.677,1248.23,1918.167,1246.779,1916.505,1242.93Z" transform="translate(-1916.174 -1215.37)" fill="#c18a38"/>
          <path id="Path_8235" data-name="Path 8235" d="M2024.868,1253.373a2.04,2.04,0,0,1,2.477-.739c.688-.746.917-2.323.9-4.13-.019-2.632.546-3.583,2.605-5.846,3.623-3.982,2.091-.141,3.142-.782a18.951,18.951,0,0,1,10.183-2.993c4.286-.122,8.935,3.762,9.07,3.883a13.648,13.648,0,0,0-4.3-3.736,13.8,13.8,0,0,0-12.349-.522,2.056,2.056,0,0,1-2.783-2.572q.175-.477.379-.95l0,0c-1.2-.5-1.335-.42-5.569,5.212a36.086,36.086,0,0,0-5.691,11.082l-5.644,4.276s3.329,2.086,5.27,1.847a1.556,1.556,0,0,0,.35-.085l.073-.221A15.129,15.129,0,0,1,2024.868,1253.373Z" transform="translate(-1981.602 -1210.087)" fill="#c18a38"/>
          <path id="Path_8236" data-name="Path 8236" d="M1921.018,1234.349c.981-.134,2.363-6.193,2.582-7.655.246-1.648-.687-2.166-2.019-1.981s-3.536-.269-5.048,3.259S1919.885,1234.5,1921.018,1234.349Z" transform="translate(-1916.005 -1203.521)" fill="#ed2238"/>
          <path id="Path_8237" data-name="Path 8237" d="M1928.546,1235.272a1.1,1.1,0,1,1-1.478.48A1.1,1.1,0,0,1,1928.546,1235.272Z" transform="translate(-1922.951 -1210.321)" fill="#d61f32" opacity="0.6" style="mix-blend-mode: multiply;isolation: isolate"/>
          <path id="Path_8238" data-name="Path 8238" d="M1955.689,1167.178c.462.875-3.657,5.529-4.718,6.558-1.2,1.16-1.958.57-2.786-.488-.815-1.04-2.278-2.719-.292-6S1955.155,1166.167,1955.689,1167.178Z" transform="translate(-1935.904 -1165.114)" fill="#ed2238"/>
          <ellipse id="Ellipse_67" data-name="Ellipse 67" cx="10.64" cy="11.826" rx="10.64" ry="11.826" transform="translate(48.088 50.84) rotate(-81.574)" fill="#f4f5f5" opacity="0.2"/>
          <path id="Path_8239" data-name="Path 8239" d="M2078.935,1277.814a1.831,1.831,0,1,0-.821-2.456A1.832,1.832,0,0,0,2078.935,1277.814Z" transform="translate(-2020.958 -1235.763)" fill="#c18a38"/>
          <path id="Path_8240" data-name="Path 8240" d="M2080.02,1278.355a1.831,1.831,0,1,0-.821-2.456A1.831,1.831,0,0,0,2080.02,1278.355Z" transform="translate(-2021.662 -1236.114)" fill="#ed2238"/>
          <ellipse id="Ellipse_68" data-name="Ellipse 68" cx="3.205" cy="4.344" rx="3.205" ry="4.344" transform="translate(52.731 7.175) rotate(-24.147)" fill="#dcbc9d" opacity="0.1"/>
          <g id="Group_5021" data-name="Group 5021" transform="translate(59.749 47.425)" opacity="0.4" style="mix-blend-mode: multiply;isolation: isolate">
            <path id="Path_8241" data-name="Path 8241" d="M2085.939,1303.773a.685.685,0,0,0-.024.581.678.678,0,0,0,.888.364,5.25,5.25,0,0,0,2.946-4.431.68.68,0,0,0-.625-.735.688.688,0,0,0-.736.632,3.879,3.879,0,0,1-2.111,3.27A.689.689,0,0,0,2085.939,1303.773Z" transform="translate(-2085.862 -1299.55)" fill="#c18a38"/>
          </g>
          <g id="Group_5022" data-name="Group 5022" transform="translate(66.846 34.225)" opacity="0.4" style="mix-blend-mode: multiply;isolation: isolate">
            <path id="Path_8242" data-name="Path 8242" d="M2107.822,1262.3a.684.684,0,0,0-.06.464,3.877,3.877,0,0,1-1.428,3.62.689.689,0,0,0-.086.966.68.68,0,0,0,.962.081,5.249,5.249,0,0,0,1.885-4.976.678.678,0,0,0-.817-.511A.687.687,0,0,0,2107.822,1262.3Z" transform="translate(-2106.09 -1261.929)" fill="#c18a38"/>
          </g>
          <g id="Group_5023" data-name="Group 5023" transform="translate(52.946 32.807)" opacity="0.4" style="mix-blend-mode: multiply;isolation: isolate">
            <path id="Path_8243" data-name="Path 8243" d="M2068.06,1262.6a14.9,14.9,0,0,0-1.588,6.6.679.679,0,0,0,.7.662.689.689,0,0,0,.663-.708h0c0-.067-.109-6.7,5.129-10.01a.688.688,0,0,0,.218-.945.679.679,0,0,0-.94-.214A11.679,11.679,0,0,0,2068.06,1262.6Z" transform="translate(-2066.471 -1257.885)" fill="#c18a38"/>
          </g>
          <path id="Path_8244" data-name="Path 8244" d="M2076.713,1293.98a1.844,1.844,0,1,1-2.471.8A1.838,1.838,0,0,1,2076.713,1293.98Z" transform="translate(-2018.436 -1248.379)" fill="#c18a38"/>
          <path id="Path_8245" data-name="Path 8245" d="M2092.855,1262.55a1.844,1.844,0,1,0-.787-2.477A1.837,1.837,0,0,0,2092.855,1262.55Z" transform="translate(-2030.008 -1225.846)" fill="#c18a38"/>
          <path id="Path_8246" data-name="Path 8246" d="M2065.643,1293.684a13.824,13.824,0,0,1-22.266-8.008,2.056,2.056,0,0,0-3.278-1.2h0a2.14,2.14,0,0,1,1.957-1.043c2.377.318,2.338,1.944,3.326,4.692,1.594,4.434,7.877,7.591,10.9,7.813C2059.938,1296.208,2065.638,1293.686,2065.643,1293.684Z" transform="translate(-1996.405 -1241.653)" fill="#f4f5f5" opacity="0.2"/>
          <g id="Group_5024" data-name="Group 5024" transform="translate(16.221 0.064)">
            <path id="Path_8247" data-name="Path 8247" d="M1993.69,1177.9c-2.487,7.18-2.3,8.686-4.094,8.871s-18.972-15.569-21.195-17.664-3.567-3.343-6.6-4.549c3.805.565,8.263,4.787,10.742,7.137,3.48,3.3,16.449,13.813,16.965,13.247s1.688-7.666,6.06-12.821c2.073-2.444,4.3-3.058,6.221-2.671C2001.776,1169.457,1996.175,1170.73,1993.69,1177.9Z" transform="translate(-1961.797 -1164.562)" fill="#c18a38" opacity="0.6" style="mix-blend-mode: multiply;isolation: isolate"/>
          </g>
          <g id="Group_5025" data-name="Group 5025" transform="translate(54.332 28.596)">
            <path id="Path_8248" data-name="Path 8248" d="M2070.42,1245.884h0Z" transform="translate(-2070.42 -1245.884)" fill="#dcbc9d"/>
          </g>
          <path id="Path_8249" data-name="Path 8249" d="M2072.418,1183.327c1.4,3.36-2.561,7.67-6.671,13.337a15.124,15.124,0,0,0-1.93,3.7,2.042,2.042,0,0,0-.106,1.014s-.688-1.22.421-3.671,4.541-6.965,6.261-10.074c1.394-2.519,1.754-4.929-1.1-7.64A6.772,6.772,0,0,1,2072.418,1183.327Z" transform="translate(-2011.596 -1174.512)" fill="#dcbc9d" opacity="0.8" style="mix-blend-mode: soft-light;isolation: isolate"/>
          <path id="Path_8250" data-name="Path 8250" d="M2073.7,1185.121c1.4,3.36-2.561,7.67-6.671,13.337a14.524,14.524,0,0,0-1.552,2.749l0,0a10.261,10.261,0,0,1,1.544-3.007c1.342-2.029,5.784-7.953,6.3-10.859a5.144,5.144,0,0,0-1.333-4.583h0A6.657,6.657,0,0,1,2073.7,1185.121Z" transform="translate(-2012.879 -1176.307)" fill="#dcbc9d" opacity="0.5"/>
          <path id="Path_8251" data-name="Path 8251" d="M1989.652,1196.726a12.6,12.6,0,0,1,3.875,3.368c.313.569-.46,1.37-1.634,3.606s-.218,2.9-.637,3.529c-.263.4-2.042,2.255-3.334,3.588a6.477,6.477,0,0,0-1.718,3.33c-.338,1.824-.821,4.347-.989,4.79-.268.708-1.363.317-2.5,2.574s-1.334,3.352-1.979,3.428a12.587,12.587,0,0,1-4.994-1.189c-1.944-.923-3.4-1.52-3.338-2.224s2.434-3.023,2.155-3.77-2.03-1.546-3.755-2.055-11.3-2.9-12.9-3.345-4.275-.8-4.762-1.238,2.356-9.551,3.559-9.046,6.767,2.572,8.509-.819c1.72-3.35-3.157-6.7-4.268-7.384s4.639-8.3,5.279-8.162,2.48,2.105,3.781,3.151,8.815,7.436,10.233,8.543,3.089,2.065,3.858,1.856,1.272-3.487,1.809-3.948S1987.77,1195.683,1989.652,1196.726Z" transform="translate(-1939.921 -1178.222)" fill="#ed2238"/>
          <path id="Path_8252" data-name="Path 8252" d="M1982.719,1259.084c1.134-2.257,2.229-1.865,2.5-2.574.168-.443.651-2.967.988-4.79a6.478,6.478,0,0,1,1.718-3.33c1.292-1.334,3.071-3.193,3.334-3.588.21-.316.075-.641.036-1.168-.053-.015-.1-.031-.158-.045,0,0-6.2-.348-7.542,5.464s-3.166,7.287-4.678,6.778,1.873-4.347-2.916-6.229-15.393-2.3-19.218-4.634a24.748,24.748,0,0,0-2.414-1.372c-.839,2.332-1.474,4.868-1.223,5.094.487.439,3.156.791,4.762,1.239s11.177,2.836,12.9,3.345,3.477,1.308,3.755,2.055-2.093,3.066-2.155,3.77,1.393,1.3,3.338,2.224a12.588,12.588,0,0,0,4.994,1.189C1981.385,1262.436,1981.585,1261.341,1982.719,1259.084Z" transform="translate(-1939.921 -1215.796)" fill="#d61f32"/>
          <path id="Path_8253" data-name="Path 8253" d="M2035.366,1243.244c-.75-.109-1.358-.772-2.078-1-1.454-.476-1.77.9-1.466,2.057h0c.167.838.5,1.753.664,2.415-.335.171-.171.616-.4.865h0a.173.173,0,0,0-.058.18c-.628.276-1.609.572-2.415.959h0c-.868.365-1.9,1.241-1.059,2.162a6.679,6.679,0,0,0,1.9.981,1.414,1.414,0,0,1,.45.323,1.625,1.625,0,0,0,2,.442c1.335-.74.965-3.042.562-4.265.167-.141-.009-.323.106-.481.061-.1.144-.181.21-.275a4.977,4.977,0,0,0,3.079-2.3A1.591,1.591,0,0,0,2035.366,1243.244Z" transform="translate(-1988.712 -1214.861)" fill="#d61f32" opacity="0.6" style="mix-blend-mode: multiply;isolation: isolate"/>
          <path id="Path_8254" data-name="Path 8254" d="M2037.052,1243.431c-.784-.114-1.42-.808-2.175-1.048-1.522-.5-1.852.94-1.534,2.153h0c.175.876.521,1.834.7,2.527-.351.179-.179.645-.414.906h0a.182.182,0,0,0-.062.188c-.657.289-1.684.6-2.527,1h0c-.908.382-1.989,1.3-1.108,2.263a6.988,6.988,0,0,0,1.985,1.027,1.475,1.475,0,0,1,.472.338,1.7,1.7,0,0,0,2.091.462c1.4-.774,1.01-3.184.588-4.464.174-.148-.01-.337.112-.5.063-.1.15-.189.219-.287a5.211,5.211,0,0,0,3.223-2.408A1.666,1.666,0,0,0,2037.052,1243.431Z" transform="translate(-1989.591 -1214.949)" fill="#f4f5f5"/>
          <path id="Path_8255" data-name="Path 8255" d="M1978.014,1207.214c-1,1.938-3.238,2.093-5.2,1.776,3.582,1.408,6.48,1.536,8.088-4.094,1.2-4.212-2.586-8.149-4.778-10.008-1.539,2.119-2.983,4.567-2.376,4.942C1974.857,1200.515,1979.735,1203.864,1978.014,1207.214Z" transform="translate(-1952.726 -1184.185)" fill="#d61f32"/>
          <path id="Path_8256" data-name="Path 8256" d="M2025.994,1246.125a1.289,1.289,0,1,1-1.727.561A1.285,1.285,0,0,1,2025.994,1246.125Z" transform="translate(-1986.036 -1217.353)" fill="#d61f32" opacity="0.6" style="mix-blend-mode: multiply;isolation: isolate"/>
          <path id="Path_8257" data-name="Path 8257" d="M2011.819,1238.842a1.288,1.288,0,1,1-1.727.562A1.284,1.284,0,0,1,2011.819,1238.842Z" transform="translate(-1976.833 -1212.625)" fill="#d61f32" opacity="0.6" style="mix-blend-mode: multiply;isolation: isolate"/>
          <path id="Path_8258" data-name="Path 8258" d="M2046.093,1212.837c.536-.461,1.869.375,3.751,1.418a12.593,12.593,0,0,1,3.875,3.368c.313.569-.46,1.37-1.633,3.606s-.218,2.9-.637,3.529c-.263.4-2.042,2.255-3.334,3.588a6.479,6.479,0,0,0-1.718,3.33c-.134.727-.292,1.566-.444,2.339h0a9.084,9.084,0,0,1,.722-5.216c1.249-2.48,3.714-3.568,4.032-4.725s-1.279-1.463-.3-2.974,2.4-2.894,1.849-3.631c-.492-.654-5.015-3.1-6.442-4.155A1.359,1.359,0,0,1,2046.093,1212.837Z" transform="translate(-2000.113 -1195.751)" fill="#f7b0b2" opacity="0.1"/>
          <path id="Path_8259" data-name="Path 8259" d="M2002.942,1198.822c-2.641-1.427-9.052-6.683-11.31-8.637-1.434-1.241-2.96-2.741-3.884-3.672.476-.521.838-.837.973-.807.64.14,2.48,2.105,3.78,3.151s8.815,7.436,10.234,8.543,3.089,2.065,3.858,1.856C2006.593,1199.256,2005.584,1200.248,2002.942,1198.822Z" transform="translate(-1962.422 -1178.222)" fill="#f7b0b2" opacity="0.3"/>
          <path id="Path_8260" data-name="Path 8260" d="M1984.424,1267.322c-.279-.747-2.03-1.546-3.756-2.055-1.591-.469-9.855-2.537-12.392-3.207,10.784,1.349,17.931,3.084,16.859,5.252a8.013,8.013,0,0,1-2.525,3.088h0C1983.271,1269.416,1984.639,1267.9,1984.424,1267.322Z" transform="translate(-1949.782 -1227.789)" fill="#d61f32" opacity="0.6" style="mix-blend-mode: multiply;isolation: isolate"/>
          <path id="Path_8261" data-name="Path 8261" d="M2077.458,1295.2a1.844,1.844,0,1,1-2.471.8A1.838,1.838,0,0,1,2077.458,1295.2Z" transform="translate(-2018.92 -1249.172)" fill="#f4f5f5"/>
          <path id="Path_8262" data-name="Path 8262" d="M2026.831,1247.1a1.289,1.289,0,1,1-1.727.562A1.284,1.284,0,0,1,2026.831,1247.1Z" transform="translate(-1986.578 -1217.989)" fill="#f4f5f5"/>
          <path id="Path_8263" data-name="Path 8263" d="M2012.656,1239.822a1.289,1.289,0,1,1-1.727.562A1.285,1.285,0,0,1,2012.656,1239.822Z" transform="translate(-1977.377 -1213.261)" fill="#f4f5f5"/>
          <g id="Group_5026" data-name="Group 5026" transform="translate(59.865 47.677)">
            <path id="Path_8264" data-name="Path 8264" d="M2086.269,1304.492a.686.686,0,0,0-.023.581.676.676,0,0,0,.888.364,5.248,5.248,0,0,0,2.947-4.43.68.68,0,0,0-.625-.735.688.688,0,0,0-.736.633,3.878,3.878,0,0,1-2.111,3.27A.689.689,0,0,0,2086.269,1304.492Z" transform="translate(-2086.192 -1300.269)" fill="#f4f5f5"/>
          </g>
          <path id="Path_8265" data-name="Path 8265" d="M2093.6,1263.772a1.844,1.844,0,1,0-.786-2.478A1.837,1.837,0,0,0,2093.6,1263.772Z" transform="translate(-2030.492 -1226.639)" fill="#f4f5f5"/>
          <g id="Group_5027" data-name="Group 5027" transform="translate(66.962 34.478)">
            <path id="Path_8266" data-name="Path 8266" d="M2108.152,1263.023a.686.686,0,0,0-.06.464,3.878,3.878,0,0,1-1.428,3.62.689.689,0,0,0-.086.966.68.68,0,0,0,.962.081,5.248,5.248,0,0,0,1.884-4.976.678.678,0,0,0-.817-.511A.687.687,0,0,0,2108.152,1263.023Z" transform="translate(-2106.419 -1262.648)" fill="#f4f5f5"/>
          </g>
          <g id="Group_5028" data-name="Group 5028" transform="translate(53.062 33.059)">
            <path id="Path_8267" data-name="Path 8267" d="M2068.39,1263.321a14.886,14.886,0,0,0-1.588,6.6.679.679,0,0,0,.7.662.689.689,0,0,0,.663-.708h0c0-.067-.108-6.7,5.129-10.01a.689.689,0,0,0,.218-.946.678.678,0,0,0-.94-.214A11.672,11.672,0,0,0,2068.39,1263.321Z" transform="translate(-2066.801 -1258.604)" fill="#f4f5f5"/>
          </g>
          <path id="Path_8268" data-name="Path 8268" d="M1929.491,1236.134a1.1,1.1,0,1,1-1.478.481A1.1,1.1,0,0,1,1929.491,1236.134Z" transform="translate(-1923.566 -1210.88)" fill="#f4f5f5"/>
          <path id="Path_8269" data-name="Path 8269" d="M1960.76,1175.191a1.107,1.107,0,0,1-.2,1.546,1.091,1.091,0,0,1-1.538-.19,1.106,1.106,0,0,1,.2-1.545A1.092,1.092,0,0,1,1960.76,1175.191Z" transform="translate(-1943.627 -1171.123)" fill="#d61f32" opacity="0.6" style="mix-blend-mode: multiply;isolation: isolate"/>
          <path id="Path_8270" data-name="Path 8270" d="M1961.252,1176.377a1.106,1.106,0,0,1-.2,1.546,1.092,1.092,0,0,1-1.538-.19,1.106,1.106,0,0,1,.2-1.546A1.092,1.092,0,0,1,1961.252,1176.377Z" transform="translate(-1943.947 -1171.892)" fill="#f4f5f5"/>
          <path id="Path_8271" data-name="Path 8271" d="M1967.162,1179.523s-12.3-12.521-16.481-11.2a6.184,6.184,0,0,1,7.2-.575c3.871,2.391,9.4,8.417,10.382,9.625S1967.162,1179.523,1967.162,1179.523Z" transform="translate(-1938.36 -1165.964)" fill="#dcbc9d" opacity="0.3"/>
          <path id="Path_8272" data-name="Path 8272" d="M1936.712,1230.955s-16.572-4.758-19.749-2.331a6.266,6.266,0,0,1,6.224-2.943c4.534.375,12.16,2.8,13.573,3.332S1936.712,1230.955,1936.712,1230.955Z" transform="translate(-1916.472 -1204.154)" fill="#dcbc9d" opacity="0.3"/>
          <g id="Group_5029" data-name="Group 5029" transform="translate(25.683 15.521)" opacity="0.6" style="mix-blend-mode: multiply;isolation: isolate">
            <path id="Path_8273" data-name="Path 8273" d="M1991.3,1216.673a25.12,25.12,0,0,0-2.53,11.173,1.146,1.146,0,0,0,1.2,1.1,1.162,1.162,0,0,0,1.1-1.208h0c0-.113-.333-11.3,8.427-17a1.162,1.162,0,0,0,.347-1.6,1.145,1.145,0,0,0-1.591-.339A19.7,19.7,0,0,0,1991.3,1216.673Z" transform="translate(-1988.765 -1208.617)" fill="#d61f32" opacity="0.6" style="mix-blend-mode: multiply;isolation: isolate"/>
          </g>
          <g id="Group_5030" data-name="Group 5030" transform="translate(26.238 15.806)">
            <path id="Path_8274" data-name="Path 8274" d="M1992.883,1217.485a25.11,25.11,0,0,0-2.53,11.174,1.145,1.145,0,0,0,1.2,1.1,1.162,1.162,0,0,0,1.1-1.208h0c0-.112-.333-11.3,8.426-17a1.162,1.162,0,0,0,.347-1.6,1.146,1.146,0,0,0-1.591-.34A19.7,19.7,0,0,0,1992.883,1217.485Z" transform="translate(-1990.347 -1209.429)" fill="#f4f5f5"/>
          </g>
        </g>
      </g>
    </g>
  </g>
</svg>
