<svg xmlns="http://www.w3.org/2000/svg" width="112.924" height="126.386" viewBox="0 0 112.924 126.386">
  <g id="Group_5533" data-name="Group 5533" transform="matrix(0.966, -0.259, 0.259, 0.966, -2865.486, -2304.392)">
    <path id="Path_8890" data-name="Path 8890" d="M779.12,893.649c-.02-.038-.04-.076-.06-.113q-.181-.327-.394-.637l-.03-.041c-2.792-4-9.629-6-15.737-7.789-1.241-.363-2.7-.791-3.969-1.209l.125-.062c4.181-2.067,8.92-4.409,8.883-8.4-.034-3.694-4.546-5.744-15.618-9.874-1.257-.469-2.721-1.016-4.025-1.529l.19-.078c4.106-1.7,8.352-3.452,8.98-6.943.76-4.226-4.893-6.713-16.724-11.5-1.892-.765-4.186-1.693-5.955-2.479.353-.166.694-.322.985-.456,3.251-1.494,5.818-2.674,6.309-5.089a3.494,3.494,0,0,0-1.009-3.215c-1.413-1.4-7.367-5.441-12.925-8.547-11.332-6.331-15.464-5.932-17.587-5.081s-5.386,3.418-9.2,15.824c-1.191,3.871-2.236,8.122-2.854,11.219l0,.013c-.1.494-.186.959-.262,1.388l-.006.036q-.054.308-.1.59l-.009.055c-.059.368-.106.7-.14.99,0,.022-.006.045-.008.066-.015.135-.027.26-.037.376,0,.02,0,.04,0,.06-.009.115-.016.224-.018.317a3.494,3.494,0,0,0,1.492,3.022c2.023,1.407,4.695.486,8.077-.68.3-.1.657-.227,1.027-.351-.736,1.791-1.753,4.047-2.592,5.906-5.247,11.633-7.616,17.338-4.147,19.867,2.867,2.09,7.149.425,11.29-1.185l.191-.074c-.588,1.271-1.269,2.678-1.853,3.885-5.151,10.636-7,15.236-4.47,17.93,2.733,2.912,7.777,1.332,12.228-.063l.132-.041c-.627,1.178-1.387,2.5-2.033,3.616-3.547,6.149-7.567,13.118-5.564,18.114,1.8,4.492,8.905,3.573,14.893,2.27a170.465,170.465,0,0,0,43.65-17.5c5.229-3.195,11-7.438,9.2-11.931A7.151,7.151,0,0,0,779.12,893.649Z" transform="translate(1474.556 2169.598)" fill="#3e302e" opacity="0.1"/>
    <g id="Group_5320" data-name="Group 5320" transform="translate(2164.889 2991.914)">
      <path id="Path_8324" data-name="Path 8324" d="M778.533,858.852c-1.241-.363-2.7-.791-3.968-1.209l.125-.062c4.181-2.067,8.92-4.409,8.884-8.4-.034-3.694-4.547-5.744-15.619-9.874-1.256-.469-2.721-1.016-4.024-1.529l.189-.078c4.106-1.7,8.352-3.451,8.98-6.943.76-4.225-4.893-6.713-16.724-11.5-1.892-.765-4.186-1.693-5.955-2.479.353-.166.694-.322.985-.456,3.251-1.494,5.819-2.674,6.309-5.088a3.494,3.494,0,0,0-1.009-3.215c-1.413-1.4-7.366-5.441-12.925-8.547-11.332-6.331-15.464-5.932-17.587-5.081s-5.386,3.418-9.2,15.824c-1.873,6.086-3.387,13.12-3.439,15.109a3.494,3.494,0,0,0,1.492,3.022c2.023,1.407,4.695.486,8.077-.68.3-.1.657-.226,1.028-.351-.736,1.791-1.753,4.047-2.592,5.906-5.248,11.634-7.616,17.339-4.147,19.868,2.867,2.091,7.149.425,11.289-1.185l.191-.074c-.588,1.271-1.268,2.678-1.853,3.885-5.151,10.636-7,15.236-4.47,17.93,2.733,2.912,7.778,1.332,12.228-.063l.133-.041c-.627,1.178-1.388,2.5-2.033,3.617-3.547,6.149-7.567,13.118-5.564,18.114,1.8,4.493,8.905,3.573,14.893,2.27a170.481,170.481,0,0,0,43.65-17.5c5.229-3.195,11-7.438,9.2-11.93C793.067,863.108,785.346,860.847,778.533,858.852Z" transform="translate(-713.549 -793.914)" fill="#d4a563"/>
      <path id="Path_8325" data-name="Path 8325" d="M795.071,893.8a8.038,8.038,0,0,0-1.872-2.721c5.316,13.408-56.791,33.116-61.138,27.316s11.949-24.355,9.582-26.6-8.793,1.161-11.862.154,8.151-15.224,8.083-20.875-11.314,3.246-14.011,1.771,5.541-13.922,5.919-20.787-4.551-1.883-10.074-.372-5.4-5.316-5.4-5.331a33.282,33.282,0,0,0-.744,4.666,3.494,3.494,0,0,0,1.492,3.022c2.023,1.407,4.695.486,8.077-.68.3-.1.657-.226,1.028-.351-.736,1.791-1.753,4.046-2.592,5.906-5.248,11.634-7.616,17.339-4.147,19.868,2.867,2.091,7.149.425,11.289-1.185l.191-.074c-.588,1.271-1.268,2.678-1.853,3.885-5.151,10.636-7,15.236-4.47,17.93,2.733,2.912,7.778,1.332,12.228-.063l.133-.041c-.627,1.178-1.388,2.5-2.033,3.617-3.547,6.149-7.567,13.118-5.564,18.114,1.8,4.493,8.905,3.573,14.893,2.27a170.478,170.478,0,0,0,43.65-17.5C791.1,902.532,796.872,898.289,795.071,893.8Z" transform="translate(-713.549 -819.606)" fill="#c18a38" opacity="0.1" style="mix-blend-mode: multiply;isolation: isolate"/>
      <path id="Path_8326" data-name="Path 8326" d="M771.878,861.083c-.661-1.738,9.988-4.373,9.847-7.9-.131-3.283-18.118-8.883-19.923-11.008s9.671-3.844,10.139-7.249-21.213-10.856-22.26-13.1,9.783-4.456,7.863-6.492c-1.83-1.941-19.65-15.037-24.452-13.111s-8.637,23.7-8.619,26.372c.018,2.8,9.376-3.086,10.17-.739s-9.732,22.714-7.041,24.851,12.176-4.548,12.338-1.764-8.971,19.259-6.8,21.724c2.335,2.648,11.855-2.805,12.578-1.091,1.293,3.066-9.643,16.458-7.2,22.555,3.016,7.522,57.158-14.189,54.142-21.711C790.22,866.319,773.061,864.193,771.878,861.083Z" transform="translate(-718.902 -797.889)" fill="#35b676"/>
      <path id="Path_8327" data-name="Path 8327" d="M733.093,802.394c-4.8,1.925-8.637,23.7-8.619,26.372.018,2.8,9.376-3.086,10.17-.739s-9.732,22.714-7.041,24.851,12.176-4.548,12.338-1.764-8.971,19.259-6.8,21.724c2.335,2.648,11.855-2.805,12.578-1.091,1.293,3.066-9.643,16.458-7.2,22.555,2.262,5.641,29.333-5.214,29.333-5.214S735.9,801.267,733.093,802.394Z" transform="translate(-718.902 -798.063)" fill="#05925a"/>
      <path id="Path_8328" data-name="Path 8328" d="M737.9,818.323c.542-4.352,4.35-8.309,7.03-3.913s14.29,36.35,16.783,42.567c3.1,7.74,14.262,30.85,11.235,34.022s-23.192,9.07-20.986,1.85,8.952-18.851,4-20.322-7.372,1.344-5.08-7.523,1.284-12.666-5.781-10.985-.832-8.938.027-13.659,3.726-8.866-1.788-7.317S736.539,829.234,737.9,818.323Z" transform="translate(-725.235 -803.017)" fill="#f4f5f5" opacity="0.1"/>
      <path id="Path_8329" data-name="Path 8329" d="M769.752,827.239a2,2,0,1,0-1.139,2.518A1.956,1.956,0,0,0,769.752,827.239Z" transform="translate(-739.209 -809.663)" fill="#ed2238"/>
      <path id="Path_8330" data-name="Path 8330" d="M756.07,868.278a4.641,4.641,0,1,0-2.647,5.857A4.546,4.546,0,0,0,756.07,868.278Z" transform="translate(-730.015 -829.002)" fill="#fff"/>
      <path id="Path_8331" data-name="Path 8331" d="M805.036,901.5a2.831,2.831,0,1,0-1.615,3.573A2.773,2.773,0,0,0,805.036,901.5Z" transform="translate(-755.711 -845.807)" fill="#ed2238"/>
      <ellipse id="Ellipse_72" data-name="Ellipse 72" cx="3.941" cy="3.783" rx="3.941" ry="3.783" transform="matrix(0.928, -0.372, 0.372, 0.928, 31.11, 78.294)" fill="#fff"/>
      <path id="Path_8332" data-name="Path 8332" d="M754.707,819.441c4.327,5.745,21.43,7.278,19.8,11.433s-12.044,5.6-6.2,9.583,28.722,3.357,18.531,17.124c4.181-2.067,8.92-4.409,8.884-8.4-.034-3.694-4.547-5.744-15.619-9.874-1.256-.469-2.721-1.016-4.024-1.529l.189-.078c4.106-1.7,8.352-3.451,8.98-6.943.76-4.225-4.893-6.713-16.724-11.5-1.892-.765-4.186-1.693-5.955-2.479.353-.166.694-.322.985-.456,3.251-1.494,5.819-2.674,6.309-5.088a3.494,3.494,0,0,0-1.009-3.215c-1.413-1.4-7.366-5.441-12.925-8.547-11.332-6.331-15.464-5.932-17.587-5.081,0,0,10.483,5.576,17.57,12.295S750.38,813.7,754.707,819.441Z" transform="translate(-725.697 -793.914)" fill="#f4f5f5" opacity="0.2"/>
      <path id="Path_8333" data-name="Path 8333" d="M745.819,825.3l-.943-.275a.37.37,0,0,1-.27-.357l0-.963a.39.39,0,0,0-.71-.208l-.586.793a.407.407,0,0,1-.44.149l-.943-.275a.392.392,0,0,0-.442.6l.58.766a.373.373,0,0,1,0,.448l-.587.793a.376.376,0,0,0,.437.576l.945-.32a.392.392,0,0,1,.439.128l.58.765a.4.4,0,0,0,.712-.241l0-.963a.4.4,0,0,1,.273-.369l.945-.32A.378.378,0,0,0,745.819,825.3Z" transform="translate(-727.198 -808.329)" fill="#f4c32d"/>
      <path id="Path_8334" data-name="Path 8334" d="M792.615,863.4l-.606-.747A.371.371,0,0,1,792,862.2l.56-.81a.376.376,0,0,0-.456-.562l-.935.349a.393.393,0,0,1-.443-.114l-.606-.746a.4.4,0,0,0-.7.263l.028.962a.4.4,0,0,1-.261.377l-.935.349a.377.377,0,0,0,.021.724l.952.245a.37.37,0,0,1,.281.347l.028.962a.391.391,0,0,0,.717.185l.56-.81a.409.409,0,0,1,.435-.163l.952.246A.392.392,0,0,0,792.615,863.4Z" transform="translate(-750.021 -826.382)" fill="#fff"/>
      <path id="Path_8335" data-name="Path 8335" d="M768.563,911.894l-.8-.547a.368.368,0,0,1-.141-.423l.311-.923a.382.382,0,0,0-.6-.412l-.805.585a.4.4,0,0,1-.462.011l-.8-.548a.4.4,0,0,0-.606.441l.3.909a.382.382,0,0,1-.144.429l-.805.586a.374.374,0,0,0,.228.684l.993-.023a.378.378,0,0,1,.372.254l.3.909a.4.4,0,0,0,.747-.018l.311-.923a.406.406,0,0,1,.375-.272l.992-.023A.385.385,0,0,0,768.563,911.894Z" transform="translate(-738.193 -850.553)" fill="#f4c32d"/>
      <path id="Path_8336" data-name="Path 8336" d="M825.623,943.5l-1.218.922a.62.62,0,0,1-.709.031l-1.247-.816a.611.611,0,0,0-.917.694l.494,1.385a.588.588,0,0,1-.208.664l-1.218.921a.575.575,0,0,0,.372,1.043l1.523-.065a.582.582,0,0,1,.58.379l.494,1.385a.61.61,0,0,0,1.147-.049l.448-1.425a.622.622,0,0,1,.567-.429l1.523-.065a.59.59,0,0,0,.337-1.074l-1.246-.816a.564.564,0,0,1-.23-.645l.448-1.425A.587.587,0,0,0,825.623,943.5Z" transform="translate(-765.883 -867.144)" fill="#fff"/>
    </g>
  </g>
</svg>
