<svg xmlns="http://www.w3.org/2000/svg" xmlns:xlink="http://www.w3.org/1999/xlink" width="255.087" height="263.587" viewBox="0 0 255.087 263.587">
  <defs>
    <filter id="Ellipse_123" x="0" y="0" width="255.087" height="263.587" filterUnits="userSpaceOnUse">
      <feOffset dy="10" input="SourceAlpha"/>
      <feGaussianBlur stdDeviation="0.5" result="blur"/>
      <feFlood flood-opacity="0.161"/>
      <feComposite operator="in" in2="blur"/>
      <feComposite in="SourceGraphic"/>
    </filter>
  </defs>
  <g id="Group_5336" data-name="Group 5336" transform="translate(-1458.086 -811.021)">
    <g transform="matrix(1, 0, 0, 1, 1458.09, 811.02)" filter="url(#Ellipse_123)">
      <circle id="Ellipse_123-2" data-name="Ellipse 123" cx="89.126" cy="89.126" r="89.126" transform="translate(1.5 126.04) rotate(-45)" fill="#fff"/>
    </g>
    <circle id="Ellipse_124" data-name="Ellipse 124" cx="70.701" cy="70.701" r="70.701" transform="translate(1517.649 871.185)" fill="#3e302e" opacity="0.1" style="mix-blend-mode: multiply;isolation: isolate"/>
    <circle id="Ellipse_125" data-name="Ellipse 125" cx="68.198" cy="68.198" r="68.198" transform="translate(1517.53 869.043)" fill="#e39256"/>
    <path id="Path_8891" data-name="Path 8891" d="M1755.093,1083.149c4.006-2.073,13.193,6.562,17.2,2.487s4.766-11.225,10.568-11.19c8.794.053,8.98,13.884,16.3,9.118s17.684-4.628,22.242-2c6.49,3.736,7.529,13.331,12.019,16.44s13.055,5.8,14.92,10.914-3.937,15.611-2.625,20.17,6.619,5.06,6.619,8.444-4.685,5.163-4.685,7.788,5.733,17.407-2.9,24.66-15.749,2.487-16.026,8.151-4.282,14.575-11.881,16.855-15.335-2.349-18.374-.415-11.536,6.317-20.585,3.485-12.779-14.191-19.617-12.465-16.3-3.315-14.506-11.328-10.708-10.707-14.646-21.69c-4.193-11.7,10.5-16.716,4.975-34.261-3.408-10.82,4.352-11.812,11.052-16.509S1749.222,1086.188,1755.093,1083.149Z" transform="translate(-203.812 -199.759)" fill="#724240"/>
    <g id="Group_5325" data-name="Group 5325" transform="translate(1541.224 891.864)">
      <path id="Path_8892" data-name="Path 8892" d="M1842.943,1240.338a49.514,49.514,0,0,1-11.531-1.363,41.811,41.811,0,0,1-19.607-10.649,46,46,0,0,1-11.23-17.624,54.039,54.039,0,0,1-2.9-23.976,43.272,43.272,0,0,1,7.894-21.355,47.765,47.765,0,0,1,20.543-16.115,54.238,54.238,0,0,1,21.421-3.727,70.893,70.893,0,0,1,23.6,4.508,2.28,2.28,0,0,1-1.739,4.214h0a67.528,67.528,0,0,0-22.083-4.166c-16.186-.253-28.992,5.809-38.082,18.01-7.742,10.392-9.494,26.891-4.36,41.054,4.808,13.263,14.615,22.281,27.613,25.393,16.21,3.88,33.368-1.545,43.712-13.821,8.571-10.172,10.5-22.959,5.3-35.083-4.817-11.225-16.956-19.254-30.925-20.457-12.233-1.05-22.846,3.4-28.386,11.911a27.717,27.717,0,0,0,.116,29.979c5.366,8.4,14.3,12.59,23.9,11.207,14.769-2.128,17.463-13.959,17.937-17.535.981-7.4-1.885-14.315-6.815-16.438-6.326-2.724-11.448-2.776-14.809-.149-3.142,2.455-4.024,6.757-3.5,9.931.438,2.679,1.806,4.668,3.658,5.321a2.279,2.279,0,1,1-1.514,4.3c-3.448-1.214-5.93-4.535-6.643-8.884a15.1,15.1,0,0,1,5.2-14.26c3.316-2.59,9.376-4.77,19.42-.446,6.875,2.961,10.8,11.688,9.531,21.224-1.2,9.022-7.552,19.395-21.806,21.448-11.423,1.645-22.038-3.313-28.395-13.265a32.284,32.284,0,0,1-.094-34.92c6.473-9.944,18.659-15.163,32.6-13.966a45.56,45.56,0,0,1,20.463,6.838,36.654,36.654,0,0,1,14.261,16.362,37.455,37.455,0,0,1,2.714,21.515,38.966,38.966,0,0,1-8.717,18.3,46.947,46.947,0,0,1-21.086,14.131A49.281,49.281,0,0,1,1842.943,1240.338Z" transform="translate(-1797.374 -1145.517)" fill="#fff"/>
    </g>
    <g id="Group_5326" data-name="Group 5326" transform="translate(1542.57 893.803)" opacity="0.2" style="mix-blend-mode: multiply;isolation: isolate">
      <path id="Path_8893" data-name="Path 8893" d="M1848.511,1248.363a49.5,49.5,0,0,1-11.53-1.364,41.807,41.807,0,0,1-19.608-10.649,46,46,0,0,1-11.23-17.624,54.046,54.046,0,0,1-2.9-23.976,43.277,43.277,0,0,1,7.895-21.355,47.765,47.765,0,0,1,20.543-16.115,54.233,54.233,0,0,1,21.421-3.727,70.892,70.892,0,0,1,23.6,4.508,2.28,2.28,0,0,1-1.739,4.214h0a67.54,67.54,0,0,0-22.083-4.166c-16.186-.252-28.993,5.809-38.083,18.01-7.742,10.392-9.494,26.891-4.36,41.054,4.808,13.263,14.614,22.281,27.613,25.393,16.21,3.88,33.367-1.544,43.712-13.821,8.571-10.172,10.5-22.959,5.3-35.083-4.817-11.224-16.956-19.254-30.925-20.456-12.234-1.051-22.846,3.4-28.386,11.911a27.717,27.717,0,0,0,.116,29.979c5.366,8.4,14.3,12.59,23.9,11.207,14.769-2.127,17.463-13.959,17.937-17.535.98-7.4-1.885-14.315-6.815-16.437-6.327-2.724-11.448-2.776-14.81-.149-3.142,2.455-4.024,6.757-3.5,9.931.439,2.679,1.806,4.668,3.658,5.321a2.279,2.279,0,1,1-1.514,4.3c-3.448-1.214-5.931-4.535-6.643-8.884a15.1,15.1,0,0,1,5.2-14.26c3.316-2.59,9.376-4.77,19.419-.446,6.876,2.961,10.8,11.688,9.531,21.224-1.2,9.022-7.552,19.395-21.805,21.448-11.423,1.645-22.038-3.313-28.4-13.265a32.283,32.283,0,0,1-.094-34.92c6.473-9.945,18.659-15.163,32.6-13.966a45.56,45.56,0,0,1,20.463,6.839,36.649,36.649,0,0,1,14.261,16.362,37.456,37.456,0,0,1,2.714,21.514,38.962,38.962,0,0,1-8.718,18.3,46.944,46.944,0,0,1-21.086,14.131A49.278,49.278,0,0,1,1848.511,1248.363Z" transform="translate(-1802.943 -1153.542)" fill="#3e302e"/>
    </g>
    <g id="Group_5327" data-name="Group 5327" transform="translate(1539.303 888.927)">
      <path id="Path_8894" data-name="Path 8894" d="M1977.783,1137.422c0-.029-.011-.058-.017-.087-.013-.064-.026-.128-.042-.192-.008-.032-.016-.064-.024-.1-.016-.062-.033-.123-.052-.183-.009-.029-.017-.058-.027-.087q-.034-.106-.073-.209c-.006-.017-.012-.034-.019-.051-.034-.088-.07-.175-.109-.26l-.012-.025c-.034-.075-.071-.15-.109-.223l-.031-.058q-.051-.1-.107-.187l-.034-.055q-.062-.1-.128-.2l-.021-.031a4.948,4.948,0,0,0-.543-.651l-.016-.015c-.063-.064-.129-.126-.2-.186l-.008-.007a4.933,4.933,0,0,0-7.367,6.451h0a4.945,4.945,0,0,0,1.139,1.186l.016.011a4.975,4.975,0,0,0,.539.346l.031.017c.087.047.175.092.265.134l.02.01q.145.067.294.125l.028.01q.13.049.263.091l.059.018a4.9,4.9,0,0,0,.6.141l.074.011q.125.019.253.032l.062.006q.153.014.308.018h.066q.126,0,.252,0l.087,0c.105-.006.21-.014.316-.027a4.953,4.953,0,0,0,.975-.219,4.9,4.9,0,0,0,1.288-.655q.1-.069.191-.143a4.946,4.946,0,0,0,.526-.479q.082-.086.159-.175a4.971,4.971,0,0,0,.857-1.414c.058-.148.11-.3.154-.453a4.914,4.914,0,0,0,.153-1.953C1977.814,1137.609,1977.8,1137.515,1977.783,1137.422Z" transform="translate(-1924.836 -1133.364)" fill="#3e302e" opacity="0.5"/>
      <path id="Path_8895" data-name="Path 8895" d="M1972.112,1519.837c-.011-.094-.026-.187-.043-.279-.005-.029-.011-.058-.018-.088q-.019-.1-.041-.191c-.008-.032-.016-.064-.024-.1-.016-.062-.033-.122-.051-.182-.009-.029-.018-.059-.027-.088-.022-.071-.047-.141-.073-.21-.006-.016-.012-.033-.018-.05-.034-.088-.07-.174-.109-.26l-.012-.026c-.035-.075-.071-.149-.11-.222l-.031-.057q-.052-.1-.107-.188l-.033-.055q-.062-.1-.128-.2l-.021-.031a4.944,4.944,0,0,0-.543-.651l-.015-.015q-.1-.1-.2-.186l-.008-.007a4.933,4.933,0,0,0-7.367,6.452h0a4.938,4.938,0,0,0,1.139,1.186l.016.012a4.984,4.984,0,0,0,.539.346l.032.017c.087.047.175.092.264.134l.02.01q.144.067.294.125l.028.01q.13.049.263.091l.059.019a4.894,4.894,0,0,0,.6.141l.074.012q.126.019.253.032l.062.006q.153.013.308.018h.067c.084,0,.168,0,.252,0l.087,0c.105-.006.211-.014.316-.027a4.919,4.919,0,0,0,3.289-1.855q.146-.187.274-.386a4.918,4.918,0,0,0,.74-3.251Z" transform="translate(-1920.503 -1423.143)" fill="#3e302e" opacity="0.5"/>
      <path id="Path_8896" data-name="Path 8896" d="M2119.245,1197.925a4.932,4.932,0,1,0-7.637-6.227l-.012.015a4.95,4.95,0,0,0-.345.539c-.006.01-.011.021-.017.031-.048.087-.092.175-.135.265l-.009.02c-.044.1-.087.194-.125.294,0,.009-.007.019-.01.028q-.049.13-.091.263c-.007.02-.013.039-.019.059a4.847,4.847,0,0,0-.141.6c0,.025-.008.05-.012.074q-.019.126-.032.253c0,.021-.005.041-.007.062-.009.1-.015.2-.017.308,0,.022,0,.044,0,.066q0,.126,0,.253c0,.029,0,.058,0,.087.006.105.014.21.027.316a4.934,4.934,0,0,0,5.492,4.3c.095-.012.189-.026.282-.043l.087-.017c.065-.013.128-.027.192-.042l.1-.024c.061-.016.123-.033.183-.052l.087-.026c.071-.023.14-.048.209-.073l.051-.018q.132-.051.26-.109l.025-.012c.075-.035.149-.072.222-.11l.058-.031c.063-.034.126-.07.188-.107l.055-.033c.066-.041.132-.084.2-.128l.031-.021a4.938,4.938,0,0,0,.652-.543l.015-.016c.064-.063.125-.129.186-.2Z" transform="translate(-2033.003 -1176.087)" fill="#3e302e" opacity="0.5"/>
      <path id="Path_8897" data-name="Path 8897" d="M2104.138,1456.41a4.933,4.933,0,0,0-7.673-3.484h0a4.936,4.936,0,0,0-1.186,1.14l-.011.015a5.052,5.052,0,0,0-.346.539c-.006.01-.012.021-.017.031-.048.087-.092.175-.134.264,0,.007-.007.013-.01.02-.044.1-.086.194-.125.293,0,.01-.007.019-.011.029q-.049.13-.091.263l-.019.059a4.852,4.852,0,0,0-.141.6c0,.025-.008.05-.012.075-.013.083-.023.167-.032.252,0,.021-.005.041-.007.062q-.014.153-.017.308c0,.022,0,.044,0,.066,0,.084,0,.168,0,.253,0,.029,0,.058,0,.087.006.105.014.21.027.316a4.91,4.91,0,0,0,1.169,2.637q.156.179.327.343a4.956,4.956,0,0,0,1.59,1.016c.074.029.149.057.225.083q.226.077.462.132a4.923,4.923,0,0,0,1.72.093c.1-.012.189-.026.282-.043l.087-.017c.064-.013.128-.026.192-.042l.095-.024c.062-.016.123-.033.184-.052l.086-.027c.071-.023.141-.047.21-.073l.05-.018c.088-.034.175-.07.26-.109l.026-.012q.113-.052.222-.109l.057-.031c.063-.034.126-.07.188-.107l.054-.033q.1-.062.2-.128l.03-.021a4.936,4.936,0,0,0,.652-.543l.016-.016q.1-.1.185-.2l.007-.008a4.93,4.93,0,0,0,.661-.939h0A4.911,4.911,0,0,0,2104.138,1456.41Z" transform="translate(-2020.621 -1375.043)" fill="#3e302e" opacity="0.5"/>
      <path id="Path_8898" data-name="Path 8898" d="M2163.08,1331.441a4.972,4.972,0,0,0,.661-.939h0a4.933,4.933,0,0,0-7.113-6.428h0a4.945,4.945,0,0,0-1.186,1.14l-.012.015a5.035,5.035,0,0,0-.346.539l-.016.031c-.047.087-.093.175-.134.264,0,.007-.007.013-.01.02-.045.1-.087.194-.125.294l-.01.028q-.049.13-.091.263c-.006.02-.013.04-.019.059a4.808,4.808,0,0,0-.141.6c0,.025-.008.05-.012.075-.013.083-.023.167-.032.252,0,.021-.005.041-.007.062q-.013.153-.017.308c0,.022,0,.045,0,.068,0,.083,0,.167,0,.251,0,.029,0,.058,0,.088.006.1.014.21.027.316.01.085.023.168.037.251q.044.249.11.488c.022.08.046.158.073.236.044.133.095.262.15.389.025.057.051.115.078.171a4.844,4.844,0,0,0,.337.594c.073.112.151.22.233.325a4.9,4.9,0,0,0,.479.526,4.95,4.95,0,0,0,1.156.819c.071.036.142.071.214.1.125.057.253.107.383.153.1.034.191.066.29.094a4.913,4.913,0,0,0,1.953.153c.1-.011.189-.026.282-.043l.087-.017c.064-.013.128-.026.192-.042l.1-.024q.093-.024.183-.052l.086-.027q.106-.034.209-.073l.051-.018q.132-.051.26-.109l.025-.012c.075-.035.15-.071.222-.109l.058-.031q.095-.052.188-.107l.055-.034c.067-.041.132-.084.2-.128l.031-.021a4.964,4.964,0,0,0,.651-.543l.016-.016c.063-.064.125-.129.185-.2Z" transform="translate(-2066.243 -1277.334)" fill="#3e302e" opacity="0.5"/>
      <path id="Path_8899" data-name="Path 8899" d="M1854.695,1199.484c0-.022,0-.044,0-.066q0-.155-.017-.308c0-.021,0-.041-.007-.062-.009-.085-.019-.169-.032-.253,0-.025-.008-.05-.012-.075a4.853,4.853,0,0,0-.141-.6l-.019-.06c-.028-.089-.058-.177-.092-.263l-.01-.028q-.057-.149-.125-.294l-.01-.02q-.063-.134-.134-.264l-.017-.031a5.024,5.024,0,0,0-.346-.539l-.011-.015a4.939,4.939,0,0,0-1.186-1.14h0a4.932,4.932,0,0,0-7.112,6.428h0a4.958,4.958,0,0,0,.661.939l.007.008c.06.067.122.132.185.2l.016.016a4.94,4.94,0,0,0,.652.543l.031.021q.1.066.2.128l.055.034q.092.055.188.107l.058.031c.073.038.147.075.222.11l.025.012c.085.039.172.075.26.109l.051.018c.069.026.139.05.209.073l.087.027q.091.028.183.052l.1.024c.063.015.127.029.191.042l.087.017c.093.017.187.031.282.043a4.919,4.919,0,0,0,1.953-.153q.231-.066.453-.154a4.967,4.967,0,0,0,.642-.309q.206-.118.4-.255a4.931,4.931,0,0,0,2.045-3.431c.013-.106.021-.211.027-.317,0-.029,0-.058,0-.087Q1854.7,1199.61,1854.695,1199.484Z" transform="translate(-1831.438 -1179.809)" fill="#3e302e" opacity="0.5"/>
      <path id="Path_8900" data-name="Path 8900" d="M1844.153,1444.219c0-.022,0-.044,0-.066q0-.155-.017-.308c0-.021,0-.041-.007-.062-.009-.085-.019-.169-.032-.252,0-.025-.008-.05-.012-.075a4.9,4.9,0,0,0-.141-.6l-.019-.059q-.042-.133-.091-.263l-.01-.028q-.058-.149-.125-.293l-.01-.02q-.063-.135-.134-.265l-.017-.031a4.926,4.926,0,0,0-.346-.539l-.011-.015a4.943,4.943,0,0,0-1.186-1.14h0a4.933,4.933,0,0,0-7.113,6.428h0a4.942,4.942,0,0,0,.661.939l.007.008c.06.067.122.132.185.2l.016.016a4.936,4.936,0,0,0,.651.543l.031.021q.1.066.2.128l.055.033c.062.037.125.073.188.107l.058.031c.073.038.147.075.223.11l.025.012q.128.058.26.109l.051.018c.069.026.139.051.209.073l.087.026c.061.018.122.036.184.052l.1.024c.063.015.127.029.192.041l.087.017c.093.017.187.032.282.043a5.007,5.007,0,0,0,.5.036,4.9,4.9,0,0,0,.5-.015c.082-.006.163-.015.244-.026a4.838,4.838,0,0,0,.478-.087,4.927,4.927,0,0,0,1.917-.921q.093-.073.183-.151.179-.155.344-.326a4.934,4.934,0,0,0,.827-1.164c.073-.144.14-.291.2-.443a4.914,4.914,0,0,0,.3-1.205c.013-.106.021-.211.028-.317,0-.029,0-.058,0-.087C1844.153,1444.387,1844.154,1444.3,1844.153,1444.219Z" transform="translate(-1823.443 -1365.395)" fill="#3e302e" opacity="0.5"/>
      <path id="Path_8901" data-name="Path 8901" d="M1799.289,1324.553c0-.022,0-.044,0-.066q0-.155-.017-.309c0-.021,0-.041-.007-.061-.008-.085-.019-.169-.032-.253,0-.025-.007-.05-.011-.074a4.943,4.943,0,0,0-.141-.6l-.019-.059c-.028-.089-.058-.177-.091-.263l-.01-.028c-.039-.1-.08-.2-.125-.294l-.01-.02c-.042-.09-.087-.178-.134-.264l-.017-.031a4.928,4.928,0,0,0-.346-.539l-.011-.015a4.946,4.946,0,0,0-1.186-1.14h0a4.932,4.932,0,0,0-7.112,6.428h0a4.945,4.945,0,0,0,.661.939l.007.008q.09.1.186.2l.016.016a4.93,4.93,0,0,0,.652.543l.03.02q.1.067.2.129l.054.033c.062.037.125.073.189.107l.057.031q.109.057.222.109l.026.012c.085.039.172.075.26.109l.05.018c.069.026.139.051.21.073l.087.027c.06.018.122.036.183.052l.1.024c.063.015.127.029.192.042l.087.017c.093.017.187.031.282.043a4.924,4.924,0,0,0,1.72-.093q.235-.055.462-.132.114-.039.224-.083a4.962,4.962,0,0,0,1.59-1.016q.171-.163.328-.343.078-.09.151-.183.148-.187.277-.389a4.916,4.916,0,0,0,.741-2.065c.013-.106.021-.211.027-.317,0-.029,0-.058,0-.087C1799.289,1324.721,1799.29,1324.637,1799.289,1324.553Z" transform="translate(-1789.422 -1274.65)" fill="#3e302e" opacity="0.5"/>
    </g>
    <g id="Group_5328" data-name="Group 5328" transform="translate(1578.802 884.997)">
      <circle id="Ellipse_126" data-name="Ellipse 126" cx="4.934" cy="4.934" r="4.934" transform="matrix(0.617, -0.787, 0.787, 0.617, 0, 7.768)" fill="#fc4330"/>
      <path id="Path_8902" data-name="Path 8902" d="M1971.065,1127.817a4.933,4.933,0,0,1-6.428,7.112,4.933,4.933,0,1,0,6.428-7.112Z" transform="translate(-1961.79 -1125.228)" fill="#db2219"/>
      <path id="Path_8903" data-name="Path 8903" d="M1967.111,1129.517c.578.3-.7,1.219-1.222,2.088-.607,1.009-.38,2.491-1.09,2.5s-.642-1.532-.106-2.787C1965.2,1130.118,1966.382,1129.141,1967.111,1129.517Z" transform="translate(-1961.518 -1126.455)" fill="#fff" opacity="0.5"/>
      <path id="Path_8904" data-name="Path 8904" d="M1965.536,1150.793c.4-.165.916,1.08.332,1.3S1964.983,1151.02,1965.536,1150.793Z" transform="translate(-1962.25 -1142.64)" fill="#fff" opacity="0.5"/>
    </g>
    <g id="Group_5329" data-name="Group 5329" transform="translate(1577.421 977.354)">
      <circle id="Ellipse_127" data-name="Ellipse 127" cx="4.934" cy="4.934" r="4.934" transform="translate(0 7.768) rotate(-51.925)" fill="#fc4330"/>
      <path id="Path_8905" data-name="Path 8905" d="M1965.351,1509.952a4.933,4.933,0,0,1-6.428,7.112,4.933,4.933,0,1,0,6.428-7.112Z" transform="translate(-1956.076 -1507.363)" fill="#db2219"/>
      <path id="Path_8906" data-name="Path 8906" d="M1961.4,1511.653c.578.3-.7,1.219-1.222,2.088-.607,1.009-.381,2.491-1.09,2.5s-.642-1.532-.106-2.787C1959.488,1512.253,1960.667,1511.277,1961.4,1511.653Z" transform="translate(-1955.803 -1508.591)" fill="#fff" opacity="0.5"/>
      <path id="Path_8907" data-name="Path 8907" d="M1959.822,1532.928c.4-.165.916,1.08.332,1.3S1959.268,1533.155,1959.822,1532.928Z" transform="translate(-1956.535 -1524.775)" fill="#fff" opacity="0.5"/>
    </g>
    <g id="Group_5330" data-name="Group 5330" transform="translate(1613.275 898.613)">
      <circle id="Ellipse_128" data-name="Ellipse 128" cx="4.934" cy="4.934" r="4.934" transform="translate(0 7.768) rotate(-51.925)" fill="#fc4330"/>
      <path id="Path_8908" data-name="Path 8908" d="M2113.006,1191.653a4.932,4.932,0,0,1-7.112-6.428,4.933,4.933,0,1,0,7.112,6.428Z" transform="translate(-2101.742 -1182.378)" fill="#db2219"/>
      <path id="Path_8909" data-name="Path 8909" d="M2125.759,1187.7c-.3.578-1.219-.7-2.088-1.222-1.009-.607-2.491-.38-2.5-1.09s1.532-.642,2.787-.106C2125.158,1185.79,2126.135,1186.969,2125.759,1187.7Z" transform="translate(-2114.968 -1182.105)" fill="#fff" opacity="0.5"/>
      <path id="Path_8910" data-name="Path 8910" d="M2114.929,1186.124c.165.4-1.08.916-1.3.332S2114.7,1185.571,2114.929,1186.124Z" transform="translate(-2109.229 -1182.838)" fill="#fff" opacity="0.5"/>
    </g>
    <g id="Group_5331" data-name="Group 5331" transform="translate(1609.329 962.024)">
      <circle id="Ellipse_129" data-name="Ellipse 129" cx="4.934" cy="4.934" r="4.934" transform="translate(0 7.768) rotate(-51.925)" fill="#fc4330"/>
      <path id="Path_8911" data-name="Path 8911" d="M2096.678,1454.02a4.932,4.932,0,0,1-7.113-6.428,4.933,4.933,0,1,0,7.113,6.428Z" transform="translate(-2085.414 -1444.745)" fill="#db2219"/>
      <path id="Path_8912" data-name="Path 8912" d="M2109.43,1450.065c-.3.579-1.219-.7-2.088-1.222-1.009-.607-2.491-.38-2.5-1.09s1.532-.642,2.787-.106C2108.83,1448.157,2109.806,1449.337,2109.43,1450.065Z" transform="translate(-2098.639 -1444.472)" fill="#fff" opacity="0.5"/>
      <path id="Path_8913" data-name="Path 8913" d="M2098.6,1448.491c.164.4-1.08.916-1.3.332S2098.374,1447.938,2098.6,1448.491Z" transform="translate(-2092.901 -1445.205)" fill="#fff" opacity="0.5"/>
    </g>
    <g id="Group_5332" data-name="Group 5332" transform="translate(1624.505 931.518)">
      <circle id="Ellipse_130" data-name="Ellipse 130" cx="4.934" cy="4.934" r="4.934" transform="translate(0 9.309) rotate(-70.629)" fill="#fc4330"/>
      <path id="Path_8914" data-name="Path 8914" d="M2156.84,1325.169a4.933,4.933,0,0,1-7.112-6.428,4.933,4.933,0,1,0,7.112,6.428Z" transform="translate(-2146.212 -1316.529)" fill="#db2219"/>
      <path id="Path_8915" data-name="Path 8915" d="M2169.593,1321.214c-.3.579-1.219-.7-2.088-1.221-1.009-.607-2.491-.38-2.5-1.09s1.532-.642,2.787-.106C2168.992,1319.306,2169.969,1320.485,2169.593,1321.214Z" transform="translate(-2159.437 -1316.257)" fill="#fff" opacity="0.5"/>
      <path id="Path_8916" data-name="Path 8916" d="M2158.763,1319.639c.165.4-1.08.916-1.3.332S2158.536,1319.086,2158.763,1319.639Z" transform="translate(-2153.699 -1316.989)" fill="#fff" opacity="0.5"/>
    </g>
    <g id="Group_5333" data-name="Group 5333" transform="translate(1549.473 900.238)">
      <circle id="Ellipse_131" data-name="Ellipse 131" cx="4.934" cy="4.934" r="4.934" transform="translate(0 3.92) rotate(-23.409)" fill="#fc4330"/>
      <path id="Path_8917" data-name="Path 8917" d="M1840.4,1196.562a4.933,4.933,0,0,0,7.112-6.428,4.933,4.933,0,1,1-7.112,6.428Z" transform="translate(-1838.251 -1187.725)" fill="#db2219"/>
      <path id="Path_8918" data-name="Path 8918" d="M1842.1,1192.607c.3.578,1.219-.7,2.088-1.222,1.009-.607,2.491-.38,2.5-1.09s-1.532-.642-2.787-.106C1842.7,1190.7,1841.726,1191.878,1842.1,1192.607Z" transform="translate(-1839.479 -1187.453)" fill="#fff" opacity="0.5"/>
      <path id="Path_8919" data-name="Path 8919" d="M1863.377,1191.033c-.165.4,1.081.916,1.3.332S1863.6,1190.479,1863.377,1191.033Z" transform="translate(-1855.663 -1188.185)" fill="#fff" opacity="0.5"/>
    </g>
    <g id="Group_5334" data-name="Group 5334" transform="translate(1547.004 959.465)">
      <circle id="Ellipse_132" data-name="Ellipse 132" cx="4.934" cy="4.934" r="4.934" transform="translate(0 3.653) rotate(-21.727)" fill="#fc4330"/>
      <path id="Path_8920" data-name="Path 8920" d="M1829.859,1441.3a4.933,4.933,0,0,0,7.112-6.428,4.933,4.933,0,1,1-7.112,6.428Z" transform="translate(-1827.787 -1432.537)" fill="#db2219"/>
      <path id="Path_8921" data-name="Path 8921" d="M1831.56,1437.341c.3.579,1.219-.7,2.088-1.222,1.009-.607,2.491-.38,2.5-1.09s-1.532-.642-2.787-.106C1832.16,1435.433,1831.184,1436.613,1831.56,1437.341Z" transform="translate(-1829.015 -1432.265)" fill="#fff" opacity="0.5"/>
      <path id="Path_8922" data-name="Path 8922" d="M1852.835,1435.768c-.165.4,1.081.916,1.3.332S1853.062,1435.214,1852.835,1435.768Z" transform="translate(-1845.199 -1432.998)" fill="#fff" opacity="0.5"/>
    </g>
    <g id="Group_5335" data-name="Group 5335" transform="translate(1536.083 930.466)">
      <circle id="Ellipse_133" data-name="Ellipse 133" cx="4.934" cy="4.934" r="4.934" transform="translate(0 3.92) rotate(-23.409)" fill="#fc4330"/>
      <path id="Path_8923" data-name="Path 8923" d="M1785,1321.63a4.933,4.933,0,0,0,7.113-6.428,4.933,4.933,0,1,1-7.113,6.428Z" transform="translate(-1782.845 -1312.793)" fill="#db2219"/>
      <path id="Path_8924" data-name="Path 8924" d="M1786.7,1317.675c.3.579,1.219-.7,2.088-1.222,1.009-.607,2.491-.38,2.5-1.09s-1.532-.642-2.788-.106C1787.3,1315.767,1786.32,1316.946,1786.7,1317.675Z" transform="translate(-1784.073 -1312.521)" fill="#fff" opacity="0.5"/>
      <path id="Path_8925" data-name="Path 8925" d="M1807.972,1316.1c-.165.4,1.081.916,1.3.332S1808.2,1315.548,1807.972,1316.1Z" transform="translate(-1800.257 -1313.254)" fill="#fff" opacity="0.5"/>
    </g>
  </g>
</svg>
