<svg xmlns="http://www.w3.org/2000/svg" width="38.964" height="143.901" viewBox="0 0 38.964 143.901">
  <g id="Group_4914" data-name="Group 4914" transform="translate(108.734 -1241.738)">
    <g id="Group_4899" data-name="Group 4899" transform="translate(-108.734 1241.738)">
      <g id="Group_4898" data-name="Group 4898" transform="translate(0 89.292)">
        <g id="Group_4893" data-name="Group 4893" transform="translate(0 6.416)">
          <path id="Path_8115" data-name="Path 8115" d="M173.35,237.8a19.513,19.513,0,0,0-15.3-17.561,1.448,1.448,0,0,1-.5.513,18.874,18.874,0,1,1-10.309.872,1.43,1.43,0,0,1-.68-.381A19.481,19.481,0,1,0,173.35,237.8Z" transform="translate(-134.443 -210.564)" fill="#fff"/>
          <path id="Path_8116" data-name="Path 8116" d="M156.93,222.3a18.268,18.268,0,1,1-5.836.443l-1.959.149a1.42,1.42,0,0,1-.443-.042A18.876,18.876,0,1,0,159,221.982a1.422,1.422,0,0,1-.639.213Z" transform="translate(-135.896 -211.795)" fill="#fff"/>
          <path id="Path_8117" data-name="Path 8117" d="M184.7,190.216a2.089,2.089,0,1,1,3.027,1.705l1.075-.081a2.7,2.7,0,1,0-3.745.285l1.075-.082A2.089,2.089,0,0,1,184.7,190.216Z" transform="translate(-169.48 -187.362)" fill="#fff"/>
          <path id="Path_8118" data-name="Path 8118" d="M190.321,191.353a2.089,2.089,0,1,0-2.734,2.143l1.6-.121A2.089,2.089,0,0,0,190.321,191.353Zm-1.971,1.637a1.483,1.483,0,1,1,1.366-1.591A1.485,1.485,0,0,1,188.35,192.99Z" transform="translate(-170.934 -188.816)" fill="#fff"/>
          <path id="Path_8119" data-name="Path 8119" d="M174.2,208.587l-.259-3.4a.758.758,0,0,1,.7-.814l3.849-.292a2.7,2.7,0,0,1-1.017-.531l-2.8.213a1.442,1.442,0,0,0-1.326,1.544l.247,3.256a1.427,1.427,0,0,0,.421.9c.209-.086.42-.166.633-.244A.756.756,0,0,1,174.2,208.587Z" transform="translate(-161.89 -198.784)" fill="#fff"/>
          <path id="Path_8120" data-name="Path 8120" d="M196.965,202.759l3.724-.283a.758.758,0,0,1,.814.7l.259,3.4a.755.755,0,0,1-.2.571c.207.038.412.082.617.126a1.429,1.429,0,0,0,.183-.818l-.247-3.256a1.441,1.441,0,0,0-1.544-1.326l-2.679.2A2.7,2.7,0,0,1,196.965,202.759Z" transform="translate(-178.568 -197.603)" fill="#fff"/>
          <path id="Path_8121" data-name="Path 8121" d="M188.993,222.9a18.33,18.33,0,0,0-2.9.458l5.836-.443A18.334,18.334,0,0,0,188.993,222.9Z" transform="translate(-170.895 -212.408)" fill="#fff"/>
          <path id="Path_8122" data-name="Path 8122" d="M176.3,223.251a18.763,18.763,0,0,1,2.3-.706l-1.974.15a.75.75,0,0,1-.37-.069c-.213.078-.424.158-.633.244A1.43,1.43,0,0,0,176.3,223.251Z" transform="translate(-163.503 -212.192)" fill="#fff"/>
          <path id="Path_8123" data-name="Path 8123" d="M207.417,220.052l-1.447.11a18.709,18.709,0,0,1,2.059.287,1.448,1.448,0,0,0,.5-.513c-.2-.044-.41-.088-.617-.126A.755.755,0,0,1,207.417,220.052Z" transform="translate(-184.923 -210.262)" fill="#fff"/>
          <path id="Path_8124" data-name="Path 8124" d="M180.229,221.459a18.765,18.765,0,0,0-2.3.706,1.42,1.42,0,0,0,.443.042l1.959-.149a18.145,18.145,0,0,1,5.836-.443l1.432-.109a1.422,1.422,0,0,0,.639-.213,18.709,18.709,0,0,0-2.059-.287Z" transform="translate(-165.135 -211.107)" fill="#fff"/>
          <path id="Path_8125" data-name="Path 8125" d="M190.2,203.257a2.7,2.7,0,0,0,.925-.678l-1.075.081a2.087,2.087,0,0,1-1.6.121l-1.075.082a2.7,2.7,0,0,0,1.017.531Z" transform="translate(-171.805 -198.101)" fill="#fff"/>
          <path id="Path_8126" data-name="Path 8126" d="M191.844,203.076a2.082,2.082,0,0,0,.786-.22l-1.6.121A2.081,2.081,0,0,0,191.844,203.076Z" transform="translate(-174.383 -198.297)" fill="#fff"/>
          <path id="Path_8127" data-name="Path 8127" d="M176.479,208.937a.228.228,0,0,1-.244-.209l-.247-3.256a.227.227,0,0,1,.209-.243l9.227-.7a.227.227,0,0,1,.243.209l.247,3.256a.228.228,0,0,1-.209.244l-1.326.1a19.269,19.269,0,0,1,1.944.256.755.755,0,0,0,.2-.571l-.259-3.4a.758.758,0,0,0-.814-.7l-3.724.283a2.645,2.645,0,0,1-1.8.137l-3.849.292a.758.758,0,0,0-.7.814l.259,3.4a.756.756,0,0,0,.444.63,19.232,19.232,0,0,1,2.251-.682Z" transform="translate(-163.331 -199.045)" fill="#fff"/>
          <path id="Path_8128" data-name="Path 8128" d="M186.069,219.549l1.447-.11a.755.755,0,0,0,.5-.242,19.27,19.27,0,0,0-1.944-.256l-6.048.459a19.231,19.231,0,0,0-2.251.682.75.75,0,0,0,.37.069l1.974-.15a18.887,18.887,0,0,1,5.953-.452Z" transform="translate(-165.022 -209.649)" fill="#fff"/>
          <path id="Path_8129" data-name="Path 8129" d="M188.7,220.842a19.022,19.022,0,0,0-2.959.463l5.953-.452A19.038,19.038,0,0,0,188.7,220.842Z" transform="translate(-170.644 -210.953)" fill="#fff"/>
          <path id="Path_8130" data-name="Path 8130" d="M191.752,205.111a2.67,2.67,0,0,0,.889-.227l-1.8.137A2.676,2.676,0,0,0,191.752,205.111Z" transform="translate(-174.244 -199.728)" fill="#fff"/>
        </g>
        <g id="Group_4897" data-name="Group 4897" transform="translate(8.221)">
          <g id="Group_4894" data-name="Group 4894" transform="translate(8.576)">
            <path id="Path_8131" data-name="Path 8131" d="M191.529,172.68l.67-1.078c.707-1.137,4.361-6.766,6.86-5.968a1.727,1.727,0,0,1,1.241,1.887c-.241,2.581-4.009,4.571-7.512,5Zm6.945-5.912c-.855.065-2.622,1.607-4.488,4.318,3.421-.787,5.016-2.7,5.107-3.678a.514.514,0,0,0-.4-.619A.573.573,0,0,0,198.474,166.768Z" transform="translate(-191.529 -165.557)" fill="#fff"/>
          </g>
          <g id="Group_4895" data-name="Group 4895" transform="translate(0 1.049)">
            <path id="Path_8132" data-name="Path 8132" d="M171.894,175.124l-1.268.036c-3.528.1-7.553-1.3-8.181-3.811a1.727,1.727,0,0,1,.942-2.052c2.349-1.168,6.812,3.846,7.683,4.863Zm-7.759-4.795a.571.571,0,0,0-.21.054.515.515,0,0,0-.3.673c.238.954,2.1,2.6,5.6,2.864C166.97,171.523,164.99,170.265,164.136,170.33Z" transform="translate(-162.382 -169.122)" fill="#fff"/>
          </g>
          <g id="Group_4896" data-name="Group 4896" transform="translate(8.741 5.906)">
            <path id="Path_8133" data-name="Path 8133" d="M192.728,186.125c.022.287-.1.53-.279.543s-.336-.208-.358-.495.1-.53.279-.543S192.706,185.838,192.728,186.125Z" transform="translate(-192.089 -185.629)" fill="#fff"/>
          </g>
        </g>
      </g>
      <rect id="Rectangle_637" data-name="Rectangle 637" width="1.918" height="95.742" transform="translate(16.382)" fill="#fff"/>
    </g>
    <g id="Group_4907" data-name="Group 4907" transform="translate(-101.036 1354.567)">
      <path id="Path_8161" data-name="Path 8161" d="M161.606,259.807a.866.866,0,0,0,.729-.777l2.152-.336-1.3,1.787.342.25,1.554-2.129,1.122-.175-1.3,1.787.342.25,1.554-2.129,1.122-.175-1.3,1.787.342.25,1.554-2.129.474-.074a3.405,3.405,0,0,0,1.133,1.925l-.267.365-2.6.407.065.418,2.186-.341-.669.917-2.6.407.065.418,2.186-.341-.669.917-2.6.407.065.418,2.186-.341-1.284,1.759a.867.867,0,1,0,.342.25l1.284-1.759.341,2.186.418-.065-.407-2.6.669-.917.342,2.186.418-.065-.407-2.6.669-.917.341,2.186.418-.065-.407-2.6.262-.36a3.4,3.4,0,0,0,2.186.551l.067.428-1.554,2.129.342.25,1.3-1.787.175,1.122-1.554,2.129.342.25,1.3-1.787.175,1.122-1.554,2.129.342.25,1.3-1.787.336,2.152a.867.867,0,1,0,.418-.065l-.336-2.152,1.787,1.3.25-.342-2.129-1.554-.175-1.122,1.787,1.3.25-.342L173.39,262.8l-.175-1.122,1.787,1.3.25-.342-2.129-1.554-.067-.426a3.4,3.4,0,0,0,1.918-1.174l.365.267.407,2.6.418-.065-.341-2.186.917.669.407,2.6.418-.065-.341-2.186.917.669.407,2.6.418-.065-.342-2.186,1.759,1.284a.867.867,0,1,0,.25-.342l-1.759-1.284,2.186-.342-.065-.418-2.6.407-.917-.669,2.186-.341-.065-.418-2.6.407-.917-.669,2.186-.341-.065-.418-2.6.407-.368-.268a3.4,3.4,0,0,0,.508-2.192l.475-.073,2.124,1.56.25-.341-1.783-1.31,1.122-.172,2.125,1.56.251-.341-1.783-1.31,1.122-.172,2.124,1.56.251-.341-1.783-1.31,2.153-.33a.867.867,0,1,0-.064-.418l-2.153.33,1.31-1.783-.341-.251-1.56,2.124-1.122.172,1.31-1.783-.341-.251-1.56,2.124-1.122.172,1.31-1.783-.341-.25-1.56,2.124-.483.074a3.406,3.406,0,0,0-1.173-1.867l.307-.418,2.606-.4-.064-.419-2.187.335.672-.915,2.606-.4-.064-.419-2.187.335.672-.915,2.606-.4-.064-.418-2.187.335,1.289-1.756a.866.866,0,1,0-.341-.25l-1.289,1.755-.335-2.187-.419.064.4,2.606-.672.915-.335-2.187-.418.064.4,2.606-.672.915-.335-2.187-.418.064.4,2.606-.311.423a3.4,3.4,0,0,0-2.125-.5l-.081-.528,1.56-2.125-.341-.25-1.31,1.783-.172-1.122,1.56-2.124-.341-.25-1.31,1.783-.172-1.122,1.56-2.125-.341-.25-1.31,1.783-.33-2.153a.867.867,0,1,0-.418.064l.33,2.153-1.783-1.31-.251.341,2.124,1.56.172,1.122-1.783-1.31-.25.341,2.124,1.56.172,1.122-1.783-1.31-.251.341,2.125,1.56.081.53a3.4,3.4,0,0,0-1.873,1.133l-.418-.307-.4-2.606-.418.064.335,2.187-.915-.672-.4-2.606-.419.064.335,2.187-.915-.672-.4-2.606-.419.064.335,2.187-1.756-1.289a.867.867,0,1,0-.251.341l1.756,1.289-2.187.335.064.419,2.606-.4.915.672-2.187.335.064.419,2.606-.4.915.672-2.187.335.064.419,2.606-.4.415.305a3.406,3.406,0,0,0-.545,2.119l-.483.075-2.129-1.554-.25.342,1.787,1.3-1.122.175-2.129-1.554-.25.342,1.787,1.3-1.122.175-2.129-1.554-.25.342,1.787,1.3-2.152.336a.867.867,0,1,0-.663,1.2Zm7.673-1.861,1.675-.262a1.414,1.414,0,0,0,.342.613l-1,1.375A3.1,3.1,0,0,1,169.279,257.946Zm1.351,1.982,1-1.369a1.417,1.417,0,0,0,.7.185l.262,1.681A3.1,3.1,0,0,1,170.63,259.927Zm2.379.432-.262-1.679a1.415,1.415,0,0,0,.611-.375l1.371,1A3.1,3.1,0,0,1,173.009,260.36Zm1.967-1.4-1.373-1a1.415,1.415,0,0,0,.152-.709l1.675-.257A3.1,3.1,0,0,1,174.976,258.962Zm.381-2.385-1.685.258a1.415,1.415,0,0,0-.371-.56l1-1.366A3.1,3.1,0,0,1,175.357,256.577Zm-1.4-1.914-1.008,1.372a1.416,1.416,0,0,0-.636-.141l-.257-1.68A3.1,3.1,0,0,1,173.959,254.663Zm-2.319-.383.257,1.681a1.418,1.418,0,0,0-.562.338l-1.37-1.006A3.1,3.1,0,0,1,171.64,254.281Zm-1.928,1.353,1.368,1a1.416,1.416,0,0,0-.173.625l-1.685.263A3.1,3.1,0,0,1,169.713,255.633Z" transform="translate(-160.605 -245.548)" fill="#fff"/>
    </g>
  </g>
</svg>
