<svg xmlns="http://www.w3.org/2000/svg" width="29.904" height="149.617" viewBox="0 0 29.904 149.617">
  <g id="Group_4910" data-name="Group 4910" transform="translate(-160.83 -1251.415)">
    <g id="Group_4892" data-name="Group 4892" transform="translate(160.83 1338.849)">
      <g id="Group_4890" data-name="Group 4890" transform="translate(11.327)">
        <g id="Group_4887" data-name="Group 4887" transform="translate(6.967 3.15)">
          <path id="Path_7866" data-name="Path 7866" d="M1112.714,207.608l.963-.826c1.016-.871,6.2-5.139,8.338-3.626a1.727,1.727,0,0,1,.616,2.173c-1.007,2.389-5.2,3.152-8.67,2.51Zm8.4-3.547c-.834-.2-2.983.744-5.579,2.766,3.5.28,5.6-1.064,5.977-1.97a.515.515,0,0,0-.2-.712A.571.571,0,0,0,1121.116,204.061Z" transform="translate(-1112.714 -202.834)" fill="#fff"/>
        </g>
        <g id="Group_4888" data-name="Group 4888">
          <path id="Path_7867" data-name="Path 7867" d="M1096.916,200.267l-1.22-.347c-3.4-.965-6.813-3.51-6.655-6.1a1.726,1.726,0,0,1,1.516-1.674c2.592-.407,5.338,5.718,5.862,6.95Zm-5.955-6.908a.574.574,0,0,0-.217-.012.515.515,0,0,0-.493.55c-.06.981,1.222,3.115,4.482,4.418C1093.3,195.351,1091.795,193.555,1090.961,193.359Z" transform="translate(-1089.036 -192.13)" fill="#fff"/>
        </g>
        <g id="Group_4889" data-name="Group 4889" transform="translate(7.307 6.893)">
          <path id="Path_7868" data-name="Path 7868" d="M1114.512,216.14c-.065.28-.258.475-.429.434s-.258-.3-.192-.58.258-.475.429-.435S1114.577,215.86,1114.512,216.14Z" transform="translate(-1113.868 -215.555)" fill="#fff"/>
        </g>
      </g>
      <g id="Group_4891" data-name="Group 4891" transform="translate(0 7.286)">
        <path id="Path_7869" data-name="Path 7869" d="M1100.739,376.364l-.848,3.622a4.585,4.585,0,0,1-5.262,3.493l-.124-.024a4.556,4.556,0,0,1-3.585-4.824l-.609.067a5.286,5.286,0,0,0,.847,3.156,5.045,5.045,0,0,0,3.081,2.163l.145.032h0l.135.026a5.175,5.175,0,0,0,5.963-3.951l.938-4.007-.3.113C1100.99,376.276,1100.864,376.318,1100.739,376.364Z" transform="translate(-1078.603 -329.264)" fill="#fff"/>
        <path id="Path_7870" data-name="Path 7870" d="M1090.875,380.671l-.038.183.044-.184Z" transform="translate(-1078.98 -332.477)" fill="#fff"/>
        <path id="Path_7871" data-name="Path 7871" d="M1115.267,379.791q.372-.1.742-.213Q1115.639,379.687,1115.267,379.791Z" transform="translate(-1096.221 -331.707)" fill="#fff"/>
        <path id="Path_7872" data-name="Path 7872" d="M1119.237,378.527c.269-.083.537-.169.8-.257C1119.774,378.358,1119.506,378.445,1119.237,378.527Z" transform="translate(-1099.023 -330.784)" fill="#fff"/>
        <path id="Path_7873" data-name="Path 7873" d="M1101.712,382.814q.595-.1,1.186-.224Q1102.307,382.71,1101.712,382.814Z" transform="translate(-1086.655 -333.832)" fill="#fff"/>
        <path id="Path_7874" data-name="Path 7874" d="M1106.825,381.9c.287-.061.575-.124.861-.19C1107.4,381.777,1107.112,381.839,1106.825,381.9Z" transform="translate(-1090.263 -333.211)" fill="#fff"/>
        <path id="Path_7875" data-name="Path 7875" d="M1111.189,380.9c.252-.062.5-.125.755-.192C1111.693,380.776,1111.441,380.84,1111.189,380.9Z" transform="translate(-1093.343 -332.506)" fill="#fff"/>
        <path id="Path_7876" data-name="Path 7876" d="M1097.659,383.628q.485-.07.968-.152Q1098.144,383.557,1097.659,383.628Z" transform="translate(-1083.794 -334.458)" fill="#fff"/>
        <path id="Path_7877" data-name="Path 7877" d="M1101.506,377.2l-.759,3.241a3.963,3.963,0,0,1-4.561,3.035l-.115-.022a3.838,3.838,0,0,1-2.455-1.673,4.007,4.007,0,0,1-.642-2.627c.177-.021.354-.048.531-.072-.33.044-.66.088-.991.125l-.149.016a4.556,4.556,0,0,0,3.585,4.824l.124.024a4.585,4.585,0,0,0,5.262-3.493l.848-3.622c-.257.093-.513.186-.771.274Z" transform="translate(-1080.05 -329.855)" fill="#fff"/>
        <path id="Path_7878" data-name="Path 7878" d="M1135.554,226.883l.03-.019-.687-.523,0,0,0,0C1135.124,226.513,1135.342,226.695,1135.554,226.883Z" transform="translate(-1110.073 -223.559)" fill="#fff"/>
        <path id="Path_7879" data-name="Path 7879" d="M1052.393,249.812l.029,0c.1-.27.208-.539.325-.806Z" transform="translate(-1051.848 -239.557)" fill="#fff"/>
        <path id="Path_7880" data-name="Path 7880" d="M1054.855,225.991a15.228,15.228,0,0,1,15.933-8.367,13.859,13.859,0,0,1,6.255,2.151c.069-.044.137-.084.206-.129l.342-.222a14.409,14.409,0,0,0-6.734-2.4c-8.713-1-14.274,3.891-16.661,8.937l.41.021Z" transform="translate(-1053.121 -216.89)" fill="#fff"/>
        <path id="Path_7881" data-name="Path 7881" d="M1088.51,244.411l-.286.064Z" transform="translate(-1077.135 -236.313)" fill="#fff"/>
        <path id="Path_7882" data-name="Path 7882" d="M1103.368,240.079l-.353.122Z" transform="translate(-1087.574 -233.256)" fill="#fff"/>
        <path id="Path_7883" data-name="Path 7883" d="M1072.3,219.686a16.708,16.708,0,0,1,1.9.327,12.471,12.471,0,0,1,3.859,1.575q.283-.173.565-.353a13.86,13.86,0,0,0-6.255-2.151,15.228,15.228,0,0,0-15.933,8.367c.183.007.408.013.669.016A14.567,14.567,0,0,1,1072.3,219.686Z" transform="translate(-1054.7 -218.35)" fill="#fff"/>
        <path id="Path_7884" data-name="Path 7884" d="M1094.788,242.848l-.242.068Z" transform="translate(-1081.597 -235.21)" fill="#fff"/>
        <path id="Path_7885" data-name="Path 7885" d="M1091.4,243.778l-.191.046Z" transform="translate(-1079.241 -235.866)" fill="#fff"/>
        <path id="Path_7886" data-name="Path 7886" d="M1100.476,241.06l-.348.112Z" transform="translate(-1085.537 -233.948)" fill="#fff"/>
        <path id="Path_7887" data-name="Path 7887" d="M1097.63,241.971l-.321.1Z" transform="translate(-1083.547 -234.591)" fill="#fff"/>
        <path id="Path_7888" data-name="Path 7888" d="M1063.869,247.792l-.112,0Z" transform="translate(-1059.868 -238.699)" fill="#fff"/>
        <path id="Path_7889" data-name="Path 7889" d="M1085.87,244.979l-.3.062Z" transform="translate(-1075.26 -236.714)" fill="#fff"/>
        <path id="Path_7890" data-name="Path 7890" d="M1067.331,247.594l-.2.013Z" transform="translate(-1062.249 -238.559)" fill="#fff"/>
        <path id="Path_7891" data-name="Path 7891" d="M1060.551,247.876h0Z" transform="translate(-1057.524 -238.758)" fill="#fff"/>
        <path id="Path_7892" data-name="Path 7892" d="M1059.261,247.879h0Z" transform="translate(-1056.611 -238.76)" fill="#fff"/>
        <path id="Path_7893" data-name="Path 7893" d="M1069.212,247.448l-.215.017Z" transform="translate(-1063.566 -238.456)" fill="#fff"/>
        <path id="Path_7894" data-name="Path 7894" d="M1062.15,247.853h0Z" transform="translate(-1058.713 -238.742)" fill="#fff"/>
        <path id="Path_7895" data-name="Path 7895" d="M1065.555,247.707l-.172.009Z" transform="translate(-1061.016 -238.639)" fill="#fff"/>
        <path id="Path_7896" data-name="Path 7896" d="M1080.883,245.938l-.279.047Z" transform="translate(-1071.758 -237.391)" fill="#fff"/>
        <path id="Path_7897" data-name="Path 7897" d="M1083.336,245.486l-.3.056Z" transform="translate(-1073.475 -237.072)" fill="#fff"/>
        <path id="Path_7898" data-name="Path 7898" d="M1071.212,247.266l-.219.021Z" transform="translate(-1064.975 -238.328)" fill="#fff"/>
        <path id="Path_7899" data-name="Path 7899" d="M1078.5,246.342l-.234.036Z" transform="translate(-1070.105 -237.676)" fill="#fff"/>
        <path id="Path_7900" data-name="Path 7900" d="M1073.387,247.045l-.183.02Z" transform="translate(-1066.535 -238.172)" fill="#fff"/>
        <path id="Path_7901" data-name="Path 7901" d="M1076.092,246.738l-.087.012Z" transform="translate(-1068.512 -237.955)" fill="#fff"/>
        <path id="Path_7902" data-name="Path 7902" d="M1106.319,239.014l-.347.128Z" transform="translate(-1089.661 -232.504)" fill="#fff"/>
        <path id="Path_7903" data-name="Path 7903" d="M1122.524,231.63l-.373.2Z" transform="translate(-1101.079 -227.293)" fill="#fff"/>
        <path id="Path_7904" data-name="Path 7904" d="M1119.452,233.243c-.12.06-.24.122-.36.18C1119.212,233.365,1119.332,233.3,1119.452,233.243Z" transform="translate(-1098.921 -228.431)" fill="#fff"/>
        <path id="Path_7905" data-name="Path 7905" d="M1116.379,234.793c-.1.049-.209.1-.314.148C1116.169,234.893,1116.274,234.842,1116.379,234.793Z" transform="translate(-1096.784 -229.525)" fill="#fff"/>
        <path id="Path_7906" data-name="Path 7906" d="M1125.615,229.919c-.124.071-.247.14-.371.209C1125.368,230.059,1125.491,229.99,1125.615,229.919Z" transform="translate(-1103.262 -226.085)" fill="#fff"/>
        <path id="Path_7907" data-name="Path 7907" d="M1113.155,236.49l-.1.044Z" transform="translate(-1094.66 -230.723)" fill="#fff"/>
        <path id="Path_7908" data-name="Path 7908" d="M1109.374,237.865c-.1.041-.2.08-.306.12C1109.17,237.945,1109.272,237.906,1109.374,237.865Z" transform="translate(-1091.846 -231.693)" fill="#fff"/>
        <path id="Path_7909" data-name="Path 7909" d="M1128.746,228.1c-.116.071-.232.139-.349.208C1128.513,228.243,1128.629,228.175,1128.746,228.1Z" transform="translate(-1105.487 -224.804)" fill="#fff"/>
        <path id="Path_7910" data-name="Path 7910" d="M1097.657,352.519l-.052.217.052-.217Z" transform="translate(-1083.756 -312.61)" fill="#fff"/>
        <path id="Path_7911" data-name="Path 7911" d="M1129.146,341.107c-.144.069-.29.132-.435.2l-1.822,7.784.682-.254-.332,1.417h0l2.524-10.783h0l-.354,1.512Z" transform="translate(-1104.423 -303.401)" fill="#fff"/>
        <path id="Path_7912" data-name="Path 7912" d="M1090.3,381.294l-.021.084c-.011.042-.018.085-.025.127l-.177.854.072-.008a5.171,5.171,0,0,1,.1-.811Z" transform="translate(-1078.445 -332.918)" fill="#fff"/>
        <path id="Path_7913" data-name="Path 7913" d="M1091.63,361.865c.446-1.836,1.04-4.29,1.7-7.04l-.653.123.2-.818c-.74,3.086-1.406,5.835-1.885,7.81l.431-.047C1091.489,361.883,1091.559,361.873,1091.63,361.865Z" transform="translate(-1079.086 -313.746)" fill="#fff"/>
        <path id="Path_7914" data-name="Path 7914" d="M1105.743,382.426c.106-.022.212-.046.318-.069C1105.955,382.38,1105.849,382.4,1105.743,382.426Z" transform="translate(-1089.5 -333.668)" fill="#fff"/>
        <path id="Path_7915" data-name="Path 7915" d="M1100.948,383.388l.225-.036Z" transform="translate(-1086.115 -334.37)" fill="#fff"/>
        <path id="Path_7916" data-name="Path 7916" d="M1121.97,378c.115-.038.231-.074.346-.113C1122.2,377.924,1122.085,377.96,1121.97,378Z" transform="translate(-1100.952 -330.512)" fill="#fff"/>
        <path id="Path_7917" data-name="Path 7917" d="M1096.269,384.048c.136-.018.273-.035.409-.055C1096.542,384.013,1096.406,384.03,1096.269,384.048Z" transform="translate(-1082.813 -334.823)" fill="#fff"/>
        <path id="Path_7918" data-name="Path 7918" d="M1117.79,379.272c.142-.042.284-.084.426-.127C1118.074,379.189,1117.932,379.23,1117.79,379.272Z" transform="translate(-1098.002 -331.401)" fill="#fff"/>
        <path id="Path_7919" data-name="Path 7919" d="M1109.751,381.464c.141-.033.282-.068.423-.1C1110.033,381.4,1109.892,381.431,1109.751,381.464Z" transform="translate(-1092.328 -332.965)" fill="#fff"/>
        <path id="Path_7920" data-name="Path 7920" d="M1113.756,380.421q.223-.059.445-.12Q1113.979,380.362,1113.756,380.421Z" transform="translate(-1095.155 -332.217)" fill="#fff"/>
        <path id="Path_7921" data-name="Path 7921" d="M1126.1,371.554l-.166.709-.164.7c.125-.045.251-.087.375-.133l.3-.113.332-1.417Z" transform="translate(-1103.632 -325.865)" fill="#fff"/>
        <path id="Path_7922" data-name="Path 7922" d="M1091.018,381.047c.01-.047.015-.095.027-.142l.118-.488c-.07.008-.141.019-.211.027l-.431.047-.044.184-.052.247a5.186,5.186,0,0,0-.1.811l.609-.067A4.612,4.612,0,0,1,1091.018,381.047Z" transform="translate(-1078.619 -332.3)" fill="#fff"/>
        <path id="Path_7923" data-name="Path 7923" d="M1092.4,377.54l.149-.016c.331-.036.661-.08.991-.125.136-.018.273-.035.409-.055q.485-.07.968-.152l.225-.036q.595-.1,1.186-.224c.106-.021.212-.046.318-.069.287-.061.575-.124.861-.19.141-.033.282-.068.423-.1.252-.062.5-.125.755-.192q.223-.059.445-.12.372-.1.742-.213c.142-.042.284-.084.426-.127.269-.083.537-.169.8-.257.115-.038.231-.074.346-.113.258-.088.515-.181.771-.274l.164-.7a41.593,41.593,0,0,1-9.9,2.35A4.612,4.612,0,0,0,1092.4,377.54Z" transform="translate(-1080.08 -328.174)" fill="#fff"/>
        <path id="Path_7924" data-name="Path 7924" d="M1114.281,352.214c.271-.081.541-.163.809-.249Q1114.687,352.094,1114.281,352.214Z" transform="translate(-1095.525 -312.219)" fill="#fff"/>
        <path id="Path_7925" data-name="Path 7925" d="M1112.764,376.494c-.115.031-.231.059-.347.09C1112.532,376.553,1112.649,376.525,1112.764,376.494Z" transform="translate(-1094.21 -329.53)" fill="#fff"/>
        <path id="Path_7926" data-name="Path 7926" d="M1108.625,377.493c-.146.035-.293.068-.44.1C1108.332,377.561,1108.479,377.528,1108.625,377.493Z" transform="translate(-1091.223 -330.235)" fill="#fff"/>
        <path id="Path_7927" data-name="Path 7927" d="M1117.631,375.214l-.156.049Z" transform="translate(-1097.779 -328.627)" fill="#fff"/>
        <path id="Path_7928" data-name="Path 7928" d="M1126.381,346.028l-1.805,7.712c.1-.036.2-.07.3-.108l.377-.14,1.822-7.784c-.248.114-.495.23-.745.34Z" transform="translate(-1102.791 -307.803)" fill="#fff"/>
        <path id="Path_7929" data-name="Path 7929" d="M1104.6,378.379c-.158.033-.316.064-.474.1C1104.281,378.443,1104.439,378.412,1104.6,378.379Z" transform="translate(-1088.356 -330.861)" fill="#fff"/>
        <path id="Path_7930" data-name="Path 7930" d="M1121.707,373.7c-.129.045-.257.091-.387.134C1121.449,373.786,1121.578,373.74,1121.707,373.7Z" transform="translate(-1100.493 -327.555)" fill="#fff"/>
        <path id="Path_7931" data-name="Path 7931" d="M1095.523,355.739c.216-.043.43-.091.645-.137-.343.074-.686.146-1.031.212l-.267.05c-.661,2.75-1.254,5.2-1.7,7.04.215-.025.429-.053.644-.081C1094.267,360.953,1094.864,358.486,1095.523,355.739Z" transform="translate(-1080.625 -314.786)" fill="#fff"/>
        <path id="Path_7932" data-name="Path 7932" d="M1096.554,379.814c-.161.024-.322.048-.484.07C1096.232,379.862,1096.393,379.838,1096.554,379.814Z" transform="translate(-1082.673 -331.873)" fill="#fff"/>
        <path id="Path_7933" data-name="Path 7933" d="M1100.581,379.153q-.242.044-.485.084Q1100.339,379.2,1100.581,379.153Z" transform="translate(-1085.514 -331.407)" fill="#fff"/>
        <path id="Path_7934" data-name="Path 7934" d="M1109.138,353.518q.561-.144,1.117-.3Q1109.7,353.373,1109.138,353.518Z" transform="translate(-1091.895 -313.1)" fill="#fff"/>
        <path id="Path_7935" data-name="Path 7935" d="M1118.553,350.843q.379-.126.755-.259Q1118.932,350.717,1118.553,350.843Z" transform="translate(-1098.54 -311.244)" fill="#fff"/>
        <path id="Path_7936" data-name="Path 7936" d="M1104.642,354.629q.616-.138,1.227-.293Q1105.258,354.492,1104.642,354.629Z" transform="translate(-1088.722 -313.892)" fill="#fff"/>
        <path id="Path_7937" data-name="Path 7937" d="M1126.633,347.611c.3-.121.6-.246.893-.373C1127.229,347.365,1126.932,347.49,1126.633,347.611Z" transform="translate(-1104.243 -308.883)" fill="#fff"/>
        <path id="Path_7938" data-name="Path 7938" d="M1122.641,349.339q.384-.141.765-.291Q1123.025,349.2,1122.641,349.339Z" transform="translate(-1101.425 -310.16)" fill="#fff"/>
        <path id="Path_7939" data-name="Path 7939" d="M1102.063,372.411v0c-.189.069-.38.132-.571.2-.129.045-.257.091-.387.134q-.486.163-.976.313l-.156.049q-.568.173-1.142.327c-.115.031-.231.059-.347.09-.268.07-.536.139-.805.2-.147.035-.293.068-.44.1-.24.055-.481.109-.722.159-.158.033-.315.064-.474.1q-.35.069-.7.132-.242.044-.485.084-.35.058-.7.11c-.161.024-.322.048-.484.07-.07.01-.141.021-.211.031v0c-.214.028-.429.056-.644.081l-.118.488c-.011.047-.017.094-.027.142a41.593,41.593,0,0,0,9.9-2.35l.166-.709-.377.14C1102.265,372.341,1102.164,372.375,1102.063,372.411Z" transform="translate(-1080.277 -326.474)" fill="#fff"/>
        <path id="Path_7940" data-name="Path 7940" d="M1151.315,272.485l.242-1.492-.064.049C1151.451,271.521,1151.394,272,1151.315,272.485Z" transform="translate(-1121.662 -255.073)" fill="#fff"/>
        <path id="Path_7941" data-name="Path 7941" d="M1104.847,303.049c.106-.029.211-.062.317-.091.612-2.606,1.206-5.161,1.729-7.465l-.675.242.242-1.073c-.557,2.465-1.243,5.429-2.039,8.811l.077-.329Z" transform="translate(-1088.566 -271.777)" fill="#fff"/>
        <path id="Path_7942" data-name="Path 7942" d="M1144,277.41c-.031.151-.061.3-.1.453l-1.881,8.037.725-.435-.385,1.646h0l2.132-9.11c.08-.343.152-.705.223-1.117l-.192.145C1144.349,277.159,1144.171,277.282,1144,277.41Z" transform="translate(-1115.101 -259.231)" fill="#fff"/>
        <path id="Path_7943" data-name="Path 7943" d="M1110.364,321.48c-.167.053-.334.107-.5.157C1110.03,321.587,1110.2,321.533,1110.364,321.48Z" transform="translate(-1092.406 -290.704)" fill="#fff"/>
        <path id="Path_7944" data-name="Path 7944" d="M1133.919,287.019q.4-.219.8-.448Q1134.319,286.8,1133.919,287.019Z" transform="translate(-1109.385 -266.067)" fill="#fff"/>
        <path id="Path_7945" data-name="Path 7945" d="M1114.648,320.037c-.171.06-.343.121-.515.179C1114.305,320.157,1114.476,320.1,1114.648,320.037Z" transform="translate(-1095.421 -289.686)" fill="#fff"/>
        <path id="Path_7946" data-name="Path 7946" d="M1129.506,289.392q.414-.208.823-.424Q1129.921,289.185,1129.506,289.392Z" transform="translate(-1106.27 -267.759)" fill="#fff"/>
        <path id="Path_7947" data-name="Path 7947" d="M1131.653,313.032c-.08.041-.162.079-.242.119C1131.491,313.111,1131.573,313.073,1131.653,313.032Z" transform="translate(-1107.615 -284.742)" fill="#fff"/>
        <path id="Path_7948" data-name="Path 7948" d="M1138.158,284.425c.285-.17.567-.345.848-.522C1138.725,284.08,1138.443,284.255,1138.158,284.425Z" transform="translate(-1112.376 -264.184)" fill="#fff"/>
        <path id="Path_7949" data-name="Path 7949" d="M1124.695,291.631c.322-.146.643-.3.961-.45C1125.338,291.336,1125.017,291.485,1124.695,291.631Z" transform="translate(-1102.875 -269.321)" fill="#fff"/>
        <path id="Path_7950" data-name="Path 7950" d="M1123.054,316.784c-.161.069-.323.135-.484.2C1122.732,316.919,1122.894,316.853,1123.054,316.784Z" transform="translate(-1101.375 -287.39)" fill="#fff"/>
        <path id="Path_7951" data-name="Path 7951" d="M1118.872,318.474q-.253.1-.508.194Q1118.618,318.572,1118.872,318.474Z" transform="translate(-1098.407 -288.583)" fill="#fff"/>
        <path id="Path_7952" data-name="Path 7952" d="M1127.234,314.97c-.142.067-.286.13-.429.195C1126.948,315.1,1127.092,315.037,1127.234,314.97Z" transform="translate(-1104.364 -286.11)" fill="#fff"/>
        <path id="Path_7953" data-name="Path 7953" d="M1136.426,310.4c-.1.054-.189.11-.285.163C1136.237,310.511,1136.33,310.455,1136.426,310.4Z" transform="translate(-1110.953 -282.885)" fill="#fff"/>
        <path id="Path_7954" data-name="Path 7954" d="M1119.08,293.792q.665-.268,1.318-.558Q1119.745,293.524,1119.08,293.792Z" transform="translate(-1098.912 -270.77)" fill="#fff"/>
        <path id="Path_7955" data-name="Path 7955" d="M1141.524,279.2l-1.963,8.386c.072-.043.146-.083.218-.126l.505-.3,1.881-8.037c.035-.151.065-.3.1-.453-.622.454-1.254.895-1.9,1.312Q1140.948,279.6,1141.524,279.2Z" transform="translate(-1113.366 -260.491)" fill="#fff"/>
        <path id="Path_7956" data-name="Path 7956" d="M1109.353,295.838c.3-.109.59-.225.884-.341-.4.156-.795.31-1.2.455l-.363.13c-.523,2.3-1.116,4.86-1.728,7.465q.335-.094.668-.193C1108.281,300.518,1108.864,297.995,1109.353,295.838Z" transform="translate(-1090.349 -272.367)" fill="#fff"/>
        <path id="Path_7957" data-name="Path 7957" d="M1133.716,225.47l-.015.009c.117.082.238.16.351.246Z" transform="translate(-1109.231 -222.945)" fill="#fff"/>
        <path id="Path_7958" data-name="Path 7958" d="M1053.767,247.707l-.169.383c.056-.128.116-.255.176-.383Z" transform="translate(-1052.698 -238.639)" fill="#fff"/>
        <path id="Path_7959" data-name="Path 7959" d="M1148.252,244.346l-.165-.405c.055.135.1.275.155.414Z" transform="translate(-1119.384 -235.981)" fill="#fff"/>
        <path id="Path_7960" data-name="Path 7960" d="M1138.263,232.469l.483-.4a12.041,12.041,0,0,0-2.888-3.879l-.533.345A11.451,11.451,0,0,1,1138.263,232.469Z" transform="translate(-1110.377 -224.864)" fill="#fff"/>
        <path id="Path_7961" data-name="Path 7961" d="M1069.94,254.551l.036-.018c-1.938-4.158-9.022-3.1-9.8,1.063l-.007.037a4.208,4.208,0,0,1-3.63,3.4l-.081.01a4.744,4.744,0,0,1-5.141-5.969,13.467,13.467,0,0,1,.432-1.3l-.635-.033c-.145.389-.274.779-.381,1.167a5.353,5.353,0,0,0,5.8,6.732l.083-.01a4.791,4.791,0,0,0,4.153-3.888l.008-.041c.38-2.036,2.5-3.085,4.314-3.2a4.215,4.215,0,0,1,4.536,2.772l-.161-.5Z" transform="translate(-1050.54 -241.49)" fill="#fff"/>
        <path id="Path_7962" data-name="Path 7962" d="M1098.908,241.44c-.171.054-.34.106-.509.156C1098.568,241.546,1098.737,241.494,1098.908,241.44Z" transform="translate(-1084.316 -234.216)" fill="#fff"/>
        <path id="Path_7963" data-name="Path 7963" d="M1101.811,240.493q-.252.086-.5.167Q1101.559,240.579,1101.811,240.493Z" transform="translate(-1086.37 -233.548)" fill="#fff"/>
        <path id="Path_7964" data-name="Path 7964" d="M1095.939,242.3c-.192.056-.382.109-.571.162C1095.557,242.408,1095.747,242.355,1095.939,242.3Z" transform="translate(-1082.177 -234.822)" fill="#fff"/>
        <path id="Path_7965" data-name="Path 7965" d="M1117.709,233.856c-.193.094-.385.185-.577.276C1117.324,234.041,1117.516,233.95,1117.709,233.856Z" transform="translate(-1097.537 -228.864)" fill="#fff"/>
        <path id="Path_7966" data-name="Path 7966" d="M1110.976,236.64q-.436.188-.867.36Q1110.541,236.827,1110.976,236.64Z" transform="translate(-1092.581 -230.829)" fill="#fff"/>
        <path id="Path_7967" data-name="Path 7967" d="M1092.648,243.078q-.4.108-.791.206Q1092.249,243.186,1092.648,243.078Z" transform="translate(-1079.699 -235.372)" fill="#fff"/>
        <path id="Path_7968" data-name="Path 7968" d="M1114.179,235.3q-.395.181-.786.351Q1113.785,235.478,1114.179,235.3Z" transform="translate(-1094.898 -229.881)" fill="#fff"/>
        <path id="Path_7969" data-name="Path 7969" d="M1107.716,238.273c-.188.074-.377.148-.564.218C1107.339,238.421,1107.527,238.347,1107.716,238.273Z" transform="translate(-1090.494 -231.981)" fill="#fff"/>
        <path id="Path_7970" data-name="Path 7970" d="M1104.733,239.449c-.173.063-.345.125-.517.185C1104.387,239.574,1104.56,239.512,1104.733,239.449Z" transform="translate(-1088.422 -232.811)" fill="#fff"/>
        <path id="Path_7971" data-name="Path 7971" d="M1081.989,245.675q-.221.041-.437.077Q1081.769,245.715,1081.989,245.675Z" transform="translate(-1072.427 -237.205)" fill="#fff"/>
        <path id="Path_7972" data-name="Path 7972" d="M1076.879,246.464c-.2.029-.387.055-.577.081C1076.492,246.519,1076.683,246.493,1076.879,246.464Z" transform="translate(-1068.722 -237.762)" fill="#fff"/>
        <path id="Path_7973" data-name="Path 7973" d="M1084.5,245.189c-.15.03-.3.06-.446.087Z" transform="translate(-1074.19 -236.862)" fill="#fff"/>
        <path id="Path_7974" data-name="Path 7974" d="M1079.514,246.1l-.455.072Z" transform="translate(-1070.667 -237.504)" fill="#fff"/>
        <path id="Path_7975" data-name="Path 7975" d="M1089.788,243.934c-.2.048-.4.1-.591.14C1089.392,244.03,1089.59,243.982,1089.788,243.934Z" transform="translate(-1077.822 -235.976)" fill="#fff"/>
        <path id="Path_7976" data-name="Path 7976" d="M1072.169,247.112l-.432.045Z" transform="translate(-1065.5 -238.219)" fill="#fff"/>
        <path id="Path_7977" data-name="Path 7977" d="M1074.467,246.779c-.218.028-.432.054-.641.078C1074.036,246.833,1074.249,246.807,1074.467,246.779Z" transform="translate(-1066.974 -237.984)" fill="#fff"/>
        <path id="Path_7978" data-name="Path 7978" d="M1087.076,244.627c-.16.036-.32.071-.478.1C1086.756,244.7,1086.916,244.663,1087.076,244.627Z" transform="translate(-1075.988 -236.465)" fill="#fff"/>
        <path id="Path_7979" data-name="Path 7979" d="M1129.683,227.9h0l-.1.062Z" transform="translate(-1106.324 -224.656)" fill="#fff"/>
        <path id="Path_7980" data-name="Path 7980" d="M1066.311,247.639l-.342.02Z" transform="translate(-1061.429 -238.591)" fill="#fff"/>
        <path id="Path_7981" data-name="Path 7981" d="M1064.5,247.738l-.367.016Z" transform="translate(-1060.136 -238.661)" fill="#fff"/>
        <path id="Path_7982" data-name="Path 7982" d="M1068.16,247.507l-.349.026Z" transform="translate(-1062.729 -238.498)" fill="#fff"/>
        <path id="Path_7983" data-name="Path 7983" d="M1070.1,247.336l-.372.033Z" transform="translate(-1064.082 -238.377)" fill="#fff"/>
        <path id="Path_7984" data-name="Path 7984" d="M1059.809,247.878h0Z" transform="translate(-1056.897 -238.76)" fill="#fff"/>
        <path id="Path_7985" data-name="Path 7985" d="M1127.061,228.811c-.186.11-.371.22-.557.326C1126.69,229.031,1126.875,228.921,1127.061,228.811Z" transform="translate(-1104.151 -225.303)" fill="#fff"/>
        <path id="Path_7986" data-name="Path 7986" d="M1058.706,247.874h0Z" transform="translate(-1056.303 -238.756)" fill="#fff"/>
        <path id="Path_7987" data-name="Path 7987" d="M1061.206,247.855l-.381.006Z" transform="translate(-1057.799 -238.743)" fill="#fff"/>
        <path id="Path_7988" data-name="Path 7988" d="M1062.673,247.808c-.156.006-.307.01-.452.013C1062.365,247.818,1062.517,247.814,1062.673,247.808Z" transform="translate(-1058.784 -238.71)" fill="#fff"/>
        <path id="Path_7989" data-name="Path 7989" d="M1123.955,230.629q-.269.15-.537.295Q1123.686,230.779,1123.955,230.629Z" transform="translate(-1101.974 -226.586)" fill="#fff"/>
        <path id="Path_7990" data-name="Path 7990" d="M1120.856,232.3c-.18.094-.36.186-.54.277C1120.5,232.488,1120.676,232.4,1120.856,232.3Z" transform="translate(-1099.784 -227.767)" fill="#fff"/>
        <path id="Path_7991" data-name="Path 7991" d="M1131.838,225.852c.184.123.363.25.535.38s.332.267.491.4l.533-.345c-.212-.188-.431-.37-.658-.542l0,0c-.113-.086-.234-.164-.351-.246l-.342.222C1131.975,225.768,1131.907,225.809,1131.838,225.852Z" transform="translate(-1107.916 -222.968)" fill="#fff"/>
        <path id="Path_7992" data-name="Path 7992" d="M1053.372,248.335c.087-.2.182-.4.28-.594l-.248-.011-.41-.021c-.06.127-.12.255-.176.383-.118.267-.225.536-.325.806l.636.033C1053.2,248.731,1053.285,248.533,1053.372,248.335Z" transform="translate(-1051.918 -238.64)" fill="#fff"/>
        <path id="Path_7993" data-name="Path 7993" d="M1078.485,227.073c-.172-.131-.351-.257-.535-.38q-.283.18-.565.353h0l-.1.06c-.117.071-.233.139-.349.208-.186.11-.371.22-.557.326-.124.071-.247.14-.371.209q-.269.15-.537.295l-.373.2c-.18.094-.36.186-.54.277-.12.06-.24.122-.36.18-.193.094-.385.185-.577.276-.1.049-.209.1-.314.148q-.394.181-.786.351l-.1.044c-.29.125-.579.245-.867.36-.1.041-.2.08-.306.12-.188.074-.377.148-.564.218l-.347.128c-.173.063-.345.125-.517.185l-.353.122q-.252.086-.5.167l-.348.112c-.171.054-.34.106-.509.156l-.321.1c-.192.056-.382.109-.571.162l-.242.068q-.4.108-.791.206l-.191.046c-.2.048-.4.1-.591.14l-.286.064c-.16.036-.32.071-.478.1l-.3.062-.446.087-.3.056q-.221.041-.437.077l-.279.047-.455.072-.234.036c-.2.029-.387.055-.577.081l-.087.012c-.218.028-.432.054-.641.078l-.183.02-.432.045-.219.021-.372.033-.215.017-.349.026-.2.013-.342.02-.172.009-.367.016-.112,0c-.156.006-.307.01-.452.013h-.029l-.381.006h-.623c-.261,0-.486-.009-.669-.016-.1.2-.192.4-.28.594A40.486,40.486,0,0,0,1078.485,227.073Z" transform="translate(-1054.029 -223.808)" fill="#fff"/>
        <path id="Path_7994" data-name="Path 7994" d="M1141.553,245.067c-.122.1-.243.194-.366.289C1141.31,245.261,1141.431,245.164,1141.553,245.067Z" transform="translate(-1114.514 -236.776)" fill="#fff"/>
        <path id="Path_7995" data-name="Path 7995" d="M1134.879,250.4l-.151.106Z" transform="translate(-1109.956 -240.538)" fill="#fff"/>
        <path id="Path_7996" data-name="Path 7996" d="M1066.458,250.2c-2.77.172-5,1.894-5.43,4.182l-.008.04a3.584,3.584,0,0,1-3.107,2.911l-.079.009a4.138,4.138,0,0,1-4.486-5.206,13.062,13.062,0,0,1,.487-1.428h.021c-.176-.005-.328-.012-.447-.018l-.213-.011a13.5,13.5,0,0,0-.432,1.3,4.744,4.744,0,0,0,5.141,5.969l.081-.01a4.208,4.208,0,0,0,3.63-3.4l.007-.037c.777-4.16,7.86-5.221,9.8-1.063.183-.088.364-.181.546-.271A5.485,5.485,0,0,0,1066.458,250.2Z" transform="translate(-1051.986 -240.385)" fill="#fff"/>
        <path id="Path_7997" data-name="Path 7997" d="M1122.418,236.072c.2-.1.39-.2.586-.3C1122.808,235.875,1122.613,235.974,1122.418,236.072Z" transform="translate(-1101.268 -230.216)" fill="#fff"/>
        <path id="Path_7998" data-name="Path 7998" d="M1130.731,252.977c-.089.057-.179.112-.269.168C1130.551,253.089,1130.642,253.034,1130.731,252.977Z" transform="translate(-1106.945 -242.358)" fill="#fff"/>
        <path id="Path_7999" data-name="Path 7999" d="M1058.474,251.99l.179,0Z" transform="translate(-1056.139 -241.662)" fill="#fff"/>
        <path id="Path_8000" data-name="Path 8000" d="M1119.9,259.028l-.433.223C1119.616,259.177,1119.76,259.1,1119.9,259.028Z" transform="translate(-1099.188 -246.629)" fill="#fff"/>
        <path id="Path_8001" data-name="Path 8001" d="M1123.5,257.108c-.137.077-.275.152-.412.227C1123.225,257.26,1123.362,257.185,1123.5,257.108Z" transform="translate(-1101.74 -245.274)" fill="#fff"/>
        <path id="Path_8002" data-name="Path 8002" d="M1061.07,251.982l.225,0Z" transform="translate(-1057.972 -241.653)" fill="#fff"/>
        <path id="Path_8003" data-name="Path 8003" d="M1057.4,251.971l.151,0Z" transform="translate(-1055.384 -241.648)" fill="#fff"/>
        <path id="Path_8004" data-name="Path 8004" d="M1127.074,255.091c-.123.074-.247.145-.371.218C1126.827,255.236,1126.951,255.165,1127.074,255.091Z" transform="translate(-1104.292 -243.85)" fill="#fff"/>
        <path id="Path_8005" data-name="Path 8005" d="M1138.318,247.626c-.109.081-.216.163-.325.242C1138.1,247.789,1138.21,247.707,1138.318,247.626Z" transform="translate(-1112.26 -238.582)" fill="#fff"/>
        <path id="Path_8006" data-name="Path 8006" d="M1111.617,241.04c.217-.087.436-.18.655-.272C1112.053,240.861,1111.834,240.953,1111.617,241.04Z" transform="translate(-1093.645 -233.742)" fill="#fff"/>
        <path id="Path_8007" data-name="Path 8007" d="M1096.354,246.523l.469-.133Z" transform="translate(-1082.873 -237.71)" fill="#fff"/>
        <path id="Path_8008" data-name="Path 8008" d="M1062.572,251.943l.25-.007Z" transform="translate(-1059.032 -241.624)" fill="#fff"/>
        <path id="Path_8009" data-name="Path 8009" d="M1099.316,245.637c.159-.048.319-.1.48-.147C1099.635,245.54,1099.475,245.59,1099.316,245.637Z" transform="translate(-1084.964 -237.074)" fill="#fff"/>
        <path id="Path_8010" data-name="Path 8010" d="M1090.6,248.043q.225-.052.452-.107Q1090.826,247.992,1090.6,248.043Z" transform="translate(-1078.814 -238.801)" fill="#fff"/>
        <path id="Path_8011" data-name="Path 8011" d="M1114.785,239.375q.466-.2.935-.417Q1115.251,239.175,1114.785,239.375Z" transform="translate(-1095.881 -232.464)" fill="#fff"/>
        <path id="Path_8012" data-name="Path 8012" d="M1093.448,247.323l.46-.119Z" transform="translate(-1080.822 -238.284)" fill="#fff"/>
        <path id="Path_8013" data-name="Path 8013" d="M1105.382,243.586c.171-.059.343-.122.516-.185C1105.725,243.463,1105.553,243.526,1105.382,243.586Z" transform="translate(-1089.245 -235.6)" fill="#fff"/>
        <path id="Path_8014" data-name="Path 8014" d="M1108.484,242.4c.183-.068.368-.141.552-.213C1108.852,242.257,1108.667,242.33,1108.484,242.4Z" transform="translate(-1091.434 -234.742)" fill="#fff"/>
        <path id="Path_8015" data-name="Path 8015" d="M1059.9,252h0Z" transform="translate(-1057.002 -241.667)" fill="#fff"/>
        <path id="Path_8016" data-name="Path 8016" d="M1129.073,232.428c.18-.1.361-.209.541-.317C1129.434,232.219,1129.253,232.324,1129.073,232.428Z" transform="translate(-1105.965 -227.632)" fill="#fff"/>
        <path id="Path_8017" data-name="Path 8017" d="M1125.771,234.308c.185-.1.37-.2.555-.3C1126.141,234.108,1125.956,234.208,1125.771,234.308Z" transform="translate(-1103.634 -228.968)" fill="#fff"/>
        <path id="Path_8018" data-name="Path 8018" d="M1102.326,244.659c.164-.053.33-.109.5-.164C1102.656,244.551,1102.49,244.607,1102.326,244.659Z" transform="translate(-1087.088 -236.372)" fill="#fff"/>
        <path id="Path_8019" data-name="Path 8019" d="M1132.357,229.909c.115-.071.229-.138.344-.21a10.862,10.862,0,0,1,2.983,3.99c.116-.094.235-.186.35-.282l.134-.112a11.449,11.449,0,0,0-2.938-3.936l-.162.105C1132.831,229.617,1132.594,229.762,1132.357,229.909Z" transform="translate(-1108.282 -225.69)" fill="#fff"/>
        <path id="Path_8020" data-name="Path 8020" d="M1069.846,251.49l.36-.032Z" transform="translate(-1064.165 -241.286)" fill="#fff"/>
        <path id="Path_8021" data-name="Path 8021" d="M1067.847,251.659l.325-.024Z" transform="translate(-1062.755 -241.411)" fill="#fff"/>
        <path id="Path_8022" data-name="Path 8022" d="M1071.95,251.27c.139-.014.284-.029.427-.045C1072.234,251.241,1072.089,251.256,1071.95,251.27Z" transform="translate(-1065.65 -241.122)" fill="#fff"/>
        <path id="Path_8023" data-name="Path 8023" d="M1065.966,251.786l.3-.017Z" transform="translate(-1061.427 -241.506)" fill="#fff"/>
        <path id="Path_8024" data-name="Path 8024" d="M1074.163,250.947q.331-.038.677-.082Q1074.494,250.91,1074.163,250.947Z" transform="translate(-1067.212 -240.868)" fill="#fff"/>
        <path id="Path_8025" data-name="Path 8025" d="M1064.2,251.88l.275-.012Z" transform="translate(-1060.183 -241.576)" fill="#fff"/>
        <path id="Path_8026" data-name="Path 8026" d="M1118.847,237.75c.228-.107.456-.215.686-.328C1119.3,237.535,1119.075,237.643,1118.847,237.75Z" transform="translate(-1098.748 -231.38)" fill="#fff"/>
        <path id="Path_8027" data-name="Path 8027" d="M1087.817,248.689l.445-.1Z" transform="translate(-1076.848 -239.264)" fill="#fff"/>
        <path id="Path_8028" data-name="Path 8028" d="M1082.419,249.769c.148-.026.3-.051.447-.079C1082.715,249.718,1082.567,249.743,1082.419,249.769Z" transform="translate(-1073.039 -240.039)" fill="#fff"/>
        <path id="Path_8029" data-name="Path 8029" d="M1085.088,249.262c.147-.028.294-.057.443-.087C1085.382,249.205,1085.235,249.234,1085.088,249.262Z" transform="translate(-1074.922 -239.675)" fill="#fff"/>
        <path id="Path_8030" data-name="Path 8030" d="M1079.775,250.213c.154-.024.308-.047.466-.073C1080.083,250.166,1079.929,250.19,1079.775,250.213Z" transform="translate(-1071.173 -240.356)" fill="#fff"/>
        <path id="Path_8031" data-name="Path 8031" d="M1076.929,250.609c.188-.025.376-.051.57-.079C1077.305,250.559,1077.116,250.584,1076.929,250.609Z" transform="translate(-1069.164 -240.631)" fill="#fff"/>
        <path id="Path_8032" data-name="Path 8032" d="M1055.312,235.039l.15,0,.151,0,.164,0,.179,0h.385l.2,0,.225,0,.217-.005.25-.007.23-.008.275-.012.243-.012.3-.017.255-.016.324-.024.264-.02.36-.032.26-.024c.139-.014.284-.029.427-.045l.224-.024q.331-.038.677-.082l.137-.019c.188-.025.376-.051.57-.079l.268-.041c.154-.024.308-.047.466-.073l.312-.054c.148-.026.3-.051.447-.079l.339-.065c.147-.028.294-.057.443-.087l.36-.075.445-.1.375-.086q.225-.052.452-.107l.386-.1.46-.119.4-.107.469-.133.4-.118c.159-.047.319-.1.48-.147.135-.042.27-.084.406-.128.164-.053.33-.109.5-.164.135-.045.269-.09.4-.137.171-.059.343-.122.516-.185.132-.048.264-.095.4-.145.183-.068.368-.141.552-.213.123-.048.246-.095.37-.144.217-.087.436-.18.655-.272.092-.039.184-.076.277-.115q.466-.2.935-.417c.086-.04.174-.083.26-.124.228-.107.456-.215.686-.328.122-.06.243-.124.365-.185.2-.1.39-.2.586-.3.133-.07.267-.144.4-.216.185-.1.37-.2.555-.3.139-.078.278-.16.417-.24.18-.1.361-.209.541-.317.142-.085.284-.173.425-.26.237-.146.474-.292.711-.445l.162-.105c-.16-.137-.32-.274-.491-.4a40.486,40.486,0,0,1-23,6.431c-.087.2-.168.4-.245.594l.213.011C1054.984,235.027,1055.136,235.034,1055.312,235.039Z" transform="translate(-1053.442 -224.72)" fill="#fff"/>
        <path id="Path_8033" data-name="Path 8033" d="M1097.458,353.257l-.039.164-.022.092.022-.092Z" transform="translate(-1083.609 -313.131)" fill="#fff"/>
        <path id="Path_8034" data-name="Path 8034" d="M1136.172,312.062l-1.9,8.1.7-.334,1.917-8.189-.22.132C1136.509,311.872,1136.339,311.965,1136.172,312.062Z" transform="translate(-1109.637 -283.76)" fill="#fff"/>
        <path id="Path_8035" data-name="Path 8035" d="M1098.436,332.691c.554-2.313,1.144-4.786,1.726-7.253l-.665.18.233-.989.006-.023-.006.023c-.655,2.783-1.325,5.594-1.948,8.191l.386-.073C1098.258,332.729,1098.347,332.708,1098.436,332.691Z" transform="translate(-1083.881 -292.91)" fill="#fff"/>
        <path id="Path_8036" data-name="Path 8036" d="M1103.362,355.411c.126-.027.252-.052.377-.08C1103.614,355.359,1103.487,355.384,1103.362,355.411Z" transform="translate(-1087.819 -314.594)" fill="#fff"/>
        <path id="Path_8037" data-name="Path 8037" d="M1112.933,352.929c.133-.038.265-.079.4-.119C1113.2,352.849,1113.066,352.891,1112.933,352.929Z" transform="translate(-1094.574 -312.815)" fill="#fff"/>
        <path id="Path_8038" data-name="Path 8038" d="M1117.03,351.611c.15-.048.3-.1.448-.147C1117.329,351.514,1117.18,351.563,1117.03,351.611Z" transform="translate(-1097.465 -311.865)" fill="#fff"/>
        <path id="Path_8039" data-name="Path 8039" d="M1108.811,354.274l.1-.026Z" transform="translate(-1091.665 -313.83)" fill="#fff"/>
        <path id="Path_8040" data-name="Path 8040" d="M1121.117,350.2q.225-.079.448-.161Q1121.342,350.118,1121.117,350.2Z" transform="translate(-1100.35 -310.858)" fill="#fff"/>
        <path id="Path_8041" data-name="Path 8041" d="M1129.667,346.974c.087-.037.174-.072.26-.11C1129.841,346.9,1129.754,346.937,1129.667,346.974Z" transform="translate(-1106.384 -308.619)" fill="#fff"/>
        <path id="Path_8042" data-name="Path 8042" d="M1125.242,348.665c.137-.053.273-.105.409-.16C1125.515,348.559,1125.379,348.612,1125.242,348.665Z" transform="translate(-1103.261 -309.777)" fill="#fff"/>
        <path id="Path_8043" data-name="Path 8043" d="M1097.383,353.382q.077-.32.155-.646l.156-.651c-.089.017-.178.038-.268.055l-.386.073-.052.217-.039.164-.022.092-.2.818Z" transform="translate(-1083.139 -312.304)" fill="#fff"/>
        <path id="Path_8044" data-name="Path 8044" d="M1133.257,340.56l-.175.746c.145-.067.291-.13.435-.2l.263-.125.354-1.512-.7.334Z" transform="translate(-1108.794 -303.401)" fill="#fff"/>
        <path id="Path_8045" data-name="Path 8045" d="M1098.948,347.092l.268-.05c.345-.065.688-.138,1.031-.212.125-.027.252-.052.377-.08q.616-.138,1.227-.293l.1-.026q.561-.145,1.117-.3c.133-.038.265-.079.4-.119q.406-.12.809-.249c.15-.048.3-.1.448-.147q.379-.126.755-.259.225-.079.448-.161.385-.141.765-.291c.137-.053.273-.105.409-.16.3-.121.6-.246.893-.373.087-.037.174-.072.26-.11.25-.11.5-.226.745-.34l.174-.746a41.138,41.138,0,0,1-10.063,3.273Q1099.025,346.772,1098.948,347.092Z" transform="translate(-1084.704 -306.014)" fill="#fff"/>
        <path id="Path_8046" data-name="Path 8046" d="M1133.383,310.955q-.569.315-1.15.611Q1132.813,311.27,1133.383,310.955Z" transform="translate(-1108.195 -283.276)" fill="#fff"/>
        <path id="Path_8047" data-name="Path 8047" d="M1120.819,317.471c-.242.1-.485.2-.73.3C1120.333,317.671,1120.577,317.571,1120.819,317.471Z" transform="translate(-1099.624 -287.875)" fill="#fff"/>
        <path id="Path_8048" data-name="Path 8048" d="M1137.829,308.99v-.005q-.358.212-.722.417C1137.35,309.266,1137.592,309.131,1137.829,308.99Z" transform="translate(-1111.636 -281.886)" fill="#fff"/>
        <path id="Path_8049" data-name="Path 8049" d="M1124.978,315.632c-.253.115-.506.229-.762.339C1124.471,315.861,1124.725,315.747,1124.978,315.632Z" transform="translate(-1102.537 -286.577)" fill="#fff"/>
        <path id="Path_8050" data-name="Path 8050" d="M1112.323,320.644c-.25.085-.5.166-.755.246C1111.822,320.81,1112.073,320.729,1112.323,320.644Z" transform="translate(-1093.611 -290.114)" fill="#fff"/>
        <path id="Path_8051" data-name="Path 8051" d="M1109.214,322.075l.191-.06c-.063.019-.127.036-.189.055Z" transform="translate(-1091.949 -291.082)" fill="#fff"/>
        <path id="Path_8052" data-name="Path 8052" d="M1116.612,319.132q-.364.137-.73.266Q1116.249,319.269,1116.612,319.132Z" transform="translate(-1096.655 -289.047)" fill="#fff"/>
        <path id="Path_8053" data-name="Path 8053" d="M1129.189,313.436c-.307.154-.615.305-.926.451C1128.574,313.741,1128.882,313.59,1129.189,313.436Z" transform="translate(-1105.393 -285.027)" fill="#fff"/>
        <path id="Path_8054" data-name="Path 8054" d="M1141.1,306.48l-.193.823-.189.809c.167-.1.337-.19.5-.29l.22-.132.385-1.646Z" transform="translate(-1114.184 -279.811)" fill="#fff"/>
        <path id="Path_8055" data-name="Path 8055" d="M1103.609,324.383l.665-.18.158-.671.159-.677c-.106.03-.211.063-.317.092l-.349.094-.077.329-.006.023Z" transform="translate(-1087.993 -291.675)" fill="#fff"/>
        <path id="Path_8056" data-name="Path 8056" d="M1116.163,307.955v.005c-.238.141-.479.276-.72.412-.1.054-.189.11-.285.163q-.569.315-1.15.611c-.08.041-.161.079-.242.119-.307.154-.615.305-.926.451-.142.067-.286.13-.429.195-.253.115-.506.229-.762.339-.161.069-.323.135-.484.2-.242.1-.485.2-.73.3-.169.066-.338.13-.508.194q-.364.137-.73.266c-.171.06-.343.12-.515.179-.25.085-.5.166-.755.246-.167.053-.334.107-.5.157l-.191.06v-.005q-.333.1-.668.193l-.159.677a40.352,40.352,0,0,0,10.286-4.365l.193-.823-.505.3C1116.309,307.872,1116.235,307.912,1116.163,307.955Z" transform="translate(-1089.968 -280.855)" fill="#fff"/>
        <path id="Path_8057" data-name="Path 8057" d="M1134.329,315.121q.579-.3,1.148-.61Q1134.908,314.826,1134.329,315.121Z" transform="translate(-1109.674 -285.786)" fill="#fff"/>
        <path id="Path_8058" data-name="Path 8058" d="M1117.042,323.144c.328-.115.654-.233.978-.357C1117.7,322.91,1117.37,323.028,1117.042,323.144Z" transform="translate(-1097.474 -291.627)" fill="#fff"/>
        <path id="Path_8059" data-name="Path 8059" d="M1130.3,317.626c.269-.127.536-.258.8-.39C1130.832,317.368,1130.565,317.5,1130.3,317.626Z" transform="translate(-1106.828 -287.709)" fill="#fff"/>
        <path id="Path_8060" data-name="Path 8060" d="M1111.833,324.74q.635-.2,1.263-.412Q1112.468,324.544,1111.833,324.74Z" transform="translate(-1093.797 -292.714)" fill="#fff"/>
        <path id="Path_8061" data-name="Path 8061" d="M1126.155,319.615q.385-.166.765-.34Q1126.539,319.448,1126.155,319.615Z" transform="translate(-1103.905 -289.148)" fill="#fff"/>
        <path id="Path_8062" data-name="Path 8062" d="M1121.846,321.431q.4-.158.8-.324Q1122.249,321.273,1121.846,321.431Z" transform="translate(-1100.864 -290.441)" fill="#fff"/>
        <path id="Path_8063" data-name="Path 8063" d="M1111.635,348.953c-.163.048-.326.094-.49.141C1111.309,349.047,1111.472,349,1111.635,348.953Z" transform="translate(-1093.312 -310.093)" fill="#fff"/>
        <path id="Path_8064" data-name="Path 8064" d="M1107.529,350.09c-.167.044-.333.087-.5.128C1107.2,350.177,1107.362,350.134,1107.529,350.09Z" transform="translate(-1090.406 -310.896)" fill="#fff"/>
        <path id="Path_8065" data-name="Path 8065" d="M1133.775,313.49,1131.9,321.5c.087-.041.175-.078.262-.119l.438-.209,1.9-8.1c-.24.139-.478.281-.72.416Z" transform="translate(-1107.959 -284.772)" fill="#fff"/>
        <path id="Path_8066" data-name="Path 8066" d="M1103.389,351.112c-.164.038-.329.076-.494.112C1103.06,351.188,1103.224,351.15,1103.389,351.112Z" transform="translate(-1087.49 -311.617)" fill="#fff"/>
        <path id="Path_8067" data-name="Path 8067" d="M1128.926,342.689c-.118.053-.235.108-.354.159C1128.691,342.8,1128.808,342.742,1128.926,342.689Z" transform="translate(-1105.611 -305.672)" fill="#fff"/>
        <path id="Path_8068" data-name="Path 8068" d="M1102.4,326.293c.249-.07.5-.145.743-.219-.363.109-.726.216-1.092.315l-.316.085c-.582,2.467-1.171,4.94-1.725,7.253.219-.043.438-.088.656-.134C1101.22,331.26,1101.813,328.768,1102.4,326.293Z" transform="translate(-1085.45 -293.946)" fill="#fff"/>
        <path id="Path_8069" data-name="Path 8069" d="M1119.864,346.328c-.13.047-.261.091-.391.137C1119.6,346.419,1119.734,346.375,1119.864,346.328Z" transform="translate(-1099.189 -308.241)" fill="#fff"/>
        <path id="Path_8070" data-name="Path 8070" d="M1124.511,344.841l-.085.032Z" transform="translate(-1102.685 -307.191)" fill="#fff"/>
        <path id="Path_8071" data-name="Path 8071" d="M1115.728,347.7c-.153.05-.307.1-.461.147C1115.421,347.8,1115.575,347.749,1115.728,347.7Z" transform="translate(-1096.221 -309.208)" fill="#fff"/>
        <path id="Path_8072" data-name="Path 8072" d="M1109.016,340.932v0c-.207.1-.416.188-.624.281-.118.053-.235.108-.354.159q-.564.245-1.135.474l-.085.032q-.53.21-1.066.405c-.13.047-.261.091-.391.137-.258.091-.517.181-.777.267-.153.05-.307.1-.461.147-.24.076-.481.151-.723.222-.163.048-.326.094-.49.141q-.354.1-.711.194c-.167.044-.333.087-.5.128-.24.06-.481.117-.722.172-.165.038-.329.076-.494.112l-.2.045v0c-.218.046-.436.091-.656.134l-.156.651a41.143,41.143,0,0,0,10.063-3.273l.177-.756-.437.209C1109.191,340.854,1109.1,340.891,1109.016,340.932Z" transform="translate(-1085.076 -304.201)" fill="#fff"/>
        <path id="Path_8073" data-name="Path 8073" d="M1105.869,315.358l.316-.085c.367-.1.73-.207,1.092-.315.115-.034.232-.067.347-.1q.635-.2,1.263-.412c.091-.031.18-.065.27-.1.327-.115.654-.233.978-.357.146-.055.29-.114.436-.171q.4-.158.8-.324.234-.1.467-.2.385-.166.765-.34c.151-.069.3-.138.454-.21.269-.127.536-.258.8-.39.128-.064.258-.127.385-.192q.579-.3,1.148-.61l.013-.007c.243-.135.481-.277.72-.416l.189-.809a40.352,40.352,0,0,1-10.286,4.365Z" transform="translate(-1089.588 -282.83)" fill="#fff"/>
        <path id="Path_8074" data-name="Path 8074" d="M1146.93,245.755a16.105,16.105,0,0,1,.66,2.468,17.528,17.528,0,0,1,.149,5.217l.66-.5a17.967,17.967,0,0,0-.212-4.828,16.527,16.527,0,0,0-.761-2.767l-.331.275C1147.04,245.667,1146.984,245.71,1146.93,245.755Z" transform="translate(-1118.567 -236.973)" fill="#fff"/>
        <path id="Path_8075" data-name="Path 8075" d="M1111.423,272.527l.313-.112c.122-.044.242-.093.364-.138.446-1.989.825-3.734,1.1-5.075a7.692,7.692,0,0,0,.07-3.022l-.516.247-.212-.662a6.615,6.615,0,0,1,.063,3.318c-.282,1.392-.7,3.334-1.253,5.77v0Z" transform="translate(-1093.456 -249.971)" fill="#fff"/>
        <path id="Path_8076" data-name="Path 8076" d="M1147.285,242.087l0-.005-.312-.768-.02.017q.175.367.332.751Z" transform="translate(-1118.582 -234.127)" fill="#fff"/>
        <path id="Path_8077" data-name="Path 8077" d="M1151.178,276.3l.039-.24c-.014.084-.027.162-.041.242Z" transform="translate(-1121.564 -258.651)" fill="#fff"/>
        <path id="Path_8078" data-name="Path 8078" d="M1118.125,295.237c.093-.037.188-.071.281-.108C1118.313,295.166,1118.218,295.2,1118.125,295.237Z" transform="translate(-1098.238 -272.107)" fill="#fff"/>
        <path id="Path_8079" data-name="Path 8079" d="M1136.622,285.939c.151-.087.3-.174.452-.263C1136.924,285.765,1136.773,285.852,1136.622,285.939Z" transform="translate(-1111.292 -265.436)" fill="#fff"/>
        <path id="Path_8080" data-name="Path 8080" d="M1127.96,290.636c.153-.074.3-.151.455-.227C1128.264,290.485,1128.113,290.562,1127.96,290.636Z" transform="translate(-1105.179 -268.776)" fill="#fff"/>
        <path id="Path_8081" data-name="Path 8081" d="M1123.559,292.864c.112-.05.223-.1.334-.154C1123.781,292.761,1123.671,292.814,1123.559,292.864Z" transform="translate(-1102.073 -270.4)" fill="#fff"/>
        <path id="Path_8082" data-name="Path 8082" d="M1132.3,288.352q.239-.127.475-.257Q1132.542,288.225,1132.3,288.352Z" transform="translate(-1108.245 -267.143)" fill="#fff"/>
        <path id="Path_8083" data-name="Path 8083" d="M1141.04,283.357c.121-.076.243-.15.363-.227C1141.283,283.207,1141.161,283.281,1141.04,283.357Z" transform="translate(-1114.41 -263.639)" fill="#fff"/>
        <path id="Path_8084" data-name="Path 8084" d="M1111.2,294.1c.054-.235.107-.471.159-.7l.159-.709c-.122.045-.242.094-.364.138l-.313.112-.073.325v0l-.242,1.073Z" transform="translate(-1092.875 -270.389)" fill="#fff"/>
        <path id="Path_8085" data-name="Path 8085" d="M1149.016,271.656c-.033.283-.071.566-.117.848s-.1.577-.159.865c.175-.127.352-.25.525-.381l.192-.145c.014-.08.027-.158.041-.242.078-.483.136-.964.178-1.443Z" transform="translate(-1119.844 -255.19)" fill="#fff"/>
        <path id="Path_8086" data-name="Path 8086" d="M1112.821,282.133l.363-.13c.4-.144.8-.3,1.2-.455.093-.037.188-.071.281-.108q.665-.267,1.318-.558c.112-.05.222-.1.334-.154.322-.146.643-.3.961-.45.153-.074.3-.151.455-.227q.414-.208.823-.424c.159-.084.317-.17.475-.257q.4-.219.8-.448c.151-.087.3-.174.452-.263.285-.17.567-.345.848-.522.121-.076.243-.15.363-.227.648-.418,1.28-.858,1.9-1.312.059-.287.113-.575.16-.865a39.749,39.749,0,0,1-10.57,5.7C1112.928,281.661,1112.875,281.9,1112.821,282.133Z" transform="translate(-1094.495 -258.418)" fill="#fff"/>
        <path id="Path_8087" data-name="Path 8087" d="M1125.14,255.831c-.216.127-.433.253-.652.376C1124.707,256.084,1124.923,255.958,1125.14,255.831Z" transform="translate(-1102.729 -244.373)" fill="#fff"/>
        <path id="Path_8088" data-name="Path 8088" d="M1121.574,257.879c-.209.114-.419.227-.631.338C1121.155,258.106,1121.364,257.993,1121.574,257.879Z" transform="translate(-1100.227 -245.818)" fill="#fff"/>
        <path id="Path_8089" data-name="Path 8089" d="M1118.448,259.94c.1-.05.2-.1.3-.154-.1.051-.2.1-.3.15Z" transform="translate(-1098.465 -247.164)" fill="#fff"/>
        <path id="Path_8090" data-name="Path 8090" d="M1139.713,246.048c-.2.157-.409.311-.615.464C1139.3,246.359,1139.51,246.205,1139.713,246.048Z" transform="translate(-1113.04 -237.468)" fill="#fff"/>
        <path id="Path_8091" data-name="Path 8091" d="M1132.362,250.758q-.488.334-.987.653Q1131.873,251.091,1132.362,250.758Z" transform="translate(-1107.589 -240.792)" fill="#fff"/>
        <path id="Path_8092" data-name="Path 8092" d="M1128.7,253.547c-.244.153-.488.306-.735.454C1128.212,253.853,1128.456,253.7,1128.7,253.547Z" transform="translate(-1105.182 -242.761)" fill="#fff"/>
        <path id="Path_8093" data-name="Path 8093" d="M1136.05,248.45q-.4.292-.81.573Q1135.649,248.741,1136.05,248.45Z" transform="translate(-1110.317 -239.163)" fill="#fff"/>
        <path id="Path_8094" data-name="Path 8094" d="M1142.795,244.077l0,0q-.181.147-.363.292C1142.552,244.269,1142.675,244.175,1142.795,244.077Z" transform="translate(-1115.391 -236.074)" fill="#fff"/>
        <path id="Path_8095" data-name="Path 8095" d="M1145.563,242.35c.081.2.152.4.223.6.054-.045.11-.087.164-.132l.331-.275c-.052-.138-.1-.279-.155-.414l0-.005c-.1-.256-.215-.506-.332-.751l-.483.4C1145.4,241.964,1145.485,242.157,1145.563,242.35Z" transform="translate(-1117.424 -234.167)" fill="#fff"/>
        <path id="Path_8096" data-name="Path 8096" d="M1115.736,262.382a5.524,5.524,0,0,0-.15-.6,4.725,4.725,0,0,0-.225-.565l-.036.018-.477.228.161.5.212.662Z" transform="translate(-1095.925 -248.174)" fill="#fff"/>
        <path id="Path_8097" data-name="Path 8097" d="M1125.042,242.735l-.134.112c-.115.1-.234.188-.35.282l0,0c-.12.1-.243.192-.365.288s-.243.194-.366.289c-.2.157-.409.311-.615.464-.109.081-.216.163-.325.242q-.4.292-.81.573l-.151.106q-.488.334-.987.653c-.089.057-.179.112-.269.168-.244.154-.488.306-.735.454-.123.074-.247.145-.371.218-.216.127-.433.253-.652.376-.137.077-.275.152-.412.227-.209.114-.419.227-.631.338-.144.075-.288.149-.433.223-.1.051-.2.1-.3.154l0,0c-.182.091-.363.183-.546.271a4.726,4.726,0,0,1,.225.565,40.621,40.621,0,0,0,8.479-5.425C1125.216,243.12,1125.13,242.927,1125.042,242.735Z" transform="translate(-1097.155 -235.13)" fill="#fff"/>
        <path id="Path_8098" data-name="Path 8098" d="M1144.141,276.444c-.091.064-.18.132-.272.2C1143.961,276.576,1144.05,276.508,1144.141,276.444Z" transform="translate(-1116.407 -258.92)" fill="#fff"/>
        <path id="Path_8099" data-name="Path 8099" d="M1117.373,290.845c-.175.072-.349.145-.525.215C1117.024,290.99,1117.2,290.917,1117.373,290.845Z" transform="translate(-1097.337 -269.084)" fill="#fff"/>
        <path id="Path_8100" data-name="Path 8100" d="M1130.51,284.612c-.165.091-.333.178-.5.266C1130.177,284.79,1130.344,284.7,1130.51,284.612Z" transform="translate(-1106.626 -264.685)" fill="#fff"/>
        <path id="Path_8101" data-name="Path 8101" d="M1126.22,259.421q.527-.294,1.044-.6Q1126.747,259.128,1126.22,259.421Z" transform="translate(-1103.951 -246.481)" fill="#fff"/>
        <path id="Path_8102" data-name="Path 8102" d="M1122.6,261.878c.244-.127.486-.258.727-.39C1123.09,261.62,1122.848,261.75,1122.6,261.878Z" transform="translate(-1101.399 -248.365)" fill="#fff"/>
        <path id="Path_8103" data-name="Path 8103" d="M1139.177,279.752c-.1.065-.206.127-.308.191C1138.971,279.879,1139.075,279.817,1139.177,279.752Z" transform="translate(-1112.878 -261.255)" fill="#fff"/>
        <path id="Path_8104" data-name="Path 8104" d="M1126.2,286.829c-.174.087-.349.172-.524.257C1125.853,287,1126.028,286.916,1126.2,286.829Z" transform="translate(-1103.568 -266.249)" fill="#fff"/>
        <path id="Path_8105" data-name="Path 8105" d="M1145.966,249.2a16.1,16.1,0,0,0-.66-2.468q-.335.276-.677.545c.06-.047.121-.092.18-.14a15.531,15.531,0,0,1,.561,2.173,17.04,17.04,0,0,1,.068,5.612c.064-.048.131-.093.2-.142l.482-.364A17.524,17.524,0,0,0,1145.966,249.2Z" transform="translate(-1116.943 -237.952)" fill="#fff"/>
        <path id="Path_8106" data-name="Path 8106" d="M1134.784,282.253c-.149.088-.3.172-.449.258C1134.484,282.425,1134.635,282.341,1134.784,282.253Z" transform="translate(-1109.678 -263.02)" fill="#fff"/>
        <path id="Path_8107" data-name="Path 8107" d="M1121.827,288.9c-.177.081-.355.161-.533.24C1121.473,289.066,1121.65,288.986,1121.827,288.9Z" transform="translate(-1100.474 -267.714)" fill="#fff"/>
        <path id="Path_8108" data-name="Path 8108" d="M1141.353,250.04q.291-.215.578-.436Q1141.644,249.825,1141.353,250.04Z" transform="translate(-1114.631 -239.978)" fill="#fff"/>
        <path id="Path_8109" data-name="Path 8109" d="M1129.869,257.285q.5-.3.993-.614Q1130.37,256.984,1129.869,257.285Z" transform="translate(-1106.526 -244.965)" fill="#fff"/>
        <path id="Path_8110" data-name="Path 8110" d="M1115.594,267.148a8.212,8.212,0,0,0,.041-3.416c.141-.07.281-.143.421-.215-.29.147-.581.294-.875.435l-.111.053a7.693,7.693,0,0,1-.07,3.022c-.272,1.341-.651,3.086-1.1,5.075q.341-.126.679-.258C1115.015,269.909,1115.354,268.333,1115.594,267.148Z" transform="translate(-1095.258 -249.798)" fill="#fff"/>
        <path id="Path_8111" data-name="Path 8111" d="M1134.374,254.866c.225-.147.45-.294.672-.445C1134.824,254.572,1134.6,254.719,1134.374,254.866Z" transform="translate(-1109.706 -243.377)" fill="#fff"/>
        <path id="Path_8112" data-name="Path 8112" d="M1137.962,252.494c.2-.141.4-.283.6-.427C1138.366,252.211,1138.165,252.353,1137.962,252.494Z" transform="translate(-1112.238 -241.716)" fill="#fff"/>
        <path id="Path_8113" data-name="Path 8113" d="M1123.37,273.357v.005c-.25.187-.505.366-.76.546-.091.064-.18.132-.272.2q-.575.4-1.163.778c-.1.065-.206.127-.308.191-.293.185-.587.368-.885.545-.149.088-.3.172-.449.258-.256.148-.513.294-.773.436-.165.091-.333.178-.5.266q-.374.2-.751.387c-.174.087-.349.172-.524.257q-.376.181-.756.354c-.177.081-.355.161-.533.24-.259.114-.521.223-.783.331-.175.072-.349.145-.525.215-.063.025-.125.053-.189.077v-.006q-.338.132-.679.258l-.159.709a39.749,39.749,0,0,0,10.569-5.7c.046-.282.084-.565.117-.848l-.482.364C1123.5,273.264,1123.435,273.309,1123.37,273.357Z" transform="translate(-1094.876 -256.384)" fill="#fff"/>
        <path id="Path_8114" data-name="Path 8114" d="M1118.493,250.237c.136-.069.272-.137.408-.208.244-.127.486-.258.727-.39.112-.062.225-.121.337-.183q.527-.294,1.044-.6l.029-.018q.5-.3.993-.614c.111-.071.222-.145.332-.217.225-.147.45-.294.672-.445.129-.087.256-.177.383-.265.2-.141.4-.283.6-.427q.2-.143.394-.289.291-.215.578-.436c.129-.1.258-.2.386-.3q.342-.269.677-.545c-.071-.2-.142-.4-.223-.6a40.624,40.624,0,0,1-8.479,5.425,5.526,5.526,0,0,1,.15.6l.111-.053C1117.913,250.531,1118.2,250.384,1118.493,250.237Z" transform="translate(-1097.696 -236.516)" fill="#fff"/>
      </g>
    </g>
    <rect id="Rectangle_643" data-name="Rectangle 643" width="1.918" height="95.742" transform="translate(178.871 1251.415)" fill="#fff"/>
  </g>
</svg>
