<svg xmlns="http://www.w3.org/2000/svg" width="14.381" height="209.199" viewBox="0 0 14.381 209.199">
  <g id="Group_2720" data-name="Group 2720" transform="translate(0 -38)">
    <path id="Path_2627" data-name="Path 2627" d="M244.925,1212.567l.706,1.293a9.831,9.831,0,0,0,3.909,3.91l1.293.708a.918.918,0,0,1,0,1.61l-1.293.707a9.839,9.839,0,0,0-3.909,3.911l-.706,1.293a.919.919,0,0,1-1.611,0l-.706-1.293a9.839,9.839,0,0,0-3.909-3.911l-1.293-.707a.918.918,0,0,1,0-1.61l1.293-.708a9.831,9.831,0,0,0,3.909-3.91l.706-1.293A.919.919,0,0,1,244.925,1212.567Z" transform="translate(-236.929 -1028.659)" fill="#fdf4e9"/>
    <path id="Path_2628" data-name="Path 2628" d="M244.925,1160.583l.706,1.293a9.843,9.843,0,0,0,3.909,3.91l1.293.707a.919.919,0,0,1,0,1.611l-1.293.707a9.844,9.844,0,0,0-3.909,3.91l-.706,1.293a.918.918,0,0,1-1.611,0l-.706-1.293a9.844,9.844,0,0,0-3.909-3.91l-1.293-.707a.919.919,0,0,1,0-1.611l1.293-.707a9.843,9.843,0,0,0,3.909-3.91l.706-1.293A.918.918,0,0,1,244.925,1160.583Z" transform="translate(-236.929 -1028.659)" fill="#fdf4e9"/>
    <path id="Path_2629" data-name="Path 2629" d="M244.925,1138.739l.706,1.293a9.831,9.831,0,0,0,3.909,3.91l1.293.707a.919.919,0,0,1,0,1.611l-1.293.707a9.839,9.839,0,0,0-3.909,3.911l-.706,1.293a.919.919,0,0,1-1.611,0l-.706-1.293a9.839,9.839,0,0,0-3.909-3.911l-1.293-.707a.919.919,0,0,1,0-1.611l1.293-.707a9.831,9.831,0,0,0,3.909-3.91l.706-1.293A.919.919,0,0,1,244.925,1138.739Z" transform="translate(-236.929 -1028.659)" fill="#fdf4e9"/>
    <path id="Path_2630" data-name="Path 2630" d="M244.925,1098.713l.706,1.293a9.831,9.831,0,0,0,3.909,3.91l1.293.707a.919.919,0,0,1,0,1.611l-1.293.707a9.839,9.839,0,0,0-3.909,3.911l-.706,1.293a.919.919,0,0,1-1.611,0l-.706-1.293a9.839,9.839,0,0,0-3.909-3.911l-1.293-.707a.919.919,0,0,1,0-1.611l1.293-.707a9.831,9.831,0,0,0,3.909-3.91l.706-1.293A.919.919,0,0,1,244.925,1098.713Z" transform="translate(-236.929 -1028.659)" fill="#fdf4e9"/>
    <path id="Path_2631" data-name="Path 2631" d="M244.925,1236.6l.706,1.293a9.839,9.839,0,0,0,3.909,3.911l1.293.707a.918.918,0,0,1,0,1.61l-1.293.707a9.839,9.839,0,0,0-3.909,3.911l-.706,1.293a.919.919,0,0,1-1.611,0l-.706-1.293a9.839,9.839,0,0,0-3.909-3.911l-1.293-.707a.918.918,0,0,1,0-1.61l1.293-.707a9.839,9.839,0,0,0,3.909-3.911l.706-1.293A.919.919,0,0,1,244.925,1236.6Z" transform="translate(-236.929 -1028.659)" fill="#fdf4e9"/>
    <path id="Path_2632" data-name="Path 2632" d="M244.925,1261.949l.706,1.293a9.839,9.839,0,0,0,3.909,3.911l1.293.707a.918.918,0,0,1,0,1.61l-1.293.708a9.831,9.831,0,0,0-3.909,3.91l-.706,1.293a.919.919,0,0,1-1.611,0l-.706-1.293a9.831,9.831,0,0,0-3.909-3.91l-1.293-.708a.918.918,0,0,1,0-1.61l1.293-.707a9.839,9.839,0,0,0,3.909-3.911l.706-1.293A.919.919,0,0,1,244.925,1261.949Z" transform="translate(-236.929 -1028.659)" fill="#fdf4e9"/>
    <g id="Group_2719" data-name="Group 2719" transform="translate(6.649)">
      <rect id="Rectangle_199" data-name="Rectangle 199" width="0.828" height="200.602" transform="translate(0.078 38)" fill="#fdf4e9"/>
    </g>
  </g>
</svg>
