<svg xmlns="http://www.w3.org/2000/svg" width="14.382" height="270.479" viewBox="0 0 14.382 270.479">
  <g id="Group_2736" data-name="Group 2736" transform="translate(0 -38)">
    <path id="Path_2675" data-name="Path 2675" d="M215.881,1273.846l.707,1.293a9.834,9.834,0,0,0,3.909,3.911l1.292.707a.917.917,0,0,1,0,1.61l-1.292.708a9.825,9.825,0,0,0-3.909,3.91l-.707,1.293a.918.918,0,0,1-1.61,0l-.707-1.293a9.831,9.831,0,0,0-3.909-3.91l-1.293-.708a.918.918,0,0,1,0-1.61l1.293-.707a9.84,9.84,0,0,0,3.909-3.911l.707-1.293A.918.918,0,0,1,215.881,1273.846Z" transform="translate(-207.885 -1028.659)" fill="#fdf4e9"/>
    <path id="Path_2676" data-name="Path 2676" d="M215.881,1221.862l.707,1.293a9.836,9.836,0,0,0,3.909,3.91l1.292.707a.918.918,0,0,1,0,1.611l-1.292.707a9.838,9.838,0,0,0-3.909,3.91l-.707,1.293a.917.917,0,0,1-1.61,0l-.707-1.293a9.844,9.844,0,0,0-3.909-3.91l-1.293-.707a.919.919,0,0,1,0-1.611l1.293-.707a9.843,9.843,0,0,0,3.909-3.91l.707-1.293A.917.917,0,0,1,215.881,1221.862Z" transform="translate(-207.885 -1028.659)" fill="#fdf4e9"/>
    <path id="Path_2677" data-name="Path 2677" d="M215.881,1200.018l.707,1.293a9.834,9.834,0,0,0,3.909,3.911l1.292.707a.917.917,0,0,1,0,1.61l-1.292.707a9.834,9.834,0,0,0-3.909,3.911l-.707,1.293a.918.918,0,0,1-1.61,0l-.707-1.293a9.84,9.84,0,0,0-3.909-3.911l-1.293-.707a.918.918,0,0,1,0-1.61l1.293-.707a9.84,9.84,0,0,0,3.909-3.911l.707-1.293A.918.918,0,0,1,215.881,1200.018Z" transform="translate(-207.885 -1028.659)" fill="#fdf4e9"/>
    <path id="Path_2678" data-name="Path 2678" d="M215.881,1159.992l.707,1.293a9.834,9.834,0,0,0,3.909,3.911l1.292.707a.917.917,0,0,1,0,1.61l-1.292.707a9.834,9.834,0,0,0-3.909,3.911l-.707,1.293a.918.918,0,0,1-1.61,0l-.707-1.293a9.84,9.84,0,0,0-3.909-3.911l-1.293-.707a.918.918,0,0,1,0-1.61l1.293-.707a9.84,9.84,0,0,0,3.909-3.911l.707-1.293A.918.918,0,0,1,215.881,1159.992Z" transform="translate(-207.885 -1028.659)" fill="#fdf4e9"/>
    <path id="Path_2679" data-name="Path 2679" d="M215.881,1297.883l.707,1.293a9.834,9.834,0,0,0,3.909,3.911l1.292.707a.918.918,0,0,1,0,1.611l-1.292.707a9.824,9.824,0,0,0-3.909,3.91l-.707,1.293a.918.918,0,0,1-1.61,0l-.707-1.293a9.83,9.83,0,0,0-3.909-3.91l-1.293-.707a.919.919,0,0,1,0-1.611l1.293-.707a9.84,9.84,0,0,0,3.909-3.911l.707-1.293A.918.918,0,0,1,215.881,1297.883Z" transform="translate(-207.885 -1028.659)" fill="#fdf4e9"/>
    <path id="Path_2680" data-name="Path 2680" d="M215.881,1323.229l.707,1.292a9.833,9.833,0,0,0,3.909,3.911l1.292.707a.918.918,0,0,1,0,1.611l-1.292.707a9.824,9.824,0,0,0-3.909,3.91l-.707,1.293a.917.917,0,0,1-1.61,0l-.707-1.293a9.83,9.83,0,0,0-3.909-3.91l-1.293-.707a.919.919,0,0,1,0-1.611l1.293-.707a9.839,9.839,0,0,0,3.909-3.911l.707-1.292A.917.917,0,0,1,215.881,1323.229Z" transform="translate(-207.885 -1028.659)" fill="#fdf4e9"/>
    <g id="Group_2735" data-name="Group 2735" transform="translate(6.649)">
      <rect id="Rectangle_207" data-name="Rectangle 207" width="0.86" height="261.88" transform="translate(0.062 38)" fill="#fdf4e9"/>
    </g>
  </g>
</svg>
