<svg xmlns="http://www.w3.org/2000/svg" width="14.382" height="177.622" viewBox="0 0 14.382 177.622">
  <g id="Group_2744" data-name="Group 2744" transform="translate(0 -77.81)">
    <path id="Path_2699" data-name="Path 2699" d="M996.152,1220.8l.707,1.293a9.825,9.825,0,0,0,3.909,3.91l1.292.708a.917.917,0,0,1,0,1.61l-1.292.707a9.833,9.833,0,0,0-3.909,3.911l-.707,1.293a.918.918,0,0,1-1.61,0l-.707-1.293a9.834,9.834,0,0,0-3.909-3.911l-1.292-.707a.917.917,0,0,1,0-1.61l1.292-.708a9.826,9.826,0,0,0,3.909-3.91l.707-1.293A.918.918,0,0,1,996.152,1220.8Z" transform="translate(-988.156 -1028.659)" fill="#fdf4e9"/>
    <path id="Path_2700" data-name="Path 2700" d="M996.152,1168.816l.707,1.293a9.837,9.837,0,0,0,3.909,3.91l1.292.707a.918.918,0,0,1,0,1.611l-1.292.707a9.837,9.837,0,0,0-3.909,3.91l-.707,1.293a.917.917,0,0,1-1.61,0l-.707-1.293a9.838,9.838,0,0,0-3.909-3.91l-1.292-.707a.918.918,0,0,1,0-1.611l1.292-.707a9.838,9.838,0,0,0,3.909-3.91l.707-1.293A.917.917,0,0,1,996.152,1168.816Z" transform="translate(-988.156 -1028.659)" fill="#fdf4e9"/>
    <path id="Path_2701" data-name="Path 2701" d="M996.152,1146.972l.707,1.293a9.825,9.825,0,0,0,3.909,3.91l1.292.707a.918.918,0,0,1,0,1.611l-1.292.707a9.833,9.833,0,0,0-3.909,3.911l-.707,1.293a.918.918,0,0,1-1.61,0l-.707-1.293a9.834,9.834,0,0,0-3.909-3.911l-1.292-.707a.918.918,0,0,1,0-1.611l1.292-.707a9.826,9.826,0,0,0,3.909-3.91l.707-1.293A.918.918,0,0,1,996.152,1146.972Z" transform="translate(-988.156 -1028.659)" fill="#fdf4e9"/>
    <path id="Path_2702" data-name="Path 2702" d="M996.152,1106.946l.707,1.293a9.825,9.825,0,0,0,3.909,3.91l1.292.707a.918.918,0,0,1,0,1.611l-1.292.707a9.833,9.833,0,0,0-3.909,3.911l-.707,1.293a.918.918,0,0,1-1.61,0l-.707-1.293a9.834,9.834,0,0,0-3.909-3.911l-1.292-.707a.918.918,0,0,1,0-1.611l1.292-.707a9.826,9.826,0,0,0,3.909-3.91l.707-1.293A.918.918,0,0,1,996.152,1106.946Z" transform="translate(-988.156 -1028.659)" fill="#fdf4e9"/>
    <path id="Path_2703" data-name="Path 2703" d="M996.152,1244.837l.707,1.293a9.833,9.833,0,0,0,3.909,3.911l1.292.707a.917.917,0,0,1,0,1.61l-1.292.707a9.833,9.833,0,0,0-3.909,3.911l-.707,1.293a.918.918,0,0,1-1.61,0l-.707-1.293a9.834,9.834,0,0,0-3.909-3.911l-1.292-.707a.917.917,0,0,1,0-1.61l1.292-.707a9.834,9.834,0,0,0,3.909-3.911l.707-1.293A.918.918,0,0,1,996.152,1244.837Z" transform="translate(-988.156 -1028.659)" fill="#fdf4e9"/>
    <path id="Path_2704" data-name="Path 2704" d="M996.152,1270.182l.707,1.293a9.833,9.833,0,0,0,3.909,3.911l1.292.707a.917.917,0,0,1,0,1.61l-1.292.708a9.824,9.824,0,0,0-3.909,3.91l-.707,1.293a.918.918,0,0,1-1.61,0l-.707-1.293a9.825,9.825,0,0,0-3.909-3.91l-1.292-.708a.917.917,0,0,1,0-1.61l1.292-.707a9.833,9.833,0,0,0,3.909-3.911l.707-1.293A.918.918,0,0,1,996.152,1270.182Z" transform="translate(-988.156 -1028.659)" fill="#fdf4e9"/>
    <g id="Group_2743" data-name="Group 2743" transform="translate(6.649)">
      <rect id="Rectangle_211" data-name="Rectangle 211" width="0.669" height="167.834" transform="translate(0.158 79)" fill="#fdf4e9"/>
    </g>
  </g>
</svg>
