<svg xmlns="http://www.w3.org/2000/svg" width="191.456" height="305.273" viewBox="0 0 191.456 305.273">
  <g id="Group_5535" data-name="Group 5535" transform="translate(-1170.032 79)">
    <g id="Group_2732" data-name="Group 2732" transform="translate(1347.106 -38)">
      <path id="Path_2663" data-name="Path 2663" d="M1034.029,1229.641l.707,1.293a9.831,9.831,0,0,0,3.909,3.91l1.293.708a.918.918,0,0,1,0,1.61l-1.293.707a9.84,9.84,0,0,0-3.909,3.911l-.707,1.293a.918.918,0,0,1-1.61,0l-.707-1.293a9.833,9.833,0,0,0-3.909-3.911l-1.292-.707a.917.917,0,0,1,0-1.61l1.292-.708a9.824,9.824,0,0,0,3.909-3.91l.707-1.293A.918.918,0,0,1,1034.029,1229.641Z" transform="translate(-1026.033 -1028.659)" fill="#fdf4e9"/>
      <path id="Path_2664" data-name="Path 2664" d="M1034.029,1177.657l.707,1.293a9.843,9.843,0,0,0,3.909,3.91l1.293.707a.919.919,0,0,1,0,1.611l-1.293.707a9.843,9.843,0,0,0-3.909,3.91l-.707,1.293a.917.917,0,0,1-1.61,0l-.707-1.293a9.837,9.837,0,0,0-3.909-3.91l-1.292-.707a.918.918,0,0,1,0-1.611l1.292-.707a9.837,9.837,0,0,0,3.909-3.91l.707-1.293A.917.917,0,0,1,1034.029,1177.657Z" transform="translate(-1026.033 -1028.659)" fill="#fdf4e9"/>
      <path id="Path_2665" data-name="Path 2665" d="M1034.029,1155.813l.707,1.293a9.831,9.831,0,0,0,3.909,3.91l1.293.707a.919.919,0,0,1,0,1.611l-1.293.707a9.84,9.84,0,0,0-3.909,3.911l-.707,1.293a.918.918,0,0,1-1.61,0l-.707-1.293a9.833,9.833,0,0,0-3.909-3.911l-1.292-.707a.918.918,0,0,1,0-1.611l1.292-.707a9.824,9.824,0,0,0,3.909-3.91l.707-1.293A.918.918,0,0,1,1034.029,1155.813Z" transform="translate(-1026.033 -1028.659)" fill="#fdf4e9"/>
      <path id="Path_2666" data-name="Path 2666" d="M1034.029,1115.787l.707,1.293a9.831,9.831,0,0,0,3.909,3.91l1.293.707a.919.919,0,0,1,0,1.611l-1.293.707a9.84,9.84,0,0,0-3.909,3.911l-.707,1.293a.918.918,0,0,1-1.61,0l-.707-1.293a9.833,9.833,0,0,0-3.909-3.911l-1.292-.707a.918.918,0,0,1,0-1.611l1.292-.707a9.824,9.824,0,0,0,3.909-3.91l.707-1.293A.918.918,0,0,1,1034.029,1115.787Z" transform="translate(-1026.033 -1028.659)" fill="#fdf4e9"/>
      <path id="Path_2667" data-name="Path 2667" d="M1034.029,1253.678l.707,1.293a9.84,9.84,0,0,0,3.909,3.911l1.293.707a.918.918,0,0,1,0,1.61l-1.293.707a9.84,9.84,0,0,0-3.909,3.911l-.707,1.293a.918.918,0,0,1-1.61,0l-.707-1.293a9.833,9.833,0,0,0-3.909-3.911l-1.292-.707a.917.917,0,0,1,0-1.61l1.292-.707a9.833,9.833,0,0,0,3.909-3.911l.707-1.293A.918.918,0,0,1,1034.029,1253.678Z" transform="translate(-1026.033 -1028.659)" fill="#fdf4e9"/>
      <path id="Path_2668" data-name="Path 2668" d="M1034.029,1279.023l.707,1.293a9.84,9.84,0,0,0,3.909,3.911l1.293.707a.918.918,0,0,1,0,1.61l-1.293.708a9.832,9.832,0,0,0-3.909,3.91l-.707,1.293a.918.918,0,0,1-1.61,0l-.707-1.293a9.825,9.825,0,0,0-3.909-3.91l-1.292-.708a.917.917,0,0,1,0-1.61l1.292-.707a9.834,9.834,0,0,0,3.909-3.911l.707-1.293A.918.918,0,0,1,1034.029,1279.023Z" transform="translate(-1026.033 -1028.659)" fill="#fdf4e9"/>
      <g id="Group_2731" data-name="Group 2731" transform="translate(6.649)">
        <rect id="Rectangle_205" data-name="Rectangle 205" width="0.984" height="255.675" fill="#fdf4e9"/>
      </g>
    </g>
    <g id="Group_2734" data-name="Group 2734" transform="translate(1220.011 -38)">
      <path id="Path_2669" data-name="Path 2669" d="M898.934,1229.641l.707,1.293a9.825,9.825,0,0,0,3.909,3.91l1.292.708a.917.917,0,0,1,0,1.61l-1.292.707a9.833,9.833,0,0,0-3.909,3.911l-.707,1.293a.918.918,0,0,1-1.61,0l-.707-1.293a9.84,9.84,0,0,0-3.909-3.911l-1.293-.707a.918.918,0,0,1,0-1.61l1.293-.708a9.831,9.831,0,0,0,3.909-3.91l.707-1.293A.918.918,0,0,1,898.934,1229.641Z" transform="translate(-890.938 -1028.659)" fill="#fdf4e9"/>
      <path id="Path_2670" data-name="Path 2670" d="M898.934,1177.657l.707,1.293a9.837,9.837,0,0,0,3.909,3.91l1.292.707a.918.918,0,0,1,0,1.611l-1.292.707a9.837,9.837,0,0,0-3.909,3.91l-.707,1.293a.917.917,0,0,1-1.61,0l-.707-1.293a9.843,9.843,0,0,0-3.909-3.91l-1.293-.707a.919.919,0,0,1,0-1.611l1.293-.707a9.843,9.843,0,0,0,3.909-3.91l.707-1.293A.917.917,0,0,1,898.934,1177.657Z" transform="translate(-890.938 -1028.659)" fill="#fdf4e9"/>
      <path id="Path_2671" data-name="Path 2671" d="M898.934,1155.813l.707,1.293a9.825,9.825,0,0,0,3.909,3.91l1.292.707a.918.918,0,0,1,0,1.611l-1.292.707a9.833,9.833,0,0,0-3.909,3.911l-.707,1.293a.918.918,0,0,1-1.61,0l-.707-1.293a9.84,9.84,0,0,0-3.909-3.911l-1.293-.707a.919.919,0,0,1,0-1.611l1.293-.707a9.831,9.831,0,0,0,3.909-3.91l.707-1.293A.918.918,0,0,1,898.934,1155.813Z" transform="translate(-890.938 -1028.659)" fill="#fdf4e9"/>
      <path id="Path_2672" data-name="Path 2672" d="M898.934,1115.787l.707,1.293a9.825,9.825,0,0,0,3.909,3.91l1.292.707a.918.918,0,0,1,0,1.611l-1.292.707a9.833,9.833,0,0,0-3.909,3.911l-.707,1.293a.918.918,0,0,1-1.61,0l-.707-1.293a9.84,9.84,0,0,0-3.909-3.911l-1.293-.707a.919.919,0,0,1,0-1.611l1.293-.707a9.831,9.831,0,0,0,3.909-3.91l.707-1.293A.918.918,0,0,1,898.934,1115.787Z" transform="translate(-890.938 -1028.659)" fill="#fdf4e9"/>
      <path id="Path_2673" data-name="Path 2673" d="M898.934,1253.678l.707,1.293a9.833,9.833,0,0,0,3.909,3.911l1.292.707a.917.917,0,0,1,0,1.61l-1.292.707a9.833,9.833,0,0,0-3.909,3.911l-.707,1.293a.918.918,0,0,1-1.61,0l-.707-1.293a9.84,9.84,0,0,0-3.909-3.911l-1.293-.707a.918.918,0,0,1,0-1.61l1.293-.707a9.84,9.84,0,0,0,3.909-3.911l.707-1.293A.918.918,0,0,1,898.934,1253.678Z" transform="translate(-890.938 -1028.659)" fill="#fdf4e9"/>
      <path id="Path_2674" data-name="Path 2674" d="M898.934,1279.023l.707,1.293a9.834,9.834,0,0,0,3.909,3.911l1.292.707a.917.917,0,0,1,0,1.61l-1.292.708a9.826,9.826,0,0,0-3.909,3.91l-.707,1.293a.918.918,0,0,1-1.61,0l-.707-1.293a9.832,9.832,0,0,0-3.909-3.91l-1.293-.708a.918.918,0,0,1,0-1.61l1.293-.707a9.84,9.84,0,0,0,3.909-3.911l.707-1.293A.918.918,0,0,1,898.934,1279.023Z" transform="translate(-890.938 -1028.659)" fill="#fdf4e9"/>
      <g id="Group_2733" data-name="Group 2733" transform="translate(6.648)">
        <rect id="Rectangle_206" data-name="Rectangle 206" width="0.984" height="255.675" fill="#fdf4e9"/>
      </g>
    </g>
    <g id="Group_2744" data-name="Group 2744" transform="translate(1309.229 -79)">
      <path id="Path_2699" data-name="Path 2699" d="M996.152,1220.8l.707,1.293a9.825,9.825,0,0,0,3.909,3.91l1.292.708a.917.917,0,0,1,0,1.61l-1.292.707a9.833,9.833,0,0,0-3.909,3.911l-.707,1.293a.918.918,0,0,1-1.61,0l-.707-1.293a9.834,9.834,0,0,0-3.909-3.911l-1.292-.707a.917.917,0,0,1,0-1.61l1.292-.708a9.826,9.826,0,0,0,3.909-3.91l.707-1.293A.918.918,0,0,1,996.152,1220.8Z" transform="translate(-988.156 -1028.659)" fill="#fdf4e9"/>
      <path id="Path_2700" data-name="Path 2700" d="M996.152,1168.816l.707,1.293a9.837,9.837,0,0,0,3.909,3.91l1.292.707a.918.918,0,0,1,0,1.611l-1.292.707a9.837,9.837,0,0,0-3.909,3.91l-.707,1.293a.917.917,0,0,1-1.61,0l-.707-1.293a9.838,9.838,0,0,0-3.909-3.91l-1.292-.707a.918.918,0,0,1,0-1.611l1.292-.707a9.838,9.838,0,0,0,3.909-3.91l.707-1.293A.917.917,0,0,1,996.152,1168.816Z" transform="translate(-988.156 -1028.659)" fill="#fdf4e9"/>
      <path id="Path_2701" data-name="Path 2701" d="M996.152,1146.972l.707,1.293a9.825,9.825,0,0,0,3.909,3.91l1.292.707a.918.918,0,0,1,0,1.611l-1.292.707a9.833,9.833,0,0,0-3.909,3.911l-.707,1.293a.918.918,0,0,1-1.61,0l-.707-1.293a9.834,9.834,0,0,0-3.909-3.911l-1.292-.707a.918.918,0,0,1,0-1.611l1.292-.707a9.826,9.826,0,0,0,3.909-3.91l.707-1.293A.918.918,0,0,1,996.152,1146.972Z" transform="translate(-988.156 -1028.659)" fill="#fdf4e9"/>
      <path id="Path_2702" data-name="Path 2702" d="M996.152,1106.946l.707,1.293a9.825,9.825,0,0,0,3.909,3.91l1.292.707a.918.918,0,0,1,0,1.611l-1.292.707a9.833,9.833,0,0,0-3.909,3.911l-.707,1.293a.918.918,0,0,1-1.61,0l-.707-1.293a9.834,9.834,0,0,0-3.909-3.911l-1.292-.707a.918.918,0,0,1,0-1.611l1.292-.707a9.826,9.826,0,0,0,3.909-3.91l.707-1.293A.918.918,0,0,1,996.152,1106.946Z" transform="translate(-988.156 -1028.659)" fill="#fdf4e9"/>
      <path id="Path_2703" data-name="Path 2703" d="M996.152,1244.837l.707,1.293a9.833,9.833,0,0,0,3.909,3.911l1.292.707a.917.917,0,0,1,0,1.61l-1.292.707a9.833,9.833,0,0,0-3.909,3.911l-.707,1.293a.918.918,0,0,1-1.61,0l-.707-1.293a9.834,9.834,0,0,0-3.909-3.911l-1.292-.707a.917.917,0,0,1,0-1.61l1.292-.707a9.834,9.834,0,0,0,3.909-3.911l.707-1.293A.918.918,0,0,1,996.152,1244.837Z" transform="translate(-988.156 -1028.659)" fill="#fdf4e9"/>
      <path id="Path_2704" data-name="Path 2704" d="M996.152,1270.182l.707,1.293a9.833,9.833,0,0,0,3.909,3.911l1.292.707a.917.917,0,0,1,0,1.61l-1.292.708a9.824,9.824,0,0,0-3.909,3.91l-.707,1.293a.918.918,0,0,1-1.61,0l-.707-1.293a9.825,9.825,0,0,0-3.909-3.91l-1.292-.708a.917.917,0,0,1,0-1.61l1.292-.707a9.833,9.833,0,0,0,3.909-3.911l.707-1.293A.918.918,0,0,1,996.152,1270.182Z" transform="translate(-988.156 -1028.659)" fill="#fdf4e9"/>
      <g id="Group_2743" data-name="Group 2743" transform="translate(6.649)">
        <rect id="Rectangle_211" data-name="Rectangle 211" width="0.984" height="246.834" fill="#fdf4e9"/>
      </g>
    </g>
    <g id="Group_4911" data-name="Group 4911" transform="translate(1234.104 -1247.786)">
      <g id="Group_4878" data-name="Group 4878" transform="translate(27.286 1336.978)">
        <g id="Group_4876" data-name="Group 4876" transform="translate(12.231 0)">
          <g id="Group_4873" data-name="Group 4873" transform="translate(8.088)">
            <path id="Path_7830" data-name="Path 7830" d="M665.752,192.61l.581-1.02c.613-1.076,3.795-6.412,6.132-5.763a1.6,1.6,0,0,1,1.215,1.7c-.131,2.4-3.545,4.37-6.769,4.894Zm6.213-5.714c-.787.09-2.367,1.58-4,4.152,3.136-.849,4.542-2.674,4.592-3.583a.476.476,0,0,0-.395-.558A.525.525,0,0,0,671.965,186.9Z" transform="translate(-665.752 -185.772)" fill="#fff"/>
          </g>
          <g id="Group_4874" data-name="Group 4874" transform="translate(0 1.461)">
            <path id="Path_7831" data-name="Path 7831" d="M647.216,196.015l-1.171.079c-3.259.22-7.032-.93-7.7-3.234a1.6,1.6,0,0,1,.8-1.932c2.13-1.163,6.437,3.315,7.278,4.225Zm-7.346-4.158a.529.529,0,0,0-.193.057.476.476,0,0,0-.258.633c.254.873,2.038,2.332,5.284,2.449C642.534,192.859,640.658,191.766,639.871,191.857Z" transform="translate(-638.266 -190.737)" fill="#fff"/>
          </g>
          <g id="Group_4875" data-name="Group 4875" transform="translate(8.213 5.697)">
            <path id="Path_7832" data-name="Path 7832" d="M666.77,205.578c.031.264-.076.494-.238.512s-.318-.181-.349-.445.077-.494.239-.512S666.739,205.314,666.77,205.578Z" transform="translate(-666.178 -205.132)" fill="#fff"/>
          </g>
        </g>
        <g id="Group_4877" data-name="Group 4877" transform="translate(0 4.522)">
          <path id="Path_7833" data-name="Path 7833" d="M647.425,261.912,645.048,241.2l-.558.064,2.379,20.732a1.081,1.081,0,0,1-.951,1.2l-11.632,1.335.059.516L623.412,266.3l-.059-.516-10.928,1.254a1.081,1.081,0,0,1-1.2-.951l-2.379-20.732-.557.064,2.377,20.714a1.662,1.662,0,0,0,1.839,1.46l33.459-3.84A1.662,1.662,0,0,0,647.425,261.912Z" transform="translate(-604.88 -229.411)" fill="#fff"/>
          <path id="Path_7834" data-name="Path 7834" d="M613.715,276.287a.539.539,0,0,1-.6-.473L610.743,255.1l-.558.064,2.379,20.732a1.081,1.081,0,0,0,1.2.951l10.928-1.254-.064-.557Z" transform="translate(-606.217 -239.222)" fill="#fff"/>
          <path id="Path_7835" data-name="Path 7835" d="M708.508,262.194a.539.539,0,0,1-.473.6l-11.614,1.333.064.558,11.632-1.335a1.081,1.081,0,0,0,.951-1.2l-2.379-20.732-.557.064Z" transform="translate(-667.077 -229.564)" fill="#fff"/>
          <path id="Path_7836" data-name="Path 7836" d="M599.764,216.62a1.455,1.455,0,0,1-1.611-1.279l-.887-7.729A1.454,1.454,0,0,1,598.546,206l12.841-1.474-.061-.531,10.934-1.255.061.531,13.64-1.565a1.455,1.455,0,0,1,1.611,1.279l.887,7.728a1.455,1.455,0,0,1-1.279,1.611l-.377.043.064.557.353-.04a2.042,2.042,0,0,0,1.794-2.259l-.882-7.68a2.042,2.042,0,0,0-2.259-1.794l-37.367,4.288a2.042,2.042,0,0,0-1.794,2.259l.881,7.681a2.042,2.042,0,0,0,2.259,1.794l.257-.03-.064-.557Z" transform="translate(-596.698 -201.139)" fill="#fff"/>
          <rect id="Rectangle_589" data-name="Rectangle 589" width="12.228" height="0.561" transform="translate(26.841 12.752) rotate(-6.547)" fill="#fff"/>
          <rect id="Rectangle_590" data-name="Rectangle 590" width="11.52" height="0.561" transform="matrix(0.993, -0.114, 0.114, 0.993, 4.462, 15.321)" fill="#fff"/>
          <rect id="Rectangle_591" data-name="Rectangle 591" width="0.561" height="0.561" transform="matrix(0.993, -0.114, 0.114, 0.993, 39.547, 11.294)" fill="#fff"/>
          <rect id="Rectangle_592" data-name="Rectangle 592" width="0.561" height="0.561" transform="translate(3.347 15.448) rotate(-6.545)" fill="#fff"/>
          <rect id="Rectangle_593" data-name="Rectangle 593" width="0.561" height="0.561" transform="translate(3.905 15.384) rotate(-6.542)" fill="#fff"/>
          <rect id="Rectangle_594" data-name="Rectangle 594" width="0.561" height="0.561" transform="translate(38.989 11.358) rotate(-6.548)" fill="#fff"/>
          <path id="Path_7837" data-name="Path 7837" d="M601.064,224.186a.919.919,0,0,1-1.016-.807l-.882-7.681a.919.919,0,0,1,.807-1.016l12.817-1.471-.064-.558-12.841,1.474a1.454,1.454,0,0,0-1.279,1.611l.887,7.729a1.455,1.455,0,0,0,1.611,1.279l.281-.032-.064-.557Z" transform="translate(-598.038 -209.266)" fill="#fff"/>
          <path id="Path_7838" data-name="Path 7838" d="M697.455,203.607a.918.918,0,0,1,1.016.807l.882,7.681a.919.919,0,0,1-.807,1.016l-.353.041.064.557.377-.043a1.454,1.454,0,0,0,1.279-1.611l-.887-7.728a1.455,1.455,0,0,0-1.611-1.279l-13.64,1.565.064.557Z" transform="translate(-658.153 -202.479)" fill="#fff"/>
          <rect id="Rectangle_595" data-name="Rectangle 595" width="11.52" height="0.561" transform="matrix(0.993, -0.114, 0.114, 0.993, 4.398, 14.763)" fill="#fff"/>
          <rect id="Rectangle_596" data-name="Rectangle 596" width="12.228" height="0.561" transform="matrix(0.993, -0.114, 0.114, 0.993, 26.777, 12.195)" fill="#fff"/>
          <rect id="Rectangle_597" data-name="Rectangle 597" width="0.561" height="0.561" transform="translate(39.483 10.737) rotate(-6.546)" fill="#fff"/>
          <rect id="Rectangle_598" data-name="Rectangle 598" width="0.561" height="0.561" transform="translate(3.283 14.891) rotate(-6.547)" fill="#fff"/>
          <rect id="Rectangle_599" data-name="Rectangle 599" width="0.561" height="0.561" transform="matrix(0.993, -0.114, 0.114, 0.993, 38.925, 10.801)" fill="#fff"/>
          <rect id="Rectangle_600" data-name="Rectangle 600" width="0.561" height="0.561" transform="translate(3.841 14.827) rotate(-6.545)" fill="#fff"/>
          <rect id="Rectangle_601" data-name="Rectangle 601" width="0.561" height="21.388" transform="matrix(0.993, -0.114, 0.114, 0.993, 26.348, 13.374)" fill="#fff"/>
          <rect id="Rectangle_602" data-name="Rectangle 602" width="0.561" height="21.388" transform="matrix(0.993, -0.114, 0.114, 0.993, 15.971, 14.564)" fill="#fff"/>
          <rect id="Rectangle_603" data-name="Rectangle 603" width="11.006" height="0.52" transform="matrix(0.993, -0.114, 0.114, 0.993, 18.473, 36.371)" fill="#fff"/>
          <path id="Path_7839" data-name="Path 7839" d="M669.638,318.648l.059.516-9.819,1.127-.059-.516-.557.064.064.557,10.934-1.255-.064-.557Z" transform="translate(-640.852 -284.026)" fill="#fff"/>
          <rect id="Rectangle_604" data-name="Rectangle 604" width="0.561" height="6.578" transform="matrix(0.993, -0.114, 0.114, 0.993, 14.752, 3.946)" fill="#fff"/>
          <rect id="Rectangle_605" data-name="Rectangle 605" width="0.561" height="6.578" transform="translate(25.129 2.755) rotate(-6.547)" fill="#fff"/>
          <rect id="Rectangle_606" data-name="Rectangle 606" width="0.561" height="1.866" transform="translate(15.63 11.596) rotate(-6.547)" fill="#fff"/>
          <rect id="Rectangle_607" data-name="Rectangle 607" width="0.561" height="1.866" transform="translate(26.007 10.405) rotate(-6.547)" fill="#fff"/>
          <rect id="Rectangle_608" data-name="Rectangle 608" width="0.561" height="0.561" transform="translate(15.502 10.481) rotate(-6.547)" fill="#fff"/>
          <rect id="Rectangle_609" data-name="Rectangle 609" width="0.561" height="0.561" transform="matrix(0.993, -0.114, 0.114, 0.993, 25.879, 9.29)" fill="#fff"/>
          <rect id="Rectangle_610" data-name="Rectangle 610" width="0.561" height="0.561" transform="translate(15.566 11.038) rotate(-6.55)" fill="#fff"/>
          <rect id="Rectangle_611" data-name="Rectangle 611" width="0.561" height="0.561" transform="translate(25.943 9.848) rotate(-6.548)" fill="#fff"/>
          <rect id="Rectangle_612" data-name="Rectangle 612" width="11.006" height="0.534" transform="matrix(0.993, -0.114, 0.114, 0.993, 14.627, 2.858)" fill="#fff"/>
          <rect id="Rectangle_613" data-name="Rectangle 613" width="0.561" height="0.561" transform="matrix(0.993, -0.114, 0.114, 0.993, 15.907, 14.007)" fill="#fff"/>
          <rect id="Rectangle_614" data-name="Rectangle 614" width="0.561" height="0.561" transform="translate(26.284 12.816) rotate(-6.548)" fill="#fff"/>
          <path id="Path_7840" data-name="Path 7840" d="M647.237,210.138l-.061-.531L657,208.481l.061.531.557-.064-.064-.557-10.934,1.255.064.557Z" transform="translate(-631.927 -206.257)" fill="#fff"/>
          <rect id="Rectangle_615" data-name="Rectangle 615" width="0.561" height="0.561" transform="translate(26.22 12.259) rotate(-6.547)" fill="#fff"/>
          <rect id="Rectangle_616" data-name="Rectangle 616" width="0.561" height="0.561" transform="translate(15.843 13.45) rotate(-6.547)" fill="#fff"/>
          <path id="Path_7841" data-name="Path 7841" d="M662.131,246.653l2.434,21.208-8.7,1-2.434-21.207-.557.064,2.439,21.249,9.819-1.127-2.439-21.249Z" transform="translate(-636.34 -233.215)" fill="#fff"/>
          <rect id="Rectangle_617" data-name="Rectangle 617" width="9.884" height="0.52" transform="translate(18.967 35.749) rotate(-6.547)" fill="#fff"/>
          <path id="Path_7842" data-name="Path 7842" d="M650.035,218.1l-.747-6.508,8.7-1,.747,6.508.558-.064-.75-6.535-9.819,1.127.75,6.535Z" transform="translate(-633.418 -207.747)" fill="#fff"/>
          <rect id="Rectangle_618" data-name="Rectangle 618" width="0.561" height="1.866" transform="translate(16.188 11.532) rotate(-6.547)" fill="#fff"/>
          <rect id="Rectangle_619" data-name="Rectangle 619" width="0.561" height="1.866" transform="translate(25.449 10.469) rotate(-6.549)" fill="#fff"/>
          <rect id="Rectangle_620" data-name="Rectangle 620" width="0.561" height="0.561" transform="translate(16.06 10.417) rotate(-6.547)" fill="#fff"/>
          <rect id="Rectangle_621" data-name="Rectangle 621" width="0.561" height="0.561" transform="translate(25.322 9.354) rotate(-6.547)" fill="#fff"/>
          <rect id="Rectangle_622" data-name="Rectangle 622" width="0.561" height="0.561" transform="translate(25.385 9.911) rotate(-6.547)" fill="#fff"/>
          <rect id="Rectangle_623" data-name="Rectangle 623" width="0.561" height="0.561" transform="translate(16.124 10.974) rotate(-6.547)" fill="#fff"/>
          <rect id="Rectangle_624" data-name="Rectangle 624" width="0.561" height="0.561" transform="translate(16.464 13.943) rotate(-6.547)" fill="#fff"/>
          <rect id="Rectangle_625" data-name="Rectangle 625" width="0.561" height="0.561" transform="matrix(0.993, -0.114, 0.114, 0.993, 25.726, 12.88)" fill="#fff"/>
          <rect id="Rectangle_626" data-name="Rectangle 626" width="9.884" height="0.534" transform="translate(15.249 3.351) rotate(-6.547)" fill="#fff"/>
          <rect id="Rectangle_627" data-name="Rectangle 627" width="0.561" height="0.561" transform="translate(25.662 12.323) rotate(-6.546)" fill="#fff"/>
          <rect id="Rectangle_628" data-name="Rectangle 628" width="0.561" height="0.561" transform="matrix(0.993, -0.114, 0.114, 0.993, 16.4, 13.386)" fill="#fff"/>
        </g>
      </g>
      <rect id="Rectangle_640" data-name="Rectangle 640" width="1.918" height="95.742" transform="translate(46.725 1247.786)" fill="#fff"/>
    </g>
    <g id="Group_4913" data-name="Group 4913" transform="translate(1094.601 -1257.765)">
      <g id="Group_4872" data-name="Group 4872" transform="translate(75.431 1346.749)">
        <g id="Group_4867" data-name="Group 4867" transform="translate(0 5.938)">
          <path id="Path_7630" data-name="Path 7630" d="M793.148,373.957c-.319.015-.64.021-.966.01l-11.3-.392a7.788,7.788,0,0,1-2.127-.375c-.049.058-.1.117-.146.175l-.275.318a8.423,8.423,0,0,0,2,.453c.174.017.349.029.524.035l11.3.392c.371.013.748,0,1.125-.018l-.117-.5C793.162,374.023,793.156,373.99,793.148,373.957Z" transform="translate(-773.031 -333.758)" fill="#fff"/>
          <path id="Path_7631" data-name="Path 7631" d="M781.332,290.107a7.791,7.791,0,0,1,1.422-.148l1.506-.015a3.5,3.5,0,0,0,3.536-3.063L789,274.575l-.6-.059-1.205,12.307a2.894,2.894,0,0,1-2.939,2.515l-1.506.015a8.419,8.419,0,0,0-1.785.212l.238.343C781.246,289.974,781.288,290.041,781.332,290.107Z" transform="translate(-774.888 -264.112)" fill="#fff"/>
          <path id="Path_7632" data-name="Path 7632" d="M774.314,373.133l-.032.037.776.322h0A8.2,8.2,0,0,1,774.314,373.133Z" transform="translate(-770.172 -333.71)" fill="#fff"/>
          <path id="Path_7633" data-name="Path 7633" d="M831.651,377.413l-.005-.021c-.227.035-.454.066-.685.088Z" transform="translate(-810.174 -336.716)" fill="#fff"/>
          <path id="Path_7634" data-name="Path 7634" d="M776.741,326.249l.028.041a8.138,8.138,0,0,1,.789-.272Z" transform="translate(-771.908 -300.459)" fill="#fff"/>
          <path id="Path_7635" data-name="Path 7635" d="M865.947,294.988l.61-.006-.119,1.214h0l1.5-15.31-.6-.059Z" transform="translate(-834.865 -268.565)" fill="#fff"/>
          <path id="Path_7636" data-name="Path 7636" d="M787.528,357.474q.015-.06.028-.12Q787.543,357.414,787.528,357.474Z" transform="translate(-779.521 -322.574)" fill="#fff"/>
          <path id="Path_7637" data-name="Path 7637" d="M788.068,354.9c.006-.033.01-.067.016-.1C788.078,354.835,788.074,354.869,788.068,354.9Z" transform="translate(-779.902 -320.773)" fill="#fff"/>
          <path id="Path_7638" data-name="Path 7638" d="M786.836,360.024c.01-.032.021-.063.03-.1C786.857,359.961,786.846,359.992,786.836,360.024Z" transform="translate(-779.032 -324.392)" fill="#fff"/>
          <path id="Path_7639" data-name="Path 7639" d="M788.433,351.3c.016-.158.027-.316.036-.473C788.46,350.986,788.449,351.144,788.433,351.3Z" transform="translate(-780.159 -317.969)" fill="#fff"/>
          <path id="Path_7640" data-name="Path 7640" d="M788.53,346.282q-.006-.139-.016-.279Q788.524,346.142,788.53,346.282Z" transform="translate(-780.217 -314.564)" fill="#fff"/>
          <path id="Path_7641" data-name="Path 7641" d="M788.6,347.9c0-.1,0-.193,0-.29C788.6,347.707,788.6,347.8,788.6,347.9Z" transform="translate(-780.274 -315.698)" fill="#fff"/>
          <path id="Path_7642" data-name="Path 7642" d="M782.469,369.317l.057-.086Z" transform="translate(-775.95 -330.957)" fill="#fff"/>
          <path id="Path_7643" data-name="Path 7643" d="M839.239,339.49q.093-.09.187-.18Q839.332,339.4,839.239,339.49Z" transform="translate(-816.016 -309.84)" fill="#fff"/>
          <path id="Path_7644" data-name="Path 7644" d="M827.766,368.557c0,.039,0,.078.005.117C827.77,368.635,827.767,368.6,827.766,368.557Z" transform="translate(-807.919 -330.481)" fill="#fff"/>
          <path id="Path_7645" data-name="Path 7645" d="M788.393,344.672q-.012-.139-.028-.277Q788.381,344.533,788.393,344.672Z" transform="translate(-780.112 -313.429)" fill="#fff"/>
          <path id="Path_7646" data-name="Path 7646" d="M785.013,364.724c.014-.031.028-.061.042-.092C785.041,364.663,785.027,364.693,785.013,364.724Z" transform="translate(-777.746 -327.711)" fill="#fff"/>
          <path id="Path_7647" data-name="Path 7647" d="M783.8,367.047l.06-.109Z" transform="translate(-776.891 -329.338)" fill="#fff"/>
          <path id="Path_7648" data-name="Path 7648" d="M786.068,362.472h0Z" transform="translate(-778.49 -326.186)" fill="#fff"/>
          <path id="Path_7649" data-name="Path 7649" d="M827.924,371c0,.03,0,.06.008.09C827.929,371.064,827.927,371.034,827.924,371Z" transform="translate(-808.03 -332.208)" fill="#fff"/>
          <path id="Path_7650" data-name="Path 7650" d="M788.188,343.06c-.012-.094-.026-.189-.041-.282C788.162,342.872,788.176,342.966,788.188,343.06Z" transform="translate(-779.958 -312.288)" fill="#fff"/>
          <path id="Path_7651" data-name="Path 7651" d="M784.688,331.811q-.057-.123-.118-.243Q784.63,331.689,784.688,331.811Z" transform="translate(-777.433 -304.376)" fill="#fff"/>
          <path id="Path_7652" data-name="Path 7652" d="M788.585,349.219c0,.106-.005.212-.01.318C788.579,349.431,788.583,349.325,788.585,349.219Z" transform="translate(-780.26 -316.833)" fill="#fff"/>
          <path id="Path_7653" data-name="Path 7653" d="M827.99,361.815q-.038.262-.064.527Q827.952,362.077,827.99,361.815Z" transform="translate(-808.032 -325.723)" fill="#fff"/>
          <path id="Path_7654" data-name="Path 7654" d="M782.564,290.8a7.2,7.2,0,0,1,1.082-.092l1.506-.015a4.1,4.1,0,0,0,4.133-3.61l1.205-12.307-.6-.059-1.205,12.307a3.5,3.5,0,0,1-3.536,3.063l-1.506.015a7.788,7.788,0,0,0-1.422.148c.13.2.256.4.373.6Z" transform="translate(-775.773 -264.254)" fill="#fff"/>
          <path id="Path_7655" data-name="Path 7655" d="M827.762,366.018c0-.047,0-.093.005-.139C827.765,365.926,827.763,365.972,827.762,366.018Z" transform="translate(-807.916 -328.591)" fill="#fff"/>
          <path id="Path_7656" data-name="Path 7656" d="M783.943,330.369c-.042-.082-.087-.162-.131-.243C783.856,330.207,783.9,330.288,783.943,330.369Z" transform="translate(-776.898 -303.358)" fill="#fff"/>
          <path id="Path_7657" data-name="Path 7657" d="M787.068,337.95c-.038-.147-.08-.293-.124-.439C786.988,337.656,787.03,337.8,787.068,337.95Z" transform="translate(-779.109 -308.57)" fill="#fff"/>
          <path id="Path_7658" data-name="Path 7658" d="M787.493,339.529q-.048-.222-.1-.443Q787.445,339.306,787.493,339.529Z" transform="translate(-779.422 -309.682)" fill="#fff"/>
          <path id="Path_7659" data-name="Path 7659" d="M787.908,341.42c-.018-.1-.038-.2-.059-.307C787.87,341.215,787.89,341.317,787.908,341.42Z" transform="translate(-779.747 -311.112)" fill="#fff"/>
          <path id="Path_7660" data-name="Path 7660" d="M785.985,334.763c-.032-.088-.065-.175-.1-.262C785.919,334.588,785.952,334.675,785.985,334.763Z" transform="translate(-778.361 -306.446)" fill="#fff"/>
          <path id="Path_7661" data-name="Path 7661" d="M785.368,333.275c-.035-.084-.071-.167-.108-.25C785.3,333.108,785.333,333.191,785.368,333.275Z" transform="translate(-777.92 -305.404)" fill="#fff"/>
          <path id="Path_7662" data-name="Path 7662" d="M786.542,336.289c-.031-.1-.063-.195-.1-.292C786.48,336.094,786.511,336.191,786.542,336.289Z" transform="translate(-778.757 -307.502)" fill="#fff"/>
          <path id="Path_7663" data-name="Path 7663" d="M850.642,331.943c-.083.035-.166.069-.247.106C850.477,332.012,850.56,331.978,850.642,331.943Z" transform="translate(-823.889 -304.641)" fill="#fff"/>
          <path id="Path_7664" data-name="Path 7664" d="M840.669,338.18c-.066.057-.131.113-.195.171Q840.57,338.264,840.669,338.18Z" transform="translate(-816.887 -309.042)" fill="#fff"/>
          <path id="Path_7665" data-name="Path 7665" d="M844.682,335.136c-.073.047-.146.1-.217.144C844.537,335.231,844.609,335.183,844.682,335.136Z" transform="translate(-819.704 -306.894)" fill="#fff"/>
          <path id="Path_7666" data-name="Path 7666" d="M849.093,332.643c-.08.038-.161.076-.24.116C848.932,332.719,849.012,332.681,849.093,332.643Z" transform="translate(-822.801 -305.135)" fill="#fff"/>
          <path id="Path_7667" data-name="Path 7667" d="M794.039,372.12c-.277.011-.553.011-.825,0l-11.3-.392a7.148,7.148,0,0,1-1.746-.279l.005-.007c-.13.176-.267.348-.408.517a7.787,7.787,0,0,0,2.127.375l11.3.392c.325.011.647,0,.966-.01q-.074-.331-.128-.664C794.034,372.075,794.035,372.1,794.039,372.12Z" transform="translate(-774.041 -332.518)" fill="#fff"/>
          <path id="Path_7668" data-name="Path 7668" d="M841.959,337.106q-.1.08-.2.163Q841.857,337.186,841.959,337.106Z" transform="translate(-817.792 -308.284)" fill="#fff"/>
          <path id="Path_7669" data-name="Path 7669" d="M843.3,336.091c-.071.051-.141.1-.211.154C843.156,336.192,843.227,336.142,843.3,336.091Z" transform="translate(-818.731 -307.568)" fill="#fff"/>
          <path id="Path_7670" data-name="Path 7670" d="M846.112,334.241c-.075.044-.151.089-.225.135C845.961,334.33,846.036,334.285,846.112,334.241Z" transform="translate(-820.708 -306.263)" fill="#fff"/>
          <path id="Path_7671" data-name="Path 7671" d="M858.932,329.494c-.107.018-.214.035-.32.056C858.718,329.529,858.825,329.512,858.932,329.494Z" transform="translate(-829.688 -302.912)" fill="#fff"/>
          <path id="Path_7672" data-name="Path 7672" d="M857.2,329.84c-.1.021-.2.042-.293.066C857,329.882,857.1,329.861,857.2,329.84Z" transform="translate(-828.485 -303.157)" fill="#fff"/>
          <path id="Path_7673" data-name="Path 7673" d="M860.73,329.216c-.129.015-.258.03-.386.049C860.472,329.246,860.6,329.231,860.73,329.216Z" transform="translate(-830.911 -302.716)" fill="#fff"/>
          <path id="Path_7674" data-name="Path 7674" d="M853.851,330.749c-.089.028-.178.056-.265.086C853.674,330.8,853.763,330.777,853.851,330.749Z" transform="translate(-826.141 -303.798)" fill="#fff"/>
          <path id="Path_7675" data-name="Path 7675" d="M852.229,331.311c-.086.031-.172.062-.256.1C852.058,331.373,852.144,331.342,852.229,331.311Z" transform="translate(-825.003 -304.195)" fill="#fff"/>
          <path id="Path_7676" data-name="Path 7676" d="M855.508,330.258c-.092.025-.185.049-.277.076C855.323,330.307,855.416,330.283,855.508,330.258Z" transform="translate(-827.302 -303.452)" fill="#fff"/>
          <path id="Path_7677" data-name="Path 7677" d="M829.084,356.616c-.027.094-.051.19-.076.285C829.033,356.806,829.057,356.71,829.084,356.616Z" transform="translate(-808.795 -322.054)" fill="#fff"/>
          <path id="Path_7678" data-name="Path 7678" d="M831.508,350.162c-.04.08-.078.162-.117.244C831.429,350.324,831.467,350.242,831.508,350.162Z" transform="translate(-810.477 -317.499)" fill="#fff"/>
          <path id="Path_7679" data-name="Path 7679" d="M829.583,354.948c-.031.09-.058.181-.086.272C829.526,355.129,829.553,355.038,829.583,354.948Z" transform="translate(-809.14 -320.876)" fill="#fff"/>
          <path id="Path_7680" data-name="Path 7680" d="M830.8,351.719c-.037.084-.072.168-.107.253C830.725,351.887,830.76,351.8,830.8,351.719Z" transform="translate(-809.982 -318.598)" fill="#fff"/>
          <path id="Path_7681" data-name="Path 7681" d="M830.156,353.315c-.034.086-.065.174-.1.262C830.091,353.489,830.122,353.4,830.156,353.315Z" transform="translate(-809.537 -319.724)" fill="#fff"/>
          <path id="Path_7682" data-name="Path 7682" d="M828.656,358.318c-.024.1-.045.2-.066.306C828.612,358.522,828.632,358.419,828.656,358.318Z" transform="translate(-808.5 -323.255)" fill="#fff"/>
          <path id="Path_7683" data-name="Path 7683" d="M828.3,360.051c-.022.115-.04.232-.059.348C828.26,360.283,828.278,360.166,828.3,360.051Z" transform="translate(-808.254 -324.478)" fill="#fff"/>
          <path id="Path_7684" data-name="Path 7684" d="M836.019,343.019c-.055.067-.109.135-.162.2C835.911,343.154,835.964,343.086,836.019,343.019Z" transform="translate(-813.629 -312.458)" fill="#fff"/>
          <path id="Path_7685" data-name="Path 7685" d="M834.995,344.357c-.052.07-.1.14-.153.211C834.893,344.5,834.943,344.427,834.995,344.357Z" transform="translate(-812.913 -313.402)" fill="#fff"/>
          <path id="Path_7686" data-name="Path 7686" d="M832.284,348.646c-.043.078-.084.157-.126.235C832.2,348.8,832.241,348.724,832.284,348.646Z" transform="translate(-811.018 -316.429)" fill="#fff"/>
          <path id="Path_7687" data-name="Path 7687" d="M837.1,341.731c-.058.065-.115.13-.171.2C836.985,341.861,837.042,341.8,837.1,341.731Z" transform="translate(-814.385 -311.549)" fill="#fff"/>
          <path id="Path_7688" data-name="Path 7688" d="M838.236,340.494c-.061.062-.12.125-.179.188C838.116,340.619,838.176,340.556,838.236,340.494Z" transform="translate(-815.182 -310.676)" fill="#fff"/>
          <path id="Path_7689" data-name="Path 7689" d="M834.03,345.741c-.049.072-.1.146-.144.22C833.933,345.887,833.981,345.813,834.03,345.741Z" transform="translate(-812.238 -314.379)" fill="#fff"/>
          <path id="Path_7690" data-name="Path 7690" d="M833.126,347.172c-.046.075-.091.151-.135.227C833.035,347.323,833.08,347.247,833.126,347.172Z" transform="translate(-811.606 -315.389)" fill="#fff"/>
          <path id="Path_7691" data-name="Path 7691" d="M847.582,333.409c-.078.041-.156.082-.233.126C847.426,333.491,847.5,333.45,847.582,333.409Z" transform="translate(-821.739 -305.675)" fill="#fff"/>
          <path id="Path_7692" data-name="Path 7692" d="M862.623,294.865q-.262.015-.521.042.527-.054,1.066-.06h.065l1.387-14.161-.6-.059Z" transform="translate(-832.151 -268.424)" fill="#fff"/>
          <path id="Path_7693" data-name="Path 7693" d="M842.447,333.065l-.3,3.07a10.739,10.739,0,0,1-9.329,9.376l.139.591a11.382,11.382,0,0,0,9.793-9.909l.307-3.137-.544.005Z" transform="translate(-811.484 -305.427)" fill="#fff"/>
          <path id="Path_7694" data-name="Path 7694" d="M829.158,377.742l.528-.051c-.177.017-.354.024-.532.034Z" transform="translate(-808.898 -336.927)" fill="#fff"/>
          <path id="Path_7695" data-name="Path 7695" d="M828.486,359.357c-.014.068-.031.136-.044.2C828.455,359.493,828.471,359.425,828.486,359.357Z" transform="translate(-808.396 -323.988)" fill="#fff"/>
          <path id="Path_7696" data-name="Path 7696" d="M829.335,355.873c-.023.073-.047.145-.068.219C829.288,356.018,829.312,355.946,829.335,355.873Z" transform="translate(-808.978 -321.529)" fill="#fff"/>
          <path id="Path_7697" data-name="Path 7697" d="M828.872,357.585c-.019.072-.039.143-.056.216C828.833,357.728,828.854,357.657,828.872,357.585Z" transform="translate(-808.66 -322.738)" fill="#fff"/>
          <path id="Path_7698" data-name="Path 7698" d="M838.667,340.089l.168-.169C838.779,339.976,838.723,340.032,838.667,340.089Z" transform="translate(-815.612 -310.27)" fill="#fff"/>
          <path id="Path_7699" data-name="Path 7699" d="M827.822,363.607c-.022.223-.035.446-.043.669C827.788,364.053,827.8,363.83,827.822,363.607Z" transform="translate(-807.928 -326.988)" fill="#fff"/>
          <path id="Path_7700" data-name="Path 7700" d="M827.753,367c-.007-.216-.007-.432,0-.649C827.747,366.57,827.747,366.786,827.753,367Z" transform="translate(-807.906 -328.926)" fill="#fff"/>
          <path id="Path_7701" data-name="Path 7701" d="M827.784,368.954q.013.3.041.6Q827.8,369.256,827.784,368.954Z" transform="translate(-807.931 -330.761)" fill="#fff"/>
          <path id="Path_7702" data-name="Path 7702" d="M827.951,371.309c.022.217.053.434.088.649C828,371.743,827.973,371.526,827.951,371.309Z" transform="translate(-808.049 -332.423)" fill="#fff"/>
          <path id="Path_7703" data-name="Path 7703" d="M828.173,361.234c-.009.057-.02.114-.029.171C828.152,361.348,828.163,361.291,828.173,361.234Z" transform="translate(-808.185 -325.313)" fill="#fff"/>
          <path id="Path_7704" data-name="Path 7704" d="M848.35,333.036c-.071.036-.14.073-.21.11C848.21,333.109,848.279,333.072,848.35,333.036Z" transform="translate(-822.298 -305.412)" fill="#fff"/>
          <path id="Path_7705" data-name="Path 7705" d="M849.882,332.3c-.072.032-.143.066-.214.1C849.739,332.368,849.81,332.334,849.882,332.3Z" transform="translate(-823.376 -304.894)" fill="#fff"/>
          <path id="Path_7706" data-name="Path 7706" d="M851.453,331.637c-.073.029-.145.06-.217.09C851.308,331.7,851.38,331.666,851.453,331.637Z" transform="translate(-824.483 -304.425)" fill="#fff"/>
          <path id="Path_7707" data-name="Path 7707" d="M846.856,333.836c-.069.039-.137.079-.205.119C846.719,333.915,846.787,333.875,846.856,333.836Z" transform="translate(-821.247 -305.977)" fill="#fff"/>
          <path id="Path_7708" data-name="Path 7708" d="M845.405,334.7c-.068.042-.135.085-.2.129C845.271,334.784,845.337,334.741,845.405,334.7Z" transform="translate(-820.226 -306.586)" fill="#fff"/>
          <path id="Path_7709" data-name="Path 7709" d="M844,335.625c-.066.045-.13.091-.195.137C843.867,335.716,843.932,335.67,844,335.625Z" transform="translate(-819.237 -307.239)" fill="#fff"/>
          <path id="Path_7710" data-name="Path 7710" d="M861.787,329.16l-.131.016C861.7,329.171,861.743,329.164,861.787,329.16Z" transform="translate(-831.836 -302.677)" fill="#fff"/>
          <path id="Path_7711" data-name="Path 7711" d="M859.89,329.383c-.064.01-.126.022-.189.033C859.764,329.405,859.827,329.393,859.89,329.383Z" transform="translate(-830.457 -302.834)" fill="#fff"/>
          <path id="Path_7712" data-name="Path 7712" d="M853.062,331.04c-.074.025-.146.053-.218.08C852.917,331.093,852.989,331.065,853.062,331.04Z" transform="translate(-825.617 -304.003)" fill="#fff"/>
          <path id="Path_7713" data-name="Path 7713" d="M842.635,336.613c-.063.047-.126.1-.189.145C842.508,336.709,842.571,336.66,842.635,336.613Z" transform="translate(-818.279 -307.937)" fill="#fff"/>
          <path id="Path_7714" data-name="Path 7714" d="M858.111,329.685c-.07.014-.139.031-.209.046C857.972,329.716,858.041,329.7,858.111,329.685Z" transform="translate(-829.187 -303.047)" fill="#fff"/>
          <path id="Path_7715" data-name="Path 7715" d="M854.707,330.515c-.074.021-.146.046-.219.069C854.561,330.561,854.633,330.536,854.707,330.515Z" transform="translate(-826.778 -303.633)" fill="#fff"/>
          <path id="Path_7716" data-name="Path 7716" d="M831.9,349.446c-.037.07-.074.14-.109.211C831.822,349.586,831.859,349.516,831.9,349.446Z" transform="translate(-810.756 -316.993)" fill="#fff"/>
          <path id="Path_7717" data-name="Path 7717" d="M829.87,354.2c-.026.073-.054.145-.079.219C829.816,354.349,829.843,354.277,829.87,354.2Z" transform="translate(-809.348 -320.351)" fill="#fff"/>
          <path id="Path_7718" data-name="Path 7718" d="M832.705,347.943c-.04.069-.081.137-.119.207C832.625,348.08,832.665,348.012,832.705,347.943Z" transform="translate(-811.32 -315.933)" fill="#fff"/>
          <path id="Path_7719" data-name="Path 7719" d="M831.152,350.991c-.034.071-.068.142-.1.214C831.085,351.133,831.119,351.062,831.152,350.991Z" transform="translate(-810.238 -318.084)" fill="#fff"/>
          <path id="Path_7720" data-name="Path 7720" d="M830.476,352.578c-.03.072-.061.144-.089.217C830.416,352.722,830.446,352.65,830.476,352.578Z" transform="translate(-809.768 -319.204)" fill="#fff"/>
          <path id="Path_7721" data-name="Path 7721" d="M833.578,346.487c-.043.067-.086.134-.128.2C833.492,346.621,833.535,346.554,833.578,346.487Z" transform="translate(-811.93 -314.905)" fill="#fff"/>
          <path id="Path_7722" data-name="Path 7722" d="M834.513,345.075c-.046.065-.092.13-.137.2C834.421,345.205,834.467,345.14,834.513,345.075Z" transform="translate(-812.584 -313.909)" fill="#fff"/>
          <path id="Path_7723" data-name="Path 7723" d="M837.672,341.133q-.081.087-.161.176Q837.59,341.22,837.672,341.133Z" transform="translate(-814.796 -311.127)" fill="#fff"/>
          <path id="Path_7724" data-name="Path 7724" d="M841.318,337.659q-.092.075-.182.153Q841.226,337.735,841.318,337.659Z" transform="translate(-817.355 -308.675)" fill="#fff"/>
          <path id="Path_7725" data-name="Path 7725" d="M840.052,338.761q-.089.08-.176.162Q839.963,338.841,840.052,338.761Z" transform="translate(-816.465 -309.453)" fill="#fff"/>
          <path id="Path_7726" data-name="Path 7726" d="M836.562,342.4c-.052.06-.1.121-.153.183C836.459,342.519,836.51,342.458,836.562,342.4Z" transform="translate(-814.018 -312.019)" fill="#fff"/>
          <path id="Path_7727" data-name="Path 7727" d="M835.508,343.712c-.049.063-.1.126-.146.19C835.41,343.838,835.458,343.775,835.508,343.712Z" transform="translate(-813.28 -312.947)" fill="#fff"/>
          <path id="Path_7728" data-name="Path 7728" d="M856.388,330.063c-.072.018-.144.038-.216.057C856.244,330.1,856.316,330.081,856.388,330.063Z" transform="translate(-827.966 -303.314)" fill="#fff"/>
          <path id="Path_7729" data-name="Path 7729" d="M865.662,328.939l-.059.607-.059.608.065,0,.544-.005.119-1.214Z" transform="translate(-834.58 -302.516)" fill="#fff"/>
          <path id="Path_7730" data-name="Path 7730" d="M829.3,375.458c-.2.019-.406.03-.611.039.008.033.014.066.021.1l.117.5c.177-.01.355-.017.532-.034.231-.022.458-.053.685-.088l-.139-.591C829.7,375.412,829.5,375.438,829.3,375.458Z" transform="translate(-808.567 -335.298)" fill="#fff"/>
          <path id="Path_7731" data-name="Path 7731" d="M837.857,329.014c-.044,0-.087.011-.131.016-.129.015-.258.03-.386.049-.064.01-.126.022-.189.033-.107.018-.214.035-.32.056-.07.014-.139.031-.209.046-.1.021-.2.042-.293.066-.072.018-.144.038-.216.057-.092.025-.185.049-.277.076-.073.021-.146.046-.219.069-.089.028-.178.056-.265.086s-.146.053-.218.08-.172.062-.256.1-.145.06-.217.09-.166.069-.247.106-.143.066-.214.1-.161.076-.24.116-.14.073-.21.11-.156.082-.233.126-.137.079-.205.119-.151.089-.225.135-.134.085-.2.129-.146.1-.217.144-.13.091-.195.137-.141.1-.211.154-.126.1-.189.145-.136.108-.2.163-.122.1-.182.153-.131.113-.195.171-.118.107-.176.162-.126.119-.187.18l-.168.169c-.061.062-.12.125-.179.188s-.108.117-.161.176-.115.13-.171.2-.1.121-.153.183-.109.135-.162.2-.1.126-.146.19-.1.14-.153.211-.092.13-.137.2-.1.146-.144.22-.086.134-.128.2-.091.151-.135.227-.081.137-.119.207-.084.157-.126.235-.074.14-.109.211-.078.162-.117.244-.068.142-.1.214-.072.168-.107.253-.061.144-.089.217-.065.174-.1.262-.054.145-.079.219c-.031.09-.058.181-.086.272-.023.073-.047.145-.068.219-.027.094-.051.19-.076.285-.019.072-.039.143-.057.216-.024.1-.045.2-.066.306-.014.068-.031.136-.044.2-.022.115-.04.232-.059.348-.009.057-.02.114-.029.171q-.038.262-.064.527c-.022.223-.034.446-.043.669,0,.047,0,.093-.005.139-.006.216-.006.433,0,.649,0,.039,0,.078.005.117q.013.3.041.6c0,.03,0,.06.008.09.022.217.053.434.088.649s.079.444.128.664c.205-.009.41-.02.611-.039a10.691,10.691,0,0,1,10.294-13.131l.059-.607h-.065Q838.384,328.959,837.857,329.014Z" transform="translate(-807.906 -302.531)" fill="#fff"/>
          <path id="Path_7732" data-name="Path 7732" d="M859.142,333.69c.069-.014.139-.027.208-.04C859.281,333.663,859.211,333.675,859.142,333.69Z" transform="translate(-830.062 -305.845)" fill="#fff"/>
          <path id="Path_7733" data-name="Path 7733" d="M857.634,334.016c.067-.017.134-.032.2-.048C857.768,333.984,857.7,334,857.634,334.016Z" transform="translate(-828.998 -306.07)" fill="#fff"/>
          <path id="Path_7734" data-name="Path 7734" d="M860.674,333.433c.071-.011.142-.021.213-.031C860.816,333.412,860.745,333.421,860.674,333.433Z" transform="translate(-831.143 -305.67)" fill="#fff"/>
          <path id="Path_7735" data-name="Path 7735" d="M841.25,336.094a10.175,10.175,0,0,1-8.847,8.842c.032.177.066.355.108.531l.014.062a10.739,10.739,0,0,0,9.329-9.376l.3-3.07c-.206,0-.41.014-.612.029Z" transform="translate(-811.191 -305.445)" fill="#fff"/>
          <path id="Path_7736" data-name="Path 7736" d="M862.23,333.244c.072-.008.145-.015.217-.021C862.375,333.229,862.3,333.236,862.23,333.244Z" transform="translate(-832.242 -305.544)" fill="#fff"/>
          <path id="Path_7737" data-name="Path 7737" d="M856.15,334.409c.065-.019.13-.037.2-.055C856.28,334.372,856.215,334.39,856.15,334.409Z" transform="translate(-827.951 -306.342)" fill="#fff"/>
          <path id="Path_7738" data-name="Path 7738" d="M846.141,339.239c.048-.034.1-.07.143-.1C846.236,339.17,846.189,339.2,846.141,339.239Z" transform="translate(-820.887 -309.717)" fill="#fff"/>
          <path id="Path_7739" data-name="Path 7739" d="M854.7,334.869c.062-.022.124-.041.187-.062C854.819,334.828,854.757,334.847,854.7,334.869Z" transform="translate(-826.924 -306.662)" fill="#fff"/>
          <path id="Path_7740" data-name="Path 7740" d="M847.431,338.394c.045-.029.089-.059.134-.088C847.52,338.335,847.476,338.365,847.431,338.394Z" transform="translate(-821.797 -309.131)" fill="#fff"/>
          <path id="Path_7741" data-name="Path 7741" d="M837.738,347.732q.056-.084.115-.166Q837.794,347.649,837.738,347.732Z" transform="translate(-814.956 -315.667)" fill="#fff"/>
          <path id="Path_7742" data-name="Path 7742" d="M848.852,337.589l.1-.057Z" transform="translate(-822.8 -308.585)" fill="#fff"/>
          <path id="Path_7743" data-name="Path 7743" d="M850.511,336.73l.072-.035Z" transform="translate(-823.971 -307.994)" fill="#fff"/>
          <path id="Path_7744" data-name="Path 7744" d="M851.875,336c.047-.022.1-.041.144-.062C851.971,335.963,851.922,335.983,851.875,336Z" transform="translate(-824.934 -307.463)" fill="#fff"/>
          <path id="Path_7745" data-name="Path 7745" d="M831.893,364.63c.008-.207.019-.414.039-.621C831.912,364.216,831.9,364.423,831.893,364.63Z" transform="translate(-810.831 -327.271)" fill="#fff"/>
          <path id="Path_7746" data-name="Path 7746" d="M833.214,357.346c.019-.064.039-.127.059-.191C833.253,357.219,833.233,357.282,833.214,357.346Z" transform="translate(-811.764 -322.434)" fill="#fff"/>
          <path id="Path_7747" data-name="Path 7747" d="M844.913,340.134c.049-.039.1-.078.147-.115C845.01,340.056,844.962,340.1,844.913,340.134Z" transform="translate(-820.02 -310.34)" fill="#fff"/>
          <path id="Path_7748" data-name="Path 7748" d="M833.679,355.865c.021-.064.045-.127.067-.189C833.724,355.739,833.7,355.8,833.679,355.865Z" transform="translate(-812.092 -321.39)" fill="#fff"/>
          <path id="Path_7749" data-name="Path 7749" d="M834.206,354.418c.024-.063.051-.125.076-.188C834.257,354.293,834.23,354.355,834.206,354.418Z" transform="translate(-812.464 -320.37)" fill="#fff"/>
          <path id="Path_7750" data-name="Path 7750" d="M836.917,348.992q.053-.086.108-.172Q836.97,348.906,836.917,348.992Z" transform="translate(-814.377 -316.552)" fill="#fff"/>
          <path id="Path_7751" data-name="Path 7751" d="M834.8,353.007c.027-.062.056-.124.085-.185C834.851,352.883,834.822,352.945,834.8,353.007Z" transform="translate(-812.879 -319.376)" fill="#fff"/>
          <path id="Path_7752" data-name="Path 7752" d="M835.444,351.631c.03-.061.062-.121.093-.181C835.506,351.51,835.474,351.57,835.444,351.631Z" transform="translate(-813.337 -318.408)" fill="#fff"/>
          <path id="Path_7753" data-name="Path 7753" d="M831.953,369.559c-.022-.2-.036-.407-.045-.61C831.918,369.153,831.931,369.356,831.953,369.559Z" transform="translate(-810.842 -330.758)" fill="#fff"/>
          <path id="Path_7754" data-name="Path 7754" d="M831.875,367.109q-.01-.3,0-.594Q831.864,366.812,831.875,367.109Z" transform="translate(-810.814 -329.04)" fill="#fff"/>
          <path id="Path_7755" data-name="Path 7755" d="M832.158,371.7c-.034-.2-.063-.394-.085-.592C832.095,371.309,832.124,371.506,832.158,371.7Z" transform="translate(-810.958 -332.283)" fill="#fff"/>
          <path id="Path_7756" data-name="Path 7756" d="M832.816,358.862c.015-.063.033-.126.049-.188C832.849,358.737,832.831,358.8,832.816,358.862Z" transform="translate(-811.483 -323.506)" fill="#fff"/>
          <path id="Path_7757" data-name="Path 7757" d="M836.152,350.292c.033-.06.067-.119.1-.178C836.219,350.173,836.185,350.232,836.152,350.292Z" transform="translate(-813.837 -317.465)" fill="#fff"/>
          <path id="Path_7758" data-name="Path 7758" d="M832.221,362.057c.007-.051.017-.1.025-.151C832.238,361.956,832.228,362.006,832.221,362.057Z" transform="translate(-811.063 -325.787)" fill="#fff"/>
          <path id="Path_7759" data-name="Path 7759" d="M832.484,360.422c.011-.061.026-.12.038-.18C832.51,360.3,832.5,360.361,832.484,360.422Z" transform="translate(-811.248 -324.613)" fill="#fff"/>
          <path id="Path_7760" data-name="Path 7760" d="M853.27,335.4c.057-.023.114-.044.172-.066C853.384,335.355,853.327,335.376,853.27,335.4Z" transform="translate(-825.918 -307.033)" fill="#fff"/>
          <path id="Path_7761" data-name="Path 7761" d="M841.543,343.113c.046-.047.091-.094.138-.141C841.634,343.018,841.589,343.066,841.543,343.113Z" transform="translate(-817.642 -312.424)" fill="#fff"/>
          <path id="Path_7762" data-name="Path 7762" d="M838.613,346.512q.06-.081.121-.16Q838.673,346.431,838.613,346.512Z" transform="translate(-815.574 -314.81)" fill="#fff"/>
          <path id="Path_7763" data-name="Path 7763" d="M842.619,342.071c.047-.044.094-.089.142-.133C842.713,341.982,842.666,342.027,842.619,342.071Z" transform="translate(-818.401 -311.695)" fill="#fff"/>
          <path id="Path_7764" data-name="Path 7764" d="M843.74,341.078c.049-.042.1-.084.146-.125C843.837,340.994,843.789,341.036,843.74,341.078Z" transform="translate(-819.192 -311)" fill="#fff"/>
          <path id="Path_7765" data-name="Path 7765" d="M840.517,344.2c.044-.049.088-.1.132-.147C840.6,344.1,840.561,344.152,840.517,344.2Z" transform="translate(-816.918 -313.188)" fill="#fff"/>
          <path id="Path_7766" data-name="Path 7766" d="M839.539,345.335c.042-.052.084-.1.127-.154C839.623,345.232,839.581,345.283,839.539,345.335Z" transform="translate(-816.228 -313.983)" fill="#fff"/>
          <path id="Path_7767" data-name="Path 7767" d="M829.855,340.665a10.679,10.679,0,0,0,.231,3.482c.2-.02.4-.046.6-.076l-.014-.062c-.042-.176-.076-.353-.108-.531h0c0-.024-.006-.048-.01-.072-.034-.2-.063-.394-.085-.592,0-.009,0-.017,0-.026-.022-.2-.036-.407-.045-.61,0-.041,0-.081-.006-.122q-.01-.3,0-.594c0-.039,0-.078,0-.117.008-.207.019-.414.039-.621q.023-.236.057-.468c.007-.051.017-.1.025-.151.016-.1.033-.207.052-.31.011-.061.026-.12.038-.18.019-.091.038-.183.059-.273.015-.063.033-.126.049-.188.022-.086.044-.172.068-.256.019-.064.039-.127.059-.191.025-.082.05-.164.078-.246.021-.064.045-.127.067-.189.029-.079.057-.159.088-.237.024-.063.051-.125.076-.188s.063-.154.1-.229.056-.124.085-.185.069-.149.106-.222.062-.121.093-.181.076-.144.115-.215.067-.119.1-.178.082-.139.124-.209.071-.115.108-.172.088-.136.133-.2.076-.111.115-.166.094-.132.143-.2.08-.107.121-.16.1-.128.152-.191.084-.1.127-.154.107-.124.161-.185.088-.1.132-.147.112-.119.169-.178.091-.094.138-.141.119-.114.179-.171.094-.089.142-.133.125-.11.188-.164.1-.084.146-.125c.066-.054.132-.107.2-.159.049-.039.1-.078.147-.115.07-.054.143-.105.215-.157.048-.034.1-.07.143-.1.078-.054.157-.105.236-.157.045-.029.089-.059.134-.088.094-.059.189-.115.285-.17l.1-.057q.193-.11.392-.212l.072-.035c.109-.055.219-.108.33-.159.047-.022.1-.041.144-.062.088-.039.177-.078.266-.114.057-.023.114-.044.172-.066.082-.031.164-.063.247-.093.062-.022.124-.042.187-.062.08-.026.16-.053.241-.078.065-.019.13-.037.2-.055s.16-.045.241-.066.134-.032.2-.048.16-.037.242-.054.139-.027.208-.04.161-.029.242-.042.142-.021.213-.031.163-.022.245-.031.144-.015.217-.021c.049,0,.1-.011.146-.014v0c.2-.015.406-.026.612-.029l.059-.608A10.693,10.693,0,0,0,829.855,340.665Z" transform="translate(-809.357 -303.986)" fill="#fff"/>
          <path id="Path_7768" data-name="Path 7768" d="M779.934,325.618l-.416.118c.141-.04.283-.073.425-.105Z" transform="translate(-773.868 -300.177)" fill="#fff"/>
          <path id="Path_7769" data-name="Path 7769" d="M777.33,374.519l.011-.013c-.138-.049-.277-.1-.413-.154Z" transform="translate(-772.04 -334.572)" fill="#fff"/>
          <path id="Path_7770" data-name="Path 7770" d="M760.972,333.049a6.953,6.953,0,0,1,4.56-5.595l-.355-.511a7.4,7.4,0,0,0-.72,13.592l.4-.468A6.972,6.972,0,0,1,760.972,333.049Z" transform="translate(-760.316 -301.112)" fill="#fff"/>
          <path id="Path_7771" data-name="Path 7771" d="M785.056,332.58c-.028-.062-.056-.124-.085-.185C785,332.456,785.028,332.518,785.056,332.58Z" transform="translate(-777.716 -304.96)" fill="#fff"/>
          <path id="Path_7772" data-name="Path 7772" d="M788.608,348.6c0,.061,0,.122,0,.184C788.609,348.717,788.608,348.656,788.608,348.6Z" transform="translate(-780.283 -316.393)" fill="#fff"/>
          <path id="Path_7773" data-name="Path 7773" d="M784.35,331.133c-.03-.061-.06-.121-.092-.181C784.289,331.012,784.32,331.073,784.35,331.133Z" transform="translate(-777.213 -303.941)" fill="#fff"/>
          <path id="Path_7774" data-name="Path 7774" d="M783.581,329.712c-.032-.058-.063-.115-.1-.173C783.518,329.6,783.549,329.654,783.581,329.712Z" transform="translate(-776.667 -302.944)" fill="#fff"/>
          <path id="Path_7775" data-name="Path 7775" d="M785.154,363.108c.1-.209.187-.42.269-.636C785.341,362.687,785.25,362.9,785.154,363.108Z" transform="translate(-777.845 -326.186)" fill="#fff"/>
          <path id="Path_7776" data-name="Path 7776" d="M781.148,370.089c.136-.185.265-.373.389-.565C781.413,369.715,781.284,369.9,781.148,370.089Z" transform="translate(-775.018 -331.163)" fill="#fff"/>
          <path id="Path_7777" data-name="Path 7777" d="M786.824,337.142c-.016-.052-.034-.1-.05-.154C786.79,337.039,786.808,337.09,786.824,337.142Z" transform="translate(-778.989 -308.201)" fill="#fff"/>
          <path id="Path_7778" data-name="Path 7778" d="M788.555,350.456c0-.051,0-.1.006-.155C788.559,350.353,788.558,350.4,788.555,350.456Z" transform="translate(-780.246 -317.597)" fill="#fff"/>
          <path id="Path_7779" data-name="Path 7779" d="M787.372,339.027l-.006-.025Z" transform="translate(-779.406 -309.623)" fill="#fff"/>
          <path id="Path_7780" data-name="Path 7780" d="M782.661,367.873q.177-.278.336-.566Q782.837,367.594,782.661,367.873Z" transform="translate(-776.086 -329.599)" fill="#fff"/>
          <path id="Path_7781" data-name="Path 7781" d="M784.005,365.531c.1-.193.2-.388.3-.587C784.209,365.142,784.109,365.338,784.005,365.531Z" transform="translate(-777.034 -327.931)" fill="#fff"/>
          <path id="Path_7782" data-name="Path 7782" d="M786.069,360.905c.082-.215.157-.433.226-.653C786.226,360.472,786.151,360.69,786.069,360.905Z" transform="translate(-778.491 -324.62)" fill="#fff"/>
          <path id="Path_7783" data-name="Path 7783" d="M786.939,358.4q.1-.316.173-.638Q787.035,358.084,786.939,358.4Z" transform="translate(-779.105 -322.862)" fill="#fff"/>
          <path id="Path_7784" data-name="Path 7784" d="M787.624,355.793q.075-.323.131-.651Q787.7,355.47,787.624,355.793Z" transform="translate(-779.589 -321.013)" fill="#fff"/>
          <path id="Path_7785" data-name="Path 7785" d="M788.121,353.133c.037-.23.069-.462.092-.7C788.19,352.671,788.158,352.9,788.121,353.133Z" transform="translate(-779.939 -319.104)" fill="#fff"/>
          <path id="Path_7786" data-name="Path 7786" d="M788.077,342.338c-.01-.061-.018-.122-.029-.183C788.059,342.216,788.067,342.277,788.077,342.338Z" transform="translate(-779.888 -311.848)" fill="#fff"/>
          <path id="Path_7787" data-name="Path 7787" d="M787.775,340.744c-.011-.051-.02-.1-.031-.154C787.755,340.641,787.764,340.693,787.775,340.744Z" transform="translate(-779.673 -310.743)" fill="#fff"/>
          <path id="Path_7788" data-name="Path 7788" d="M788.477,345.532c0-.066-.01-.131-.016-.2C788.467,345.4,788.472,345.467,788.477,345.532Z" transform="translate(-780.179 -314.093)" fill="#fff"/>
          <path id="Path_7789" data-name="Path 7789" d="M786.289,335.569c-.021-.06-.044-.119-.065-.178C786.246,335.45,786.268,335.51,786.289,335.569Z" transform="translate(-778.601 -307.074)" fill="#fff"/>
          <path id="Path_7790" data-name="Path 7790" d="M785.7,334.058c-.025-.062-.05-.123-.076-.185C785.652,333.935,785.677,334,785.7,334.058Z" transform="translate(-778.178 -306.003)" fill="#fff"/>
          <path id="Path_7791" data-name="Path 7791" d="M788.31,343.931c-.007-.064-.015-.129-.023-.193C788.3,343.8,788.3,343.867,788.31,343.931Z" transform="translate(-780.056 -312.965)" fill="#fff"/>
          <path id="Path_7792" data-name="Path 7792" d="M788.576,347.145c0-.065-.005-.129-.008-.194C788.571,347.016,788.574,347.08,788.576,347.145Z" transform="translate(-780.255 -315.233)" fill="#fff"/>
          <path id="Path_7793" data-name="Path 7793" d="M775.971,372.031q-.309-.1-.6-.222c-.2-.081-.386-.17-.572-.266l-.4.468a8.2,8.2,0,0,0,.745.358h0c.137.056.275.1.413.154l.275-.318C775.875,372.148,775.922,372.089,775.971,372.031Z" transform="translate(-770.249 -332.588)" fill="#fff"/>
          <path id="Path_7794" data-name="Path 7794" d="M777.791,326.35c.206-.058.417-.105.629-.147-.044-.066-.086-.133-.132-.2l-.238-.343c-.142.032-.285.065-.425.105a8.138,8.138,0,0,0-.789.272l.355.511C777.388,326.475,777.587,326.407,777.791,326.35Z" transform="translate(-771.976 -300.207)" fill="#fff"/>
          <path id="Path_7795" data-name="Path 7795" d="M779.11,339.867l.057-.086q.177-.279.336-.566l.06-.109c.1-.193.2-.388.3-.587.014-.031.028-.061.042-.092.1-.209.187-.421.269-.636h0c.082-.215.157-.433.226-.653.01-.032.021-.063.03-.1q.1-.316.173-.638.015-.06.028-.12.075-.323.131-.651c.006-.033.01-.067.016-.1.037-.23.069-.462.092-.7.016-.158.027-.316.036-.473,0-.051,0-.1.006-.155,0-.106.008-.212.01-.318,0-.061,0-.122,0-.184,0-.1,0-.193,0-.29,0-.065-.005-.129-.008-.194q-.006-.139-.016-.279-.007-.1-.016-.2-.012-.139-.028-.277c-.007-.064-.015-.129-.023-.193-.012-.094-.026-.189-.041-.282-.01-.061-.019-.122-.029-.183-.018-.1-.038-.2-.059-.307-.011-.051-.02-.1-.031-.154q-.048-.222-.1-.443l-.006-.025c-.038-.147-.08-.293-.124-.439-.016-.051-.034-.1-.05-.154-.031-.1-.063-.195-.1-.292-.021-.06-.044-.119-.065-.178-.032-.088-.065-.175-.1-.262-.025-.062-.05-.123-.076-.185-.035-.084-.071-.167-.108-.25-.028-.062-.056-.124-.085-.185q-.057-.123-.118-.243c-.03-.061-.06-.121-.092-.181-.042-.082-.087-.162-.131-.243-.032-.058-.063-.115-.1-.173-.117-.2-.242-.4-.373-.6-.213.041-.424.089-.629.147a10.682,10.682,0,0,1-.7,13.078q.3.122.6.222c.141-.169.277-.341.408-.517S778.985,340.058,779.11,339.867Z" transform="translate(-772.591 -301.507)" fill="#fff"/>
          <path id="Path_7796" data-name="Path 7796" d="M783.864,354.58c-.014.081-.034.161-.05.242C783.83,354.741,783.85,354.661,783.864,354.58Z" transform="translate(-776.9 -320.617)" fill="#fff"/>
          <path id="Path_7797" data-name="Path 7797" d="M783.655,341.2q.021.094.041.189Q783.676,341.29,783.655,341.2Z" transform="translate(-776.787 -311.171)" fill="#fff"/>
          <path id="Path_7798" data-name="Path 7798" d="M782.427,337c.022.061.043.121.064.182C782.47,337.117,782.449,337.057,782.427,337Z" transform="translate(-775.921 -308.207)" fill="#fff"/>
          <path id="Path_7799" data-name="Path 7799" d="M781.9,335.634c.024.059.047.119.07.178C781.947,335.753,781.924,335.693,781.9,335.634Z" transform="translate(-775.549 -307.246)" fill="#fff"/>
          <path id="Path_7800" data-name="Path 7800" d="M779.973,331.693c.027.047.051.094.077.141C780.024,331.787,780,331.74,779.973,331.693Z" transform="translate(-774.189 -304.464)" fill="#fff"/>
          <path id="Path_7801" data-name="Path 7801" d="M781.315,334.3c.026.057.051.114.076.171C781.366,334.41,781.341,334.353,781.315,334.3Z" transform="translate(-775.136 -306.301)" fill="#fff"/>
          <path id="Path_7802" data-name="Path 7802" d="M779.218,330.434c.014.022.027.045.041.068C779.245,330.479,779.232,330.456,779.218,330.434Z" transform="translate(-773.656 -303.576)" fill="#fff"/>
          <path id="Path_7803" data-name="Path 7803" d="M780.673,332.982c.027.053.053.107.079.16C780.726,333.089,780.7,333.035,780.673,332.982Z" transform="translate(-774.683 -305.374)" fill="#fff"/>
          <path id="Path_7804" data-name="Path 7804" d="M784.34,345.536c.006.062.012.125.017.187C784.352,345.661,784.346,345.6,784.34,345.536Z" transform="translate(-777.271 -314.234)" fill="#fff"/>
          <path id="Path_7805" data-name="Path 7805" d="M780.42,364.175c-.049.1-.1.194-.155.29C780.318,364.369,780.371,364.273,780.42,364.175Z" transform="translate(-774.395 -327.388)" fill="#fff"/>
          <path id="Path_7806" data-name="Path 7806" d="M782.9,338.377c.019.061.038.124.056.186C782.933,338.5,782.914,338.439,782.9,338.377Z" transform="translate(-776.251 -309.182)" fill="#fff"/>
          <path id="Path_7807" data-name="Path 7807" d="M779.133,366.391c-.058.095-.117.188-.178.282C779.016,366.579,779.075,366.486,779.133,366.391Z" transform="translate(-773.471 -328.952)" fill="#fff"/>
          <path id="Path_7808" data-name="Path 7808" d="M782.487,359.509c-.033.1-.071.2-.107.294C782.417,359.7,782.455,359.608,782.487,359.509Z" transform="translate(-775.888 -324.095)" fill="#fff"/>
          <path id="Path_7809" data-name="Path 7809" d="M784.487,348.52c0,.057,0,.113,0,.17C784.489,348.633,784.487,348.577,784.487,348.52Z" transform="translate(-777.375 -316.34)" fill="#fff"/>
          <path id="Path_7810" data-name="Path 7810" d="M777.679,368.521c-.065.091-.131.181-.2.27C777.548,368.7,777.614,368.612,777.679,368.521Z" transform="translate(-772.429 -330.456)" fill="#fff"/>
          <path id="Path_7811" data-name="Path 7811" d="M781.539,361.878c-.041.1-.087.2-.131.295C781.453,362.075,781.5,361.977,781.539,361.878Z" transform="translate(-775.202 -325.767)" fill="#fff"/>
          <path id="Path_7812" data-name="Path 7812" d="M784.445,347.014c0,.061.007.122.009.182C784.452,347.136,784.448,347.075,784.445,347.014Z" transform="translate(-777.345 -315.277)" fill="#fff"/>
          <path id="Path_7813" data-name="Path 7813" d="M784.173,344.076c.009.063.017.126.025.189C784.19,344.2,784.182,344.139,784.173,344.076Z" transform="translate(-777.153 -313.204)" fill="#fff"/>
          <path id="Path_7814" data-name="Path 7814" d="M783.261,357.073c-.024.1-.054.189-.08.283C783.208,357.262,783.237,357.168,783.261,357.073Z" transform="translate(-776.453 -322.376)" fill="#fff"/>
          <path id="Path_7815" data-name="Path 7815" d="M784.448,350.089c0,.047,0,.094-.005.14C784.446,350.183,784.446,350.136,784.448,350.089Z" transform="translate(-777.344 -317.447)" fill="#fff"/>
          <path id="Path_7816" data-name="Path 7816" d="M766.7,340.813a6.209,6.209,0,0,1,.623-11.617q-.118-.187-.245-.37l-.1-.146a6.8,6.8,0,0,0-.67,12.613l.113-.131C766.522,341.048,766.612,340.929,766.7,340.813Z" transform="translate(-761.765 -302.337)" fill="#fff"/>
          <path id="Path_7817" data-name="Path 7817" d="M783.3,339.779q.025.094.049.187Q783.33,339.872,783.3,339.779Z" transform="translate(-776.54 -310.171)" fill="#fff"/>
          <path id="Path_7818" data-name="Path 7818" d="M783.945,342.63c.011.063.022.126.033.189C783.967,342.756,783.956,342.693,783.945,342.63Z" transform="translate(-776.992 -312.183)" fill="#fff"/>
          <path id="Path_7819" data-name="Path 7819" d="M777.035,328c-.2.058-.4.126-.6.2l.1.146q.127.183.245.37h0l.041.068c.062.1.123.2.182.3.027.046.051.094.077.141.044.079.087.158.129.238.027.053.053.107.079.16.037.075.075.15.11.227.026.057.051.114.076.171.033.074.065.148.1.222.024.059.047.119.07.178s.058.148.085.223.043.121.064.182.051.149.074.224.038.124.056.186.044.151.064.227.033.125.049.187.037.153.054.23.028.126.041.189.031.155.045.233c.011.063.022.126.033.189.013.079.024.157.034.236.009.063.017.126.025.189.009.08.017.16.024.24.006.062.012.125.017.187.006.082.01.165.014.247,0,.061.007.122.009.182,0,.087,0,.174,0,.261,0,.057,0,.113,0,.17,0,.1-.005.194-.009.292,0,.047,0,.094-.005.14-.008.144-.019.288-.033.432-.025.252-.059.5-.1.749-.014.082-.034.161-.05.242-.033.165-.065.33-.106.492-.024.1-.054.189-.08.283-.041.145-.082.29-.129.433-.033.1-.071.2-.107.294-.05.135-.1.27-.155.4-.041.1-.086.2-.131.295-.058.128-.117.255-.181.381-.049.1-.1.194-.155.29-.067.122-.136.243-.208.362-.058.095-.117.188-.178.282q-.114.175-.235.345c-.065.091-.131.181-.2.27-.036.047-.069.1-.105.144l-.007,0c-.092.117-.181.235-.279.348l-.113.131c.186.1.376.185.572.266a10.682,10.682,0,0,0,.7-13.078Z" transform="translate(-771.22 -301.859)" fill="#fff"/>
          <path id="Path_7820" data-name="Path 7820" d="M821.7,241.246l-21.235-2.079a1.908,1.908,0,0,0-2.083,1.712l-.639,6.524a1.909,1.909,0,0,0,1.711,2.083l.781.076.059-.6-.9-.088a1.184,1.184,0,0,1-1.062-1.294l.661-6.756a1.184,1.184,0,0,1,1.294-1.063l21.467,2.1a1.184,1.184,0,0,1,1.063,1.294l-.662,6.756a1.184,1.184,0,0,1-1.294,1.063l-1.008-.1-.059.6.892.087a1.908,1.908,0,0,0,2.083-1.711l.639-6.524A1.909,1.909,0,0,0,821.7,241.246Z" transform="translate(-786.72 -239.158)" fill="#fff"/>
          <path id="Path_7821" data-name="Path 7821" d="M827.479,275.151l.03-.307-6.342-.92-10.778-1.056-.059.6Z" transform="translate(-795.614 -262.949)" fill="#fff"/>
          <rect id="Rectangle_585" data-name="Rectangle 585" width="0.606" height="0.606" transform="translate(13.51 10.404) rotate(-84.408)" fill="#fff"/>
          <rect id="Rectangle_586" data-name="Rectangle 586" width="0.606" height="0.606" transform="matrix(0.097, -0.995, 0.995, 0.097, 32.469, 12.261)" fill="#fff"/>
          <path id="Path_7822" data-name="Path 7822" d="M853.5,277.375l-.03.307.6.059.059-.6-6.974-.683Z" transform="translate(-821.606 -265.48)" fill="#fff"/>
          <rect id="Rectangle_587" data-name="Rectangle 587" width="0.606" height="0.606" transform="translate(14.113 10.463) rotate(-84.405)" fill="#fff"/>
          <path id="Path_7823" data-name="Path 7823" d="M801,249.707a.7.7,0,0,1-.623-.758l.639-6.524a.7.7,0,0,1,.758-.623l21.235,2.08a.7.7,0,0,1,.623.759l-.639,6.524a.7.7,0,0,1-.759.623l-.892-.087-.059.6,1.008.1a1.184,1.184,0,0,0,1.293-1.063l.662-6.756a1.184,1.184,0,0,0-1.063-1.294l-21.467-2.1a1.184,1.184,0,0,0-1.294,1.063l-.661,6.756a1.184,1.184,0,0,0,1.063,1.294l.9.088.059-.6Z" transform="translate(-788.148 -240.586)" fill="#fff"/>
          <path id="Path_7824" data-name="Path 7824" d="M810.58,271.164l-.049.5,10.778,1.056Z" transform="translate(-795.755 -261.746)" fill="#fff"/>
          <path id="Path_7825" data-name="Path 7825" d="M847.4,274.409l6.93,1.006-.027.28.6.059.059-.6Z" transform="translate(-821.777 -264.036)" fill="#fff"/>
          <rect id="Rectangle_588" data-name="Rectangle 588" width="0.606" height="0.606" transform="translate(13.569 9.801) rotate(-84.409)" fill="#fff"/>
          <path id="Path_7826" data-name="Path 7826" d="M819.933,271.732l-11.394-1.116-.059.6.6.059.049-.5,10.729,1.557,6.974.683.027-.28Z" transform="translate(-794.308 -261.36)" fill="#fff"/>
        </g>
        <g id="Group_4871" data-name="Group 4871" transform="translate(15.714)">
          <g id="Group_4868" data-name="Group 4868" transform="translate(7.729 1.35)">
            <path id="Path_7827" data-name="Path 7827" d="M839.986,229.4l.846-.945c.892-1,5.462-5.913,7.787-4.695a1.727,1.727,0,0,1,.9,2.072c-.683,2.5-4.737,3.81-8.263,3.632Zm7.86-4.624c-.853-.084-2.86,1.131-5.166,3.478,3.505-.185,5.406-1.793,5.665-2.741a.514.514,0,0,0-.29-.679A.571.571,0,0,0,847.846,224.777Z" transform="translate(-839.986 -223.568)" fill="#fff"/>
          </g>
          <g id="Group_4869" data-name="Group 4869">
            <path id="Path_7828" data-name="Path 7828" d="M822.382,226.254l-1.256-.183c-3.493-.509-7.216-2.58-7.4-5.166a1.727,1.727,0,0,1,1.282-1.859c2.516-.745,6.046,4.964,6.728,6.116Zm-6.815-6.062a.566.566,0,0,0-.216.016.515.515,0,0,0-.416.61c.07.98,1.622,2.927,5.026,3.788C818.153,221.857,816.42,220.276,815.567,220.192Z" transform="translate(-813.72 -218.979)" fill="#fff"/>
          </g>
          <g id="Group_4870" data-name="Group 4870" transform="translate(8.005 6.062)">
            <path id="Path_7829" data-name="Path 7829" d="M841.565,240.13c-.028.286-.193.5-.368.487s-.295-.263-.267-.549.193-.5.368-.487S841.593,239.844,841.565,240.13Z" transform="translate(-840.925 -239.58)" fill="#fff"/>
          </g>
        </g>
      </g>
      <rect id="Rectangle_641" data-name="Rectangle 641" width="1.918" height="95.742" transform="translate(98.736 1257.765)" fill="#fff"/>
    </g>
  </g>
</svg>
