<svg xmlns="http://www.w3.org/2000/svg" width="110.304" height="32.466" viewBox="0 0 110.304 32.466">
  <g id="Group_4784" data-name="Group 4784" transform="translate(0)">
    <path id="Path_7506" data-name="Path 7506" d="M1447.334,557.7c0,.628,5.9,1.518,8.563,1.518s2.6-1.518,2.6-1.518.062-1.517-2.6-1.517S1447.334,557.074,1447.334,557.7Z" transform="translate(-1348.191 -539.893)" fill="rgba(62,48,46,0.19)"/>
    <path id="Path_7507" data-name="Path 7507" d="M1448.906,583.982s1.117-1.029-.765-2.91-6.684-5.426-7.128-4.982,3.1,5.246,4.982,7.128S1448.906,583.982,1448.906,583.982Z" transform="translate(-1344.365 -551.846)" fill="rgba(62,48,46,0.19)"/>
    <path id="Path_7508" data-name="Path 7508" d="M1448.141,526.44c1.881-1.881.765-2.91.765-2.91s-1.029-1.117-2.91.764-5.426,6.684-4.982,7.128S1446.26,528.321,1448.141,526.44Z" transform="translate(-1344.365 -520.05)" fill="rgba(62,48,46,0.19)"/>
    <path id="Path_7509" data-name="Path 7509" d="M1038.767,559.219c2.66,0,8.563-.89,8.563-1.518s-5.9-1.517-8.563-1.517-2.6,1.517-2.6,1.517S1036.106,559.219,1038.767,559.219Z" transform="translate(-1033.981 -539.893)" fill="#dad8d7"/>
    <path id="Path_7510" data-name="Path 7510" d="M1050.9,581.072c-1.881,1.881-.764,2.91-.764,2.91s1.029,1.117,2.91-.764,5.426-6.684,4.982-7.128S1052.786,579.191,1050.9,581.072Z" transform="translate(-1042.189 -551.846)" fill="#dad8d7"/>
    <path id="Path_7511" data-name="Path 7511" d="M1058.033,531.422c.444-.444-3.1-5.247-4.982-7.128s-2.91-.764-2.91-.764-1.117,1.029.764,2.91S1057.589,531.866,1058.033,531.422Z" transform="translate(-1042.189 -520.05)" fill="#dad8d7"/>
    <g id="Group_4782" data-name="Group 4782" transform="translate(94.422)">
      <path id="Path_7512" data-name="Path 7512" d="M1453,549.792s.063-1.518-2.6-1.518-8.563.89-8.563,1.518,5.9,1.517,8.563,1.517S1453,549.792,1453,549.792Z" transform="translate(-1439.309 -535.134)" fill="#18314c"/>
      <path id="Path_7513" data-name="Path 7513" d="M1443.414,576.072s1.117-1.029-.764-2.91-6.684-5.426-7.128-4.982,3.1,5.246,4.982,7.128S1443.414,576.072,1443.414,576.072Z" transform="translate(-1435.483 -547.087)" fill="#18314c"/>
      <path id="Path_7514" data-name="Path 7514" d="M1443.414,515.621s1.117,1.029-.764,2.91-6.684,5.426-7.128,4.982,3.1-5.246,4.982-7.128S1443.414,515.621,1443.414,515.621Z" transform="translate(-1435.483 -515.292)" fill="#18314c"/>
    </g>
    <g id="Group_4783" data-name="Group 4783">
      <path id="Path_7515" data-name="Path 7515" d="M1030.678,549.792s-.063-1.518,2.6-1.518,8.563.89,8.563,1.518-5.9,1.517-8.563,1.517S1030.678,549.792,1030.678,549.792Z" transform="translate(-1030.678 -535.134)" fill="#18314c"/>
      <path id="Path_7516" data-name="Path 7516" d="M1044.649,576.072s-1.117-1.029.764-2.91,6.684-5.426,7.128-4.982-3.1,5.246-4.982,7.128S1044.649,576.072,1044.649,576.072Z" transform="translate(-1038.885 -547.087)" fill="#18314c"/>
      <path id="Path_7517" data-name="Path 7517" d="M1044.649,515.621s-1.117,1.029.764,2.91,6.684,5.426,7.128,4.982-3.1-5.246-4.982-7.128S1044.649,515.621,1044.649,515.621Z" transform="translate(-1038.885 -515.292)" fill="#18314c"/>
    </g>
  </g>
</svg>
