<svg xmlns="http://www.w3.org/2000/svg" width="74.785" height="216.581" viewBox="0 0 74.785 216.581">
  <g id="Group_5601" data-name="Group 5601" transform="translate(-3432.353 -941)">
    <g id="Group_5583" data-name="Group 5583" transform="translate(1801 33)">
      <rect id="Rectangle_673" data-name="Rectangle 673" width="3" height="13" transform="translate(1667 908)" fill="#fff"/>
      <rect id="Rectangle_677" data-name="Rectangle 677" width="3" height="14" transform="translate(1667 962)" fill="#fff"/>
      <rect id="Rectangle_681" data-name="Rectangle 681" width="3" height="13" transform="translate(1667 1017)" fill="#fff"/>
      <rect id="Rectangle_685" data-name="Rectangle 685" width="3" height="14" transform="translate(1667 1071)" fill="#fff"/>
      <rect id="Rectangle_675" data-name="Rectangle 675" width="3" height="14" transform="translate(1667 935)" fill="#fff"/>
      <rect id="Rectangle_679" data-name="Rectangle 679" width="3" height="14" transform="translate(1667 989)" fill="#fff"/>
      <rect id="Rectangle_683" data-name="Rectangle 683" width="3" height="14" transform="translate(1667 1044)" fill="#fff"/>
      <rect id="Rectangle_674" data-name="Rectangle 674" width="3" height="14" transform="translate(1667 921)" fill="#e22b3d"/>
      <rect id="Rectangle_678" data-name="Rectangle 678" width="3" height="13" transform="translate(1667 976)" fill="#e22b3d"/>
      <rect id="Rectangle_682" data-name="Rectangle 682" width="3" height="14" transform="translate(1667 1030)" fill="#e22b3d"/>
      <rect id="Rectangle_676" data-name="Rectangle 676" width="3" height="13" transform="translate(1667 949)" fill="#e22b3d"/>
      <rect id="Rectangle_680" data-name="Rectangle 680" width="3" height="14" transform="translate(1667 1003)" fill="#e22b3d"/>
      <rect id="Rectangle_684" data-name="Rectangle 684" width="3" height="13" transform="translate(1667 1058)" fill="#e22b3d"/>
    </g>
    <g id="Group_5602" data-name="Group 5602" transform="matrix(-0.259, -0.966, 0.966, -0.259, 3445.789, 1165.3)">
      <g id="Group_5398" data-name="Group 5398" transform="translate(5.154 16.908) rotate(19)">
        <g id="Group_5397" data-name="Group 5397">
          <g id="Group_5387" data-name="Group 5387">
            <path id="Path_9096" data-name="Path 9096" d="M470.881,572.506c-1.584.3-1.337,6.5-3.36,6.372s-1.512-4.268-3.678-4.083c-1.693.145-2.312,4.06-4.339,3.87-1.979-.186-2.866-3.125-6.528-2.1s-4.434-.641-4.434-.641-.434-1.794,3-3.482,2.3-4.534,3.7-6.011c1.433-1.513,4.316,1.063,5.7.032,1.771-1.32-1.167-4.139.3-5.6s5.092,3.442,6.491,2.606c1.841-1.1-3.417-7.511.939-8.009,2.406-.275,4.254,3.662,10.283,3.266,5.135-.337,6.782,2.984,6.782,2.984s.784,3.651-3.35,6.858c-4.854,3.765-3.845,8.022-5.854,9.435C472.891,580.555,472.966,572.106,470.881,572.506Z" transform="translate(-448.524 -555.44)" fill="#35b676"/>
          </g>
          <g id="Group_5388" data-name="Group 5388" transform="translate(0.018 6.264)">
            <path id="Path_9097" data-name="Path 9097" d="M470.947,595.955c-1.585.3-1.337,6.5-3.36,6.372s-1.512-4.268-3.678-4.083c-1.693.145-2.312,4.06-4.339,3.87-1.979-.186-2.866-3.125-6.528-2.1s-4.434-.641-4.434-.641l37.19-14.217s.784,3.651-3.35,6.858c-4.854,3.765-3.845,8.022-5.854,9.435C472.957,604,473.032,595.555,470.947,595.955Z" transform="translate(-448.608 -585.153)" fill="#05925a"/>
          </g>
          <g id="Group_5389" data-name="Group 5389" transform="translate(7.464 6.873)">
            <path id="Path_9098" data-name="Path 9098" d="M511.036,588.959a.552.552,0,0,0,.142-.575.52.52,0,0,0-.684-.308l-26.2,10.018a.558.558,0,0,0-.333.7.52.52,0,0,0,.684.308l26.2-10.018A.565.565,0,0,0,511.036,588.959Z" transform="translate(-483.927 -588.039)" fill="#0f7241"/>
          </g>
          <g id="Group_5390" data-name="Group 5390" transform="translate(3.214 17.88)">
            <path id="Path_9099" data-name="Path 9099" d="M466.333,641.172a.552.552,0,0,0,.142-.575.52.52,0,0,0-.684-.308l-1.661.635a.558.558,0,0,0-.333.7.519.519,0,0,0,.684.308l1.661-.635A.563.563,0,0,0,466.333,641.172Z" transform="translate(-463.767 -640.253)" fill="#0f7241"/>
          </g>
          <g id="Group_5391" data-name="Group 5391" transform="translate(20.959 2.994)">
            <path id="Path_9100" data-name="Path 9100" d="M557.868,575.851a.556.556,0,0,0,.167-.469.515.515,0,0,0-.6-.442c-4.97.83-8.451-4.983-8.486-5.042a.526.526,0,0,0-.734-.171.551.551,0,0,0-.2.742c.155.265,3.87,6.484,9.557,5.534A.556.556,0,0,0,557.868,575.851Z" transform="translate(-547.942 -569.644)" fill="#0f7241"/>
          </g>
          <g id="Group_5392" data-name="Group 5392" transform="translate(26.233 8.282)">
            <path id="Path_9101" data-name="Path 9101" d="M573.965,605.775a.556.556,0,0,0,.166-.476c-.01-.068-.926-6.863,3.386-9.581a.551.551,0,0,0,.189-.745.527.527,0,0,0-.737-.161c-4.933,3.11-3.947,10.372-3.9,10.68a.515.515,0,0,0,.609.433A.557.557,0,0,0,573.965,605.775Z" transform="translate(-572.957 -594.726)" fill="#0f7241"/>
          </g>
          <g id="Group_5393" data-name="Group 5393" transform="translate(14.775 8.615)">
            <path id="Path_9102" data-name="Path 9102" d="M525.138,600.554a.556.556,0,0,0,.168-.457.515.515,0,0,0-.592-.457c-3.225.462-5.072-3.022-5.091-3.057a.524.524,0,0,0-.723-.209.553.553,0,0,0-.237.731c.088.171,2.194,4.171,6.164,3.6A.557.557,0,0,0,525.138,600.554Z" transform="translate(-518.606 -596.306)" fill="#0f7241"/>
          </g>
          <g id="Group_5394" data-name="Group 5394" transform="translate(18.035 11.944)">
            <path id="Path_9103" data-name="Path 9103" d="M535.091,619.358a.555.555,0,0,0,.161-.5c-.011-.058-.732-3.955,2.011-5.772a.55.55,0,0,0,.171-.748.528.528,0,0,0-.741-.144c-3.387,2.243-2.534,6.723-2.5,6.913a.517.517,0,0,0,.632.4A.562.562,0,0,0,535.091,619.358Z" transform="translate(-534.074 -612.096)" fill="#0f7241"/>
          </g>
          <g id="Group_5395" data-name="Group 5395" transform="translate(8.342 13.922)">
            <path id="Path_9104" data-name="Path 9104" d="M492.062,623.859a.556.556,0,0,0,.167-.468.515.515,0,0,0-.6-.444,3.039,3.039,0,0,1-2.556-1.259.531.531,0,0,0-.75-.1.547.547,0,0,0-.126.756,4.047,4.047,0,0,0,3.568,1.665A.56.56,0,0,0,492.062,623.859Z" transform="translate(-488.096 -621.478)" fill="#0f7241"/>
          </g>
          <g id="Group_5396" data-name="Group 5396" transform="translate(9.961 15.384)">
            <path id="Path_9105" data-name="Path 9105" d="M496.68,632.515a.557.557,0,0,0,.171-.423,3.324,3.324,0,0,1,1.18-2.688.551.551,0,0,0,.187-.745.527.527,0,0,0-.738-.159,4.392,4.392,0,0,0-1.7,3.68.515.515,0,0,0,.562.493A.557.557,0,0,0,496.68,632.515Z" transform="translate(-495.774 -628.412)" fill="#0f7241"/>
          </g>
        </g>
      </g>
      <g id="Group_5603" data-name="Group 5603" transform="translate(17.942 67.473) rotate(-73)">
        <g id="Group_5397-2" data-name="Group 5397">
          <g id="Group_5387-2" data-name="Group 5387">
            <path id="Path_9096-2" data-name="Path 9096" d="M470.881,572.506c-1.584.3-1.337,6.5-3.36,6.372s-1.512-4.268-3.678-4.083c-1.693.145-2.312,4.06-4.339,3.87-1.979-.186-2.866-3.125-6.528-2.1s-4.434-.641-4.434-.641-.434-1.794,3-3.482,2.3-4.534,3.7-6.011c1.433-1.513,4.316,1.063,5.7.032,1.771-1.32-1.167-4.139.3-5.6s5.092,3.442,6.491,2.606c1.841-1.1-3.417-7.511.939-8.009,2.406-.275,4.254,3.662,10.283,3.266,5.135-.337,6.782,2.984,6.782,2.984s.784,3.651-3.35,6.858c-4.854,3.765-3.845,8.022-5.854,9.435C472.891,580.555,472.966,572.106,470.881,572.506Z" transform="translate(-448.524 -555.44)" fill="#35b676"/>
          </g>
          <g id="Group_5388-2" data-name="Group 5388" transform="translate(0.018 6.264)">
            <path id="Path_9097-2" data-name="Path 9097" d="M470.947,595.955c-1.585.3-1.337,6.5-3.36,6.372s-1.512-4.268-3.678-4.083c-1.693.145-2.312,4.06-4.339,3.87-1.979-.186-2.866-3.125-6.528-2.1s-4.434-.641-4.434-.641l37.19-14.217s.784,3.651-3.35,6.858c-4.854,3.765-3.845,8.022-5.854,9.435C472.957,604,473.032,595.555,470.947,595.955Z" transform="translate(-448.608 -585.153)" fill="#05925a"/>
          </g>
          <g id="Group_5389-2" data-name="Group 5389" transform="translate(7.464 6.873)">
            <path id="Path_9098-2" data-name="Path 9098" d="M511.036,588.959a.552.552,0,0,0,.142-.575.52.52,0,0,0-.684-.308l-26.2,10.018a.558.558,0,0,0-.333.7.52.52,0,0,0,.684.308l26.2-10.018A.565.565,0,0,0,511.036,588.959Z" transform="translate(-483.927 -588.039)" fill="#0f7241"/>
          </g>
          <g id="Group_5390-2" data-name="Group 5390" transform="translate(3.214 17.88)">
            <path id="Path_9099-2" data-name="Path 9099" d="M466.333,641.172a.552.552,0,0,0,.142-.575.52.52,0,0,0-.684-.308l-1.661.635a.558.558,0,0,0-.333.7.519.519,0,0,0,.684.308l1.661-.635A.563.563,0,0,0,466.333,641.172Z" transform="translate(-463.767 -640.253)" fill="#0f7241"/>
          </g>
          <g id="Group_5391-2" data-name="Group 5391" transform="translate(20.959 2.994)">
            <path id="Path_9100-2" data-name="Path 9100" d="M557.868,575.851a.556.556,0,0,0,.167-.469.515.515,0,0,0-.6-.442c-4.97.83-8.451-4.983-8.486-5.042a.526.526,0,0,0-.734-.171.551.551,0,0,0-.2.742c.155.265,3.87,6.484,9.557,5.534A.556.556,0,0,0,557.868,575.851Z" transform="translate(-547.942 -569.644)" fill="#0f7241"/>
          </g>
          <g id="Group_5392-2" data-name="Group 5392" transform="translate(26.233 8.282)">
            <path id="Path_9101-2" data-name="Path 9101" d="M573.965,605.775a.556.556,0,0,0,.166-.476c-.01-.068-.926-6.863,3.386-9.581a.551.551,0,0,0,.189-.745.527.527,0,0,0-.737-.161c-4.933,3.11-3.947,10.372-3.9,10.68a.515.515,0,0,0,.609.433A.557.557,0,0,0,573.965,605.775Z" transform="translate(-572.957 -594.726)" fill="#0f7241"/>
          </g>
          <g id="Group_5393-2" data-name="Group 5393" transform="translate(14.775 8.615)">
            <path id="Path_9102-2" data-name="Path 9102" d="M525.138,600.554a.556.556,0,0,0,.168-.457.515.515,0,0,0-.592-.457c-3.225.462-5.072-3.022-5.091-3.057a.524.524,0,0,0-.723-.209.553.553,0,0,0-.237.731c.088.171,2.194,4.171,6.164,3.6A.557.557,0,0,0,525.138,600.554Z" transform="translate(-518.606 -596.306)" fill="#0f7241"/>
          </g>
          <g id="Group_5394-2" data-name="Group 5394" transform="translate(18.035 11.944)">
            <path id="Path_9103-2" data-name="Path 9103" d="M535.091,619.358a.555.555,0,0,0,.161-.5c-.011-.058-.732-3.955,2.011-5.772a.55.55,0,0,0,.171-.748.528.528,0,0,0-.741-.144c-3.387,2.243-2.534,6.723-2.5,6.913a.517.517,0,0,0,.632.4A.562.562,0,0,0,535.091,619.358Z" transform="translate(-534.074 -612.096)" fill="#0f7241"/>
          </g>
          <g id="Group_5395-2" data-name="Group 5395" transform="translate(8.342 13.922)">
            <path id="Path_9104-2" data-name="Path 9104" d="M492.062,623.859a.556.556,0,0,0,.167-.468.515.515,0,0,0-.6-.444,3.039,3.039,0,0,1-2.556-1.259.531.531,0,0,0-.75-.1.547.547,0,0,0-.126.756,4.047,4.047,0,0,0,3.568,1.665A.56.56,0,0,0,492.062,623.859Z" transform="translate(-488.096 -621.478)" fill="#0f7241"/>
          </g>
          <g id="Group_5396-2" data-name="Group 5396" transform="translate(9.961 15.384)">
            <path id="Path_9105-2" data-name="Path 9105" d="M496.68,632.515a.557.557,0,0,0,.171-.423,3.324,3.324,0,0,1,1.18-2.688.551.551,0,0,0,.187-.745.527.527,0,0,0-.738-.159,4.392,4.392,0,0,0-1.7,3.68.515.515,0,0,0,.562.493A.557.557,0,0,0,496.68,632.515Z" transform="translate(-495.774 -628.412)" fill="#0f7241"/>
          </g>
        </g>
      </g>
      <g id="Group_5410" data-name="Group 5410" transform="translate(28.082)">
        <g id="Group_5409" data-name="Group 5409">
          <g id="Group_5399" data-name="Group 5399">
            <path id="Path_9106" data-name="Path 9106" d="M589.791,452.272c.947-1.33-3.613-5.374-2.037-6.718s4.124,1.834,5.583.172c1.14-1.3-1.173-4.4.449-5.709,1.583-1.276,4.31.1,6.273-3.2s3.706-2.706,3.706-2.706,1.586.913.262,4.494,1.517,4.716,1.534,6.713c.017,2.046-3.917,2.335-4.2,4.018-.367,2.154,3.78,1.99,3.739,4.027s-6.167,1.266-6.6,2.827c-.573,2.054,7.813,2.691,4.969,6.117-1.571,1.892-5.708.523-9.851,5.065-3.528,3.868-7.083,2.776-7.083,2.776s-3.154-1.93-2.387-7.042c.9-6-2.847-8.185-2.372-10.571C582.63,448.217,588.544,454.022,589.791,452.272Z" transform="translate(-581.728 -434.075)" fill="#35b676"/>
          </g>
          <g id="Group_5400" data-name="Group 5400">
            <path id="Path_9107" data-name="Path 9107" d="M589.791,452.272c.947-1.33-3.613-5.374-2.037-6.718s4.124,1.834,5.583.172c1.14-1.3-1.173-4.4.449-5.709,1.583-1.276,4.31.1,6.273-3.2s3.706-2.706,3.706-2.706L586.529,470.15s-3.154-1.93-2.387-7.042c.9-6-2.847-8.185-2.372-10.571C582.63,448.217,588.544,454.022,589.791,452.272Z" transform="translate(-581.728 -434.075)" fill="#05925a"/>
          </g>
          <g id="Group_5401" data-name="Group 5401" transform="translate(5.655 7.237)">
            <path id="Path_9108" data-name="Path 9108" d="M608.55,494.335a.515.515,0,0,0,.3.491.554.554,0,0,0,.719-.275l12.144-25.39a.524.524,0,0,0-.248-.711.554.554,0,0,0-.719.275L608.6,494.116A.551.551,0,0,0,608.55,494.335Z" transform="translate(-608.549 -468.405)" fill="#0f7241"/>
          </g>
          <g id="Group_5402" data-name="Group 5402" transform="translate(18.999 3.119)">
            <path id="Path_9109" data-name="Path 9109" d="M671.849,451.02a.515.515,0,0,0,.3.492.554.554,0,0,0,.72-.275l.769-1.609a.524.524,0,0,0-.248-.711.554.554,0,0,0-.719.275l-.77,1.609A.554.554,0,0,0,671.849,451.02Z" transform="translate(-671.848 -448.871)" fill="#0f7241"/>
          </g>
          <g id="Group_5403" data-name="Group 5403" transform="translate(7.363 25.954)">
            <path id="Path_9110" data-name="Path 9110" d="M616.656,560.829a.517.517,0,0,0,.209.438.545.545,0,0,0,.755-.126c3.059-4.087,9.72-2.6,9.787-2.582a.56.56,0,0,0,.66-.4.518.518,0,0,0-.378-.646c-.3-.07-7.42-1.67-10.92,3.006A.556.556,0,0,0,616.656,560.829Z" transform="translate(-616.656 -557.188)" fill="#0f7241"/>
          </g>
          <g id="Group_5404" data-name="Group 5404" transform="translate(2.88 19.577)">
            <path id="Path_9111" data-name="Path 9111" d="M595.39,527.476a.517.517,0,0,0,.215.442c.056.04,5.528,4.015,4.285,8.921a.518.518,0,0,0,.388.641.561.561,0,0,0,.655-.413c1.421-5.613-4.432-9.857-4.682-10.035a.545.545,0,0,0-.753.136A.555.555,0,0,0,595.39,527.476Z" transform="translate(-595.389 -526.936)" fill="#0f7241"/>
          </g>
          <g id="Group_5405" data-name="Group 5405" transform="translate(11.803 17.796)">
            <path id="Path_9112" data-name="Path 9112" d="M637.714,521.007a.517.517,0,0,0,.2.43.544.544,0,0,0,.757-.108c2.039-2.6,5.856-1.538,5.894-1.527a.559.559,0,0,0,.678-.37.519.519,0,0,0-.343-.666c-.185-.054-4.556-1.284-7.066,1.917A.557.557,0,0,0,637.714,521.007Z" transform="translate(-637.714 -518.49)" fill="#0f7241"/>
          </g>
          <g id="Group_5406" data-name="Group 5406" transform="translate(8.976 13.859)">
            <path id="Path_9113" data-name="Path 9113" d="M624.3,500.354a.517.517,0,0,0,.238.457c.049.031,3.331,2.174,2.6,5.354a.517.517,0,0,0,.4.631.561.561,0,0,0,.645-.428c.9-3.927-2.891-6.373-3.052-6.475a.548.548,0,0,0-.746.176A.553.553,0,0,0,624.3,500.354Z" transform="translate(-624.303 -499.814)" fill="#0f7241"/>
          </g>
          <g id="Group_5407" data-name="Group 5407" transform="translate(15.973 9.858)">
            <path id="Path_9114" data-name="Path 9114" d="M657.494,482.572a.517.517,0,0,0,.208.437.545.545,0,0,0,.755-.124,3.263,3.263,0,0,1,2.764-.954.562.562,0,0,0,.62-.465.516.516,0,0,0-.441-.6,4.345,4.345,0,0,0-3.793,1.4A.557.557,0,0,0,657.494,482.572Z" transform="translate(-657.494 -480.834)" fill="#0f7241"/>
          </g>
          <g id="Group_5408" data-name="Group 5408" transform="translate(14.781 7.867)">
            <path id="Path_9115" data-name="Path 9115" d="M651.842,471.931a.517.517,0,0,0,.174.409,3.088,3.088,0,0,1,1.034,2.666.518.518,0,0,0,.39.64.561.561,0,0,0,.654-.414,4.084,4.084,0,0,0-1.35-3.712.541.541,0,0,0-.76.063A.557.557,0,0,0,651.842,471.931Z" transform="translate(-651.841 -471.391)" fill="#0f7241"/>
          </g>
        </g>
      </g>
      <g id="Group_5416" data-name="Group 5416" transform="translate(26.249 29.297)">
        <g id="Group_5411" data-name="Group 5411" transform="translate(0 0)">
          <ellipse id="Ellipse_148" data-name="Ellipse 148" cx="4.589" cy="4.42" rx="4.589" ry="4.42" transform="matrix(0.692, -0.722, 0.722, 0.692, 0, 6.626)" fill="#ed2238"/>
        </g>
        <g id="Group_5412" data-name="Group 5412" transform="translate(1.31 2.781)">
          <ellipse id="Ellipse_149" data-name="Ellipse 149" cx="3.285" cy="3.165" rx="3.285" ry="3.165" transform="matrix(0.692, -0.722, 0.722, 0.692, 0, 4.743)" fill="#ed3c4e"/>
        </g>
        <g id="Group_5413" data-name="Group 5413" transform="translate(2.255 1.861)">
          <path id="Path_9116" data-name="Path 9116" d="M591.343,589.081a4.533,4.533,0,0,0,.265-2.9,4.328,4.328,0,0,0-5.431-3.121,4.709,4.709,0,0,0-2.448,1.644,4.733,4.733,0,0,1,3.057-2.662,4.328,4.328,0,0,1,5.432,3.121A4.6,4.6,0,0,1,591.343,589.081Z" transform="translate(-583.728 -581.873)" fill="#c4202f"/>
        </g>
        <g id="Group_5414" data-name="Group 5414" transform="translate(3.963 6.48)" opacity="0.8">
          <ellipse id="Ellipse_150" data-name="Ellipse 150" cx="1.692" cy="1.63" rx="1.692" ry="1.63" transform="matrix(0.692, -0.722, 0.722, 0.692, 0, 2.443)" fill="#f7f9fc"/>
        </g>
        <g id="Group_5415" data-name="Group 5415" transform="translate(2.698 6.371)" opacity="0.8">
          <path id="Path_9117" data-name="Path 9117" d="M587.652,603.94a.961.961,0,0,1-.681,1.139.887.887,0,0,1-1.113-.64.961.961,0,0,1,.681-1.139A.886.886,0,0,1,587.652,603.94Z" transform="translate(-585.833 -603.266)" fill="#f7f9fc"/>
        </g>
      </g>
      <g id="Group_5422" data-name="Group 5422" transform="translate(30.579 23.077)">
        <g id="Group_5417" data-name="Group 5417" transform="translate(0 0)">
          <ellipse id="Ellipse_151" data-name="Ellipse 151" cx="4.043" cy="3.895" rx="4.043" ry="3.895" transform="matrix(0.692, -0.722, 0.722, 0.692, 0, 5.838)" fill="#ed2238"/>
        </g>
        <g id="Group_5418" data-name="Group 5418" transform="translate(1.726 0.652)">
          <ellipse id="Ellipse_152" data-name="Ellipse 152" cx="2.895" cy="2.788" rx="2.895" ry="2.788" transform="matrix(0.692, -0.722, 0.722, 0.692, 0, 4.18)" fill="#ed3c4e"/>
        </g>
        <g id="Group_5419" data-name="Group 5419" transform="translate(1.644 4.952)">
          <path id="Path_9118" data-name="Path 9118" d="M609.3,567.324a4.141,4.141,0,0,1-1.3,2.251,3.943,3.943,0,0,1-5.594-.21,3.807,3.807,0,0,1-.954-2.335,3.866,3.866,0,0,0,.877,3.364,3.944,3.944,0,0,0,5.594.21A4.115,4.115,0,0,0,609.3,567.324Z" transform="translate(-601.37 -567.03)" fill="#c4202f"/>
        </g>
        <g id="Group_5420" data-name="Group 5420" transform="translate(3.317 5.273)" opacity="0.8">
          <path id="Path_9119" data-name="Path 9119" d="M610.9,571.469a1.53,1.53,0,0,0,1.333-1.633,1.4,1.4,0,0,0-1.581-1.275,1.53,1.53,0,0,0-1.333,1.633A1.4,1.4,0,0,0,610.9,571.469Z" transform="translate(-609.31 -568.55)" fill="#f7f9fc"/>
        </g>
        <g id="Group_5421" data-name="Group 5421" transform="translate(2.115 3.875)" opacity="0.8">
          <path id="Path_9120" data-name="Path 9120" d="M604.49,563.542a.851.851,0,0,0,.741-.907.778.778,0,0,0-.879-.708.85.85,0,0,0-.741.907A.778.778,0,0,0,604.49,563.542Z" transform="translate(-603.608 -561.92)" fill="#f7f9fc"/>
        </g>
      </g>
      <g id="Group_5428" data-name="Group 5428" transform="translate(33.239 28.057)">
        <g id="Group_5423" data-name="Group 5423" transform="translate(0 0)">
          <ellipse id="Ellipse_153" data-name="Ellipse 153" cx="4.875" cy="4.696" rx="4.875" ry="4.696" transform="translate(0 7.038) rotate(-46.215)" fill="#ed2238"/>
        </g>
        <g id="Group_5424" data-name="Group 5424" transform="translate(2.381 2.951)">
          <ellipse id="Ellipse_154" data-name="Ellipse 154" cx="3.49" cy="3.362" rx="3.49" ry="3.362" transform="matrix(0.692, -0.722, 0.722, 0.692, 0, 5.039)" fill="#ed3c4e"/>
        </g>
        <g id="Group_5425" data-name="Group 5425" transform="translate(1.98 1.977)">
          <path id="Path_9121" data-name="Path 9121" d="M625.033,580.121a4.512,4.512,0,0,0-2.221-2.051,4.927,4.927,0,0,0-6.357,2.549,4.824,4.824,0,0,0-.335,3.075,4.769,4.769,0,0,1-.088-4.225,4.927,4.927,0,0,1,6.357-2.549A4.539,4.539,0,0,1,625.033,580.121Z" transform="translate(-615.583 -576.542)" fill="#c4202f"/>
        </g>
        <g id="Group_5426" data-name="Group 5426" transform="translate(6.999 6.601)" opacity="0.8">
          <path id="Path_9122" data-name="Path 9122" d="M641.9,598.613a1.715,1.715,0,0,1,.851,2.314,1.816,1.816,0,0,1-2.343.94,1.715,1.715,0,0,1-.851-2.314A1.816,1.816,0,0,1,641.9,598.613Z" transform="translate(-639.388 -598.474)" fill="#f7f9fc"/>
        </g>
        <g id="Group_5427" data-name="Group 5427" transform="translate(4.645 8.655)" opacity="0.8">
          <path id="Path_9123" data-name="Path 9123" d="M629.618,608.295a.953.953,0,0,1,.473,1.286,1.009,1.009,0,0,1-1.3.522.953.953,0,0,1-.473-1.286A1.009,1.009,0,0,1,629.618,608.295Z" transform="translate(-628.223 -608.217)" fill="#f7f9fc"/>
        </g>
      </g>
    </g>
  </g>
</svg>
