<svg xmlns="http://www.w3.org/2000/svg" xmlns:xlink="http://www.w3.org/1999/xlink" width="109.755" height="222.32" viewBox="0 0 109.755 222.32">
  <defs>
    <filter id="Path_8867" x="37.797" y="54.725" width="71.957" height="167.595" filterUnits="userSpaceOnUse">
      <feOffset dy="10" input="SourceAlpha"/>
      <feGaussianBlur result="blur"/>
      <feFlood flood-opacity="0.161"/>
      <feComposite operator="in" in2="blur"/>
      <feComposite in="SourceGraphic"/>
    </filter>
  </defs>
  <g id="Group_5536" data-name="Group 5536" transform="translate(-1092.856 -374.148)">
    <g id="Group_5254" data-name="Group 5254" transform="translate(1143.077 374.148) rotate(19)">
      <path id="Path_8737" data-name="Path 8737" d="M39,5.234c-2.568-.45-4.356,33.25-7.684,32.666S36.962,1.74,33.538,1.141s-6.421,36.645-9.654,36.079S30.5.607,27.071.007,20,35.917,16.667,35.334,23.114,2.451,20.547,2,8.689,40.978,9.122,44.827c.906,8.065,8.9,11.754,8.9,11.754S2.428,134.682.466,142.9s2.911,11.358,2.911,11.358,5.651-1.3,6.6-9.691S22.813,57.42,22.813,57.42s8.772-.75,12.367-8.027C36.895,45.92,41.564,5.684,39,5.234Z" fill="#f7f7f9"/>
      <path id="Path_8738" data-name="Path 8738" d="M6.6,139.331c.948-8.394,12.837-87.145,12.837-87.145s8.772-.75,12.367-8.027C33.518,40.687,38.187.45,35.619,0c0,0-.81,16.652-2.941,27.322-1.964,9.831-4.157,18.124-11.919,20.928A3.928,3.928,0,0,0,18.2,51.2c-2.154,11.34-11.407,60.413-12.787,73.552C3.85,139.634,0,149.022,0,149.022S5.651,147.725,6.6,139.331Z" transform="translate(3.377 5.234)" fill="#a69d99" opacity="0.3"/>
      <path id="Path_8739" data-name="Path 8739" d="M.2,35.508c1.5,3.1,4.63,2.576,5.708-3.019.8-4.136,4.753-22.937,6.761-32.455A.48.48,0,0,0,12.6.007c-3.423-.6-7.076,35.91-10.4,35.327S8.643,2.451,6.076,2C5.912,2.665-1.294,32.4.2,35.508Z" transform="translate(14.471 0)" fill="#fff" opacity="0.8"/>
      <path id="Path_8740" data-name="Path 8740" d="M9.6,3.919C7.037,3.47,5.249,37.169,1.921,36.586-1.3,36.022,6.99,2.74,4.445,0,2.6,11.207-2.526,38.094,1.512,38.547,4.443,38.876,5.3,35.69,9.6,3.919Z" transform="translate(29.296 1.298)" fill="#fff" opacity="0.8"/>
    </g>
    <g id="Group_5316" data-name="Group 5316" transform="translate(1175.068 426.3) rotate(19)">
      <g id="Group_5315" data-name="Group 5315" transform="translate(0 0)">
        <path id="Path_8866" data-name="Path 8866" d="M26.138,159.346c7.893-1.181-1.66-25.882-7.6-73.415-.255-2.044,3.812-5.842,2.669-13.481S11.876,10.1,10.657,1.95-2.294,11.958.4,42.143c2.22,24.875,6.5,41.721,11.855,44.435,0,0,2.781,18.588,4.286,28.646S19.39,160.355,26.138,159.346Z" fill="#f7f7f9"/>
        <g transform="matrix(0.95, -0.33, 0.33, 0.95, -94.71, -22.55)" filter="url(#Path_8867)">
          <path id="Path_8867-2" data-name="Path 8867" d="M10.636,85.93c-.255-2.044,3.812-5.842,2.669-13.481S3.976,10.1,2.756,1.949C2.431-.23,1.353-.527,0,.784H0s6.746,45.085,8.5,56.8,1.866,16.958-.706,22.391,5.649,34.272,7.732,46.456,6.249,30.092,1.466,32.671h0a1.91,1.91,0,0,0,1.246.245C26.13,158.164,16.577,133.463,10.636,85.93Z" transform="translate(89.68 54.73) rotate(19)" fill="#a69d99" opacity="0.4"/>
        </g>
        <g id="Group_5314" data-name="Group 5314" transform="translate(7.147 18.037)" opacity="0.4">
          <path id="Path_8868" data-name="Path 8868" d="M1.955.025A2.294,2.294,0,0,0,.026,2.634L3.747,27.506a2.294,2.294,0,1,0,4.538-.679L4.564,1.955A2.3,2.3,0,0,0,1.955.025Z" fill="#fff"/>
          <path id="Path_8869" data-name="Path 8869" d="M1.955.026A2.3,2.3,0,0,0,.026,2.634L.318,4.589A2.294,2.294,0,0,0,4.856,3.91L4.564,1.955A2.294,2.294,0,0,0,1.955.026Z" transform="translate(4.915 32.847)" fill="#fff"/>
        </g>
      </g>
      <path id="Path_8870" data-name="Path 8870" d="M.4,31.9c2.22,24.875,6.5,41.721,11.855,44.435A368.867,368.867,0,0,1,5.134,40.039C2.59,23.034,3.167.154,3.179,0,.861,7.41-.8,18.46.4,31.9Z" transform="translate(0 10.247)" fill="#fff" opacity="0.4"/>
    </g>
  </g>
</svg>
