<svg xmlns="http://www.w3.org/2000/svg" width="233.743" height="233.743" viewBox="0 0 233.743 233.743">
  <g id="Group_5528" data-name="Group 5528" transform="translate(62.591 -240.141)">
    <g id="Group_5511" data-name="Group 5511" transform="translate(7.958 335.492)">
      <path id="Path_9190" data-name="Path 9190" d="M13.713,353.152a41.048,41.048,0,0,0,81.472-9.882Z" transform="translate(-13.713 -343.27)" fill="#ffde27"/>
      <path id="Path_9191" data-name="Path 9191" d="M17,352.813a37.989,37.989,0,0,0,75.4-9.144Z" transform="translate(-13.961 -343.3)" fill="#fff"/>
      <g id="Group_5510" data-name="Group 5510" transform="translate(6.442 0.892)">
        <path id="Path_9192" data-name="Path 9192" d="M59.264,355.342l2.956,24.376a2.6,2.6,0,0,0,3.157,2.206A34.777,34.777,0,0,0,83,371.986a2.593,2.593,0,0,0-.265-3.831L63.4,353.008A2.572,2.572,0,0,0,59.264,355.342Z" transform="translate(-23.589 -344.855)" fill="#ffcf00"/>
        <path id="Path_9193" data-name="Path 9193" d="M51.755,354.271,36.608,373.6a2.592,2.592,0,0,0,.658,3.783,34.769,34.769,0,0,0,19.485,5.439,2.6,2.6,0,0,0,2.538-2.9l-2.957-24.377A2.572,2.572,0,0,0,51.755,354.271Z" transform="translate(-21.84 -344.917)" fill="#ffcf00"/>
        <path id="Path_9194" data-name="Path 9194" d="M21.593,352.723a2.573,2.573,0,0,0-.852,2.495,34.771,34.771,0,0,0,9.94,17.621,2.592,2.592,0,0,0,3.831-.265l15.146-19.327a2.573,2.573,0,0,0-.768-3.832Z" transform="translate(-20.68 -344.626)" fill="#ffcf00"/>
        <path id="Path_9195" data-name="Path 9195" d="M64.288,347.546a2.571,2.571,0,0,0,.169,3.9L83.785,366.6a2.592,2.592,0,0,0,3.783-.658,34.768,34.768,0,0,0,5.44-19.485,2.576,2.576,0,0,0-1.424-2.218Z" transform="translate(-23.908 -344.235)" fill="#ffcf00"/>
      </g>
    </g>
    <g id="Group_5527" data-name="Group 5527" transform="translate(-62.591 240.141)">
      <g id="Group_5512" data-name="Group 5512" transform="translate(0 0)">
        <circle id="Ellipse_164" data-name="Ellipse 164" cx="82.641" cy="82.641" r="82.641" transform="translate(0 116.872) rotate(-45)" fill="#e7e2df"/>
        <circle id="Ellipse_165" data-name="Ellipse 165" cx="70.267" cy="70.267" r="70.267" transform="translate(17.5 116.872) rotate(-45)" fill="#fff"/>
        <circle id="Ellipse_166" data-name="Ellipse 166" cx="48.17" cy="48.17" r="48.17" transform="translate(48.749 116.872) rotate(-45)" fill="#c6c5c2"/>
        <circle id="Ellipse_167" data-name="Ellipse 167" cx="41.983" cy="41.983" r="41.983" transform="matrix(0.484, -0.875, 0.875, 0.484, 59.817, 133.301)" fill="#fff"/>
      </g>
      <g id="Group_5514" data-name="Group 5514" transform="translate(47.433 28.389)">
        <circle id="Ellipse_168" data-name="Ellipse 168" cx="39.118" cy="39.118" r="39.118" transform="translate(0 55.322) rotate(-45)" fill="#ffde27"/>
        <circle id="Ellipse_169" data-name="Ellipse 169" cx="36.204" cy="36.204" r="36.204" transform="translate(4.121 55.322) rotate(-45)" fill="#fff"/>
        <g id="Group_5513" data-name="Group 5513" transform="translate(22.052 22.052)">
          <path id="Path_9196" data-name="Path 9196" d="M38.735,332.245l-23.2,2.846a2.473,2.473,0,0,0-2.1,3.009,33.1,33.1,0,0,0,9.485,16.762,2.467,2.467,0,0,0,3.647-.258l14.395-18.419A2.45,2.45,0,0,0,38.735,332.245Z" transform="translate(-12.624 -297.527)" fill="#ffcf00"/>
          <path id="Path_9197" data-name="Path 9197" d="M39.746,325.1,21.327,310.7a2.468,2.468,0,0,0-3.6.632,33.1,33.1,0,0,0-5.154,18.557,2.473,2.473,0,0,0,2.761,2.412l23.2-2.846A2.449,2.449,0,0,0,39.746,325.1Z" transform="translate(-12.563 -295.865)" fill="#ffcf00"/>
          <path id="Path_9198" data-name="Path 9198" d="M45.078,320.869l-2.846-23.2a2.474,2.474,0,0,0-3.008-2.1,33.111,33.111,0,0,0-16.763,9.485,2.469,2.469,0,0,0,.258,3.647L41.14,323.1A2.449,2.449,0,0,0,45.078,320.869Z" transform="translate(-13.258 -294.758)" fill="#ffcf00"/>
          <path id="Path_9199" data-name="Path 9199" d="M45.116,297.467l2.846,23.2a2.45,2.45,0,0,0,4.361,1.21l14.395-18.419a2.468,2.468,0,0,0-.632-3.6,33.1,33.1,0,0,0-18.557-5.154A2.474,2.474,0,0,0,45.116,297.467Z" transform="translate(-15.017 -294.697)" fill="#ffcf00"/>
          <path id="Path_9200" data-name="Path 9200" d="M50.112,338.2l2.846,23.2a2.473,2.473,0,0,0,3.008,2.1,33.1,33.1,0,0,0,16.762-9.485,2.468,2.468,0,0,0-.257-3.647L54.051,335.969A2.449,2.449,0,0,0,50.112,338.2Z" transform="translate(-15.393 -297.77)" fill="#ffcf00"/>
          <path id="Path_9201" data-name="Path 9201" d="M56.063,327.212l23.2-2.846a2.474,2.474,0,0,0,2.1-3.008A33.1,33.1,0,0,0,71.877,304.6a2.468,2.468,0,0,0-3.647.258L53.836,323.273A2.449,2.449,0,0,0,56.063,327.212Z" transform="translate(-15.636 -295.392)" fill="#ffcf00"/>
          <path id="Path_9202" data-name="Path 9202" d="M55.052,334.457l18.419,14.395a2.468,2.468,0,0,0,3.6-.632,33.1,33.1,0,0,0,5.153-18.557,2.472,2.472,0,0,0-2.76-2.412l-23.2,2.846A2.449,2.449,0,0,0,55.052,334.457Z" transform="translate(-15.696 -297.151)" fill="#ffcf00"/>
          <path id="Path_9203" data-name="Path 9203" d="M42.963,337.185,28.569,355.6a2.468,2.468,0,0,0,.631,3.6,33.1,33.1,0,0,0,18.558,5.154,2.473,2.473,0,0,0,2.412-2.76l-2.846-23.2A2.45,2.45,0,0,0,42.963,337.185Z" transform="translate(-13.731 -297.83)" fill="#ffcf00"/>
        </g>
      </g>
      <g id="Group_5516" data-name="Group 5516" transform="translate(75.234 31.816)">
        <circle id="Ellipse_170" data-name="Ellipse 170" cx="39.118" cy="39.118" r="39.118" transform="translate(0 64.752) rotate(-55.857)" fill="#ffde27"/>
        <circle id="Ellipse_171" data-name="Ellipse 171" cx="36.204" cy="36.204" r="36.204" transform="translate(6.553 72.736) rotate(-66.067)" fill="#fff"/>
        <g id="Group_5515" data-name="Group 5515" transform="translate(21.062 21.062)">
          <path id="Path_9204" data-name="Path 9204" d="M67.733,334.881l-23.2,2.847a2.473,2.473,0,0,0-2.1,3.008A33.1,33.1,0,0,0,51.919,357.5a2.467,2.467,0,0,0,3.647-.257l14.395-18.419A2.449,2.449,0,0,0,67.733,334.881Z" transform="translate(-41.622 -300.163)" fill="#ffcf00"/>
          <path id="Path_9205" data-name="Path 9205" d="M68.744,327.733,50.324,313.339a2.469,2.469,0,0,0-3.6.631,33.1,33.1,0,0,0-5.153,18.557,2.472,2.472,0,0,0,2.76,2.412l23.2-2.846A2.449,2.449,0,0,0,68.744,327.733Z" transform="translate(-41.561 -298.501)" fill="#ffcf00"/>
          <path id="Path_9206" data-name="Path 9206" d="M74.076,323.505l-2.847-23.2a2.473,2.473,0,0,0-3.008-2.1,33.108,33.108,0,0,0-16.762,9.485,2.468,2.468,0,0,0,.257,3.647l18.419,14.395A2.45,2.45,0,0,0,74.076,323.505Z" transform="translate(-42.255 -297.394)" fill="#ffcf00"/>
          <path id="Path_9207" data-name="Path 9207" d="M74.113,300.1l2.847,23.2a2.449,2.449,0,0,0,4.36,1.21L95.715,306.1a2.468,2.468,0,0,0-.631-3.6,33.106,33.106,0,0,0-18.558-5.154A2.474,2.474,0,0,0,74.113,300.1Z" transform="translate(-44.014 -297.333)" fill="#ffcf00"/>
          <path id="Path_9208" data-name="Path 9208" d="M79.109,340.833l2.846,23.2a2.473,2.473,0,0,0,3.008,2.1,33.1,33.1,0,0,0,16.763-9.485,2.469,2.469,0,0,0-.258-3.647L83.048,338.605A2.449,2.449,0,0,0,79.109,340.833Z" transform="translate(-44.391 -300.406)" fill="#ffcf00"/>
          <path id="Path_9209" data-name="Path 9209" d="M85.061,329.848l23.2-2.846a2.474,2.474,0,0,0,2.1-3.008,33.115,33.115,0,0,0-9.485-16.763,2.469,2.469,0,0,0-3.647.258L82.833,325.91A2.449,2.449,0,0,0,85.061,329.848Z" transform="translate(-44.634 -298.028)" fill="#ffcf00"/>
          <path id="Path_9210" data-name="Path 9210" d="M84.049,337.093l18.419,14.395a2.468,2.468,0,0,0,3.6-.631,33.1,33.1,0,0,0,5.154-18.557,2.474,2.474,0,0,0-2.761-2.412l-23.2,2.846A2.449,2.449,0,0,0,84.049,337.093Z" transform="translate(-44.694 -299.787)" fill="#ffcf00"/>
          <path id="Path_9211" data-name="Path 9211" d="M71.96,339.822,57.566,358.241a2.468,2.468,0,0,0,.632,3.6A33.092,33.092,0,0,0,76.755,367a2.472,2.472,0,0,0,2.412-2.76l-2.846-23.2A2.449,2.449,0,0,0,71.96,339.822Z" transform="translate(-42.728 -300.466)" fill="#ffcf00"/>
        </g>
      </g>
      <g id="Group_5518" data-name="Group 5518" transform="translate(103.413 60.97)">
        <circle id="Ellipse_172" data-name="Ellipse 172" cx="39.118" cy="39.118" r="39.118" transform="matrix(0.17, -0.985, 0.985, 0.17, 0.453, 77.552)" fill="#ffde27"/>
        <circle id="Ellipse_173" data-name="Ellipse 173" cx="36.204" cy="36.204" r="36.204" transform="matrix(0.31, -0.951, 0.951, 0.31, 0, 68.835)" fill="#fff"/>
        <g id="Group_5517" data-name="Group 5517" transform="translate(12.382 12.381)">
          <path id="Path_9212" data-name="Path 9212" d="M88.822,357.025l-23.2,2.846a2.474,2.474,0,0,0-2.1,3.008,33.1,33.1,0,0,0,9.485,16.762,2.467,2.467,0,0,0,3.647-.257L91.05,360.964A2.449,2.449,0,0,0,88.822,357.025Z" transform="translate(-62.711 -322.306)" fill="#ffcf00"/>
          <path id="Path_9213" data-name="Path 9213" d="M89.833,349.876,71.413,335.483a2.468,2.468,0,0,0-3.6.632,33.1,33.1,0,0,0-5.153,18.557,2.473,2.473,0,0,0,2.76,2.412l23.2-2.846A2.449,2.449,0,0,0,89.833,349.876Z" transform="translate(-62.65 -320.644)" fill="#ffcf00"/>
          <path id="Path_9214" data-name="Path 9214" d="M95.165,345.649l-2.847-23.2a2.472,2.472,0,0,0-3.008-2.1,33.1,33.1,0,0,0-16.762,9.485,2.467,2.467,0,0,0,.257,3.647l18.419,14.395A2.449,2.449,0,0,0,95.165,345.649Z" transform="translate(-63.344 -319.537)" fill="#ffcf00"/>
          <path id="Path_9215" data-name="Path 9215" d="M95.2,322.246l2.846,23.2a2.449,2.449,0,0,0,4.361,1.209L116.8,328.24a2.468,2.468,0,0,0-.631-3.6,33.1,33.1,0,0,0-18.558-5.154A2.474,2.474,0,0,0,95.2,322.246Z" transform="translate(-65.103 -319.476)" fill="#ffcf00"/>
          <path id="Path_9216" data-name="Path 9216" d="M100.2,362.976l2.846,23.2a2.474,2.474,0,0,0,3.008,2.1,33.11,33.11,0,0,0,16.763-9.486,2.468,2.468,0,0,0-.258-3.647l-18.419-14.395A2.449,2.449,0,0,0,100.2,362.976Z" transform="translate(-65.48 -322.549)" fill="#ffcf00"/>
          <path id="Path_9217" data-name="Path 9217" d="M106.15,351.991l23.2-2.846a2.473,2.473,0,0,0,2.1-3.008,33.112,33.112,0,0,0-9.485-16.762,2.468,2.468,0,0,0-3.647.257l-14.395,18.419A2.449,2.449,0,0,0,106.15,351.991Z" transform="translate(-65.723 -320.171)" fill="#ffcf00"/>
          <path id="Path_9218" data-name="Path 9218" d="M105.138,359.237l18.419,14.395a2.468,2.468,0,0,0,3.6-.632,33.1,33.1,0,0,0,5.154-18.557,2.474,2.474,0,0,0-2.761-2.412l-23.2,2.846A2.45,2.45,0,0,0,105.138,359.237Z" transform="translate(-65.783 -321.93)" fill="#ffcf00"/>
          <path id="Path_9219" data-name="Path 9219" d="M93.049,361.965,78.655,380.384a2.468,2.468,0,0,0,.632,3.6,33.1,33.1,0,0,0,18.557,5.154,2.474,2.474,0,0,0,2.412-2.761l-2.846-23.2A2.45,2.45,0,0,0,93.049,361.965Z" transform="translate(-63.817 -322.609)" fill="#ffcf00"/>
        </g>
      </g>
      <g id="Group_5520" data-name="Group 5520" transform="translate(103.82 77.463)">
        <circle id="Ellipse_174" data-name="Ellipse 174" cx="39.118" cy="39.118" r="39.118" transform="translate(0 35.283) rotate(-26.806)" fill="#ffde27"/>
        <circle id="Ellipse_175" data-name="Ellipse 175" cx="36.204" cy="36.204" r="36.204" transform="translate(1.472 49.109) rotate(-41.14)" fill="#fff"/>
        <g id="Group_5519" data-name="Group 5519" transform="translate(19.287 19.286)">
          <path id="Path_9220" data-name="Path 9220" d="M96.73,382.332l-23.2,2.846a2.473,2.473,0,0,0-2.1,3.008,33.1,33.1,0,0,0,9.485,16.762,2.468,2.468,0,0,0,3.647-.257l14.395-18.419A2.449,2.449,0,0,0,96.73,382.332Z" transform="translate(-70.619 -347.613)" fill="#ffcf00"/>
          <path id="Path_9221" data-name="Path 9221" d="M97.741,375.183,79.322,360.789a2.468,2.468,0,0,0-3.6.632,33.1,33.1,0,0,0-5.154,18.557,2.474,2.474,0,0,0,2.761,2.412l23.2-2.846A2.449,2.449,0,0,0,97.741,375.183Z" transform="translate(-70.558 -345.951)" fill="#ffcf00"/>
          <path id="Path_9222" data-name="Path 9222" d="M103.073,370.956l-2.846-23.2a2.474,2.474,0,0,0-3.008-2.1,33.106,33.106,0,0,0-16.763,9.486,2.467,2.467,0,0,0,.258,3.647l18.419,14.395A2.449,2.449,0,0,0,103.073,370.956Z" transform="translate(-71.253 -344.844)" fill="#ffcf00"/>
          <path id="Path_9223" data-name="Path 9223" d="M103.111,347.553l2.846,23.2a2.449,2.449,0,0,0,4.36,1.21l14.395-18.419a2.468,2.468,0,0,0-.631-3.6,33.1,33.1,0,0,0-18.557-5.154A2.473,2.473,0,0,0,103.111,347.553Z" transform="translate(-73.012 -344.783)" fill="#ffcf00"/>
          <path id="Path_9224" data-name="Path 9224" d="M108.106,388.283l2.846,23.2a2.473,2.473,0,0,0,3.009,2.1,33.1,33.1,0,0,0,16.762-9.485,2.467,2.467,0,0,0-.257-3.647l-18.419-14.395A2.449,2.449,0,0,0,108.106,388.283Z" transform="translate(-73.388 -347.856)" fill="#ffcf00"/>
          <path id="Path_9225" data-name="Path 9225" d="M114.058,377.3l23.2-2.846a2.474,2.474,0,0,0,2.1-3.008,33.1,33.1,0,0,0-9.485-16.762,2.468,2.468,0,0,0-3.647.257L111.83,373.36A2.449,2.449,0,0,0,114.058,377.3Z" transform="translate(-73.631 -345.478)" fill="#ffcf00"/>
          <path id="Path_9226" data-name="Path 9226" d="M113.047,384.544l18.419,14.394a2.468,2.468,0,0,0,3.6-.631,33.1,33.1,0,0,0,5.154-18.557,2.474,2.474,0,0,0-2.761-2.412l-23.2,2.846A2.449,2.449,0,0,0,113.047,384.544Z" transform="translate(-73.691 -347.237)" fill="#ffcf00"/>
          <path id="Path_9227" data-name="Path 9227" d="M100.958,387.272,86.564,405.691a2.468,2.468,0,0,0,.631,3.6,33.1,33.1,0,0,0,18.557,5.154,2.473,2.473,0,0,0,2.412-2.761l-2.846-23.2A2.449,2.449,0,0,0,100.958,387.272Z" transform="translate(-71.726 -347.916)" fill="#ffcf00"/>
        </g>
      </g>
      <g id="Group_5522" data-name="Group 5522" transform="translate(47.369 101.808)">
        <path id="Path_9228" data-name="Path 9228" d="M-11.358,359.516A38.473,38.473,0,0,0,65,350.254Z" transform="translate(11.358 -350.254)" fill="#ffde27"/>
        <path id="Path_9229" data-name="Path 9229" d="M-8.278,359.2a35.606,35.606,0,0,0,70.666-8.572Z" transform="translate(11.126 -350.282)" fill="#fff"/>
        <g id="Group_5521" data-name="Group 5521" transform="translate(6.038 0.836)">
          <path id="Path_9230" data-name="Path 9230" d="M31.335,361.569l2.771,22.847a2.436,2.436,0,0,0,2.959,2.067,32.584,32.584,0,0,0,16.515-9.316,2.429,2.429,0,0,0-.249-3.591l-18.114-14.2A2.411,2.411,0,0,0,31.335,361.569Z" transform="translate(2.102 -351.739)" fill="#ffcf00"/>
          <path id="Path_9231" data-name="Path 9231" d="M24.3,360.565,10.1,378.68a2.43,2.43,0,0,0,.618,3.547,32.587,32.587,0,0,0,18.262,5.1,2.436,2.436,0,0,0,2.379-2.715l-2.771-22.848A2.411,2.411,0,0,0,24.3,360.565Z" transform="translate(3.741 -351.798)" fill="#ffcf00"/>
          <path id="Path_9232" data-name="Path 9232" d="M-3.973,359.114a2.411,2.411,0,0,0-.8,2.337,32.584,32.584,0,0,0,9.316,16.516,2.431,2.431,0,0,0,3.591-.249l14.2-18.115a2.411,2.411,0,0,0-.72-3.592Z" transform="translate(4.828 -351.524)" fill="#ffcf00"/>
          <path id="Path_9233" data-name="Path 9233" d="M36.045,354.261a2.411,2.411,0,0,0,.159,3.66l18.115,14.2a2.43,2.43,0,0,0,3.547-.617,32.6,32.6,0,0,0,5.1-18.263,2.413,2.413,0,0,0-1.335-2.079Z" transform="translate(1.803 -351.158)" fill="#ffcf00"/>
        </g>
      </g>
      <g id="Group_5524" data-name="Group 5524" transform="translate(54.44 108.627)">
        <path id="Path_9234" data-name="Path 9234" d="M-3.71,405.208a38.474,38.474,0,0,0,60.442-47.579Z" transform="translate(3.71 -357.629)" fill="#ffde27"/>
        <path id="Path_9235" data-name="Path 9235" d="M-1.272,403.577a35.606,35.606,0,0,0,55.934-44.029Z" transform="translate(3.526 -357.774)" fill="#fff"/>
        <g id="Group_5523" data-name="Group 5523" transform="translate(5.338 4.289)">
          <path id="Path_9236" data-name="Path 9236" d="M33.52,387.891l14.236,18.085a2.435,2.435,0,0,0,3.6.23,32.585,32.585,0,0,0,9.274-16.54,2.43,2.43,0,0,0-2.078-2.939L35.7,384.006A2.411,2.411,0,0,0,33.52,387.891Z" transform="translate(-4.396 -363.906)" fill="#ffcf00"/>
          <path id="Path_9237" data-name="Path 9237" d="M27.752,390.087,25.031,412.94a2.43,2.43,0,0,0,2.37,2.71,32.585,32.585,0,0,0,18.254-5.13,2.435,2.435,0,0,0,.622-3.555L32.041,388.881A2.411,2.411,0,0,0,27.752,390.087Z" transform="translate(-3.794 -364.206)" fill="#ffcf00"/>
          <path id="Path_9238" data-name="Path 9238" d="M2.181,403.144a2.411,2.411,0,0,0,.532,2.412,32.583,32.583,0,0,0,16.539,9.273,2.429,2.429,0,0,0,2.939-2.078L24.913,389.9a2.411,2.411,0,0,0-2.482-2.7Z" transform="translate(-2.063 -364.149)" fill="#ffcf00"/>
          <path id="Path_9239" data-name="Path 9239" d="M33.853,378.214a2.41,2.41,0,0,0,2.037,3.045l22.854,2.722a2.431,2.431,0,0,0,2.71-2.37,32.6,32.6,0,0,0-5.13-18.255,2.412,2.412,0,0,0-2.22-1.083Z" transform="translate(-4.454 -362.268)" fill="#ffcf00"/>
        </g>
      </g>
      <g id="Group_5526" data-name="Group 5526" transform="translate(74.36 123.226)">
        <path id="Path_9240" data-name="Path 9240" d="M17.835,421a38.473,38.473,0,0,0,60.442-47.578Z" transform="translate(-17.835 -373.419)" fill="#ffde27"/>
        <path id="Path_9241" data-name="Path 9241" d="M20.274,419.367a35.605,35.605,0,0,0,55.933-44.029Z" transform="translate(-18.019 -373.564)" fill="#fff"/>
        <g id="Group_5525" data-name="Group 5525" transform="translate(5.338 4.289)">
          <path id="Path_9242" data-name="Path 9242" d="M55.065,403.681,69.3,421.765a2.436,2.436,0,0,0,3.6.229,32.588,32.588,0,0,0,9.273-16.539,2.43,2.43,0,0,0-2.078-2.939l-22.853-2.722A2.412,2.412,0,0,0,55.065,403.681Z" transform="translate(-25.941 -379.696)" fill="#ffcf00"/>
          <path id="Path_9243" data-name="Path 9243" d="M49.3,405.877,46.576,428.73a2.43,2.43,0,0,0,2.37,2.71A32.59,32.59,0,0,0,67.2,426.31a2.436,2.436,0,0,0,.623-3.555L53.587,404.671A2.411,2.411,0,0,0,49.3,405.877Z" transform="translate(-25.339 -379.995)" fill="#ffcf00"/>
          <path id="Path_9244" data-name="Path 9244" d="M23.726,418.933a2.414,2.414,0,0,0,.532,2.413,32.591,32.591,0,0,0,16.54,9.273,2.43,2.43,0,0,0,2.939-2.077l2.721-22.854a2.41,2.41,0,0,0-2.482-2.7Z" transform="translate(-23.608 -379.938)" fill="#ffcf00"/>
          <path id="Path_9245" data-name="Path 9245" d="M55.4,394a2.412,2.412,0,0,0,2.037,3.046l22.854,2.722A2.43,2.43,0,0,0,83,397.4a32.588,32.588,0,0,0-5.13-18.255,2.416,2.416,0,0,0-2.221-1.084Z" transform="translate(-25.999 -378.057)" fill="#ffcf00"/>
        </g>
      </g>
    </g>
  </g>
</svg>
