<svg xmlns="http://www.w3.org/2000/svg" width="194.858" height="194.858" viewBox="0 0 194.858 194.858">
  <g id="Group_5464" data-name="Group 5464" transform="translate(-985.315 -379.257)">
    <g id="Group_5449" data-name="Group 5449" transform="translate(985.315 379.257)">
      <circle id="Ellipse_157" data-name="Ellipse 157" cx="68.893" cy="68.893" r="68.893" transform="translate(0 97.429) rotate(-45)" fill="#fff"/>
      <circle id="Ellipse_158" data-name="Ellipse 158" cx="65.74" cy="65.74" r="65.74" transform="translate(4.459 97.429) rotate(-45)" fill="#e7e2df"/>
      <circle id="Ellipse_159" data-name="Ellipse 159" cx="56.526" cy="56.526" r="56.526" transform="translate(40.903 40.903)" fill="#fff"/>
    </g>
    <path id="Path_9158" data-name="Path 9158" d="M1182.9,510.365a5.051,5.051,0,0,1-1.015-6.035,9.464,9.464,0,0,0-4.474-12.957,5.2,5.2,0,0,1-2.92-5.443,9.468,9.468,0,0,0-8.583-10.737,4.862,4.862,0,0,1-4.346-3.986,9.465,9.465,0,0,0-11.433-7.633,5.216,5.216,0,0,1-5.686-2.441,9.464,9.464,0,0,0-13.3-3.333,5.036,5.036,0,0,1-6.088-.493,9.458,9.458,0,0,0-13.646,1.147,5.058,5.058,0,0,1-5.935,1.509,9.431,9.431,0,0,0-7.459.081v-.007a9.452,9.452,0,0,0-5.132,5.581,4.873,4.873,0,0,1-4.936,3.239,9.469,9.469,0,0,0-10.195,9.412,4.871,4.871,0,0,1-3.624,4.662,9.472,9.472,0,0,0-6.645,12.1,5.059,5.059,0,0,1-1.981,5.8,9.461,9.461,0,0,0-2.235,13.521,5.042,5.042,0,0,1,.006,6.113,9.458,9.458,0,0,0,2.257,13.508,5.066,5.066,0,0,1,2,5.8,9.462,9.462,0,0,0,6.666,12.077,4.874,4.874,0,0,1,3.635,4.657,9.455,9.455,0,0,0,10.216,9.389,4.874,4.874,0,0,1,4.946,3.229,9.462,9.462,0,0,0,12.6,5.634,5.055,5.055,0,0,1,5.939,1.5,9.439,9.439,0,0,0,6.6,3.483c.257.015.522.03.78.03a9.423,9.423,0,0,0,6.344-2.458,4.972,4.972,0,0,1,6.026-.438,9.473,9.473,0,0,0,13.287-3.364,5.21,5.21,0,0,1,5.681-2.453,9.458,9.458,0,0,0,11.413-7.651,4.866,4.866,0,0,1,4.339-4,9.464,9.464,0,0,0,8.561-10.755,5.2,5.2,0,0,1,2.91-5.448,9.458,9.458,0,0,0,4.446-12.971,5.051,5.051,0,0,1,1-6.036,9.44,9.44,0,0,0,2.932-6.85V517.2A9.452,9.452,0,0,0,1182.9,510.365Z" transform="translate(-40.855 -40.654)" fill="#fc911c"/>
    <path id="Path_9159" data-name="Path 9159" d="M1120.657,580c-.228,0-.463-.014-.69-.028a7.866,7.866,0,0,1-5.507-2.924,6.568,6.568,0,0,0-5.122-2.464,6.637,6.637,0,0,0-2.58.523,7.948,7.948,0,0,1-10.584-4.734,6.354,6.354,0,0,0-6-4.263c-.163,0-.328.006-.492.019q-.318.026-.637.025a7.939,7.939,0,0,1-7.944-7.912,6.425,6.425,0,0,0-4.775-6.117,7.948,7.948,0,0,1-5.6-10.145,6.579,6.579,0,0,0-2.586-7.513,7.944,7.944,0,0,1-1.9-11.346,6.55,6.55,0,0,0-.009-7.933,7.947,7.947,0,0,1,1.879-11.358,6.569,6.569,0,0,0,2.568-7.514,7.958,7.958,0,0,1,5.581-10.161,6.422,6.422,0,0,0,4.761-6.125,7.955,7.955,0,0,1,7.949-7.93c.2,0,.41.008.615.024q.24.019.478.019a6.433,6.433,0,0,0,6.007-4.274,7.988,7.988,0,0,1,4.035-4.561l.277-.122a7.916,7.916,0,0,1,6.265-.067,6.639,6.639,0,0,0,2.565.516,6.572,6.572,0,0,0,5.131-2.474,7.9,7.9,0,0,1,5.535-2.939c.222-.019.445-.027.665-.027a7.936,7.936,0,0,1,5.264,2,6.551,6.551,0,0,0,7.9.639,7.949,7.949,0,0,1,11.173,2.8,6.687,6.687,0,0,0,5.828,3.34,6.821,6.821,0,0,0,1.511-.17,8.031,8.031,0,0,1,1.776-.2,7.953,7.953,0,0,1,7.828,6.611,6.409,6.409,0,0,0,5.712,5.24,7.954,7.954,0,0,1,7.21,9.019,6.726,6.726,0,0,0,3.79,7.028,7.951,7.951,0,0,1,3.759,10.884,6.561,6.561,0,0,0,1.316,7.828,7.9,7.9,0,0,1,2.476,5.748v.071a7.915,7.915,0,0,1-2.463,5.807,6.559,6.559,0,0,0-1.3,7.83,7.944,7.944,0,0,1-3.735,10.9,6.724,6.724,0,0,0-3.778,7.036,7.951,7.951,0,0,1-7.192,9.035,6.415,6.415,0,0,0-5.7,5.254,7.946,7.946,0,0,1-7.823,6.624h0a8.013,8.013,0,0,1-1.763-.2,6.792,6.792,0,0,0-1.5-.168,6.678,6.678,0,0,0-5.833,3.353,7.867,7.867,0,0,1-4.978,3.8,7.908,7.908,0,0,1-6.184-.975,6.72,6.72,0,0,0-3.581-1.044,6.335,6.335,0,0,0-4.27,1.643A7.908,7.908,0,0,1,1120.657,580Z" transform="translate(-42.612 -42.412)" fill="#dd7a15"/>
    <circle id="Ellipse_160" data-name="Ellipse 160" cx="51.1" cy="51.1" r="51.1" transform="translate(1031.643 425.585)" fill="#c7461a"/>
    <circle id="Ellipse_161" data-name="Ellipse 161" cx="27.411" cy="27.411" r="27.411" transform="translate(1046.929 461.85) rotate(-22.5)" fill="#d44f17"/>
    <g id="Group_5456" data-name="Group 5456" transform="translate(1029.039 423.805)">
      <g id="Group_5455" data-name="Group 5455" transform="translate(0 0)">
        <g id="Group_5450" data-name="Group 5450" transform="translate(0 52.44)">
          <path id="Path_9160" data-name="Path 9160" d="M1130.32,642.321a2.941,2.941,0,0,1-2.085-.864L1080.673,593.9a2.949,2.949,0,0,1,4.171-4.171l47.562,47.562a2.949,2.949,0,0,1-2.086,5.035Z" transform="translate(-1079.809 -588.861)" fill="#fc911c"/>
        </g>
        <g id="Group_5451" data-name="Group 5451" transform="translate(3.171 32.195)">
          <path id="Path_9161" data-name="Path 9161" d="M1154.856,616.253a2.941,2.941,0,0,1-2.085-.864l-65.245-65.245a2.949,2.949,0,1,1,4.171-4.171l65.245,65.245a2.949,2.949,0,0,1-2.085,5.035Z" transform="translate(-1086.662 -545.11)" fill="#fc911c"/>
        </g>
        <g id="Group_5452" data-name="Group 5452" transform="translate(13.415 15.854)">
          <path id="Path_9162" data-name="Path 9162" d="M1182.848,586.791a2.94,2.94,0,0,1-2.086-.864l-71.1-71.1a2.949,2.949,0,0,1,4.171-4.171l71.1,71.1a2.949,2.949,0,0,1-2.086,5.034Z" transform="translate(-1108.8 -509.794)" fill="#fc911c"/>
        </g>
        <g id="Group_5453" data-name="Group 5453" transform="translate(28.049 5.366)">
          <path id="Path_9163" data-name="Path 9163" d="M1210.085,559.734a2.939,2.939,0,0,1-2.085-.863l-66.709-66.709a2.949,2.949,0,0,1,4.171-4.171L1212.17,554.7a2.949,2.949,0,0,1-2.085,5.034Z" transform="translate(-1140.427 -487.128)" fill="#fc911c"/>
        </g>
        <g id="Group_5454" data-name="Group 5454" transform="translate(49.269)">
          <path id="Path_9164" data-name="Path 9164" d="M1241.065,533.26a2.942,2.942,0,0,1-2.086-.864l-51.83-51.83a2.949,2.949,0,1,1,4.171-4.171l51.83,51.83a2.949,2.949,0,0,1-2.085,5.035Z" transform="translate(-1186.286 -475.532)" fill="#fc911c"/>
        </g>
      </g>
    </g>
    <g id="Group_5463" data-name="Group 5463" transform="translate(1029.039 423.805)">
      <g id="Group_5462" data-name="Group 5462" transform="translate(0 0)">
        <g id="Group_5457" data-name="Group 5457" transform="translate(53.537 52.44)">
          <path id="Path_9165" data-name="Path 9165" d="M1198.459,642.321a2.949,2.949,0,0,1-2.085-5.035l47.562-47.562a2.949,2.949,0,0,1,4.171,4.171l-47.562,47.562A2.941,2.941,0,0,1,1198.459,642.321Z" transform="translate(-1195.51 -588.861)" fill="#fc911c"/>
        </g>
        <g id="Group_5458" data-name="Group 5458" transform="translate(32.683 32.195)">
          <path id="Path_9166" data-name="Path 9166" d="M1153.391,616.253a2.949,2.949,0,0,1-2.085-5.035l65.245-65.245a2.949,2.949,0,0,1,4.171,4.171l-65.245,65.245A2.941,2.941,0,0,1,1153.391,616.253Z" transform="translate(-1150.442 -545.11)" fill="#fc911c"/>
        </g>
        <g id="Group_5459" data-name="Group 5459" transform="translate(16.586 15.854)">
          <path id="Path_9167" data-name="Path 9167" d="M1118.6,586.791a2.949,2.949,0,0,1-2.085-5.034l71.1-71.1a2.949,2.949,0,0,1,4.171,4.171l-71.1,71.1A2.94,2.94,0,0,1,1118.6,586.791Z" transform="translate(-1115.653 -509.794)" fill="#fc911c"/>
        </g>
        <g id="Group_5460" data-name="Group 5460" transform="translate(6.342 5.366)">
          <path id="Path_9168" data-name="Path 9168" d="M1096.463,559.734a2.949,2.949,0,0,1-2.085-5.034l66.708-66.709a2.949,2.949,0,0,1,4.171,4.171l-66.708,66.709A2.941,2.941,0,0,1,1096.463,559.734Z" transform="translate(-1093.514 -487.128)" fill="#fc911c"/>
        </g>
        <g id="Group_5461" data-name="Group 5461">
          <path id="Path_9169" data-name="Path 9169" d="M1082.759,533.26a2.949,2.949,0,0,1-2.085-5.035l51.83-51.83a2.949,2.949,0,1,1,4.171,4.171l-51.83,51.83A2.942,2.942,0,0,1,1082.759,533.26Z" transform="translate(-1079.809 -475.532)" fill="#fc911c"/>
        </g>
      </g>
    </g>
  </g>
</svg>
