<svg xmlns="http://www.w3.org/2000/svg" width="109.385" height="99.856" viewBox="0 0 109.385 99.856">
  <g id="Group_5324" data-name="Group 5324" transform="translate(-1608.269 -3076.131)">
    <path id="Path_8175" data-name="Path 8175" d="M1267.9,1103.032c0-.078,0-.157,0-.235q0-.625-.035-1.247h0v-.008c-.005-.1-.01-.193-.016-.29q-.032-.509-.082-1.016h0c-.008-.075-.015-.149-.024-.223s-.016-.168-.026-.252c-.032-.279-.07-.557-.111-.834h0c-.028-.193-.056-.385-.088-.578,0-.017-.005-.035-.008-.052a27.746,27.746,0,0,0-.675-2.96c-.025-.084-.052-.169-.077-.253q-.171-.576-.366-1.146c-.043-.126-.089-.25-.134-.375q-.185-.512-.391-1.017c-.054-.133-.108-.266-.165-.4q-.216-.507-.453-1.005c-.056-.118-.11-.238-.167-.355-.108-.219-.222-.437-.336-.653h0c-.093-.177-.185-.354-.281-.528-.025-.045-.047-.091-.072-.135q-.37-.66-.778-1.3c-.055-.087-.116-.172-.172-.258-.214-.328-.434-.653-.663-.974-.1-.137-.2-.272-.3-.408-.2-.267-.4-.531-.61-.792-.118-.147-.237-.291-.358-.436q-.312-.372-.64-.735c-.126-.14-.251-.28-.381-.419-.238-.253-.484-.5-.733-.747-.117-.116-.231-.234-.351-.348-.372-.355-.754-.7-1.15-1.04a27.636,27.636,0,0,0-3.388-2.469c-.534-.329-1.079-.632-1.628-.921h0c-.256-.135-.51-.272-.768-.4q-.611-.3-1.233-.563a27.368,27.368,0,0,0-6-1.774l-.125-.023c-.323-.055-.646-.1-.97-.146-.1-.013-.2-.028-.295-.04-.292-.036-.583-.066-.875-.092-.133-.012-.265-.025-.4-.035q-.4-.031-.808-.05-.236-.011-.472-.019-.377-.011-.754-.013c-.177,0-.355,0-.532,0-.146,0-.292,0-.438,0-.09,0-.179.011-.268.014-.2.008-.39.021-.585.033-.22.014-.44.027-.659.046s-.428.043-.642.067-.4.042-.6.069c-.244.032-.488.073-.732.112-.171.027-.342.05-.512.081q-.613.109-1.22.246c-.093.021-.185.047-.277.069q-1.008.238-2,.553a27.044,27.044,0,0,0-9.837,5.578l0,0c-.313.278-.623.562-.926.856-.064.062-.126.129-.19.192-.241.238-.481.477-.714.725q-.456.485-.893,1l-10.628,12.479c-.49-7.059-2.2-15.481-7.542-17.954h0a5.99,5.99,0,0,0-2.432-.51c-.149,0-.3,0-.453.005a11.379,11.379,0,0,0-2.422.379,19.737,19.737,0,0,0-3.708,1.419q-.273.134-.547.278c-.842.44-1.693.941-2.54,1.493-.889.578-1.772,1.214-2.639,1.894-.28.22-.558.443-.834.672q-.53.441-1.048.9c-.689.614-1.358,1.253-2,1.914l-.025.026q-.714.733-1.381,1.5-.225.258-.444.52c-.228.271-.448.545-.665.82a29.2,29.2,0,0,0-2.045,2.933,22.554,22.554,0,0,0-1.086,2.011c-.115.242-.226.484-.329.725q-.116.273-.221.545a11.685,11.685,0,0,0-.878,5.261v0c.029.306.072.606.124.9.017.1.039.188.058.282.041.2.084.4.134.592.028.106.058.211.089.315q.079.271.172.533c.036.1.072.2.111.3.07.181.146.359.226.535.038.086.074.173.115.257q.176.364.377.714l.026.048c.141.24.293.474.451.7.055.08.115.157.173.236.11.151.222.3.34.448.071.089.145.175.219.262q.17.2.349.392c.08.086.16.172.243.256.125.128.255.252.386.375.083.077.162.156.246.231.168.15.342.3.519.439.092.075.185.149.28.222.184.142.37.282.563.417.109.076.221.149.333.223.138.092.277.184.419.273q.188.117.382.23t.4.232c.137.076.275.151.415.225s.266.136.4.2.3.147.446.217c.122.057.247.11.371.165q.51.226,1.04.429c.087.033.172.069.26.1.193.071.391.138.587.205.106.036.212.073.319.108.2.066.4.128.606.188.1.031.207.062.312.091.213.061.426.12.641.176l.26.065a30.579,30.579,0,0,0,3.383.639l.12.016c.273.035.548.066.824.095l.157.016c.157.015.314.034.472.048.123.01.247.016.37.025l.089.006c.226.016.452.034.679.046h0l-5.682,6.672h0l-6.484,7.614h0l-6.484,7.614h0l-7.123,8.365-5.845,6.864h0l-.277.325a8.221,8.221,0,0,0-1.968,5.3l0,0c0,.041.006.081.006.122,0,.234.011.467.033.7.008.083.021.167.032.25.025.2.052.389.09.583.019.1.044.193.066.289.042.178.087.354.14.529.031.1.066.2.1.3.058.166.12.33.189.492.043.1.088.205.135.307.074.158.155.313.24.466.055.1.108.2.167.295.093.153.194.3.3.45.064.09.123.181.19.27.119.156.25.306.381.455.064.072.122.147.188.217a8.409,8.409,0,0,0,.646.616l0,0a8.307,8.307,0,0,0,1.376.952,7.963,7.963,0,0,0,.735.358,8.212,8.212,0,0,0,1.533.484,8.3,8.3,0,0,0,3.085.059v0l.021,0c.114-.02.225-.048.338-.072.132-.028.265-.055.4-.09.115-.031.228-.068.342-.1s.254-.079.379-.126c.042-.015.086-.026.128-.042.069-.026.134-.061.2-.089q.189-.078.374-.165c.052-.025.106-.044.158-.07s.1-.06.154-.087c.125-.066.248-.136.37-.21.1-.058.193-.116.288-.178.127-.083.25-.172.372-.262.062-.046.127-.085.188-.132.023-.018.045-.04.067-.058.134-.107.262-.222.391-.339.067-.06.136-.116.2-.179.189-.183.372-.375.546-.58l0,0,32.618-38.3q.185.556.386,1.11l.009.027c.282.777.587,1.547.909,2.3l0,.01a31.855,31.855,0,0,0,5.249,8.745l.037.039c.155.165.31.323.464.469a10.284,10.284,0,0,0,3.7,2.293,9.4,9.4,0,0,0,2.628.512,9.565,9.565,0,0,0,1.316-.026c.218-.019.436-.046.652-.08a10.511,10.511,0,0,0,5.332-2.557,11.168,11.168,0,0,0,.97-.975,11.733,11.733,0,0,0,2.61-5.135,8.551,8.551,0,0,1,1.27-2.7c.122-.186.252-.374.386-.562.343-.481.725-.97,1.127-1.466.385-.476.788-.957,1.2-1.446.339-.4.684-.8,1.028-1.211q.3-.361.607-.726c.312-.377.62-.756.921-1.139q.39-.5.756-1c.221-.3.437-.608.64-.915.286-.432.553-.868.794-1.308a12.2,12.2,0,0,0,.89-2,7.053,7.053,0,0,0-.3-5.558,5.391,5.391,0,0,0-.377-.645c-.046-.068-.1-.129-.149-.194-.1-.131-.2-.261-.305-.382-.064-.071-.135-.137-.2-.2-.1-.1-.21-.209-.323-.306-.078-.067-.161-.129-.243-.192-.115-.088-.231-.175-.353-.256-.09-.06-.182-.116-.276-.173-.125-.075-.254-.148-.387-.217-.1-.051-.2-.1-.3-.149-.138-.065-.28-.126-.425-.185-.105-.043-.211-.085-.32-.125-.153-.055-.31-.106-.469-.156-.11-.034-.217-.07-.329-.1-.172-.048-.35-.09-.527-.132-.107-.025-.211-.052-.32-.075-.212-.044-.429-.081-.649-.118-.082-.014-.16-.03-.243-.043q-.457-.069-.933-.117c-.078-.008-.16-.012-.239-.02-.242-.022-.485-.042-.734-.057-.125-.007-.255-.011-.382-.017-.208-.009-.415-.019-.626-.023-.142,0-.286,0-.429,0-.2,0-.4,0-.608,0-.151,0-.3,0-.457.008-.2,0-.4.01-.607.017l-.472.019-.289.012h.057c-2.534.131-5.213.469-7.8.844l10.779-12.658a10.663,10.663,0,0,1,5.949-3.573c.2-.046.41-.093.618-.127.119-.02.239-.031.359-.046.218-.029.435-.058.655-.074.1-.007.2-.005.3-.01.238-.01.477-.021.716-.016.034,0,.069.006.1.007a10.967,10.967,0,0,1,2.652.414c.07.02.141.034.211.055.222.068.441.152.66.234.106.04.213.074.317.117.2.083.4.181.6.278a10.826,10.826,0,0,1,5.741,6.828c.023.079.041.159.062.238.061.236.116.474.161.713.015.077.031.153.045.231.045.267.078.536.1.807.008.087.017.174.024.261.019.275.028.55.027.827,0,.087,0,.174,0,.261-.008.281-.024.562-.053.842-.008.072-.019.142-.027.214-.033.266-.075.531-.128.8-.011.052-.019.1-.03.156-.062.284-.137.566-.221.846-.021.071-.041.141-.064.212-.089.277-.191.55-.3.821-.03.072-.061.144-.092.216-.119.272-.249.54-.391.8-.032.059-.067.116-.1.175a10.982,10.982,0,0,1-1.192,1.713,8.247,8.247,0,0,0-1.971,5.224,8.309,8.309,0,0,0,.127,1.578,8.284,8.284,0,0,0,4.154,5.795q.361.2.735.359a8.258,8.258,0,0,0,9.534-2.243h0a27.314,27.314,0,0,0,5.426-10.039h0a27.518,27.518,0,0,0,1.074-6.213h0C1267.886,1104.014,1267.9,1103.523,1267.9,1103.032Z" transform="translate(449.754 2010.004)" fill="#3e302e" opacity="0.1"/>
    <g id="Group_5008" data-name="Group 5008" transform="translate(1608.269 3076.131)">
      <g id="Group_5005" data-name="Group 5005">
        <path id="Path_8181" data-name="Path 8181" d="M1159.755,1145.788a8.261,8.261,0,0,1-.934-11.645l57.271-67.252a27.487,27.487,0,0,1,41.854,35.642,8.261,8.261,0,1,1-12.579-10.712,10.965,10.965,0,0,0-16.7-14.218l-57.271,67.252A8.26,8.26,0,0,1,1159.755,1145.788Z" transform="translate(-1156.85 -1057.237)" fill="#009159"/>
      </g>
      <g id="Group_5006" data-name="Group 5006">
        <path id="Path_8182" data-name="Path 8182" d="M1159.755,1145.788a8.261,8.261,0,0,1-.934-11.645l57.271-67.252a27.487,27.487,0,0,1,41.854,35.642,8.261,8.261,0,1,1-12.579-10.712,10.965,10.965,0,0,0-16.7-14.218l-57.271,67.252A8.26,8.26,0,0,1,1159.755,1145.788Z" transform="translate(-1156.85 -1057.237)" fill="#fefefc"/>
      </g>
      <g id="Group_5007" data-name="Group 5007" transform="translate(2.249 0.002)">
        <path id="Path_8183" data-name="Path 8183" d="M1211.852,1140l8.366,15.659,6.484-7.614-8.366-15.659Z" transform="translate(-1185.916 -1093.88)" fill="#e22b3d"/>
        <path id="Path_8184" data-name="Path 8184" d="M1237.16,1110.283l8.366,15.659,6.484-7.614-8.366-15.659Z" transform="translate(-1198.255 -1079.391)" fill="#e22b3d"/>
        <path id="Path_8185" data-name="Path 8185" d="M1270.833,1094.329l-8.366-15.659,5.12-6.013a27.538,27.538,0,0,1,3.7-3.593l6.029,17.65Z" transform="translate(-1210.594 -1063.006)" fill="#e22b3d"/>
        <path id="Path_8186" data-name="Path 8186" d="M1167.722,1191.822l-6.484,7.614,7.386,13.826a8.223,8.223,0,0,0,4.915-2.789l2.548-2.993Z" transform="translate(-1161.238 -1122.859)" fill="#e22b3d"/>
        <path id="Path_8187" data-name="Path 8187" d="M1186.545,1169.719l8.366,15.659,6.484-7.614-8.366-15.659Z" transform="translate(-1173.577 -1108.37)" fill="#e22b3d"/>
        <path id="Path_8188" data-name="Path 8188" d="M1320.307,1060.4l-7.727,14.6a10.989,10.989,0,0,0-7.769-.906l-3.4-16.17A27.543,27.543,0,0,1,1320.307,1060.4Z" transform="translate(-1229.583 -1057.242)" fill="#e22b3d"/>
        <path id="Path_8189" data-name="Path 8189" d="M1348.561,1106.45l-16.987-2.082a10.988,10.988,0,0,0,.979-9.319l13.967-9.188A27.638,27.638,0,0,1,1348.561,1106.45Z" transform="translate(-1244.288 -1071.196)" fill="#e22b3d"/>
      </g>
      <path id="Path_8190" data-name="Path 8190" d="M1246.3,1115.376a8.261,8.261,0,0,1-.933-11.646,10.965,10.965,0,0,0-16.7-14.218l-57.271,67.252a8.26,8.26,0,0,1-14.549-5.415,6.97,6.97,0,0,0,9.745,3.162c6.843-3.187,26.026-29,40.146-45.931s18.2-26.146,27.836-26.865,16.585,6.489,17.068,13.841-6.761,12.384-2.563,16.855a7.525,7.525,0,0,0,8.863,2.032A8.262,8.262,0,0,1,1246.3,1115.376Z" transform="translate(-1156.851 -1069.148)" fill="#3e302e" opacity="0.1" style="mix-blend-mode: multiply;isolation: isolate"/>
      <path id="Path_8191" data-name="Path 8191" d="M1170.2,1128.425l52.4-61.534a27.474,27.474,0,0,1,48.354,19.389l-.006.008s-1.054,2.434-3.355,2.036-4.212-3.438-4.024-9.859-5.308-15.118-16.778-16.146-16.725,4.794-22.892,12.036C1197.136,1105.784,1177.783,1134.884,1170.2,1128.425Z" transform="translate(-1163.358 -1057.237)" fill="#f4f5f5" opacity="0.2"/>
    </g>
    <g id="Group_5011" data-name="Group 5011" transform="translate(1623.605 3079.798)">
      <g id="Group_5010" data-name="Group 5010" transform="translate(0 0)">
        <path id="Path_8192" data-name="Path 8192" d="M1220.207,1090.7c.158-6.433-.018-22.249-7.692-25.8s-26.7,12.156-25.7,22.784,15.963,14.288,27.534,11.768C1220.756,1098.062,1220.145,1093.234,1220.207,1090.7Z" transform="translate(-1186.778 -1064.394)" fill="#ed2238"/>
        <path id="Path_8193" data-name="Path 8193" d="M1186.852,1101.882c1,10.628,15.963,14.288,27.534,11.768a7.994,7.994,0,0,0,3.966-1.92l1.711-4.488s-2.274-13.326-6.48-13.725-2.461,7.14-7,2.425-9.338-.787-7.912,5.6S1190.759,1110.648,1186.852,1101.882Z" transform="translate(-1186.814 -1078.586)" fill="#d61f32"/>
        <path id="Path_8194" data-name="Path 8194" d="M1186.816,1087.69c.833,8.864,11.379,12.877,21.57,12.5-.7-.03-9.55-.5-5.207-5.117,4.521-4.807-9.387-8.639-5.92-16.622s15.256-13.549,15.256-13.549C1204.841,1061.356,1185.817,1077.063,1186.816,1087.69Z" transform="translate(-1186.778 -1064.394)" fill="#ec5665" opacity="0.4"/>
        <path id="Path_8195" data-name="Path 8195" d="M1250.422,1122.148c7.839-.083,26.758-5.938,30.5,1.668s-8.04,14.478-9.321,20.031c-1.851,8.028-11.091,11.773-17.211,5.967S1240.507,1122.251,1250.422,1122.148Z" transform="translate(-1215.495 -1091.466)" fill="#ed2238"/>
        <path id="Path_8196" data-name="Path 8196" d="M1261.034,1143.3c2.782-2.27-.539-4.627-.419-7.3s9.116-2.13,6.98-6.7-14.144-3.576-14.144-3.576a5.827,5.827,0,0,0-6.16,0c-3.624,3.563-.555,14.474,3.467,21.551C1253.392,1137.893,1258.252,1145.572,1261.034,1143.3Z" transform="translate(-1215.497 -1093.866)" fill="#d61f32"/>
        <path id="Path_8197" data-name="Path 8197" d="M1254.353,1127.528s12.833,2.89,12.486,5.234-5.005,1.2-5.787,2.785,3.808,6.762,1.47,7.58-11.738-11.467-11.479-13.554S1254.353,1127.528,1254.353,1127.528Z" transform="translate(-1218.109 -1095.176)" fill="#bc202d"/>
        <path id="Path_8198" data-name="Path 8198" d="M1235.711,1111.5s-3.167-13.5-5.858-11.988.63,5.274-1.034,6.12-5.751-3.586-7.279-1.486,4.608,6.871,9.079,9.7S1236.671,1113.859,1235.711,1111.5Z" transform="translate(-1203.611 -1081.461)" fill="#bc202d"/>
        <path id="Path_8199" data-name="Path 8199" d="M1242.082,1130.2s3.1,5,1.911,6.457-5.679-9.879-7.761-11.16-7.635-.186-9.323-3.166,7.881-.99,10.987,2.612A58.2,58.2,0,0,1,1242.082,1130.2Z" transform="translate(-1206.249 -1091.938)" fill="#bc202d"/>
        <path id="Path_8200" data-name="Path 8200" d="M1241.6,1119.233c2.272-2.106,3.544-4.53,4.749-2.725s4.149,1.265,4.783,3.72-3.874,6.653-5.756,7.648-2.789-3.079-4.406-2.9S1237.307,1123.217,1241.6,1119.233Z" transform="translate(-1212.26 -1089.495)" fill="#ed2238"/>
        <path id="Path_8201" data-name="Path 8201" d="M1272.129,1125.314c.158-1.994,13.146-3.555,14.142-1.717S1271.869,1128.6,1272.129,1125.314Z" transform="translate(-1228.391 -1092.861)" fill="#ec5665"/>
        <path id="Path_8202" data-name="Path 8202" d="M1278.952,1143.848c1.281-5.553,13.058-12.425,9.321-20.031-1.693-3.443-6.5-4.128-11.976-3.838,2.246-.029,6.719.488,7.339,4.994.832,6.051-7.68,6.029-7.843,13.55s-8.046,14.717-15.029,10.247a13.089,13.089,0,0,0,.977,1.046C1267.861,1155.62,1277.1,1151.875,1278.952,1143.848Z" transform="translate(-1222.851 -1091.466)" fill="#ec5665" opacity="0.4"/>
        <path id="Path_8203" data-name="Path 8203" d="M1251.108,1119.234c1.731.876.58,3.287-1.133,4.8-1.289,1.142-3.821,1.8-5,2.061,1.023,1.027,1.886,3.124,3.3,2.379,1.883-1,6.39-5.194,5.756-7.649s-3.577-1.914-4.782-3.72A3.033,3.033,0,0,0,1251.108,1119.234Z" transform="translate(-1215.155 -1090.097)" fill="#d61f32"/>
        <g id="Group_5009" data-name="Group 5009" transform="translate(29.175 27.767)">
          <path id="Path_8204" data-name="Path 8204" d="M1246.933,1121.574c.776.333,2.923-2.264,2.333-2.832C1248.293,1117.806,1246.157,1121.241,1246.933,1121.574Z" transform="translate(-1245.201 -1118.581)" fill="#ec5665"/>
          <path id="Path_8205" data-name="Path 8205" d="M1243.868,1126.57c-.557-.447.516-1.9,1.129-1.4C1245.7,1125.734,1244.311,1126.926,1243.868,1126.57Z" transform="translate(-1243.713 -1121.742)" fill="#ec5665"/>
        </g>
      </g>
    </g>
  </g>
</svg>
