<svg xmlns="http://www.w3.org/2000/svg" xmlns:xlink="http://www.w3.org/1999/xlink" width="258.776" height="237.814" viewBox="0 0 258.776 237.814">
  <defs>
    <filter id="Path_9124" x="0" y="0" width="258.776" height="237.814" filterUnits="userSpaceOnUse">
      <feOffset dy="15" input="SourceAlpha"/>
      <feGaussianBlur stdDeviation="0.5" result="blur"/>
      <feFlood flood-opacity="0.271"/>
      <feComposite operator="in" in2="blur"/>
      <feComposite in="SourceGraphic"/>
    </filter>
  </defs>
  <g id="Group_5448" data-name="Group 5448" transform="translate(-22.323 418.923) rotate(-30)">
    <g id="Group_5445" data-name="Group 5445" transform="translate(174.667 -254.887)">
      <g transform="matrix(0.87, 0.5, -0.5, 0.87, 54.13, -96.75)" filter="url(#Path_9124)">
        <path id="Path_9124-2" data-name="Path 9124" d="M396.3-157.695l-3.517-39.759-3.517-39.76a18.959,18.959,0,0,0-20.556-17.215L254.4-244.318a18.959,18.959,0,0,0-17.215,20.556l1.445,16.338a4.553,4.553,0,0,1-4.135,4.937l-42.534,3.763a18.959,18.959,0,0,0-17.216,20.556A18.96,18.96,0,0,0,195.3-160.952l42.533-3.762a4.553,4.553,0,0,1,4.938,4.135l1.445,16.338a18.959,18.959,0,0,0,20.556,17.215L379.08-137.138A18.959,18.959,0,0,0,396.3-157.695ZM185.529-179.122a6.226,6.226,0,0,1,5.653-6.75,6.226,6.226,0,0,1,6.751,5.654,6.226,6.226,0,0,1-5.654,6.75A6.226,6.226,0,0,1,185.529-179.122Z" transform="translate(-22.51 418.59) rotate(-30)" fill="#fbad54"/>
      </g>
      <g id="Group_5437" data-name="Group 5437" transform="translate(67.408 20.073)">
        <g id="Group_5436" data-name="Group 5436">
          <g id="Group_5434" data-name="Group 5434">
            <path id="Path_9125" data-name="Path 9125" d="M404.489-131.757c2.9-.9,5.414-2.756,5.859-5.81.061-.422.086-.866.111-1.336a12.621,12.621,0,0,1,.24-2.131,7.22,7.22,0,0,1,1.5-3.029,25.87,25.87,0,0,0,4.166-3.3l.339-.207.482-.295c4.224-2.6,7.054-5.709,8.413-9.229a30.731,30.731,0,0,0,1.406-5.914c.222-1.3.452-2.649.78-3.962a52.63,52.63,0,0,1,5.033-11.716c2.786-5.257,5.417-10.222,5.311-15.986-.182-9.963-9.259-17.522-17.624-18.331a23.031,23.031,0,0,0-4.231-.011,30.264,30.264,0,0,0-9.885,2.769,37.193,37.193,0,0,0-9.091,3.573,20.685,20.685,0,0,0-13.567-7.58,22.943,22.943,0,0,0-4.231-.011,30.239,30.239,0,0,0-9.885,2.769,35.242,35.242,0,0,0-7.235,2.624,18.586,18.586,0,0,0-5.979-1.678,22.986,22.986,0,0,0-4.231-.011,30.264,30.264,0,0,0-9.885,2.769c-6.142,1.444-11.976,4.91-17.226,8.865a9.593,9.593,0,0,0-2.953,3.072c-.822,1.574-.883,3.5-1.177,5.31-.907,5.583-4.111,10.217-6.531,15.156-4.329,8.837-6.243,19.518-3.892,29.418s9.411,18.685,18.267,20.851a12.411,12.411,0,0,0,4.318.25,20.287,20.287,0,0,0,6.927,3.257c4.265,1.043,9.557-.3,11.61-4.186a9.235,9.235,0,0,0,4.665-2.988,11.966,11.966,0,0,0,1.743.266c3.422,5.2,8.267,9.165,13.819,10.523,4.265,1.043,9.557-.3,11.61-4.186,2.9-.9,5.414-2.756,5.859-5.81.038-.262.061-.535.079-.814a19.056,19.056,0,0,0,3.473,1.232C397.144-126.529,402.436-127.876,404.489-131.757Z" transform="translate(-309.493 214.355)" fill="#d98c3f"/>
          </g>
        </g>
      </g>
      <g id="Group_5444" data-name="Group 5444" transform="translate(64.087 6.137)">
        <g id="Group_5438" data-name="Group 5438" transform="translate(0 12.247)">
          <path id="Path_9127" data-name="Path 9127" d="M340.906-146.19c3.676-2.266,7.139-5.383,8.816-9.726,1.216-3.15,1.4-6.7,2.229-10.011,2.464-9.868,10.568-17.7,10.379-28.013-.188-10.339-9.382-18.517-18.512-19.4s-17.864,3.8-25.4,9.475a9.583,9.583,0,0,0-2.953,3.072c-.823,1.574-.883,3.5-1.177,5.31-.907,5.583-4.112,10.216-6.531,15.156-4.329,8.837-6.243,19.519-3.893,29.419s9.412,18.685,18.268,20.85c5.052,1.235,11.562-.867,12.4-6.583.164-1.118.089-2.282.336-3.379C335.564-143.1,338.447-144.675,340.906-146.19Z" transform="translate(-302.852 215.59)" fill="#cd4d1d"/>
          <path id="Path_9128" data-name="Path 9128" d="M337.134-135.973a13.6,13.6,0,0,1-6.124-.18,19.345,19.345,0,0,1-6.526-3.943c-3.917-3.3-7.532-7.493-8.941-12.753-1.875-7-4.25-16.819-.888-23.5a6.019,6.019,0,0,1,.851-1.326,9.521,9.521,0,0,0,.7-.76,4.6,4.6,0,0,0,.565-1.281c.235-.724,2.43-9.618,2.254-9.6.662-1.359,2.054-2.023,2.971-3.175a10.413,10.413,0,0,0,1.462-3.035c1.594-4.483,2.882-10.028,6.561-12.8,7.586-5.715,14.314-8.762,20.569-9.315a22.942,22.942,0,0,1,4.231.011c8.364.809,17.442,8.368,17.624,18.331.105,5.765-2.526,10.73-5.311,15.986A52.611,52.611,0,0,0,362.1-171.6c-.328,1.312-.558,2.659-.78,3.962a30.7,30.7,0,0,1-1.406,5.914c-1.359,3.521-4.19,6.625-8.414,9.229l-.482.3c-2.463,1.506-5.255,3.213-6,6.534a12.669,12.669,0,0,0-.24,2.131c-.026.47-.05.913-.112,1.336C344.13-138.568,340.687-136.629,337.134-135.973Z" transform="translate(-307.908 217.734)" fill="#ffd099"/>
          <path id="Path_9129" data-name="Path 9129" d="M340.063-136.181a9.013,9.013,0,0,1-2.9-.207c-1.815-.443-3.6-1.607-5.461-1.676a7.507,7.507,0,0,1-1.59-.095c-1.756-.447-2.324-2.517-3.318-3.932a21.12,21.12,0,0,0-4.823-4.7,1.847,1.847,0,0,1-.467-.429c-.382-.557-.134-1.339.046-2,1.1-4.044-2.178-6.612-2.092-10.7.087-4.193,2.017-7.628,2.054-11.752.04-4.479,1.392-8.34,3.16-12.316a11.954,11.954,0,0,1,2.314-3.743c.5-.494,1.08-.89,1.571-1.4,3.408-3.551,2.682-10.549,6.32-13.286.687-.517,5.14-6.331,6.11-3.281a2.012,2.012,0,0,1-.087,1.157,30.974,30.974,0,0,1-3.238,6.778,16.753,16.753,0,0,0,5.172-5.079c1.256-2.236,1.781-4.449,3.771-5.944a14.284,14.284,0,0,1,7.511-2.43,20.494,20.494,0,0,1,3.766.009c2.606.253,5.386.04,7.958.548l.229,2.7c0-.045,3.816,3.82,4.227,4.461a13.757,13.757,0,0,1,2.546,7.416,20.492,20.492,0,0,1-2.027,8.533c-1,2.29-1.02,4.957-1.927,7.213-.639,1.59-1.728,1.563-2.529,2.968-.492.863-.62,2.045-1.374,2.616-.524.4-1.255.4-1.7.906a2.965,2.965,0,0,0-.523,1.406,23.618,23.618,0,0,1-4.59,10.037,39.875,39.875,0,0,1,.6-11.294,13.472,13.472,0,0,0,.309-1.981,5.625,5.625,0,0,0-2.507-4.972,16,16,0,0,1,1.172,4.188c.452,4.915-3.543,9.654-2,14.3a19.245,19.245,0,0,1,1.079,2.969c.47,2.976-2.965,6.3-4.883,7.912-2.732,2.3-5.518,3.893-6.438,7.976a15.892,15.892,0,0,0-.322,2.722c-.02.354-.033.691-.08,1.012C344.752-137.212,341.654-136.322,340.063-136.181Z" transform="translate(-311.156 214.518)" fill="#f8e3d3"/>
          <path id="Path_9130" data-name="Path 9130" d="M328.181-132.638c.808,3.374,4.432,4.96,5.768,8.125.789,1.871.719,4.174,1.871,5.794a3.479,3.479,0,0,0,4.07,1.315,4.1,4.1,0,0,0,2.286-3.939,11.356,11.356,0,0,0-.948-3.333c-.678-1.833-1.107-3.96-.382-5.736,1.109-2.716,4.636-3.982,4.619-7-.017-2.931-3.279-4.23-5.009-6.456s-1.872-5.464-1.558-8.36.994-5.8.577-8.7a2.279,2.279,0,0,0-.423-1.175,1.3,1.3,0,0,0-1.908.139,5.412,5.412,0,0,0-.977,2.081,26.01,26.01,0,0,1-3.911,7.61c-1.576,2.1-3.565,4.156-3.752,6.928-.1,1.522.373,3.036.4,4.566C328.95-138.021,327.54-135.312,328.181-132.638Z" transform="translate(-315.434 190.095)" fill="#fffce1"/>
        </g>
        <g id="Group_5439" data-name="Group 5439" transform="translate(11.245 15.754)">
          <path id="Path_9131" data-name="Path 9131" d="M363.4-139.174c3.676-2.266,7.14-5.383,8.816-9.726,1.216-3.15,1.4-6.7,2.229-10.011,2.464-9.868,10.568-17.7,10.38-28.013-.189-10.339-9.383-18.517-18.512-19.4s-17.864,3.8-25.4,9.475a9.588,9.588,0,0,0-2.953,3.072c-.823,1.574-.883,3.5-1.177,5.31-.907,5.583-4.111,10.216-6.531,15.156-4.329,8.837-6.243,19.518-3.892,29.418s9.411,18.685,18.267,20.85c5.052,1.236,11.562-.867,12.4-6.583.164-1.118.089-2.282.336-3.379C358.056-136.082,360.938-137.659,363.4-139.174Z" transform="translate(-325.344 208.574)" fill="#cd4d1d"/>
          <path id="Path_9132" data-name="Path 9132" d="M359.626-128.957a13.589,13.589,0,0,1-6.124-.18,19.336,19.336,0,0,1-6.526-3.943c-3.917-3.3-7.532-7.493-8.941-12.753-1.875-7-4.25-16.819-.888-23.5a6,6,0,0,1,.851-1.326,9.6,9.6,0,0,0,.7-.76,4.608,4.608,0,0,0,.565-1.282c.235-.724,2.43-9.618,2.254-9.6.663-1.359,2.054-2.023,2.971-3.175a10.426,10.426,0,0,0,1.462-3.035c1.594-4.483,2.882-10.028,6.561-12.8,7.585-5.715,14.314-8.762,20.569-9.315a22.943,22.943,0,0,1,4.231.011c8.364.809,17.443,8.368,17.624,18.331.105,5.765-2.526,10.73-5.311,15.987a52.609,52.609,0,0,0-5.034,11.716c-.327,1.312-.557,2.66-.78,3.962a30.744,30.744,0,0,1-1.406,5.914c-1.359,3.521-4.19,6.625-8.413,9.229l-.482.295c-2.463,1.506-5.256,3.213-6,6.534a12.621,12.621,0,0,0-.24,2.131c-.025.47-.05.913-.111,1.336C366.622-131.552,363.178-129.613,359.626-128.957Z" transform="translate(-330.4 210.718)" fill="#ffd099"/>
          <path id="Path_9133" data-name="Path 9133" d="M362.554-129.165a9.009,9.009,0,0,1-2.9-.207c-1.815-.443-3.6-1.607-5.461-1.676a7.478,7.478,0,0,1-1.59-.095c-1.755-.447-2.324-2.517-3.318-3.932a21.134,21.134,0,0,0-4.824-4.7A1.855,1.855,0,0,1,344-140.2c-.382-.557-.133-1.339.046-2,1.1-4.044-2.178-6.612-2.092-10.7.087-4.192,2.017-7.628,2.054-11.752.04-4.479,1.393-8.34,3.16-12.315a11.959,11.959,0,0,1,2.314-3.743c.5-.494,1.081-.89,1.571-1.4,3.408-3.551,2.682-10.549,6.32-13.286.687-.517,5.141-6.331,6.11-3.281a2.008,2.008,0,0,1-.087,1.157,30.94,30.94,0,0,1-3.238,6.778,16.755,16.755,0,0,0,5.173-5.079c1.256-2.236,1.781-4.449,3.771-5.944a14.286,14.286,0,0,1,7.511-2.43,20.452,20.452,0,0,1,3.766.009c2.606.252,5.386.04,7.959.548l.229,2.7c0-.044,3.816,3.82,4.227,4.461a13.753,13.753,0,0,1,2.546,7.416,20.485,20.485,0,0,1-2.027,8.533c-1,2.29-1.02,4.957-1.927,7.213-.639,1.59-1.728,1.563-2.529,2.968-.492.863-.62,2.045-1.374,2.616-.524.4-1.255.4-1.7.906a2.966,2.966,0,0,0-.523,1.406,23.617,23.617,0,0,1-4.59,10.037,39.871,39.871,0,0,1,.6-11.293,13.483,13.483,0,0,0,.31-1.981,5.626,5.626,0,0,0-2.507-4.972,16,16,0,0,1,1.172,4.188c.452,4.916-3.543,9.654-2,14.3a19.236,19.236,0,0,1,1.079,2.969c.469,2.976-2.965,6.3-4.883,7.912-2.732,2.3-5.517,3.893-6.438,7.976a16,16,0,0,0-.322,2.722c-.019.354-.033.691-.079,1.012C367.244-130.2,364.145-129.306,362.554-129.165Z" transform="translate(-333.647 207.502)" fill="#f8e3d3"/>
          <path id="Path_9134" data-name="Path 9134" d="M350.673-125.622c.809,3.374,4.432,4.96,5.768,8.125.79,1.871.72,4.174,1.871,5.794a3.479,3.479,0,0,0,4.071,1.315,4.1,4.1,0,0,0,2.285-3.938,11.354,11.354,0,0,0-.948-3.333c-.677-1.833-1.107-3.96-.382-5.736,1.109-2.716,4.636-3.982,4.619-7-.016-2.931-3.279-4.23-5.009-6.456s-1.872-5.464-1.557-8.36.994-5.8.577-8.7a2.275,2.275,0,0,0-.423-1.175,1.3,1.3,0,0,0-1.907.14,5.4,5.4,0,0,0-.977,2.08,26.016,26.016,0,0,1-3.911,7.61c-1.577,2.1-3.565,4.157-3.752,6.928-.1,1.522.373,3.036.4,4.566C351.442-131,350.032-128.3,350.673-125.622Z" transform="translate(-337.925 183.079)" fill="#fffce1"/>
        </g>
        <g id="Group_5440" data-name="Group 5440" transform="translate(27.33 8.543)">
          <path id="Path_9135" data-name="Path 9135" d="M395.571-153.6c3.676-2.266,7.139-5.384,8.816-9.726,1.216-3.15,1.4-6.695,2.229-10.01,2.464-9.868,10.568-17.7,10.38-28.013-.189-10.339-9.383-18.517-18.512-19.4s-17.864,3.8-25.4,9.476a9.587,9.587,0,0,0-2.953,3.072c-.823,1.574-.883,3.5-1.177,5.311-.907,5.583-4.112,10.216-6.531,15.156-4.329,8.837-6.243,19.518-3.893,29.418s9.412,18.685,18.268,20.851c5.052,1.235,11.562-.867,12.4-6.583.164-1.118.089-2.282.336-3.378C390.229-150.507,393.112-152.083,395.571-153.6Z" transform="translate(-357.517 222.999)" fill="#cd4d1d"/>
          <path id="Path_9136" data-name="Path 9136" d="M391.8-143.381a13.582,13.582,0,0,1-6.124-.18,19.337,19.337,0,0,1-6.526-3.943c-3.917-3.3-7.532-7.492-8.941-12.753-1.875-7-4.25-16.819-.888-23.5a6.019,6.019,0,0,1,.851-1.326,9.6,9.6,0,0,0,.7-.76,4.6,4.6,0,0,0,.565-1.281c.235-.725,2.43-9.618,2.254-9.6.662-1.359,2.054-2.023,2.971-3.175a10.41,10.41,0,0,0,1.462-3.035c1.594-4.483,2.882-10.028,6.561-12.8,7.586-5.715,14.314-8.761,20.569-9.315a22.986,22.986,0,0,1,4.231.011c8.364.809,17.442,8.368,17.624,18.331.105,5.765-2.526,10.73-5.311,15.986a52.6,52.6,0,0,0-5.033,11.717c-.328,1.312-.558,2.659-.78,3.961a30.7,30.7,0,0,1-1.406,5.914c-1.359,3.521-4.19,6.626-8.414,9.229l-.482.295c-2.463,1.506-5.255,3.213-6,6.534a12.667,12.667,0,0,0-.24,2.131c-.026.469-.05.913-.111,1.336C398.8-145.976,395.352-144.037,391.8-143.381Z" transform="translate(-362.573 225.142)" fill="#ffd099"/>
          <path id="Path_9137" data-name="Path 9137" d="M394.728-143.59a9.013,9.013,0,0,1-2.9-.207c-1.815-.443-3.6-1.607-5.461-1.676a7.443,7.443,0,0,1-1.59-.095c-1.756-.447-2.324-2.517-3.318-3.932a21.11,21.11,0,0,0-4.823-4.7,1.866,1.866,0,0,1-.467-.429c-.382-.557-.134-1.339.046-2,1.1-4.044-2.178-6.611-2.092-10.7.087-4.192,2.017-7.628,2.054-11.752.04-4.479,1.392-8.34,3.16-12.316a11.948,11.948,0,0,1,2.314-3.743c.5-.494,1.08-.89,1.571-1.4,3.408-3.551,2.682-10.549,6.32-13.286.687-.516,5.14-6.331,6.11-3.28a2.012,2.012,0,0,1-.087,1.157,30.984,30.984,0,0,1-3.238,6.778,16.764,16.764,0,0,0,5.172-5.079c1.256-2.236,1.781-4.449,3.771-5.944a14.28,14.28,0,0,1,7.511-2.429,20.407,20.407,0,0,1,3.766.009c2.606.252,5.386.04,7.958.548l.229,2.7c0-.044,3.816,3.82,4.227,4.461a13.76,13.76,0,0,1,2.546,7.417,20.494,20.494,0,0,1-2.027,8.533c-1,2.29-1.02,4.957-1.927,7.213-.639,1.59-1.728,1.563-2.529,2.968-.492.862-.62,2.045-1.374,2.616-.524.4-1.255.4-1.7.906a2.963,2.963,0,0,0-.523,1.406,23.617,23.617,0,0,1-4.59,10.037,39.871,39.871,0,0,1,.6-11.293,13.482,13.482,0,0,0,.309-1.981,5.626,5.626,0,0,0-2.507-4.973,16,16,0,0,1,1.172,4.188c.452,4.915-3.543,9.654-2,14.3a19.256,19.256,0,0,1,1.079,2.969c.469,2.975-2.965,6.3-4.883,7.912-2.732,2.3-5.518,3.893-6.438,7.976a15.9,15.9,0,0,0-.322,2.722c-.02.354-.033.692-.079,1.012C399.417-144.621,396.319-143.731,394.728-143.59Z" transform="translate(-365.821 221.926)" fill="#f8e3d3"/>
          <path id="Path_9138" data-name="Path 9138" d="M382.846-140.047c.808,3.375,4.432,4.961,5.768,8.125.789,1.871.719,4.174,1.871,5.795a3.48,3.48,0,0,0,4.07,1.315,4.1,4.1,0,0,0,2.286-3.939,11.351,11.351,0,0,0-.948-3.333c-.678-1.833-1.107-3.961-.382-5.736,1.109-2.717,4.636-3.982,4.619-7-.017-2.93-3.279-4.229-5.009-6.455s-1.872-5.465-1.558-8.36.994-5.8.577-8.7a2.277,2.277,0,0,0-.423-1.175,1.3,1.3,0,0,0-1.908.139,5.414,5.414,0,0,0-.977,2.08,26,26,0,0,1-3.911,7.61c-1.576,2.1-3.565,4.157-3.752,6.929-.1,1.522.373,3.036.4,4.566C383.615-145.429,382.2-142.721,382.846-140.047Z" transform="translate(-370.099 197.503)" fill="#fffce1"/>
        </g>
        <g id="Group_5441" data-name="Group 5441" transform="translate(43.082 19.371)">
          <path id="Path_9139" data-name="Path 9139" d="M427.076-131.942c3.676-2.266,7.14-5.383,8.816-9.726,1.216-3.15,1.4-6.695,2.229-10.01,2.464-9.868,10.568-17.7,10.38-28.013-.189-10.339-9.382-18.517-18.512-19.4s-17.863,3.8-25.4,9.476a9.6,9.6,0,0,0-2.953,3.072c-.822,1.574-.883,3.5-1.177,5.311-.907,5.583-4.111,10.216-6.531,15.156-4.329,8.837-6.243,19.519-3.892,29.418s9.411,18.685,18.267,20.851c5.052,1.235,11.562-.867,12.4-6.583.164-1.118.089-2.282.335-3.378C421.735-128.85,424.617-130.426,427.076-131.942Z" transform="translate(-389.022 201.342)" fill="#cd4d1d"/>
          <path id="Path_9140" data-name="Path 9140" d="M423.305-121.724a13.588,13.588,0,0,1-6.123-.181,19.319,19.319,0,0,1-6.526-3.943c-3.917-3.3-7.532-7.492-8.941-12.753-1.875-7-4.25-16.819-.888-23.5a6,6,0,0,1,.851-1.326,9.61,9.61,0,0,0,.7-.76,4.6,4.6,0,0,0,.564-1.281c.236-.725,2.431-9.618,2.254-9.6.663-1.359,2.054-2.023,2.971-3.175a10.422,10.422,0,0,0,1.462-3.035c1.594-4.483,2.882-10.028,6.561-12.8,7.586-5.715,14.314-8.761,20.569-9.315a22.985,22.985,0,0,1,4.231.011c8.364.809,17.443,8.368,17.624,18.331.105,5.765-2.526,10.73-5.311,15.986a52.6,52.6,0,0,0-5.033,11.717c-.328,1.312-.558,2.659-.78,3.961a30.731,30.731,0,0,1-1.406,5.914c-1.359,3.521-4.19,6.626-8.413,9.229l-.482.295c-2.463,1.506-5.256,3.213-6,6.534a12.557,12.557,0,0,0-.24,2.131c-.026.469-.051.913-.112,1.336C430.3-124.319,426.858-122.38,423.305-121.724Z" transform="translate(-394.079 203.485)" fill="#ffd099"/>
          <path id="Path_9141" data-name="Path 9141" d="M426.234-121.933a9.011,9.011,0,0,1-2.9-.207c-1.815-.443-3.6-1.607-5.461-1.676a7.446,7.446,0,0,1-1.59-.1c-1.755-.447-2.324-2.517-3.318-3.932a21.111,21.111,0,0,0-4.824-4.7,1.875,1.875,0,0,1-.467-.429c-.382-.557-.133-1.339.047-2,1.1-4.044-2.178-6.611-2.093-10.7.087-4.192,2.017-7.628,2.054-11.752.041-4.479,1.393-8.34,3.16-12.316a11.948,11.948,0,0,1,2.313-3.743c.5-.494,1.081-.89,1.571-1.4,3.408-3.551,2.682-10.549,6.321-13.286.687-.516,5.14-6.331,6.11-3.28a2.012,2.012,0,0,1-.087,1.157,30.984,30.984,0,0,1-3.239,6.778,16.761,16.761,0,0,0,5.173-5.079c1.256-2.236,1.781-4.449,3.771-5.944a14.285,14.285,0,0,1,7.511-2.429,20.406,20.406,0,0,1,3.766.009c2.606.252,5.386.04,7.959.548l.229,2.7c0-.044,3.816,3.82,4.227,4.462a13.756,13.756,0,0,1,2.545,7.416,20.487,20.487,0,0,1-2.027,8.533c-1,2.29-1.02,4.957-1.927,7.213-.639,1.59-1.728,1.563-2.529,2.968-.492.862-.619,2.045-1.374,2.616-.524.4-1.255.4-1.7.906a2.964,2.964,0,0,0-.523,1.406,23.612,23.612,0,0,1-4.59,10.037,39.891,39.891,0,0,1,.6-11.293,13.479,13.479,0,0,0,.31-1.981,5.626,5.626,0,0,0-2.507-4.973,16.006,16.006,0,0,1,1.172,4.188c.452,4.915-3.543,9.654-2,14.3a19.207,19.207,0,0,1,1.079,2.969c.469,2.975-2.965,6.3-4.883,7.912-2.733,2.3-5.518,3.893-6.439,7.976a15.955,15.955,0,0,0-.322,2.722c-.019.354-.032.692-.079,1.012C430.923-122.964,427.824-122.074,426.234-121.933Z" transform="translate(-397.326 200.269)" fill="#f8e3d3"/>
          <path id="Path_9142" data-name="Path 9142" d="M414.352-118.39c.809,3.375,4.432,4.961,5.768,8.125.79,1.871.72,4.174,1.871,5.795a3.48,3.48,0,0,0,4.071,1.315,4.1,4.1,0,0,0,2.285-3.939,11.367,11.367,0,0,0-.947-3.333c-.678-1.833-1.107-3.961-.382-5.736,1.109-2.717,4.636-3.982,4.619-7-.017-2.93-3.279-4.229-5.008-6.455s-1.872-5.465-1.558-8.36.994-5.8.577-8.7a2.278,2.278,0,0,0-.423-1.175,1.3,1.3,0,0,0-1.907.139,5.406,5.406,0,0,0-.977,2.08,26.016,26.016,0,0,1-3.911,7.61c-1.577,2.1-3.565,4.157-3.752,6.929-.1,1.522.373,3.036.4,4.566C415.121-123.772,413.711-121.064,414.352-118.39Z" transform="translate(-401.604 175.846)" fill="#fffce1"/>
        </g>
        <g id="Group_5442" data-name="Group 5442" transform="translate(64.104 9.792)">
          <path id="Path_9143" data-name="Path 9143" d="M469.123-151.1c3.677-2.266,7.14-5.383,8.816-9.726,1.216-3.15,1.4-6.7,2.229-10.011,2.464-9.868,10.568-17.7,10.38-28.013-.189-10.339-9.382-18.517-18.512-19.4s-17.863,3.8-25.4,9.475a9.594,9.594,0,0,0-2.953,3.072c-.822,1.574-.883,3.5-1.177,5.31-.907,5.583-4.111,10.216-6.531,15.156-4.329,8.837-6.244,19.518-3.892,29.418s9.411,18.685,18.267,20.85c5.052,1.236,11.562-.867,12.4-6.583.164-1.118.089-2.282.335-3.379C463.782-148.007,466.664-149.584,469.123-151.1Z" transform="translate(-431.069 220.499)" fill="#cd4d1d"/>
          <path id="Path_9144" data-name="Path 9144" d="M465.352-140.882a13.589,13.589,0,0,1-6.124-.18,19.341,19.341,0,0,1-6.526-3.943c-3.917-3.3-7.532-7.493-8.941-12.753-1.875-7-4.25-16.819-.888-23.5a6,6,0,0,1,.851-1.326,9.6,9.6,0,0,0,.7-.76,4.605,4.605,0,0,0,.564-1.282c.235-.724,2.431-9.618,2.254-9.6.663-1.359,2.054-2.023,2.971-3.175a10.413,10.413,0,0,0,1.462-3.035c1.594-4.483,2.882-10.028,6.561-12.8,7.586-5.715,14.314-8.762,20.569-9.315a22.942,22.942,0,0,1,4.231.011c8.364.809,17.443,8.368,17.624,18.331.105,5.765-2.526,10.73-5.311,15.987a52.606,52.606,0,0,0-5.033,11.716c-.328,1.312-.558,2.66-.78,3.962a30.706,30.706,0,0,1-1.406,5.914c-1.359,3.521-4.19,6.625-8.413,9.229l-.482.295c-2.463,1.506-5.256,3.213-6,6.534a12.563,12.563,0,0,0-.24,2.131c-.026.47-.051.913-.112,1.336C472.348-143.477,468.9-141.538,465.352-140.882Z" transform="translate(-436.126 222.643)" fill="#ffd099"/>
          <path id="Path_9145" data-name="Path 9145" d="M468.281-141.09a9.012,9.012,0,0,1-2.9-.207c-1.815-.443-3.6-1.607-5.461-1.676a7.478,7.478,0,0,1-1.59-.1c-1.755-.447-2.324-2.517-3.318-3.932a21.124,21.124,0,0,0-4.824-4.7,1.856,1.856,0,0,1-.467-.429c-.382-.557-.133-1.339.047-2,1.1-4.044-2.178-6.612-2.093-10.7.087-4.192,2.017-7.628,2.054-11.752.04-4.479,1.393-8.34,3.16-12.315a11.949,11.949,0,0,1,2.313-3.743c.5-.494,1.081-.89,1.571-1.4,3.408-3.551,2.682-10.549,6.32-13.286.687-.517,5.14-6.331,6.11-3.281a2.012,2.012,0,0,1-.087,1.157,30.964,30.964,0,0,1-3.239,6.778,16.749,16.749,0,0,0,5.173-5.079c1.256-2.236,1.781-4.449,3.771-5.944a14.286,14.286,0,0,1,7.511-2.43,20.45,20.45,0,0,1,3.766.01c2.606.252,5.387.04,7.959.548l.229,2.7c0-.045,3.816,3.82,4.227,4.461A13.756,13.756,0,0,1,501.062-201a20.492,20.492,0,0,1-2.027,8.533c-1,2.29-1.02,4.957-1.927,7.213-.639,1.59-1.728,1.563-2.529,2.968-.492.863-.619,2.045-1.374,2.616-.524.4-1.255.4-1.7.906a2.966,2.966,0,0,0-.523,1.406,23.611,23.611,0,0,1-4.59,10.037,39.888,39.888,0,0,1,.6-11.293,13.414,13.414,0,0,0,.31-1.981,5.625,5.625,0,0,0-2.507-4.972,16,16,0,0,1,1.172,4.188c.452,4.916-3.543,9.654-2,14.3a19.232,19.232,0,0,1,1.079,2.969c.469,2.976-2.965,6.3-4.883,7.912-2.733,2.3-5.518,3.893-6.439,7.976a15.891,15.891,0,0,0-.322,2.722c-.02.354-.033.691-.079,1.012C472.97-142.121,469.871-141.231,468.281-141.09Z" transform="translate(-439.373 219.427)" fill="#f8e3d3"/>
          <path id="Path_9146" data-name="Path 9146" d="M456.4-137.547c.809,3.374,4.432,4.96,5.768,8.125.79,1.871.72,4.174,1.871,5.794a3.479,3.479,0,0,0,4.071,1.315,4.1,4.1,0,0,0,2.285-3.938,11.368,11.368,0,0,0-.947-3.333c-.678-1.833-1.107-3.96-.382-5.736,1.109-2.716,4.636-3.982,4.619-7-.016-2.931-3.279-4.23-5.008-6.456s-1.872-5.464-1.558-8.36.994-5.8.577-8.7a2.279,2.279,0,0,0-.424-1.175,1.3,1.3,0,0,0-1.907.14,5.4,5.4,0,0,0-.977,2.08,26.015,26.015,0,0,1-3.911,7.61c-1.577,2.1-3.565,4.157-3.752,6.928-.1,1.522.373,3.036.4,4.566C457.168-142.93,455.758-140.221,456.4-137.547Z" transform="translate(-443.651 195.004)" fill="#fffce1"/>
        </g>
      </g>
    </g>
    <g id="Group_5447" data-name="Group 5447" transform="translate(330.479 -255.269)">
      <circle id="Ellipse_155" data-name="Ellipse 155" cx="21.153" cy="21.153" r="21.153" transform="translate(1.571 8.339) rotate(-9.206)" fill="#ffde27"/>
      <circle id="Ellipse_156" data-name="Ellipse 156" cx="19.577" cy="19.577" r="19.577" transform="translate(0 35.788) rotate(-66.067)" fill="#fff"/>
      <g id="Group_5446" data-name="Group 5446" transform="translate(7.846 7.845)">
        <path id="Path_9150" data-name="Path 9150" d="M516.533-202.037,503.986-200.5a1.338,1.338,0,0,0-1.133,1.626,17.9,17.9,0,0,0,5.129,9.064,1.335,1.335,0,0,0,1.972-.139l7.784-9.96A1.324,1.324,0,0,0,516.533-202.037Z" transform="translate(-502.414 220.811)" fill="#ffcf00"/>
        <path id="Path_9151" data-name="Path 9151" d="M516.707-216.026l-9.96-7.783a1.335,1.335,0,0,0-1.947.341,17.9,17.9,0,0,0-2.787,10.035,1.338,1.338,0,0,0,1.493,1.3l12.547-1.539A1.325,1.325,0,0,0,516.707-216.026Z" transform="translate(-502.008 231.833)" fill="#ffcf00"/>
        <path id="Path_9152" data-name="Path 9152" d="M523.822-225.051,522.283-237.6a1.337,1.337,0,0,0-1.626-1.133,17.9,17.9,0,0,0-9.064,5.129,1.335,1.335,0,0,0,.14,1.972l9.96,7.784A1.324,1.324,0,0,0,523.822-225.051Z" transform="translate(-506.615 239.171)" fill="#ffcf00"/>
        <path id="Path_9153" data-name="Path 9153" d="M534.553-238.079l1.539,12.547a1.324,1.324,0,0,0,2.358.654l7.784-9.96a1.334,1.334,0,0,0-.342-1.947,17.9,17.9,0,0,0-10.035-2.787A1.338,1.338,0,0,0,534.553-238.079Z" transform="translate(-518.277 239.577)" fill="#ffcf00"/>
        <path id="Path_9154" data-name="Path 9154" d="M539.547-197.341l1.539,12.547a1.338,1.338,0,0,0,1.627,1.133,17.905,17.905,0,0,0,9.064-5.129,1.335,1.335,0,0,0-.139-1.972l-9.96-7.784A1.325,1.325,0,0,0,539.547-197.341Z" transform="translate(-520.774 219.202)" fill="#ffcf00"/>
        <path id="Path_9155" data-name="Path 9155" d="M544.243-217.762,556.79-219.3a1.337,1.337,0,0,0,1.133-1.626,17.9,17.9,0,0,0-5.129-9.064,1.335,1.335,0,0,0-1.972.139l-7.784,9.96A1.325,1.325,0,0,0,544.243-217.762Z" transform="translate(-522.383 234.969)" fill="#ffcf00"/>
        <path id="Path_9156" data-name="Path 9156" d="M544.063-203.134l9.96,7.784a1.335,1.335,0,0,0,1.947-.341,17.9,17.9,0,0,0,2.786-10.035,1.337,1.337,0,0,0-1.492-1.3l-12.547,1.539A1.324,1.324,0,0,0,544.063-203.134Z" transform="translate(-522.782 223.308)" fill="#ffcf00"/>
        <path id="Path_9157" data-name="Path 9157" d="M525.559-197.521l-7.784,9.96a1.335,1.335,0,0,0,.341,1.947,17.9,17.9,0,0,0,10.035,2.787,1.338,1.338,0,0,0,1.3-1.493l-1.539-12.547A1.324,1.324,0,0,0,525.559-197.521Z" transform="translate(-509.751 218.803)" fill="#ffcf00"/>
      </g>
    </g>
  </g>
</svg>
