<svg xmlns="http://www.w3.org/2000/svg" xmlns:xlink="http://www.w3.org/1999/xlink" width="222.517" height="201.716" viewBox="0 0 222.517 201.716">
  <defs>
    <linearGradient id="linear-gradient" x1="-8.867" y1="-4.295" x2="-10.018" y2="-4.659" gradientUnits="objectBoundingBox">
      <stop offset="0" stop-color="#45871b"/>
      <stop offset="1" stop-color="#2a5210"/>
    </linearGradient>
    <linearGradient id="linear-gradient-2" x1="-6.688" y1="-3.681" x2="-7.165" y2="-3.807" gradientUnits="objectBoundingBox">
      <stop offset="0.008" stop-color="#9dea39"/>
      <stop offset="1" stop-color="#8cd133"/>
    </linearGradient>
    <linearGradient id="linear-gradient-3" x1="11.804" y1="-4.194" x2="11.174" y2="-4.322" xlink:href="#linear-gradient-2"/>
    <linearGradient id="linear-gradient-4" x1="-10.84" y1="-8.442" x2="-10.984" y2="-8.121" xlink:href="#linear-gradient"/>
    <linearGradient id="linear-gradient-5" x1="7.241" y1="-0.209" x2="7.049" y2="0.177" xlink:href="#linear-gradient-2"/>
    <linearGradient id="linear-gradient-6" x1="-14.221" y1="-6.007" x2="-14.418" y2="-5.66" xlink:href="#linear-gradient"/>
    <linearGradient id="linear-gradient-7" x1="-9.591" y1="-7.907" x2="-9.832" y2="-6.976" xlink:href="#linear-gradient"/>
    <linearGradient id="linear-gradient-8" x1="-6.45" y1="-4.867" x2="-6.641" y2="-4.451" xlink:href="#linear-gradient-2"/>
    <linearGradient id="linear-gradient-9" x1="-3.61" y1="-2.829" x2="-3.783" y2="-2.454" xlink:href="#linear-gradient"/>
    <linearGradient id="linear-gradient-10" x1="-12.11" y1="-8.362" x2="-11.588" y2="-8.692" gradientUnits="objectBoundingBox">
      <stop offset="0" stop-color="#d99148"/>
      <stop offset="1" stop-color="#ba6e20"/>
    </linearGradient>
    <linearGradient id="linear-gradient-11" x1="13.021" y1="-6.358" x2="13.61" y2="-6.655" xlink:href="#linear-gradient-10"/>
    <linearGradient id="linear-gradient-12" x1="-5.007" y1="-4.288" x2="-5.143" y2="-3.215" xlink:href="#linear-gradient-10"/>
    <linearGradient id="linear-gradient-13" x1="-12.5" y1="-13.896" x2="-11.519" y2="-14.16" xlink:href="#linear-gradient-10"/>
    <linearGradient id="linear-gradient-14" x1="9.325" y1="-8.704" x2="10.353" y2="-8.946" xlink:href="#linear-gradient-10"/>
    <linearGradient id="linear-gradient-15" x1="-50.319" y1="-35.921" x2="-50.386" y2="-34.744" xlink:href="#linear-gradient"/>
    <linearGradient id="linear-gradient-16" x1="-70.218" y1="-37.917" x2="-70.285" y2="-36.735" xlink:href="#linear-gradient"/>
    <linearGradient id="linear-gradient-17" x1="-67.465" y1="-54.747" x2="-67.531" y2="-53.559" xlink:href="#linear-gradient"/>
    <linearGradient id="linear-gradient-18" x1="-69.08" y1="-40.881" x2="-69.147" y2="-39.698" xlink:href="#linear-gradient"/>
    <linearGradient id="linear-gradient-19" x1="-75.873" y1="-51.224" x2="-75.94" y2="-50.053" xlink:href="#linear-gradient"/>
    <linearGradient id="linear-gradient-20" x1="-132.739" y1="-57.462" x2="-132.778" y2="-56.296" xlink:href="#linear-gradient"/>
    <linearGradient id="linear-gradient-21" x1="-145.649" y1="79.522" x2="-145.684" y2="80.931" xlink:href="#linear-gradient"/>
    <linearGradient id="linear-gradient-22" x1="25.912" y1="141.699" x2="25.84" y2="142.366" xlink:href="#linear-gradient"/>
    <linearGradient id="linear-gradient-23" x1="-204.34" y1="-192.179" x2="-204.406" y2="-191.532" xlink:href="#linear-gradient"/>
    <linearGradient id="linear-gradient-24" x1="155.801" y1="-375.037" x2="155.763" y2="-373.942" xlink:href="#linear-gradient"/>
  </defs>
  <g id="Group_5313" data-name="Group 5313" transform="translate(371.494 -700.222)">
    <g id="Group_5255" data-name="Group 5255" transform="translate(-371.494 700.222)">
      <ellipse id="Ellipse_113" data-name="Ellipse 113" cx="69.513" cy="90.563" rx="69.513" ry="90.563" transform="translate(0 126.457) rotate(-65.449)" fill="#fff"/>
      <ellipse id="Ellipse_114" data-name="Ellipse 114" cx="50.841" cy="66.236" rx="50.841" ry="66.236" transform="translate(29.886 119.581) rotate(-65.449)" fill="#efefef"/>
    </g>
    <g id="Group_5269" data-name="Group 5269" transform="translate(-343.881 720.184)">
      <path id="Path_8741" data-name="Path 8741" d="M262.2,887.423c5.32-2.723,12.889-17.089,17.66-5.008s11.353,9.987,20.925,14.557-5.137,12.317,2.332,17.493,3.887,13.108-4.293,18.911,2.733,9.969-5.35,17.086-24.1-4.922-26.634-17.123-19.322,4.481-21.688-7.477S254.062,891.585,262.2,887.423Z" transform="translate(-172.235 -868.763)" fill="url(#linear-gradient)"/>
      <path id="Path_8742" data-name="Path 8742" d="M333.467,966.764c1.05-1.68,4.605-7.124,5.68-5.245s4.483-4.826,4.483-4.826-2.26-1.589,1.195-3.891,3.124-4.246,5.13-4.524,2.344-4.522,4.8-5.373,4.576-.332,3.764,1.3-1.938-1.262-1.91,2.933-.245,5.313.871,5.176-.816,1.2.295,2.5,2.923,2.192,3.667,2.1,2.494-3.128,2.494-3.128.666-4.175,2.654-3.024,1.818,1.76,2.393,2.279-2.979,1.948-3.063,3.478-4.71,5.032-3.887,7.495,1.3,2.153,1.3,2.153l.846.551s1.471,1.776,1.883,1.227.949-2.073,1.989-1.395,3.458,1.964,3.458,1.964,1.685-6.535,3.276-7.227a12.315,12.315,0,0,1,4.807-.9c.466.16,1.06,1.7,3.489,1.121s4.537-.663,4.6.466-.373,2.142.111,2.89-7.976.422-6.273,2.539,1.751,3.445,3.728,2.86a7.928,7.928,0,0,1,3.776-.133s3.527,1,2.831,2.42-.614,4.5,1.763,3.885,4.981-.932,3.941.839-1.958,1.605-1.383,2.123,1.037,2.259,2.421,2.585,1.028,2.974,1.028,2.974-.244.561,1.395,1.628a2.892,2.892,0,0,1,1.535,2.44s-1.665,1.694-2.982.564-2.46,3.165-.415,2.913,3.225-.924,3.708-.178,2.785.013,2.785.013-1.08-2.719.691-2.286a3.775,3.775,0,0,1,2.4,2.355s-2.539,1.01-1.306,1.742.994.935,3.027.172,2.606-.679,3.006-.419.972.345,1.05,1.188-1.3,1.385-.2,1.885-.213,2.078-.213,2.078.352,2.261-2.723,1.554-5.111.056-4.548.854,2.985.144.568,1.666-3.317,3.254-3.71,2.019,0-1.918-.654-1.621a11.623,11.623,0,0,0-1.866,1.377s-1.457,4.163-2.518,1.24-.647-3.734-2.059-3.141a13.4,13.4,0,0,0-2.873,1.684c-.332.261-1.136,2.546-3.1,1.625s-3.882-1.918-3.882-1.918-3.491,2.733-5.008,1.385-2.337,1.575-2.044,2.7a25,25,0,0,1,.452,3.271s-2.5,1.735-3.06,2.015-2.153,2.2-.987,3.822,5.276,2.26.992,2.038-6.255-1.442-5.72,1.611.774,3.3.62,3.621a11.649,11.649,0,0,1-1.968,1.446s-.728-1.771-3.327-.582-3.93,2.265-2.936-.616a30.931,30.931,0,0,1,2.05-5.29c.344-.352.3-2.394-1.065-2.566s-2.722,3.916-3.131-.1-6.487-3.793-9.494-4.6-4.645-2.143-4.55-3.6-3.037.461-1.789-3.118.426-13.26-3.037-13.283-6.388,2.1-6.995-1.6S322.6,984.156,333.467,966.764Z" transform="translate(-242.763 -923.07)" fill="url(#linear-gradient-2)"/>
      <path id="Path_8743" data-name="Path 8743" d="M-161.9,1183.139c-1.954.328-8.386,1.276-7.692-.773s-6.585-.155-6.585-.155.31,2.745-3.7,1.686-5.25.476-6.788-.84-4.939,1.244-7.2-.027-3.283-3.205-1.523-3.679.34,2.287,3.462-.515,4.139-3.34,3.3-4.084,1.437-.183,1.673-1.876-.3-3.642-.859-4.138-4,.208-4,.208-3.567,2.269-4.023.019.112-2.528.119-3.3,3.434.938,4.634-.013,6.89.189,8.188-2.06.748-2.4.748-2.4l-.148-1s.354-2.279-.331-2.223-2.18.664-2.363-.564-.823-3.892-.823-3.892-6.009,3.072-7.582,2.34a12.316,12.316,0,0,1-3.862-3c-.19-.455.568-1.92-1.475-3.355s-3.5-2.956-2.7-3.752,1.851-1.141,2.089-2,5.6,5.69,6.06,3.012,1.417-3.595-.331-4.687a7.927,7.927,0,0,1-2.6-2.738s-1.589-3.3-.066-3.724,3.773-2.522,1.739-3.9-4-3.11-1.986-3.506,2.5.4,2.507-.373,1-2.274.329-3.527,1.544-2.741,1.544-2.741.582-.19.294-2.124a2.891,2.891,0,0,1,.809-2.766s2.372.123,2.4,1.858,4-.257,2.455-1.621-2.83-1.8-2.591-2.658-1.836-2.094-1.836-2.094-1.32,2.611-2.17,1a3.775,3.775,0,0,1,.172-3.358s2.44,1.231,2.17-.178.041-1.364-1.879-2.38-2.236-1.5-2.307-1.973-.386-.957.193-1.574,1.9.055,1.545-1.1,1.7-1.218,1.7-1.218,1.458-1.762,2.969,1.008,3.431,3.788,3.655,2.837-1.872-2.33.871-1.53,4.635.325,3.971,1.438-1.433,1.275-.78,1.565a11.64,11.64,0,0,0,2.268.484s4.083-1.67,2.6,1.063-2.366,2.96-.986,3.624a13.394,13.394,0,0,0,3.166,1.034c.415.076,2.658-.838,3.273,1.245s1.138,4.178,1.138,4.178,4.361.8,4.357,2.829,2.728.705,3.377-.261a25.018,25.018,0,0,1,2.149-2.508s2.957.721,3.537.955,3.073.154,3.515-1.8-1.807-5.448.868-2.094,3.068,5.638,5,3.214,1.956-2.766,2.3-2.866a11.629,11.629,0,0,1,2.387.515s-.842,1.719,1.77,2.876,4.3,1.44,1.486,2.606a30.9,30.9,0,0,1-5.319,1.973c-.492-.023-1.994,1.359-1.214,2.5s4.736-.559,2.005,2.407,1.462,7.371,2.853,10.156,1.475,4.9.32,5.794,2.359,1.968-1.148,3.407-10.208,8.474-7.929,11.081,5.811,3.386,3.438,6.3S-141.669,1179.744-161.9,1183.139Z" transform="translate(201.659 -1055.653)" fill="url(#linear-gradient-3)"/>
      <path id="Path_8744" data-name="Path 8744" d="M35.487,1451.785c-4.81-1.84,2.856-10.019-3.9-12.014s-21.438,5.7-23.108-3.6,16.507-8.188,17.77-16.228S40.5,1393.15,48.4,1402.93s3.279,22.39,13.187,25.489.826,11.045-7.083,14.148S43.97,1455.029,35.487,1451.785Z" transform="translate(25.778 -1306.33)" fill="url(#linear-gradient-4)"/>
      <path id="Path_8745" data-name="Path 8745" d="M195.7,1220.553c-.095,1.146,17.875,14.412,11.745,19.838s-7.77,6.954-4.116,9.784,2.828,7.742,2.828,7.742-1.862,1.971-3.3.474-5.47-2.506-5.6.129,2.059,1.72,3.133,4.6a6.648,6.648,0,0,1,.246,4.739s-3.505,3.143-5.071,1.989-6.324-8.392-9.463-6.461-.4,2.975-3.06,6.4-2.962,4.079-3.215,3.581a25.032,25.032,0,0,1-.756-2.937s2.6-.488.645-1.971-3.282-.451-4.216,1.169a28.029,28.029,0,0,0-2.465,7.024c-.533,2.466-6.164,5.886-6.9,5.845s1.942,5.551-2.886,7.693-8.089,2.468-9.6,1.77a8.261,8.261,0,0,1-3.321-2.683c-.888-1.153-4.663-2.169-6.048-2.531s-3.374-3.311-3.628-4.913.307-6-3.581-7.515-3.8.918-3.8,3.211-3.883-.574-3.363-1.266,3.121-1.857,3-2.612-.1-2.27-.686-2.554-1.628,1.778-2.65,2.323a3.77,3.77,0,0,1-2.347.222l-1.236.751s1.163,1.255-.911.368-3.218-1.947-2.917-2.267a21.163,21.163,0,0,1,2.764-1.4s.739-1.488-.927-1.517-2.257,1.721-4.951.876-3.136-.684-3.822-1.887-.721-2.5-1.838-3.286-4.554.786-3.821-1.809,5.331-1.4,3.638-3.569-3.107-2.888-3.432-3.856-.269-5.6-.612-6.5,1.706,1.922,4.138,1.16,2.266-4.008,2.122-4.184,2.3-4.068,2.3-4.068a.8.8,0,0,0-.505-1c-.748-.386,9.411-.273,6.541-3.1a10.352,10.352,0,0,1-3.166-5.73,28.877,28.877,0,0,0,3.652-1.353c.153-.243.729-1.833-1.008-5.685s3.477-7.958,3.477-7.958a8.493,8.493,0,0,0,3.135-4.715c.8-3.166-.751-3.124,2.017-6.986s2.758-2.765,7.582-6.522-7.037-11.217,7.163-6.53,15.592,6.524,16.586,9.937-.1,4.339,4.669,5.129,1.96,5.252,8.227,2.981,6.476-5.109,8.048-2.508S196.171,1214.852,195.7,1220.553Z" transform="translate(-58.589 -1131.482)" fill="url(#linear-gradient-5)"/>
      <path id="Path_8746" data-name="Path 8746" d="M447.434,1273.773c2.281,2.9,15.366,12.268,22.632,1.9s17.5-2,20.752-11.037-8.316-14.239-1.93-23.014-9.416-6.554-20.478-13.5S438.545,1262.485,447.434,1273.773Z" transform="translate(-339.96 -1161.6)" fill="url(#linear-gradient-6)"/>
      <path id="Path_8747" data-name="Path 8747" d="M-101.43,1007.466c-4.034.049-16.035,2.276-17.671-5.96s-6.147-2.171-10.209-7.861,13.242-9.766,7.956-16.227-6.632-18.362,1.76-21.512,9.125-4.13,11.193-8.679,8.985-8.833,13.816,1.763,9.439,6.413,14.671,13.9S-80.01,1007.2-101.43,1007.466Z" transform="translate(141.596 -922.979)" fill="url(#linear-gradient-7)"/>
      <path id="Path_8748" data-name="Path 8748" d="M-49.068,888.093c-.226-.912-18.344-7.151-14.8-12.761s4.473-7.171.755-8.542a7.278,7.278,0,0,1-4.348-5.378s.992-1.955,2.555-1.117,5.109.708,4.517-1.371-2.129-.87-3.765-2.868a5.332,5.332,0,0,1-1.454-3.629s2.016-3.24,3.595-2.7,7.362,5.091,9.4,2.877-.463-2.4.794-5.667,1.327-3.845,1.664-3.514a21.014,21.014,0,0,1,1.392,2.113s-1.983.969,0,1.679,2.787-.394,3.117-1.866a21.454,21.454,0,0,0,.144-6.021c-.22-2.039,3.451-5.976,4.062-6.112s-3.048-3.876.308-6.637,5.921-3.755,7.336-3.556a7.509,7.509,0,0,1,3.41,1.333c1.027.695,4.364.628,5.586.6s3.619,1.809,4.25,3,1.34,4.738,4.9,5.032,2.848-1.578,2.24-3.36,3.308-.434,3.069.222-2.045,2.152-1.747,2.712.683,1.742,1.234,1.83.852-1.752,1.538-2.408a3.236,3.236,0,0,1,1.849-.705l.806-.864s-1.277-.713.643-.493,3.13.783,2.971,1.1a16.914,16.914,0,0,1-1.875,1.718s-.206,1.325,1.155.969,1.379-1.851,3.792-1.8,2.729-.18,3.606.6,1.247,1.779,2.364,2.138,3.493-1.645,3.585.54-3.962,2.3-2.012,3.6,3.29,1.541,3.811,2.22,1.7,4.3,2.218,4.913-1.9-1.107-3.671.037-.78,3.631-.617,3.735a26.1,26.1,0,0,1-.8,3.687s-.035.531.674.66-7.576,2.348-4.5,3.894a8.989,8.989,0,0,1,4.091,3.737,23.517,23.517,0,0,0-2.61,1.881c-.06.224-.107,1.591,2.325,4.192s-.719,6.977-.719,6.977a6.47,6.47,0,0,0-1.3,4.378c.186,2.644,1.438,2.259.211,5.89s-1.509,2.776-4.436,6.792,8.69,7.126-4.093,6.7-14.4-1.535-16.112-3.963-1.07-3.4-5.153-2.929-2.984-3.639-7.476-.451-3.911,5.443-5.877,3.777S-47.943,892.634-49.068,888.093Z" transform="translate(89.28 -823)" fill="url(#linear-gradient-8)"/>
      <path id="Path_8749" data-name="Path 8749" d="M-92.286,963.165c1.485-3.387-3.578-6.309-2.178-10.869s-1.212-5.281-.139-8.2-.012-2.159,2.016-4.069.728-4.814,3.483-6.13a31.442,31.442,0,0,0,4.243-2.159c3.459-1.939,1.878-6.18,4.251-6.777s3.389-.29,4.786,1.136A4.917,4.917,0,0,0-72,927.155s2.727-9.995,14.676-7.635,12.507,7.92,15.924,5.384,6.792-1.415,7.572,1.936,1.227,5.727,5.3,7.552,8.975,5.415,10.039,11.746c0,0,5.517-3.9,11.44-1.687S.325,950.5,3.3,950.526s10.088,1.142,11.926,3.557,1.85,4.574,3.979,5.547,3.844,1.7,3.92,3.261-1.668,10.321,1.087,12.682,4.68-.646,7.395.857,4.295.531,2.906,1.925-5.132,1.943-5.132,1.943a3.893,3.893,0,0,1-4.426,2.5c-3.333-.629-6.746,2.013-13.275-1.862s-2.219,8.389-3.607,16.158-5.9,11.905-3.691,12.811,9.233-2.505,8.064,1.32-10.024,6.766-8.408,9.553.758,6.964-3.552,7.2-6.57-2.633-9.788-1.109,3.864,5.914-4.025,8.351-5.988,12.6-11,17.454-7.769,9.845-12.865,2.947-10.033-6.552-11.717-10.224,2.8-3.991.744-8.841-7.036-.642-11.016-1.342-5.077-6.349-11.135-4.126-8.317,5.445-12.261,2.12-7.993-5.385-11.843-6.04-10.112,2.016-10.414-.888-2.392-3.281-2.392-3.281-4.757-1.191-2.139-4.162,1.464-6.08,1.494-9.135,4.632-1.862,1.311-5.63-11.821-6.548-7.405-14.72,6.043-9.32,3.324-11.875-.533-4.813,4.829-6.776S-95.547,970.605-92.286,963.165Z" transform="translate(129.264 -903.525)" opacity="0.2" fill="url(#linear-gradient-9)" style="mix-blend-mode: multiply;isolation: isolate"/>
      <path id="Path_8750" data-name="Path 8750" d="M-47.766,1485.384a8.666,8.666,0,0,0-12.241-.6,8.666,8.666,0,0,0-.6,12.241,8.666,8.666,0,0,0,12.241.6A8.666,8.666,0,0,0-47.766,1485.384Zm-12.563,10.585a7.406,7.406,0,0,1,.515-10.461,7.406,7.406,0,0,1,10.461.515,7.406,7.406,0,0,1-.515,10.461A7.406,7.406,0,0,1-60.329,1495.969Z" transform="translate(85.422 -1375.304)" fill="#f2f28f"/>
      <path id="Path_8751" data-name="Path 8751" d="M291.386,909.375a8.666,8.666,0,1,0,8.257,9.056A8.666,8.666,0,0,0,291.386,909.375Zm-1.348,16.373a7.406,7.406,0,1,1,7.739-7.057A7.406,7.406,0,0,1,290.038,925.747Z" transform="translate(-203.631 -895.323)" fill="#f2f28f"/>
      <g id="Group_5263" data-name="Group 5263" transform="translate(19.854 19.952)">
        <path id="Path_8752" data-name="Path 8752" d="M702.681,1316.262s7.9,10.438,8.21,12.155-2.349,1.877-2.025,4.718,4.028,4.094,5.793,1.794.338-3.307,1.889-4.216,3.8.906,5.227-1.431-.52-5.307-4-4.428-11.752-14.238-11.752-14.238l-4.808,3.649Z" transform="translate(-574.275 -1251.289)" fill="#f9d49c"/>
        <path id="Path_8753" data-name="Path 8753" d="M701.218,1314.266l1.463,2s2.4,3.164,4.6,6.3c2.415.154,3.162-2.54,3.389-4.386-2.536-3.7-4.644-7.555-4.644-7.555Z" transform="translate(-574.275 -1251.289)" fill="#c97f34" opacity="0.2"/>
        <path id="Path_8754" data-name="Path 8754" d="M748.121,1420.076a2.986,2.986,0,0,1,.552-2.25,1.583,1.583,0,0,0,1.586,1.487c1.522.069,1.865-3.277,4.249-3.758s5.552,3.194,6.988-1.117a3.09,3.09,0,0,1-.466,1.786c-1.424,2.337-3.677.522-5.227,1.431s-.123,1.917-1.889,4.216S748.445,1422.916,748.121,1420.076Z" transform="translate(-613.529 -1338.23)" fill="#c97f34" opacity="0.2"/>
        <path id="Path_8755" data-name="Path 8755" d="M787.706,1432.119c.211-.785-.758-2.719.59-3.622s3.2.494,3.2.494h0a4.66,4.66,0,0,0-2.64.181C787.625,1429.895,788.268,1430.678,787.706,1432.119Z" transform="translate(-646.582 -1349.749)" fill="#c97f34" opacity="0.2" style="mix-blend-mode: multiply;isolation: isolate"/>
        <path id="Path_8756" data-name="Path 8756" d="M563.69,1602.484s13.064-.861,14.563-1.752-.119-3,2.24-4.619,5.732.364,5.149,3.2-2.279,2.421-1.951,4.188,3.175,2.282,2.341,4.888-4.352,3.082-5.964-.123-18.456.438-18.456.438l-.39-6.023Z" transform="translate(-457.042 -1489.88)" fill="#f9d49c"/>
        <path id="Path_8757" data-name="Path 8757" d="M563.69,1634.9l-2.467.2.39,6.023s4.37-.945,8.871-1.449a7.01,7.01,0,0,0,1.36-3.644,4.912,4.912,0,0,0-.264-1.788C567.733,1634.638,563.69,1634.9,563.69,1634.9Z" transform="translate(-457.042 -1522.301)" fill="#c97f34" opacity="0.2"/>
        <path id="Path_8758" data-name="Path 8758" d="M672.85,1596.112a2.985,2.985,0,0,0-1.339,1.891,1.582,1.582,0,0,1,2.162.226c1.049,1.105-1.256,3.555-.059,5.672s6.049,2.106,3.731,6.013a3.089,3.089,0,0,0,1.045-1.521c.834-2.607-2.013-3.121-2.341-4.888s1.368-1.348,1.951-4.188S675.209,1594.5,672.85,1596.112Z" transform="translate(-549.398 -1489.88)" fill="#c97f34" opacity="0.2"/>
        <g id="Group_5258" data-name="Group 5258" transform="translate(55.579 23.903)">
          <g id="Group_5256" data-name="Group 5256" transform="translate(0 60.277)">
            <path id="Path_8759" data-name="Path 8759" d="M273.891,1478.309s-11.365.5-11.6,11.585,15.718,19.62,28.077,19.792c12.63.176,23.926-8.125,26.41-10.672,3.705-3.8,4.045-12.535-21.024-14.707,0,0,9.048-4.544,14.445-10.02S272.759,1450.893,273.891,1478.309Z" transform="translate(-262.294 -1463.468)" fill="url(#linear-gradient-10)"/>
            <path id="Path_8760" data-name="Path 8760" d="M281.571,1478.309s-6.974.31-10.107,5.771c8.617,2.045,18.582-.072,18.313,1.639-.276,1.755-5.493,1.1-4.848,2.565,1,2.271,7.449-2.394,22.831-1.113s18.537,7.81,18.537,7.81h0c.121-4.089-4.709-9.1-22.858-10.674,0,0,9.049-4.544,14.445-10.02S280.439,1450.893,281.571,1478.309Z" transform="translate(-269.974 -1463.468)" fill="#c97f34" opacity="0.3" style="mix-blend-mode: multiply;isolation: isolate"/>
            <path id="Path_8761" data-name="Path 8761" d="M268.507,1615.948c-1.28,1.392.333,5.135-1.37,5.069s-4.659-7.495-4.659-7.5a14.53,14.53,0,0,0-.181,2.03c-.23,11.082,15.718,19.62,28.077,19.792a31.115,31.115,0,0,0,6.3-.578A30.21,30.21,0,0,1,276,1623.183C272.267,1618.581,269.6,1614.756,268.507,1615.948Z" transform="translate(-262.294 -1589.125)" fill="#d9a571" opacity="0.3"/>
            <path id="Path_8762" data-name="Path 8762" d="M372.635,1667.912c-.554-3.272,8-2.95,11.423,3.486S373.68,1674.084,372.635,1667.912Z" transform="translate(-354.673 -1632.964)" fill="#d9a571" opacity="0.2"/>
            <path id="Path_8763" data-name="Path 8763" d="M462,1696.42c.553-1.866,6.7.894,6.679,3.212C468.651,1702.41,461.044,1699.635,462,1696.42Z" transform="translate(-429.459 -1658.029)" fill="#d9a571" opacity="0.2"/>
            <path id="Path_8764" data-name="Path 8764" d="M485.86,1601.244c2.574,5.656-3.16,9.823-3.333,9.947a35.015,35.015,0,0,0,6.621-4.842c3.705-3.8,4.045-12.535-21.024-14.707C468.124,1591.642,483.246,1595.5,485.86,1601.244Z" transform="translate(-434.659 -1570.802)" fill="#c97f34" opacity="0.2" style="mix-blend-mode: multiply;isolation: isolate"/>
          </g>
          <g id="Group_5257" data-name="Group 5257" transform="translate(30.818)">
            <path id="Path_8765" data-name="Path 8765" d="M457.991,1112.317s-7.06-8.92,1.166-16.349,25.12-.964,33.342,8.265c8.4,9.432,9.523,23.4,9.224,26.95-.446,5.288-6.827,11.265-24.881-6.263,0,0,2.489,9.814,1.884,17.479S436.526,1129.41,457.991,1112.317Z" transform="translate(-451.844 -1092.731)" fill="url(#linear-gradient-11)"/>
            <path id="Path_8766" data-name="Path 8766" d="M457.991,1154.383s-4.332-5.474-2.254-11.418c7.188,5.175,12.111,14.094,13.228,12.77,1.146-1.358-2.764-4.873-1.236-5.344,2.371-.731,3.067,7.2,14.107,17.987s18.039,8.9,18.039,8.9h0c-3.012,2.769-9.963,2.4-23.033-10.29,0,0,2.49,9.815,1.884,17.479S436.526,1171.476,457.991,1154.383Z" transform="translate(-451.844 -1134.797)" fill="#c97f34" opacity="0.3" style="mix-blend-mode: multiply;isolation: isolate"/>
            <path id="Path_8767" data-name="Path 8767" d="M493.894,1100.4c.214-1.879,4.1-3.111,2.935-4.355s-8.715,1.385-8.716,1.385a14.5,14.5,0,0,1,1.416-1.466c8.226-7.429,25.12-.964,33.342,8.265a31.087,31.087,0,0,1,3.69,5.143,30.21,30.21,0,0,0-22.3-8.049C498.347,1101.521,493.711,1102.011,493.894,1100.4Z" transform="translate(-482.216 -1092.731)" fill="#d9a571" opacity="0.3"/>
            <path id="Path_8768" data-name="Path 8768" d="M604.988,1157.843c-2.836,1.723,3.006,7.976,10.114,6.353S610.338,1154.592,604.988,1157.843Z" transform="translate(-579.476 -1146.611)" fill="#d9a571" opacity="0.2"/>
            <path id="Path_8769" data-name="Path 8769" d="M682.836,1210.62c-1.048,1.64,5.063,4.479,6.8,2.945C691.721,1211.728,684.643,1207.794,682.836,1210.62Z" transform="translate(-645.179 -1190.623)" fill="#d9a571" opacity="0.2"/>
            <path id="Path_8770" data-name="Path 8770" d="M624.464,1287.974c5.961-1.757,5.356-8.82,5.337-9.032a35.03,35.03,0,0,1,.675,8.175c-.446,5.288-6.826,11.264-24.881-6.263C605.594,1280.854,618.412,1289.758,624.464,1287.974Z" transform="translate(-580.596 -1248.667)" fill="#c97f34" opacity="0.2" style="mix-blend-mode: multiply;isolation: isolate"/>
          </g>
        </g>
        <path id="Path_8771" data-name="Path 8771" d="M-58.444,1008.262c-7.381,11.5,1.212,21.147-1.209,26.448s-15.339,5.12-19.2,18.23,8.241,30.079,40.582,38.445,60.9,3.795,69.55-15.137-6.6-43.514-34.093-62.482S-51.063,996.761-58.444,1008.262Z" transform="translate(79.547 -990.797)" fill="url(#linear-gradient-12)"/>
        <path id="Path_8772" data-name="Path 8772" d="M-33.425,1135.78c.756,5.462,3.016,9.958,1.621,13.011-1.769,3.872-9.137,4.821-14.486,10.159a70.3,70.3,0,0,1,13.951-4.416C-24.668,1153-22.54,1145.491-33.425,1135.78Z" transform="translate(51.697 -1104.878)" fill="#c97f34" opacity="0.5" style="mix-blend-mode: multiply;isolation: isolate"/>
        <path id="Path_8773" data-name="Path 8773" d="M354.908,1346.322c3.4-7.443,3.105-15.759-.173-24.263,0,.085.641,11.986-5.558,14.173-6.222,2.195-39.961-17.342-42.157-12.536s31.171,18.346,35.194,25.191c4,6.8-7.074,13.6-7.223,13.689C344.292,1359.565,351.317,1354.182,354.908,1346.322Z" transform="translate(-244.082 -1260.871)" fill="#c97f34" opacity="0.2" style="mix-blend-mode: multiply;isolation: isolate"/>
        <path id="Path_8774" data-name="Path 8774" d="M154.1,1121.942c14.571,15.876,14.774,16.9,19.094,25.837,3.452,7.143,4.493,16.263-1.038,27.8-4.44,9.26-21.049,17.334-28.428,18.54s-.749-8.478-10.777-4.923c-10,3.546-34.142.755-34.265.741a107.33,107.33,0,0,0,12.3,3.944c32.341,8.367,60.9,3.794,69.55-15.137C188.342,1161.651,176.676,1139.955,154.1,1121.942Z" transform="translate(-69.709 -1093.29)" fill="#c97f34" opacity="0.3" style="mix-blend-mode: multiply;isolation: isolate"/>
        <path id="Path_8775" data-name="Path 8775" d="M-70.736,1261.415a18.781,18.781,0,0,0-8.118,10.814c-3.861,13.109,8.241,30.079,40.582,38.445,31.729,8.208,59.817,3.961,69.035-14.079-9.971,11.521-27.177,6.784-33.4,2.009s-39.42,8.848-57.286-6.134S-70.746,1261.439-70.736,1261.415Z" transform="translate(79.547 -1210.086)" fill="#d9a571" opacity="0.5"/>
        <path id="Path_8776" data-name="Path 8776" d="M-7.214,1147.865c2.028-1.826,11.158-4.792,10.766-12.059s-2.886-12.258,3.832-14.379,19.286,12.282,11.1,25.2S-16.315,1156.059-7.214,1147.865Z" transform="translate(20.542 -1092.683)" fill="#fff" opacity="0.1"/>
        <path id="Path_8777" data-name="Path 8777" d="M85.749,1010.917c-25.329-15.869-44.3-13.533-51.283-2.646a18.418,18.418,0,0,0-3.06,10.6S40.837,989.156,85.749,1010.917Z" transform="translate(-13.364 -990.806)" fill="#c97f34"/>
        <path id="Path_8778" data-name="Path 8778" d="M67.7,1034.155c-2.085-2.242.047-9.589,10.412-12.1s30.722,4.708,42.7,12.945,21.271,20.7,17.7,25.246-17.728-14.658-26.064-18.313-2.212,5.015-7.651,6.573-9.623-10.5-19.338-12.342S71.027,1037.734,67.7,1034.155Z" transform="translate(-43.154 -1009.219)" fill="#d9a571" opacity="0.3"/>
        <path id="Path_8779" data-name="Path 8779" d="M478.879,1266.422s9.516-20.769-8.043-34.917C470.836,1231.505,494.918,1242.728,478.879,1266.422Z" transform="translate(-381.35 -1185.04)" fill="#c97f34" opacity="0.1" style="mix-blend-mode: multiply;isolation: isolate"/>
        <path id="Path_8780" data-name="Path 8780" d="M-53.048,1312.658s-16.565-10.1-2.635-24.073C-55.682,1288.586-63.349,1299.853-53.048,1312.658Z" transform="translate(64.231 -1232.84)" fill="#fff" opacity="0.1"/>
        <path id="Path_8781" data-name="Path 8781" d="M190.383,1417.969c-2.737-3.03,6.048-8.162,13.773-3.7S195.546,1423.683,190.383,1417.969Z" transform="translate(-146.067 -1336.625)" fill="#d9a571" opacity="0.2"/>
        <path id="Path_8782" data-name="Path 8782" d="M303.588,1446.878c-.69-2.284,7.311-3.358,8.836-.947C314.252,1448.821,304.777,1450.814,303.588,1446.878Z" transform="translate(-241.26 -1363.459)" fill="#d9a571" opacity="0.2"/>
        <g id="Group_5260" data-name="Group 5260" transform="translate(4.321 73.557)">
          <path id="Path_8783" data-name="Path 8783" d="M-14.96,1417.681c3.623,1.332,14.316,6.2,10.841,12.12-3.674,6.259-28.63,2.212-41.424-6.046s-7.7-19,5.023-18.414,18.451-8.595,21.535-7.027-1.482,15.145-8.462,17.056A37.6,37.6,0,0,1-14.96,1417.681Z" transform="translate(52.968 -1398.134)" fill="url(#linear-gradient-13)"/>
          <path id="Path_8784" data-name="Path 8784" d="M71.747,1517.831c.016,1.379,5.664,2.546,2.618,5.769-2.962,3.133-22.452,1.29-23.534,1.185,12.962,4.886,29.076,6.356,31.972,1.424,3.476-5.921-7.217-10.789-10.841-12.12-.866-.318-1.717-.592-2.544-.829C74.351,1515.621,71.731,1516.452,71.747,1517.831Z" transform="translate(-33.955 -1494.541)" fill="#c97f34" opacity="0.2" style="mix-blend-mode: multiply;isolation: isolate"/>
          <path id="Path_8785" data-name="Path 8785" d="M27.213,1517.675c-.124-.046-.248-.089-.371-.133,7.464,3.167,12.949,8.885,3.09,12.316-9.827,3.42-32.386-5.57-32.538-5.631,13,7.934,37.058,11.705,40.66,5.568C41.53,1523.874,30.837,1519.007,27.213,1517.675Z" transform="translate(10.794 -1498.128)" fill="#c97f34" opacity="0.3" style="mix-blend-mode: multiply;isolation: isolate"/>
          <g id="Group_5259" data-name="Group 5259" transform="translate(14.656 16.847)" opacity="0.3" style="mix-blend-mode: multiply;isolation: isolate">
            <path id="Path_8786" data-name="Path 8786" d="M37.174,1505.119a20.1,20.1,0,0,0,10.107,1.178,12.219,12.219,0,0,0,5.165-1.836,30.886,30.886,0,0,0-4.409-.322S44.813,1505.811,37.174,1505.119Z" transform="translate(-37.174 -1503.75)" fill="#c97f34"/>
            <path id="Path_8787" data-name="Path 8787" d="M105.053,1501.752l-1.064.389A7.124,7.124,0,0,0,105.053,1501.752Z" transform="translate(-93.126 -1501.752)" fill="#c97f34"/>
          </g>
          <path id="Path_8788" data-name="Path 8788" d="M-37.206,1452.433c-1.812-1.3-.651-4.636,2.848-5.832s10.6-.065,14.075-1.6,3.483,1.862-.939,2.681-6.712.7-9.317,2.117S-35.253,1453.83-37.206,1452.433Z" transform="translate(40.478 -1437.054)" fill="#d9a571" opacity="0.5"/>
          <path id="Path_8789" data-name="Path 8789" d="M95.917,1432.965c-.423-.688,2.066-2.253,2.81-1.287S96.554,1434,95.917,1432.965Z" transform="translate(-71.67 -1425.968)" fill="#d9a571" opacity="0.5"/>
        </g>
        <g id="Group_5262" data-name="Group 5262" transform="translate(41.409)">
          <path id="Path_8790" data-name="Path 8790" d="M205.981,973.375c3.413,1.8,14.182,6.5,16.254-.045,2.19-6.92-17.512-22.776-32.2-26.769s-19.262,6.986-10.314,16.055,5.961,19.475,9.189,20.72,10.255-11.234,7-17.705A37.631,37.631,0,0,0,205.981,973.375Z" transform="translate(-175.143 -945.718)" fill="url(#linear-gradient-14)"/>
          <path id="Path_8791" data-name="Path 8791" d="M335.551,995.343c1.035-.911,5.68,2.51,6.035-1.912.345-4.3-14.063-17.564-14.865-18.3,12.3,6.373,24.173,17.376,22.447,22.83-2.072,6.547-12.84,1.849-16.254.045-.816-.431-1.589-.881-2.318-1.338C335.651,998.759,334.515,996.253,335.551,995.343Z" transform="translate(-302.076 -970.349)" fill="#c97f34" opacity="0.2" style="mix-blend-mode: multiply;isolation: isolate"/>
          <path id="Path_8792" data-name="Path 8792" d="M287.124,979c-.117-.062-.232-.125-.347-.187,7.345,3.434,15.261,3.688,11.213-5.941-4.035-9.6-25.8-20.364-25.951-20.436,14.587,4.361,33.485,19.735,31.338,26.52C301.306,985.5,290.537,980.807,287.124,979Z" transform="translate(-256.286 -951.345)" fill="#c97f34" opacity="0.3" style="mix-blend-mode: multiply;isolation: isolate"/>
          <g id="Group_5261" data-name="Group 5261" transform="translate(14.227 11.178)" opacity="0.3" style="mix-blend-mode: multiply;isolation: isolate">
            <path id="Path_8793" data-name="Path 8793" d="M262.647,1014.466a20.125,20.125,0,0,1,7.637,6.73,12.24,12.24,0,0,1,2.092,5.07,30.989,30.989,0,0,1-3.189-3.064S268.272,1019.685,262.647,1014.466Z" transform="translate(-262.647 -1014.466)" fill="#c97f34"/>
            <path id="Path_8794" data-name="Path 8794" d="M303.3,1069.25l-.423-1.052A7.129,7.129,0,0,1,303.3,1069.25Z" transform="translate(-296.334 -1059.462)" fill="#c97f34"/>
          </g>
          <path id="Path_8795" data-name="Path 8795" d="M187.571,973.8c-2.175-.481-3.879,2.617-2.426,6.02s7.041,7.925,8.23,11.539,3.713,1.345,1.363-2.493-3.969-5.463-4.661-8.347S189.915,974.321,187.571,973.8Z" transform="translate(-183.067 -969.195)" fill="#d9a571" opacity="0.5"/>
          <path id="Path_8796" data-name="Path 8796" d="M248.9,1104.452c-.794.146-.291,3.044.924,2.951S250.094,1104.233,248.9,1104.452Z" transform="translate(-236.586 -1078.634)" fill="#d9a571" opacity="0.5"/>
        </g>
        <path id="Path_8797" data-name="Path 8797" d="M311.23,1194.964c.473-3.272,6.105-6.969,11.448-2.273s11.524,13.083,8.92,15.036S309.962,1203.737,311.23,1194.964Z" transform="translate(-247.644 -1150.672)" fill="#fff" opacity="0.1"/>
        <path id="Path_8798" data-name="Path 8798" d="M696.307,1627.354c-.455.673-2.551,1.208-2.352,2.817s2.469,2.1,2.469,2.1h0c-.646-.669-1.429-1.237-1.592-2.115C694.573,1628.75,695.586,1628.723,696.307,1627.354Z" transform="translate(-568.182 -1516.528)" fill="#c97f34" opacity="0.2" style="mix-blend-mode: multiply;isolation: isolate"/>
      </g>
      <path id="Path_8799" data-name="Path 8799" d="M118.642,913.327l-.081-.075q-.079-.071-.161-.139l-.079-.065c-.065-.052-.131-.1-.2-.151l-.048-.036q-.129-.092-.262-.176l-.027-.016q-.118-.074-.239-.141l-.065-.035q-.107-.057-.215-.11l-.065-.031q-.119-.055-.24-.1l-.039-.016a5.52,5.52,0,0,0-.908-.274l-.025-.005q-.147-.03-.3-.053l-.013,0a5.553,5.553,0,0,0-.578-.056c0-.03-.033-.063-.1-.1a5.041,5.041,0,0,0-2.554.606c-.589.307-2,1.1-2.042,1.652a.233.233,0,0,0,.01.1,5.516,5.516,0,0,0,4.144,8.762h.022a5.525,5.525,0,0,0,.716-.008l.04,0c.11-.009.22-.021.33-.037l.024,0q.176-.026.351-.064l.033-.008q.152-.034.3-.076l.067-.019a5.468,5.468,0,0,0,.648-.237l.077-.035q.129-.059.255-.125l.062-.032q.151-.082.3-.173l.062-.04q.118-.076.234-.159l.079-.057c.094-.07.188-.143.279-.22q.109-.092.212-.189a5.514,5.514,0,0,0,1.4-5.924q-.046-.127-.1-.252a5.424,5.424,0,0,0-.238-.491,5.539,5.539,0,0,0-.633-.921c-.069-.082-.141-.16-.214-.237l-.069-.07C118.747,913.429,118.7,913.377,118.642,913.327Z" transform="translate(-58.787 -897.276)" opacity="0.2" fill="url(#linear-gradient-15)" style="mix-blend-mode: multiply;isolation: isolate"/>
      <path id="Path_8800" data-name="Path 8800" d="M657.667,1420.526c-.583.044-1.994.194-2.223.628a.2.2,0,0,0-.026.089,4.843,4.843,0,0,0-.99,7.565h0l.028.027c.039.039.08.077.121.115q.092.086.189.168c.042.035.083.071.126.1.1.077.2.151.3.22.04.027.082.051.123.077.076.048.153.094.231.137.047.026.093.051.14.075q.149.076.3.142l.117.048q.156.062.317.113c.045.015.091.028.137.041q.15.043.3.077c.034.007.067.016.1.023.132.026.265.046.4.061l.118.01q.161.014.324.017l.113,0c.14,0,.28-.006.42-.019l.081-.01c.118-.013.237-.031.356-.052l.118-.023c.143-.03.287-.065.43-.109a4.838,4.838,0,0,0,2.626-1.966,4.845,4.845,0,0,0,.589-4.1c-.044-.144-.1-.282-.152-.419-.011-.027-.022-.054-.033-.081q-.084-.195-.183-.379c-.013-.025-.027-.048-.041-.073-.064-.115-.132-.226-.2-.334l-.026-.04c-.077-.112-.16-.22-.246-.324l-.067-.081c-.085-.1-.173-.2-.266-.287-.023-.023-.047-.045-.071-.067q-.12-.115-.248-.221c-.025-.021-.05-.043-.075-.063-.1-.078-.2-.15-.3-.22l-.111-.073c-.1-.066-.208-.129-.315-.187-.034-.018-.069-.035-.1-.052l-.1-.05c.009-.025,0-.062-.048-.118A4.434,4.434,0,0,0,657.667,1420.526Z" transform="translate(-514.075 -1323.368)" opacity="0.2" fill="url(#linear-gradient-16)" style="mix-blend-mode: multiply;isolation: isolate"/>
      <path id="Path_8801" data-name="Path 8801" d="M-122.223,1377.3a4.4,4.4,0,0,0-5.431-.212,4.372,4.372,0,0,0-1.343,1.586v0l-.015.032c-.022.046-.043.092-.063.138-.031.07-.061.14-.088.211-.018.046-.037.092-.053.139-.037.107-.071.214-.1.323-.011.042-.02.085-.03.127-.019.079-.035.159-.05.239-.008.047-.016.095-.023.142q-.022.15-.033.3c0,.038-.005.075-.007.113q-.008.152,0,.305c0,.043,0,.086,0,.129q.007.141.023.282c0,.031.006.062.01.093.016.121.039.24.065.36.008.035.017.07.026.1q.035.142.08.282c.011.032.02.065.032.1.041.12.088.238.14.354.01.022.022.045.033.067q.069.146.15.29c.018.032.036.063.054.094.068.114.14.227.219.336a4.458,4.458,0,0,0,.283.35,4.4,4.4,0,0,0,5.09,1.072,4.412,4.412,0,0,0,.77-.448c.11-.08.214-.166.314-.254l.06-.053q.142-.129.271-.268l.05-.056c.079-.089.155-.18.226-.273l.027-.034c.074-.1.141-.2.206-.306l.049-.081c.06-.1.117-.206.168-.313.013-.026.024-.053.036-.08q.063-.137.116-.278c.011-.028.022-.055.032-.083.038-.106.071-.214.1-.323.011-.038.02-.077.03-.116.026-.108.05-.216.068-.325.006-.035.009-.069.014-.1s.01-.066.013-.1c.024,0,.053-.021.087-.076a4.019,4.019,0,0,0-.33-2.066c-.209-.486-.752-1.652-1.192-1.72A.174.174,0,0,0-122.223,1377.3Z" transform="translate(141.203 -1286.299)" opacity="0.2" fill="url(#linear-gradient-17)" style="mix-blend-mode: multiply;isolation: isolate"/>
      <path id="Path_8802" data-name="Path 8802" d="M476.392,1039.939c-.034-.036-.067-.073-.1-.108-.08-.08-.162-.157-.247-.231-.033-.028-.068-.055-.1-.082q-.1-.077-.194-.149l-.118-.083q-.126-.085-.257-.161l-.1-.055q-.134-.073-.273-.137c-.039-.018-.079-.035-.119-.052q-.13-.055-.264-.1c-.029-.01-.058-.022-.088-.032-.116-.038-.233-.07-.352-.1l-.105-.022q-.143-.03-.289-.051l-.1-.014c-.125-.015-.252-.025-.38-.029h-.074q-.162,0-.325.008l-.109.008c-.132.011-.264.027-.4.051h0a4.392,4.392,0,0,0-3.249,2.549q-.086.193-.153.4a4.377,4.377,0,0,0-.154,2.157c.024.134.056.265.091.393.007.026.014.051.021.077.036.123.077.243.123.361.009.024.019.047.029.07.045.11.094.218.147.323l.019.039c.057.11.12.215.186.319l.051.08c.066.1.135.195.208.287.018.023.038.045.056.068q.1.116.2.226c.02.022.04.044.061.065.079.08.162.157.247.231l.091.077c.086.07.173.139.263.2.028.02.058.038.087.057l.084.056c-.011.021,0,.056.03.112a4.015,4.015,0,0,0,2,.6c.529.024,1.815.044,2.068-.321a.174.174,0,0,0,.033-.077,4.389,4.389,0,0,0,1.72-6.7l0,0-.022-.027c-.031-.04-.064-.078-.1-.117Q476.47,1040.023,476.392,1039.939Z" transform="translate(-359.768 -1003.488)" opacity="0.2" fill="url(#linear-gradient-18)" style="mix-blend-mode: multiply;isolation: isolate"/>
      <path id="Path_8803" data-name="Path 8803" d="M200.71,1621.636c-.051-.1-.1-.2-.163-.3-.023-.037-.047-.073-.071-.11-.044-.069-.09-.136-.138-.2-.028-.039-.057-.078-.086-.116-.062-.079-.126-.157-.193-.232l-.078-.084q-.1-.111-.216-.214l-.1-.086q-.107-.093-.22-.179c-.025-.019-.048-.039-.074-.057-.1-.072-.2-.139-.3-.2-.03-.019-.062-.036-.093-.054q-.127-.073-.259-.138c-.031-.015-.061-.031-.092-.045-.115-.053-.232-.1-.352-.145l-.07-.023c-.1-.035-.207-.066-.313-.093l-.105-.026c-.129-.03-.26-.057-.394-.076a4.393,4.393,0,0,0-4.963,3.748c-.019.135-.029.269-.036.4,0,.026,0,.053,0,.079q-.006.192,0,.381c0,.025,0,.05.006.075.009.119.022.236.04.353,0,.014,0,.028.006.042.02.122.047.242.078.361.008.031.016.061.024.092.032.114.067.227.108.338.01.027.022.054.032.082q.055.14.119.276c.013.027.024.054.038.081.05.1.105.2.163.3q.031.051.063.1c.059.094.121.186.187.275.021.028.043.055.065.082l.062.078c-.017.017-.021.052-.006.116.078.316,1.147.981,1.717,1.2.5.187,1.712.6,2.066.336a.179.179,0,0,0,.055-.063,4.388,4.388,0,0,0,3.711-5.833l0,0-.013-.032c-.017-.048-.036-.094-.055-.141-.028-.071-.059-.141-.091-.21C200.752,1621.725,200.732,1621.68,200.71,1621.636Z" transform="translate(-128.32 -1489.759)" opacity="0.2" fill="url(#linear-gradient-19)" style="mix-blend-mode: multiply;isolation: isolate"/>
      <g id="Group_5264" data-name="Group 5264" transform="translate(49.123 12.131)">
        <circle id="Ellipse_115" data-name="Ellipse 115" cx="5.518" cy="5.518" r="5.518" transform="translate(0 10.935) rotate(-82.242)" fill="#fc4330"/>
        <path id="Path_8804" data-name="Path 8804" d="M114.4,903.032c-.589.307-2,1.1-2.042,1.652s.946-.55,1.139-.5-.614.814-.212.961.891-1.021,1.256-.94,1.226.863,1.544.581-.671-1.191-.43-1.235,1.122.147,1.319.011-.824-.63-.574-.75.915-.195.555-.386A5.04,5.04,0,0,0,114.4,903.032Z" transform="translate(-110.426 -901.605)" fill="#db2219" opacity="0.4" style="mix-blend-mode: multiply;isolation: isolate"/>
        <path id="Path_8805" data-name="Path 8805" d="M127.365,901.908a5.517,5.517,0,0,1-1.633,10.6,5.517,5.517,0,1,0,1.633-10.6Z" transform="translate(-121.625 -901.193)" fill="#db2219"/>
        <path id="Path_8806" data-name="Path 8806" d="M110.108,918.639c.724-.077.1,1.568.142,2.7.053,1.316,1.176,2.562.516,3s-1.542-1.037-1.813-2.539C108.694,920.372,109.2,918.735,110.108,918.639Z" transform="translate(-107.517 -915.217)" fill="#fff" opacity="0.5"/>
        <path id="Path_8807" data-name="Path 8807" d="M121.993,956.095c.274-.4,1.52.446,1.107,1.007S121.615,956.647,121.993,956.095Z" transform="translate(-118.427 -946.499)" fill="#fff" opacity="0.5"/>
        <path id="Path_8808" data-name="Path 8808" d="M113.247,901.669c-.589.307-2,1.1-2.042,1.652s.946-.55,1.139-.5-.614.814-.212.961.891-1.021,1.256-.94,1.226.863,1.544.581-.671-1.191-.43-1.235,1.122.147,1.319.011-.824-.63-.575-.75.915-.2.555-.386A5.042,5.042,0,0,0,113.247,901.669Z" transform="translate(-109.459 -900.463)" fill="url(#linear-gradient-20)"/>
      </g>
      <g id="Group_5265" data-name="Group 5265" transform="translate(136.787 96.583)">
        <circle id="Ellipse_116" data-name="Ellipse 116" cx="4.854" cy="4.854" r="4.854" transform="matrix(0.997, -0.08, 0.08, 0.997, 0, 0.78)" fill="#fc4330"/>
        <path id="Path_8809" data-name="Path 8809" d="M659.281,1420.583c-.583.044-1.994.194-2.223.628s.955-.116,1.094-.009-.778.445-.5.7,1.074-.517,1.341-.325.693,1.122,1.047,1.005-.13-1.2.08-1.147.856.507,1.063.466-.448-.795-.2-.806.808.16.582-.12A4.435,4.435,0,0,0,659.281,1420.583Z" transform="translate(-654.204 -1419.998)" fill="#db2219" opacity="0.4" style="mix-blend-mode: multiply;isolation: isolate"/>
        <path id="Path_8810" data-name="Path 8810" d="M655.461,1420.849a4.852,4.852,0,0,1-4.992,8,4.853,4.853,0,1,0,4.992-8Z" transform="translate(-648.71 -1420.229)" fill="#db2219"/>
        <path id="Path_8811" data-name="Path 8811" d="M648.586,1427.428c.612.189-.466,1.3-.821,2.234-.413,1.082.063,2.479-.623,2.605s-.887-1.372-.586-2.681C646.843,1428.34,647.816,1427.191,648.586,1427.428Z" transform="translate(-645.319 -1425.712)" fill="#fff" opacity="0.5"/>
        <path id="Path_8812" data-name="Path 8812" d="M650.4,1460.215c.36-.229,1.074.887.546,1.2S649.9,1460.531,650.4,1460.215Z" transform="translate(-648.481 -1453.169)" fill="#fff" opacity="0.5"/>
        <path id="Path_8813" data-name="Path 8813" d="M658.82,1419.081c-.583.044-1.994.194-2.223.628s.955-.116,1.094-.009-.778.445-.5.7,1.074-.517,1.341-.325.693,1.123,1.047,1.005-.13-1.2.08-1.147.856.507,1.063.466-.448-.795-.2-.806.808.16.582-.12A4.433,4.433,0,0,0,658.82,1419.081Z" transform="translate(-653.818 -1418.74)" fill="url(#linear-gradient-21)"/>
      </g>
      <g id="Group_5266" data-name="Group 5266" transform="translate(10.338 90.566)">
        <path id="Path_8814" data-name="Path 8814" d="M-131.1,1387.982a4.4,4.4,0,0,0,.974-6.142,4.4,4.4,0,0,0-6.142-.974,4.4,4.4,0,0,0-.974,6.142A4.4,4.4,0,0,0-131.1,1387.982Z" transform="translate(138.078 -1380.026)" fill="#fc4330"/>
        <path id="Path_8815" data-name="Path 8815" d="M-95.212,1389.009c-.209-.487-.752-1.652-1.192-1.721s.38.785.329.935-.61-.536-.751-.225.759.769.672,1.054-.758.923-.554,1.192.986-.463,1.007-.268-.183.883-.087,1.048.55-.618.631-.412.1.739.274.464A4.014,4.014,0,0,0-95.212,1389.009Z" transform="translate(103.545 -1386.104)" fill="#db2219" opacity="0.4" style="mix-blend-mode: multiply;isolation: isolate"/>
        <path id="Path_8816" data-name="Path 8816" d="M-129.28,1396.849a4.377,4.377,0,0,1-1.344,1.582,4.4,4.4,0,0,1-6.142-.973,4.378,4.378,0,0,1-.838-2.536,4.4,4.4,0,0,0,.37,4.56,4.4,4.4,0,0,0,6.142.973A4.39,4.39,0,0,0-129.28,1396.849Z" transform="translate(138.074 -1392.499)" fill="#db2219"/>
        <path id="Path_8817" data-name="Path 8817" d="M-119.864,1384.6c.018.58-1.252-.017-2.156-.048-1.049-.036-2.106.783-2.416.232s.915-1.164,2.125-1.29C-121.158,1383.377-119.886,1383.873-119.864,1384.6Z" transform="translate(126.695 -1382.918)" fill="#fff" opacity="0.5"/>
        <path id="Path_8818" data-name="Path 8818" d="M-131.643,1392.489c.3.241-.445,1.181-.866.82S-132.059,1392.156-131.643,1392.489Z" transform="translate(133.509 -1390.396)" fill="#fff" opacity="0.5"/>
        <path id="Path_8819" data-name="Path 8819" d="M-94.06,1388.173c-.209-.487-.752-1.652-1.192-1.721s.38.784.329.934-.61-.536-.751-.225.759.769.672,1.054-.758.923-.554,1.193.987-.463,1.007-.269-.183.883-.087,1.048.549-.618.631-.412.1.739.274.464A4.016,4.016,0,0,0-94.06,1388.173Z" transform="translate(102.58 -1385.404)" fill="url(#linear-gradient-22)"/>
      </g>
      <g id="Group_5267" data-name="Group 5267" transform="translate(107.02 32.482)">
        <circle id="Ellipse_117" data-name="Ellipse 117" cx="4.397" cy="4.397" r="4.397" transform="translate(0 4.246) rotate(-28.868)" fill="#fc4330"/>
        <path id="Path_8820" data-name="Path 8820" d="M467.273,1042.206c-.138.511-.436,1.762-.134,2.089s.189-.851.322-.937.146.8.449.643-.117-1.074.127-1.244,1.168-.253,1.175-.591-1.06-.25-.956-.415.692-.578.719-.767-.814.143-.75-.069.38-.642.073-.534A4.016,4.016,0,0,0,467.273,1042.206Z" transform="translate(-465.311 -1037.505)" fill="#db2219" opacity="0.4" style="mix-blend-mode: multiply;isolation: isolate"/>
        <path id="Path_8821" data-name="Path 8821" d="M471.93,1034.181a4.4,4.4,0,0,1,5.328,6.68,4.4,4.4,0,1,0-5.328-6.68Z" transform="translate(-469.432 -1030.898)" fill="#db2219"/>
        <path id="Path_8822" data-name="Path 8822" d="M470.533,1062.783c.346-.466.971.791,1.66,1.376.8.679,2.136.694,2.038,1.319s-1.44.344-2.467-.309C470.786,1064.547,470.1,1063.369,470.533,1062.783Z" transform="translate(-468.15 -1056.193)" fill="#fff" opacity="0.5"/>
        <path id="Path_8823" data-name="Path 8823" d="M496.692,1078.18c-.087-.377,1.082-.65,1.188-.1S496.812,1078.7,496.692,1078.18Z" transform="translate(-490.165 -1068.828)" fill="#fff" opacity="0.5"/>
        <path id="Path_8824" data-name="Path 8824" d="M465.851,1042.147c-.138.511-.436,1.762-.134,2.089s.189-.851.322-.937.146.8.449.643-.117-1.074.127-1.243,1.168-.253,1.175-.591-1.06-.25-.956-.415.692-.578.719-.767-.814.143-.75-.068.38-.642.073-.534A4.019,4.019,0,0,0,465.851,1042.147Z" transform="translate(-464.12 -1037.456)" fill="url(#linear-gradient-23)"/>
      </g>
      <g id="Group_5268" data-name="Group 5268" transform="translate(60.248 128.561)">
        <circle id="Ellipse_118" data-name="Ellipse 118" cx="4.397" cy="4.397" r="4.397" transform="matrix(0.83, -0.558, 0.558, 0.83, 0, 4.904)" fill="#fc4330"/>
        <path id="Path_8825" data-name="Path 8825" d="M187.355,1665.086c.5.187,1.712.6,2.066.336s-.829-.27-.9-.411.809-.068.683-.384-1.08.013-1.226-.247-.139-1.187-.475-1.226-.351,1.031-.505.911-.509-.745-.694-.79.064.824-.141.74-.6-.44-.524-.125S186.786,1664.871,187.355,1665.086Z" transform="translate(-182.908 -1655.114)" fill="#db2219" opacity="0.4" style="mix-blend-mode: multiply;isolation: isolate"/>
        <path id="Path_8826" data-name="Path 8826" d="M180.761,1631.794a4.4,4.4,0,0,1,7.163-4.658,4.4,4.4,0,1,0-7.163,4.658Z" transform="translate(-177.674 -1622.492)" fill="#db2219"/>
        <path id="Path_8827" data-name="Path 8827" d="M207.621,1655.915c-.43-.389.881-.89,1.53-1.519.753-.73.9-2.059,1.51-1.9s.2,1.466-.546,2.426C209.4,1655.834,208.163,1656.405,207.621,1655.915Z" transform="translate(-201.254 -1646.179)" fill="#fff" opacity="0.5"/>
        <path id="Path_8828" data-name="Path 8828" d="M225.647,1643.711c-.383.05-.542-1.14.011-1.193S226.176,1643.642,225.647,1643.711Z" transform="translate(-216.129 -1637.833)" fill="#fff" opacity="0.5"/>
        <path id="Path_8829" data-name="Path 8829" d="M187.158,1666.5c.5.187,1.712.6,2.066.336s-.829-.27-.9-.411.809-.068.683-.384-1.08.013-1.226-.247-.139-1.187-.475-1.226-.351,1.031-.505.911-.509-.745-.694-.789.064.824-.141.74-.6-.44-.524-.124S186.589,1666.281,187.158,1666.5Z" transform="translate(-182.743 -1656.294)" fill="url(#linear-gradient-24)"/>
      </g>
      <path id="Path_8830" data-name="Path 8830" d="M384.686,1456.593a13.628,13.628,0,1,0-19.142,2.247A13.628,13.628,0,0,0,384.686,1456.593ZM365,1439.859a11.647,11.647,0,1,1,1.92,16.358A11.646,11.646,0,0,1,365,1439.859Z" transform="translate(-268.985 -1335.092)" fill="#f2f28f"/>
      <path id="Path_8831" data-name="Path 8831" d="M285.011,1482.724a8.666,8.666,0,1,0,5.415-10.994A8.666,8.666,0,0,0,285.011,1482.724ZM300.745,1478a7.406,7.406,0,1,1-9.4-4.628A7.406,7.406,0,0,1,300.745,1478Z" transform="translate(-205.496 -1365.866)" fill="#f2f28f"/>
      <path id="Path_8832" data-name="Path 8832" d="M-8.7,1121.679a8.666,8.666,0,0,0,10.994,5.415A8.666,8.666,0,0,0,7.708,1116.1a8.666,8.666,0,0,0-10.994-5.415A8.666,8.666,0,0,0-8.7,1121.679Zm15.734-4.724a7.406,7.406,0,1,1-9.4-4.628A7.406,7.406,0,0,1,7.033,1116.955Z" transform="translate(40.462 -1063.522)" fill="#f2f28f"/>
      <path id="Path_8833" data-name="Path 8833" d="M330.174,1125.482a12.53,12.53,0,1,0,7.83-15.9A12.53,12.53,0,0,0,330.174,1125.482Zm22.75-6.83a10.708,10.708,0,1,1-13.585-6.692A10.708,10.708,0,0,1,352.924,1118.652Z" transform="translate(-243.143 -1062.429)" fill="#f2f28f"/>
    </g>
    <path id="Path_8834" data-name="Path 8834" d="M109.588,1143.676c-.109-1.245,4.523-2.349,4-3.831s-3.472-.239-3.791-1.894c-.249-1.293,2.513-2.568,1.946-4.04-.554-1.437-2.912-1.487-2.927-4.431s-1.407-3.173-1.407-3.173h0s-1.417.049-1.942,2.958-2.866,2.658-3.663,4.008a1.164,1.164,0,0,0-.163.664,1.508,1.508,0,0,0,.039.271,3.12,3.12,0,0,0,.353.825q.04.069.081.138c.055.092.113.184.171.275l.088.137c.44.684.874,1.349.653,1.933-.245.648-.836.768-1.5.776-.36,0-.741-.024-1.1-.02a1.523,1.523,0,0,0-1.471.634c-.242.437.021.9.486,1.371.1.1.209.2.324.3.143.125.3.25.453.375l.255.2c.338.262.68.522.974.774l.041.036c.095.083.184.164.266.245l.007.006c.354.351.568.684.487.988-.126.476-.73.582-1.5.584-.61,0-1.324-.062-1.992-.059-1.336,0-2.483.271-2.225,1.842.289,1.764,3.3,2.358,4.424,6.37l-.078-.026c-4.443-1.4-4.669-4.75-6.475-5.226-3.269-.863-1.286,5.217-2.917,5.492-1.24.209-2.471-4.332-3.935-3.69s-.142,3.49-1.784,3.943c-1.283.354-2.633-2.3-4.087-1.619-1.419.67-1.4,3.031-4.341,3.284s-3.128,1.663-3.128,1.663h0s.089,1.412,3.007,1.7,2.733,2.651,4.1,3.338c1.4.7,2.944-1.935,4.2-1.565.754.222.819.962.822,1.753,0,.158,0,.319,0,.478,0,.74.059,1.444.679,1.734,1.417.661,2.975-3.863,4.2-3.638.554.1.631.884.629,1.833,0,.388-.014.8-.014,1.213,0,1.5.189,2.9,1.906,2.481,1.84-.453,2.306-3.795,6.848-5.141a7.959,7.959,0,0,0,1.687-.708,3.486,3.486,0,0,0,.805,1.222,3.8,3.8,0,0,0,5.282-.052,3.714,3.714,0,0,0,1.1-2.126l0,.01c0-.024.006-.047.009-.071s.008-.062.012-.094q.014-.137.019-.273c0-.03,0-.059,0-.089,0-.088,0-.177-.008-.265,0-.023,0-.046-.006-.069-.008-.086-.019-.173-.033-.259,0-.025-.008-.051-.013-.075-.018-.094-.039-.187-.065-.279-.007-.025-.014-.049-.021-.074-.028-.094-.059-.187-.1-.279-.006-.016-.013-.031-.02-.047q-.054-.132-.12-.261c-.007-.013-.012-.026-.019-.039-.048-.091-.1-.18-.158-.268l-.035-.053q-.087-.129-.187-.253l-.036-.042c-.072-.085-.147-.169-.228-.249a3.592,3.592,0,0,0-.39-.328,7.754,7.754,0,0,0,1.035-1.853c1.76-4.4,5.118-4.535,5.739-6.328C115.959,1143.5,109.731,1145.314,109.588,1143.676Z" transform="translate(-373.23 -356.809)" fill="#c97f34" opacity="0.2" style="mix-blend-mode: multiply;isolation: isolate"/>
    <g id="Group_5312" data-name="Group 5312" transform="translate(-297.229 768.63)">
      <g id="Group_5281" data-name="Group 5281" transform="translate(0 20.297)">
        <g id="Group_5280" data-name="Group 5280">
          <g id="Group_5270" data-name="Group 5270">
            <path id="Path_8835" data-name="Path 8835" d="M102.284,1258.764c-1.224-.225-2.781,4.3-4.2,3.638s.109-3.49-1.5-3.964c-1.257-.37-2.8,2.27-4.2,1.566-1.37-.687-1.184-3.048-4.1-3.338s-3.007-1.7-3.007-1.7.19-1.41,3.128-1.663,2.922-2.614,4.341-3.284c1.454-.686,2.8,1.972,4.087,1.619,1.642-.453.32-3.3,1.785-3.943s2.7,3.9,3.935,3.69c1.631-.275-.352-6.354,2.917-5.492,1.806.476,2.032,3.823,6.475,5.226,3.784,1.2,4.038,4.043,4.038,4.043s-.459,2.844-4.328,3.99c-4.542,1.346-5.009,4.688-6.848,5.141C101.475,1265.111,103.895,1259.06,102.284,1258.764Z" transform="translate(-85.275 -1245.806)" fill="#35b676"/>
          </g>
          <g id="Group_5271" data-name="Group 5271" transform="translate(0 9.157)">
            <path id="Path_8836" data-name="Path 8836" d="M102.284,1305.927c-1.224-.225-2.781,4.3-4.2,3.638s.109-3.49-1.5-3.964c-1.257-.37-2.8,2.27-4.2,1.566-1.37-.688-1.184-3.048-4.1-3.338s-3.007-1.7-3.007-1.7l30.706.2s-.459,2.843-4.328,3.99c-4.542,1.346-5.009,4.688-6.848,5.141C101.475,1312.274,103.895,1306.223,102.284,1305.927Z" transform="translate(-85.275 -1302.126)" fill="#05925a"/>
          </g>
          <g id="Group_5272" data-name="Group 5272" transform="translate(6.172 8.789)">
            <path id="Path_8837" data-name="Path 8837" d="M145.447,1300.788a.425.425,0,0,0,.263-.373.4.4,0,0,0-.405-.413l-21.635-.139a.43.43,0,0,0-.435.408.4.4,0,0,0,.405.413l21.635.139A.437.437,0,0,0,145.447,1300.788Z" transform="translate(-123.234 -1299.863)" fill="#0f7241"/>
          </g>
          <g id="Group_5273" data-name="Group 5273" transform="translate(2.663 8.766)">
            <path id="Path_8838" data-name="Path 8838" d="M103.6,1300.519a.426.426,0,0,0,.263-.373.4.4,0,0,0-.405-.413l-1.371-.009a.431.431,0,0,0-.435.408.4.4,0,0,0,.405.413l1.371.009A.435.435,0,0,0,103.6,1300.519Z" transform="translate(-101.652 -1299.724)" fill="#0f7241"/>
          </g>
          <g id="Group_5274" data-name="Group 5274" transform="translate(19.76 2.582)">
            <path id="Path_8839" data-name="Path 8839" d="M212.392,1268.8a.429.429,0,0,0,.251-.291.4.4,0,0,0-.309-.486c-3.8-.8-4.678-5.948-4.686-6a.406.406,0,0,0-.48-.328.425.425,0,0,0-.351.478c.037.234.966,5.743,5.318,6.653A.432.432,0,0,0,212.392,1268.8Z" transform="translate(-206.812 -1261.688)" fill="#0f7241"/>
          </g>
          <g id="Group_5275" data-name="Group 5275" transform="translate(19.307 8.908)">
            <path id="Path_8840" data-name="Path 8840" d="M204.6,1307.64a.428.428,0,0,0,.253-.3c.012-.052,1.256-5.191,5.116-5.937a.424.424,0,0,0,.344-.482.406.406,0,0,0-.485-.322c-4.415.854-5.74,6.348-5.795,6.582a.4.4,0,0,0,.316.482A.43.43,0,0,0,204.6,1307.64Z" transform="translate(-204.024 -1300.595)" fill="#0f7241"/>
          </g>
          <g id="Group_5276" data-name="Group 5276" transform="translate(13.743 4.89)">
            <path id="Path_8841" data-name="Path 8841" d="M173.487,1280.634a.43.43,0,0,0,.249-.281.4.4,0,0,0-.3-.494c-2.447-.571-2.8-3.592-2.8-3.623a.4.4,0,0,0-.461-.353.427.427,0,0,0-.375.459c.015.147.409,3.611,3.421,4.314A.431.431,0,0,0,173.487,1280.634Z" transform="translate(-169.799 -1275.88)" fill="#0f7241"/>
          </g>
          <g id="Group_5277" data-name="Group 5277" transform="translate(13.458 8.857)">
            <path id="Path_8842" data-name="Path 8842" d="M168.627,1305a.429.429,0,0,0,.257-.317c.008-.045.582-3.047,3.061-3.584a.424.424,0,0,0,.333-.49.407.407,0,0,0-.492-.311c-3.062.664-3.7,4.122-3.73,4.268a.4.4,0,0,0,.343.464A.432.432,0,0,0,168.627,1305Z" transform="translate(-168.05 -1300.283)" fill="#0f7241"/>
          </g>
          <g id="Group_5278" data-name="Group 5278" transform="translate(7.634 6.902)">
            <path id="Path_8843" data-name="Path 8843" d="M134.6,1290.951a.429.429,0,0,0,.251-.29.4.4,0,0,0-.308-.487c-1.1-.234-1.48-1.606-1.484-1.62a.409.409,0,0,0-.512-.281.421.421,0,0,0-.3.507,3.121,3.121,0,0,0,2.1,2.2A.431.431,0,0,0,134.6,1290.951Z" transform="translate(-132.23 -1288.257)" fill="#0f7241"/>
          </g>
          <g id="Group_5279" data-name="Group 5279" transform="translate(7.498 8.81)">
            <path id="Path_8844" data-name="Path 8844" d="M131.967,1302.66a.429.429,0,0,0,.241-.256c.008-.023.493-1.385,1.6-1.6a.425.425,0,0,0,.343-.483.407.407,0,0,0-.485-.321,3.388,3.388,0,0,0-2.255,2.168.4.4,0,0,0,.266.511A.43.43,0,0,0,131.967,1302.66Z" transform="translate(-131.39 -1299.99)" fill="#0f7241"/>
          </g>
        </g>
      </g>
      <g id="Group_5293" data-name="Group 5293" transform="translate(22.286)">
        <g id="Group_5292" data-name="Group 5292">
          <g id="Group_5282" data-name="Group 5282">
            <path id="Path_8845" data-name="Path 8845" d="M228.1,1137.865c.323-1.217-4.066-2.9-3.292-4.3s3.475.206,4.077-1.389c.471-1.247-2.04-2.86-1.224-4.244.8-1.35,3.138-1.1,3.663-4.008s1.942-2.959,1.942-2.959,1.392.229,1.408,3.173,2.374,2.994,2.927,4.431c.567,1.472-2.2,2.748-1.946,4.041.319,1.654,3.269.412,3.791,1.894s-4.109,2.586-4,3.831c.143,1.638,6.371-.175,5.246,3.069-.621,1.792-3.979,1.925-5.739,6.328-1.5,3.75-4.362,3.925-4.362,3.925s-2.8-.538-3.633-4.437c-.977-4.578-4.275-5.138-4.578-6.989C221.829,1136.879,227.673,1139.467,228.1,1137.865Z" transform="translate(-222.343 -1120.967)" fill="#35b676"/>
          </g>
          <g id="Group_5283" data-name="Group 5283">
            <path id="Path_8846" data-name="Path 8846" d="M228.1,1137.865c.323-1.217-4.066-2.9-3.292-4.3s3.475.206,4.077-1.389c.471-1.247-2.04-2.86-1.224-4.244.8-1.35,3.138-1.1,3.663-4.008s1.942-2.959,1.942-2.959l-2.674,30.69s-2.8-.538-3.633-4.437c-.977-4.578-4.275-5.138-4.578-6.989C221.829,1136.879,227.673,1139.467,228.1,1137.865Z" transform="translate(-222.343 -1120.967)" fill="#05925a"/>
          </g>
          <g id="Group_5284" data-name="Group 5284" transform="translate(8.054 6.168)">
            <path id="Path_8847" data-name="Path 8847" d="M271.9,1181.1a.4.4,0,0,0,.351.273.427.427,0,0,0,.445-.394l1.884-21.624a.4.4,0,0,0-.372-.446.427.427,0,0,0-.445.394l-1.884,21.624A.428.428,0,0,0,271.9,1181.1Z" transform="translate(-271.879 -1158.904)" fill="#0f7241"/>
          </g>
          <g id="Group_5285" data-name="Group 5285" transform="translate(10.125 2.661)">
            <path id="Path_8848" data-name="Path 8848" d="M284.636,1139.27a.4.4,0,0,0,.351.273.427.427,0,0,0,.445-.394l.119-1.37a.4.4,0,0,0-.372-.446.427.427,0,0,0-.445.394l-.12,1.37A.426.426,0,0,0,284.636,1139.27Z" transform="translate(-284.614 -1137.333)" fill="#0f7241"/>
          </g>
          <g id="Group_5286" data-name="Group 5286" transform="translate(8.319 19.925)">
            <path id="Path_8849" data-name="Path 8849" d="M273.531,1248.907a.4.4,0,0,0,.27.259.42.42,0,0,0,.511-.3c1.1-3.781,6.314-4.511,6.366-4.518a.432.432,0,0,0,.367-.47.4.4,0,0,0-.449-.364c-.237.031-5.81.806-7.069,5.132A.427.427,0,0,0,273.531,1248.907Z" transform="translate(-273.509 -1243.516)" fill="#0f7241"/>
          </g>
          <g id="Group_5287" data-name="Group 5287" transform="translate(2.512 19.122)">
            <path id="Path_8850" data-name="Path 8850" d="M237.817,1239.143a.4.4,0,0,0,.275.261c.051.014,5.08,1.4,5.513,5.279a.4.4,0,0,0,.454.358.432.432,0,0,0,.361-.475c-.5-4.438-5.873-5.915-6.1-5.976a.42.42,0,0,0-.507.3A.429.429,0,0,0,237.817,1239.143Z" transform="translate(-237.795 -1238.576)" fill="#0f7241"/>
          </g>
          <g id="Group_5288" data-name="Group 5288" transform="translate(9.008 13.845)">
            <path id="Path_8851" data-name="Path 8851" d="M277.768,1209.687a.4.4,0,0,0,.261.256.419.419,0,0,0,.517-.283c.767-2.431,3.811-2.7,3.842-2.7a.431.431,0,0,0,.389-.451.4.4,0,0,0-.428-.388c-.148.011-3.638.308-4.582,3.3A.428.428,0,0,0,277.768,1209.687Z" transform="translate(-277.746 -1206.12)" fill="#0f7241"/>
          </g>
          <g id="Group_5289" data-name="Group 5289" transform="translate(5.363 13.341)">
            <path id="Path_8852" data-name="Path 8852" d="M255.351,1203.588a.4.4,0,0,0,.3.266c.044.01,2.994.667,3.331,3.16a.4.4,0,0,0,.462.346.432.432,0,0,0,.35-.483c-.416-3.079-3.815-3.818-3.959-3.847a.422.422,0,0,0-.491.33A.427.427,0,0,0,255.351,1203.588Z" transform="translate(-255.329 -1203.021)" fill="#0f7241"/>
          </g>
          <g id="Group_5290" data-name="Group 5290" transform="translate(9.655 7.683)">
            <path id="Path_8853" data-name="Path 8853" d="M281.748,1170.524a.4.4,0,0,0,.269.259.42.42,0,0,0,.511-.294c.322-1.1,1.723-1.435,1.737-1.438a.433.433,0,0,0,.321-.5.4.4,0,0,0-.482-.316,3.351,3.351,0,0,0-2.36,2.036A.428.428,0,0,0,281.748,1170.524Z" transform="translate(-281.726 -1168.219)" fill="#0f7241"/>
          </g>
          <g id="Group_5291" data-name="Group 5291" transform="translate(7.93 7.441)">
            <path id="Path_8854" data-name="Path 8854" d="M271.139,1167.3a.4.4,0,0,0,.237.248c.022.009,1.343.531,1.469,1.644a.4.4,0,0,0,.455.356.432.432,0,0,0,.36-.476,3.15,3.15,0,0,0-1.981-2.314.417.417,0,0,0-.532.251A.431.431,0,0,0,271.139,1167.3Z" transform="translate(-271.117 -1166.731)" fill="#0f7241"/>
          </g>
        </g>
      </g>
      <g id="Group_5299" data-name="Group 5299" transform="translate(21.37 25.505)">
        <g id="Group_5294" data-name="Group 5294" transform="translate(0 0)">
          <ellipse id="Ellipse_119" data-name="Ellipse 119" cx="3.539" cy="3.409" rx="3.539" ry="3.409" transform="translate(0 2.983) rotate(-24.927)" fill="#ed2238"/>
        </g>
        <g id="Group_5295" data-name="Group 5295" transform="translate(1.498 2.683)">
          <path id="Path_8855" data-name="Path 8855" d="M230.941,1297.049a2.59,2.59,0,0,1-2.824,2.195,2.389,2.389,0,0,1-2.169-2.694,2.59,2.59,0,0,1,2.823-2.2A2.39,2.39,0,0,1,230.941,1297.049Z" transform="translate(-225.927 -1294.341)" fill="#ed3c4e"/>
        </g>
        <g id="Group_5296" data-name="Group 5296" transform="translate(2.161 1.15)">
          <path id="Path_8856" data-name="Path 8856" d="M234.253,1291.264a3.5,3.5,0,0,0,1-2.009,3.338,3.338,0,0,0-3.029-3.764,3.632,3.632,0,0,0-2.219.5,3.65,3.65,0,0,1,2.942-1.057,3.338,3.338,0,0,1,3.029,3.764A3.55,3.55,0,0,1,234.253,1291.264Z" transform="translate(-230.006 -1284.912)" fill="#c4202f"/>
        </g>
        <g id="Group_5297" data-name="Group 5297" transform="translate(2.621 5.067)" opacity="0.8">
          <path id="Path_8857" data-name="Path 8857" d="M235.414,1310.4a1.334,1.334,0,0,1-1.454,1.13,1.231,1.231,0,0,1-1.117-1.388,1.334,1.334,0,0,1,1.454-1.13A1.23,1.23,0,0,1,235.414,1310.4Z" transform="translate(-232.833 -1309.004)" fill="#f7f9fc"/>
        </g>
        <g id="Group_5298" data-name="Group 5298" transform="translate(1.694 3.775)" opacity="0.8">
          <path id="Path_8858" data-name="Path 8858" d="M228.567,1301.829a.741.741,0,0,1-.808.628.684.684,0,0,1-.621-.771.741.741,0,0,1,.808-.628A.684.684,0,0,1,228.567,1301.829Z" transform="translate(-227.132 -1301.055)" fill="#f7f9fc"/>
        </g>
      </g>
      <g id="Group_5305" data-name="Group 5305" transform="translate(26.444 22.036)">
        <g id="Group_5300" data-name="Group 5300" transform="translate(0 0)">
          <ellipse id="Ellipse_120" data-name="Ellipse 120" cx="3.118" cy="3.004" rx="3.118" ry="3.004" transform="translate(0 2.629) rotate(-24.93)" fill="#ed2238"/>
        </g>
        <g id="Group_5301" data-name="Group 5301" transform="translate(2.234 1.232)">
          <path id="Path_8859" data-name="Path 8859" d="M264.629,1268.261a2.208,2.208,0,0,0,1.341-2.8,2.177,2.177,0,0,0-2.836-1.229,2.207,2.207,0,0,0-1.341,2.8A2.177,2.177,0,0,0,264.629,1268.261Z" transform="translate(-261.663 -1264.079)" fill="#ed3c4e"/>
        </g>
        <g id="Group_5302" data-name="Group 5302" transform="translate(0.995 2.476)">
          <path id="Path_8860" data-name="Path 8860" d="M260.087,1274.135a3.2,3.2,0,0,1-1.561,1.255,3.041,3.041,0,0,1-3.961-1.717,2.937,2.937,0,0,1-.031-1.945,2.982,2.982,0,0,0-.312,2.662,3.041,3.041,0,0,0,3.961,1.717A3.174,3.174,0,0,0,260.087,1274.135Z" transform="translate(-254.04 -1271.728)" fill="#c4202f"/>
        </g>
        <g id="Group_5303" data-name="Group 5303" transform="translate(2.04 3.498)" opacity="0.8">
          <path id="Path_8861" data-name="Path 8861" d="M261.295,1280.212a1.18,1.18,0,0,0,1.415-.8,1.08,1.08,0,0,0-.78-1.359,1.18,1.18,0,0,0-1.415.8A1.08,1.08,0,0,0,261.295,1280.212Z" transform="translate(-260.47 -1278.017)" fill="#f7f9fc"/>
        </g>
        <g id="Group_5304" data-name="Group 5304" transform="translate(1.791 2.003)" opacity="0.8">
          <path id="Path_8862" data-name="Path 8862" d="M259.393,1270.041a.656.656,0,0,0,.786-.444.6.6,0,0,0-.433-.755.656.656,0,0,0-.786.444A.6.6,0,0,0,259.393,1270.041Z" transform="translate(-258.935 -1268.821)" fill="#f7f9fc"/>
        </g>
      </g>
      <g id="Group_5311" data-name="Group 5311" transform="translate(26.625 26.682)">
        <g id="Group_5306" data-name="Group 5306" transform="translate(0 0)">
          <ellipse id="Ellipse_121" data-name="Ellipse 121" cx="3.759" cy="3.621" rx="3.759" ry="3.621" transform="translate(0 3.169) rotate(-24.928)" fill="#ed2238"/>
        </g>
        <g id="Group_5307" data-name="Group 5307" transform="translate(1.444 2.251)">
          <ellipse id="Ellipse_122" data-name="Ellipse 122" cx="2.691" cy="2.593" rx="2.691" ry="2.593" transform="matrix(0.907, -0.421, 0.421, 0.907, 0, 2.269)" fill="#ed3c4e"/>
        </g>
        <g id="Group_5308" data-name="Group 5308" transform="translate(1.201 1.222)">
          <path id="Path_8863" data-name="Path 8863" d="M263.847,1296.675a3.48,3.48,0,0,0-1.022-2.1,3.8,3.8,0,0,0-5.282.052,3.719,3.719,0,0,0-1.1,2.116,3.678,3.678,0,0,1,1.12-3.061,3.8,3.8,0,0,1,5.282-.052A3.5,3.5,0,0,1,263.847,1296.675Z" transform="translate(-256.419 -1292.593)" fill="#c4202f"/>
        </g>
        <g id="Group_5309" data-name="Group 5309" transform="translate(4.547 5.233)" opacity="0.8">
          <path id="Path_8864" data-name="Path 8864" d="M279.368,1317.646a1.322,1.322,0,0,1-.036,1.9,1.4,1.4,0,0,1-1.947.019,1.322,1.322,0,0,1,.036-1.9A1.4,1.4,0,0,1,279.368,1317.646Z" transform="translate(-276.999 -1317.262)" fill="#f7f9fc"/>
        </g>
        <g id="Group_5310" data-name="Group 5310" transform="translate(2.549 5.864)" opacity="0.8">
          <path id="Path_8865" data-name="Path 8865" d="M266.027,1321.356a.735.735,0,0,1-.02,1.056.779.779,0,0,1-1.082.011.735.735,0,0,1,.02-1.056A.778.778,0,0,1,266.027,1321.356Z" transform="translate(-264.711 -1321.142)" fill="#f7f9fc"/>
        </g>
      </g>
    </g>
  </g>
</svg>
