<svg xmlns="http://www.w3.org/2000/svg" width="110.666" height="97.325" viewBox="0 0 110.666 97.325">
  <g id="Group_399" data-name="Group 399" transform="translate(-185.334 -57.439)">
    <g id="Layer_2" data-name="Layer 2" transform="translate(230.573 92.638)">
      <g id="Layer_1" data-name="Layer 1">
        <path id="Path_1" data-name="Path 1" d="M27.218,0V9.562L8.047,25.53,3.29,20.725Z" transform="translate(12.678)" fill="#002b5a"/>
        <path id="Path_2" data-name="Path 2" d="M0,6.775v9.61L22.327,35.508,52.661,8.377,46.3,3.62,22.327,24.345Z" transform="translate(0 13.95)" fill="#002b5a"/>
        <path id="Path_3" data-name="Path 3" d="M45.157,5.26v10l-31.6,26.6-8.3-6.649V26.858l8.3,6.649Z" transform="translate(20.27 20.27)" fill="#002b5a"/>
      </g>
    </g>
    <g id="Group_394" data-name="Group 394" transform="matrix(0.848, -0.53, 0.53, 0.848, 183.797, 91.942)">
      <g id="Group_393" data-name="Group 393">
        <path id="Path_1699" data-name="Path 1699" d="M.211,40.848a2.77,2.77,0,0,1,.234-.41,3.551,3.551,0,0,1,.886-.886s-.218.108-.358-.014a.275.275,0,0,1-.073-.1.889.889,0,0,1-.033-.439A1.069,1.069,0,0,1,.9,38.834c0-.018.013-.038.019-.058.012-.037.023-.074.038-.112s.022-.049.033-.073.029-.069.047-.1.03-.056.046-.083.035-.067.056-.1.038-.061.058-.091.041-.065.063-.1.046-.066.07-.1.044-.063.068-.094.057-.073.085-.109l.067-.086.1-.118.066-.078c.038-.043.077-.086.116-.129l.059-.066c.043-.047.088-.093.132-.139l.051-.053c.05-.051.1-.1.152-.152l.037-.036.165-.158.03-.028c.059-.055.118-.109.178-.162l.018-.016c.062-.056.124-.109.185-.162l.012-.01q.1-.082.19-.16l.005,0c.079-.065.158-.129.235-.189a7.556,7.556,0,0,1,3.151-1,2.974,2.974,0,0,1,1.847.171l.045-.053c.051-.06.1-.123.154-.191l.065-.086q.088-.118.18-.249l.043-.061a18.953,18.953,0,0,0,1.025-1.733C14.041,24.9,21.087,3.84,30.219.742,40.929-2.892,49.849,8,49.85,8c2.712,1.652,5.6,4.118,10.205,6.8,5.441,3.176,6.086,8.807,5.9,12.255-.006.109-.013.217-.02.321,0,.052-.007.1-.012.153-.008.1-.016.193-.025.286l-.013.135c-.011.1-.022.2-.033.3-.005.045-.011.089-.016.133-.01.076-.019.149-.029.22l-.014.106c-.014.094-.027.182-.041.267-.006.038-.012.073-.017.108l-.009.05a1.709,1.709,0,0,1,1.789,1.064,4.821,4.821,0,0,1,.192,4.1,1.4,1.4,0,0,0,.048,1.066,4.28,4.28,0,0,0,.271.567l0,.008a24.038,24.038,0,0,1,1.5,2.555c.006.015.012.029.017.044.026.066.049.132.07.2.007.02.013.04.019.06.019.062.035.125.05.187,0,.02.01.04.014.06.015.07.026.14.034.209,0,.011,0,.022,0,.032a2.106,2.106,0,0,1,.011.246c0,.008,0,.015,0,.023a1.744,1.744,0,0,1-.019.212c0,.023-.009.046-.013.069a1.679,1.679,0,0,1-.04.167c-.008.027-.016.053-.026.079-.018.053-.04.105-.063.158-.012.026-.023.052-.037.078-.029.057-.063.113-.1.169-.013.02-.024.041-.038.061a2.414,2.414,0,0,1-.179.228c-.007.008-.016.015-.024.024-.061.067-.127.133-.2.2-.027.024-.056.047-.085.072-.059.049-.12.1-.186.148l-.114.081c-.067.046-.138.092-.212.138-.043.027-.085.053-.13.079-.083.049-.172.1-.264.145-.043.022-.083.045-.128.067-.139.069-.286.138-.444.205q-1.111.323-2.206.611A89.492,89.492,0,0,1,52.79,44.921q-1.952.227-3.812.358c-1.858.132-3.644.2-5.349.208-11.366.068-19.141-2.312-20.935-3.545a5.763,5.763,0,0,1-.485-.37,4.168,4.168,0,0,1-.384-.373,2.9,2.9,0,0,1-.5-.755,2.455,2.455,0,0,1-.192-.715,2.886,2.886,0,0,1-.021-.453,7.614,7.614,0,0,1,.509-2.1c.1-.3.207-.6.305-.91s.189-.631.261-.961c.026-.118.047-.242.068-.369,0-.029.009-.057.014-.086.018-.123.035-.249.05-.38,0-.03.007-.06.01-.091q.017-.162.032-.332c0-.041.007-.08.011-.121.01-.118.019-.238.028-.36.03-.433.056-.881.088-1.323-1.033.8-2.061,1.585-3.055,2.328q-.507.379-1,.744c-.823.606-1.612,1.175-2.351,1.691q-.442.31-.86.592l-.409.275a25.819,25.819,0,0,1-2.393,1.448c-.1.054-.2.1-.3.146a13.709,13.709,0,0,1,.283,1.474c0,.013,0,.022,0,.035h0c.009.07.008.129.014.2.016.17.033.341.035.494,0,.042,0,.075,0,.115,0,.168,0,.333-.018.479,0,.011,0,.018,0,.028a3.022,3.022,0,0,1-.494,1.5l-.023.029.206-.165.258-.206a3.368,3.368,0,0,1,.026.412,4.816,4.816,0,0,1-.055.765A4.163,4.163,0,0,1,12,45.795c-.051.106-.107.211-.17.316A3.462,3.462,0,0,1,10.7,47.253a3.86,3.86,0,0,1-2.013.659,3.011,3.011,0,0,1-1.107-.183,2.046,2.046,0,0,1-.407-.2l.556.557a3.1,3.1,0,0,1-1.78.25,6.356,6.356,0,0,1-.818-.147q-.208-.051-.417-.114c-.279-.084-.557-.184-.83-.294s-.542-.232-.8-.36a11.221,11.221,0,0,1-1.076-.61c-.108-.07-.212-.14-.31-.209a2.015,2.015,0,0,1-.267-.226,2.95,2.95,0,0,1-.628-2.391A5.823,5.823,0,0,1,1.054,42.8a3.761,3.761,0,0,0-.743.928L.033,42.15a2.111,2.111,0,0,1,.017-.826A2.283,2.283,0,0,1,.211,40.848Z" transform="translate(0 2.901)" fill="#32363d" opacity="0.2" style="mix-blend-mode: soft-light;isolation: isolate"/>
        <g id="Group_380" data-name="Group 380" transform="translate(2.417 0)">
          <g id="Group_379" data-name="Group 379">
            <path id="Path_1712" data-name="Path 1712" d="M42.294,8S33.373-2.892,22.663.742,4.111,32.721.286,35.666c-.957,1.365.571,4.093,3.346,4.093s23.813-17.6,23.813-17.6Z" transform="translate(7.556)" fill="#d22129"/>
            <path id="Path_1713" data-name="Path 1713" d="M2.236,24.1a7.932,7.932,0,0,0,4.648.774c1.722-.573.574-4.016,1.434-4.3,4.59-2.582,6.6-5.738,8.033-10.615C18.36,1.058,29.835-.663,38.155.2a14.121,14.121,0,0,1,2.673.435L27.444,13.395S6.406,30.99,3.631,30.99-.671,28.262.286,26.9A9.473,9.473,0,0,0,2.236,24.1Z" transform="translate(7.556 8.769)" fill="#bf1d29"/>
            <path id="Path_1714" data-name="Path 1714" d="M6.432.079a7.556,7.556,0,0,0-3.151,1C2.26,1.871.961,3.17.868,4.006s.464.556.464.556a2.844,2.844,0,0,0-1.3,2.6L.311,8.738a3.76,3.76,0,0,1,.743-.928s-.928,2.691.649,3.8,4.454,2.32,6.032,1.485l-.556-.557a3.234,3.234,0,0,0,3.526-.278,4.033,4.033,0,0,0,1.67-3.8l-.464.371A3.762,3.762,0,0,0,12.4,5.954,21.291,21.291,0,0,0,11.14,1.446l-.031,1.2S8.923-.535,6.432.079Z" transform="translate(0 34.989)" fill="#fff"/>
            <path id="Path_1715" data-name="Path 1715" d="M9.776,7.587a3.968,3.968,0,0,1-5.313-2.08c.045.411-.358.988.276,1.3C1.913,5.87,2.65,2.636,3.237,0,2.223.8.96,2.073.868,2.9s.464.556.464.556a2.843,2.843,0,0,0-1.3,2.6L.311,7.628A3.759,3.759,0,0,1,1.054,6.7S.126,9.391,1.7,10.5s4.454,2.32,6.032,1.485l-.556-.557a3.235,3.235,0,0,0,3.526-.278,4.033,4.033,0,0,0,1.67-3.8l-.464.371A3.746,3.746,0,0,0,12.4,4.878a5.009,5.009,0,0,1-2.628.771C11.714,6.424,9,6.812,9.776,7.587Z" transform="translate(0 36.099)" fill="#eae9d8"/>
          </g>
          <path id="Path_1716" data-name="Path 1716" d="M41.245,24.113S43.977,13.7,35.753,8.9,24.762,0,18.731,0,3.622,4.8,1.709,11.334-.395,24.223.562,26.689,37.557,33.224,41.245,24.113Z" transform="translate(24.302 5.906)" fill="#d22129"/>
          <path id="Path_1717" data-name="Path 1717" d="M7.385.014C8.54-.222,8.763,2.553,8.5,3.874,7.351,8.463,3.048,13.628,7.638,16.5c10.149,5.875,23.031,5.036,34.02.5a16.46,16.46,0,0,1-.413,3.058C37.557,29.161,1.518,25.091.562,22.625S-.2,13.807,1.709,7.27A14.407,14.407,0,0,1,7.385.014Z" transform="translate(24.302 9.97)" fill="#bf1d29"/>
          <path id="Path_1718" data-name="Path 1718" d="M46.4,1.638A1.712,1.712,0,0,0,44.439.6C39.03,1.824,18.994,5.741,4.233.264.79-1.246,1.651,4.1,1.077,6.735s-2.36,4.663.509,6.635,21.052,6.882,44.755,0c5.451-2.331-.6-5.626.256-7.635A4.821,4.821,0,0,0,46.4,1.638Z" transform="translate(21.109 28.573)" fill="#fff"/>
          <path id="Path_1719" data-name="Path 1719" d="M.648,0C.429.055.214.117,0,.181.028.072.194,0,.648,0Z" transform="translate(61.32 38.185)" fill="#eae9d8"/>
          <path id="Path_1720" data-name="Path 1720" d="M2.118.056A6.444,6.444,0,0,1,0,.883,2.1,2.1,0,0,1,2.118.056Z" transform="translate(50.508 39.566)" fill="#eae9d8"/>
          <path id="Path_1721" data-name="Path 1721" d="M1.077,6.616C1.534,4.52,1.084.709,2.616,0,2.272,3.758,5.806,6.113,7.8,8.775c-1.437.718-3.234.359-4.671.359,2.156,6.827,10.061,2.875,15.091,4.312a1.867,1.867,0,0,1-1.437.718c1.8,0,3.952.718,5.749-.718,2.186-1.64,4.58-1.2,6.865-1.688a4.092,4.092,0,0,0-.757,1.329c4.434.682,7.574-2.2,11.569-3.412-.06.237.535.651.289.9a3.031,3.031,0,0,0,2.515-.719A28.549,28.549,0,0,1,46.645,6.68c.748,1.984,4.268,4.616-.3,6.571-23.7,6.882-41.886,1.973-44.755,0S.5,9.25,1.077,6.616Z" transform="translate(21.109 28.692)" fill="#eae9d8"/>
          <path id="Path_1722" data-name="Path 1722" d="M3.852.249s11.529,6.88,5.732,10.736S-5.2-2.241,3.852.249Z" transform="translate(45.957 9.687)" fill="#fff" opacity="0.2" style="mix-blend-mode: soft-light;isolation: isolate"/>
        </g>
      </g>
    </g>
  </g>
</svg>
