<svg xmlns="http://www.w3.org/2000/svg" width="14.382" height="198.487" viewBox="0 0 14.382 198.487">
  <g id="Group_2738" data-name="Group 2738" transform="translate(0 -38)">
    <path id="Path_2681" data-name="Path 2681" d="M357.289,1201.855l.707,1.293a9.824,9.824,0,0,0,3.909,3.91l1.293.708a.918.918,0,0,1,0,1.61l-1.293.707a9.833,9.833,0,0,0-3.909,3.911l-.707,1.293a.918.918,0,0,1-1.61,0l-.707-1.293a9.833,9.833,0,0,0-3.909-3.911l-1.292-.707a.917.917,0,0,1,0-1.61l1.292-.708a9.824,9.824,0,0,0,3.909-3.91l.707-1.293A.918.918,0,0,1,357.289,1201.855Z" transform="translate(-349.293 -1028.659)" fill="#fdf4e9"/>
    <path id="Path_2682" data-name="Path 2682" d="M357.289,1149.871l.707,1.293a9.837,9.837,0,0,0,3.909,3.91l1.293.707a.919.919,0,0,1,0,1.611l-1.293.707a9.837,9.837,0,0,0-3.909,3.91l-.707,1.293a.917.917,0,0,1-1.61,0l-.707-1.293a9.836,9.836,0,0,0-3.909-3.91l-1.292-.707a.918.918,0,0,1,0-1.611l1.292-.707a9.836,9.836,0,0,0,3.909-3.91l.707-1.293A.917.917,0,0,1,357.289,1149.871Z" transform="translate(-349.293 -1028.659)" fill="#fdf4e9"/>
    <path id="Path_2683" data-name="Path 2683" d="M357.289,1128.027l.707,1.293a9.824,9.824,0,0,0,3.909,3.91l1.293.707a.919.919,0,0,1,0,1.611l-1.293.707a9.833,9.833,0,0,0-3.909,3.911l-.707,1.292a.917.917,0,0,1-1.61,0l-.707-1.292a9.833,9.833,0,0,0-3.909-3.911l-1.292-.707a.918.918,0,0,1,0-1.611l1.292-.707a9.824,9.824,0,0,0,3.909-3.91l.707-1.293A.917.917,0,0,1,357.289,1128.027Z" transform="translate(-349.293 -1028.659)" fill="#fdf4e9"/>
    <path id="Path_2684" data-name="Path 2684" d="M357.289,1088l.707,1.293a9.824,9.824,0,0,0,3.909,3.91l1.293.707a.919.919,0,0,1,0,1.611l-1.293.707A9.833,9.833,0,0,0,358,1100.14l-.707,1.292a.917.917,0,0,1-1.61,0l-.707-1.292a9.833,9.833,0,0,0-3.909-3.911l-1.292-.707a.918.918,0,0,1,0-1.611l1.292-.707a9.824,9.824,0,0,0,3.909-3.91l.707-1.293A.917.917,0,0,1,357.289,1088Z" transform="translate(-349.293 -1028.659)" fill="#fdf4e9"/>
    <path id="Path_2685" data-name="Path 2685" d="M357.289,1225.892l.707,1.293a9.824,9.824,0,0,0,3.909,3.91l1.293.708a.918.918,0,0,1,0,1.61l-1.293.707a9.833,9.833,0,0,0-3.909,3.911l-.707,1.293a.918.918,0,0,1-1.61,0l-.707-1.293a9.833,9.833,0,0,0-3.909-3.911l-1.292-.707a.917.917,0,0,1,0-1.61l1.292-.708a9.824,9.824,0,0,0,3.909-3.91l.707-1.293A.918.918,0,0,1,357.289,1225.892Z" transform="translate(-349.293 -1028.659)" fill="#fdf4e9"/>
    <path id="Path_2686" data-name="Path 2686" d="M357.289,1251.237l.707,1.293a9.834,9.834,0,0,0,3.909,3.911l1.293.707a.918.918,0,0,1,0,1.61l-1.293.707a9.834,9.834,0,0,0-3.909,3.911l-.707,1.293a.918.918,0,0,1-1.61,0l-.707-1.293a9.833,9.833,0,0,0-3.909-3.911l-1.292-.707a.917.917,0,0,1,0-1.61l1.292-.707a9.833,9.833,0,0,0,3.909-3.911l.707-1.293A.918.918,0,0,1,357.289,1251.237Z" transform="translate(-349.293 -1028.659)" fill="#fdf4e9"/>
    <g id="Group_2737" data-name="Group 2737" transform="translate(6.648)">
      <rect id="Rectangle_208" data-name="Rectangle 208" width="0.82" height="189.889" transform="translate(0.082 38)" fill="#fdf4e9"/>
    </g>
  </g>
</svg>
