<svg xmlns="http://www.w3.org/2000/svg" width="14.382" height="226.273" viewBox="0 0 14.382 226.273">
  <g id="Group_2734" data-name="Group 2734" transform="translate(0 -38)">
    <path id="Path_2669" data-name="Path 2669" d="M898.934,1229.641l.707,1.293a9.825,9.825,0,0,0,3.909,3.91l1.292.708a.917.917,0,0,1,0,1.61l-1.292.707a9.833,9.833,0,0,0-3.909,3.911l-.707,1.293a.918.918,0,0,1-1.61,0l-.707-1.293a9.84,9.84,0,0,0-3.909-3.911l-1.293-.707a.918.918,0,0,1,0-1.61l1.293-.708a9.831,9.831,0,0,0,3.909-3.91l.707-1.293A.918.918,0,0,1,898.934,1229.641Z" transform="translate(-890.938 -1028.659)" fill="#fdf4e9"/>
    <path id="Path_2670" data-name="Path 2670" d="M898.934,1177.657l.707,1.293a9.837,9.837,0,0,0,3.909,3.91l1.292.707a.918.918,0,0,1,0,1.611l-1.292.707a9.837,9.837,0,0,0-3.909,3.91l-.707,1.293a.917.917,0,0,1-1.61,0l-.707-1.293a9.843,9.843,0,0,0-3.909-3.91l-1.293-.707a.919.919,0,0,1,0-1.611l1.293-.707a9.843,9.843,0,0,0,3.909-3.91l.707-1.293A.917.917,0,0,1,898.934,1177.657Z" transform="translate(-890.938 -1028.659)" fill="#fdf4e9"/>
    <path id="Path_2671" data-name="Path 2671" d="M898.934,1155.813l.707,1.293a9.825,9.825,0,0,0,3.909,3.91l1.292.707a.918.918,0,0,1,0,1.611l-1.292.707a9.833,9.833,0,0,0-3.909,3.911l-.707,1.293a.918.918,0,0,1-1.61,0l-.707-1.293a9.84,9.84,0,0,0-3.909-3.911l-1.293-.707a.919.919,0,0,1,0-1.611l1.293-.707a9.831,9.831,0,0,0,3.909-3.91l.707-1.293A.918.918,0,0,1,898.934,1155.813Z" transform="translate(-890.938 -1028.659)" fill="#fdf4e9"/>
    <path id="Path_2672" data-name="Path 2672" d="M898.934,1115.787l.707,1.293a9.825,9.825,0,0,0,3.909,3.91l1.292.707a.918.918,0,0,1,0,1.611l-1.292.707a9.833,9.833,0,0,0-3.909,3.911l-.707,1.293a.918.918,0,0,1-1.61,0l-.707-1.293a9.84,9.84,0,0,0-3.909-3.911l-1.293-.707a.919.919,0,0,1,0-1.611l1.293-.707a9.831,9.831,0,0,0,3.909-3.91l.707-1.293A.918.918,0,0,1,898.934,1115.787Z" transform="translate(-890.938 -1028.659)" fill="#fdf4e9"/>
    <path id="Path_2673" data-name="Path 2673" d="M898.934,1253.678l.707,1.293a9.833,9.833,0,0,0,3.909,3.911l1.292.707a.917.917,0,0,1,0,1.61l-1.292.707a9.833,9.833,0,0,0-3.909,3.911l-.707,1.293a.918.918,0,0,1-1.61,0l-.707-1.293a9.84,9.84,0,0,0-3.909-3.911l-1.293-.707a.918.918,0,0,1,0-1.61l1.293-.707a9.84,9.84,0,0,0,3.909-3.911l.707-1.293A.918.918,0,0,1,898.934,1253.678Z" transform="translate(-890.938 -1028.659)" fill="#fdf4e9"/>
    <path id="Path_2674" data-name="Path 2674" d="M898.934,1279.023l.707,1.293a9.834,9.834,0,0,0,3.909,3.911l1.292.707a.917.917,0,0,1,0,1.61l-1.292.708a9.826,9.826,0,0,0-3.909,3.91l-.707,1.293a.918.918,0,0,1-1.61,0l-.707-1.293a9.832,9.832,0,0,0-3.909-3.91l-1.293-.708a.918.918,0,0,1,0-1.61l1.293-.707a9.84,9.84,0,0,0,3.909-3.911l.707-1.293A.918.918,0,0,1,898.934,1279.023Z" transform="translate(-890.938 -1028.659)" fill="#fdf4e9"/>
    <g id="Group_2733" data-name="Group 2733" transform="translate(6.648)">
      <rect id="Rectangle_206" data-name="Rectangle 206" width="0.838" height="217.675" transform="translate(0.073 38)" fill="#fdf4e9"/>
    </g>
  </g>
</svg>
