<svg xmlns="http://www.w3.org/2000/svg" xmlns:xlink="http://www.w3.org/1999/xlink" width="230.373" height="178.904" viewBox="0 0 230.373 178.904">
  <defs>
    <linearGradient id="linear-gradient" x1="-149.065" y1="78.789" x2="-149.1" y2="80.198" gradientUnits="objectBoundingBox">
      <stop offset="0" stop-color="#45871b"/>
      <stop offset="1" stop-color="#2a5210"/>
    </linearGradient>
  </defs>
  <g id="Group_4838" data-name="Group 4838" transform="translate(-611.05 -230)">
    <g id="Group_4780" data-name="Group 4780" transform="translate(611.05 230)">
      <g id="paper_plate_-_cutlery" data-name="paper plate - cutlery" transform="translate(0 0)">
        <g id="drop_shadow" data-name="drop shadow" transform="translate(22.831 1.469)" opacity="0.15" style="mix-blend-mode: multiply;isolation: isolate">
          <circle id="Ellipse_55" data-name="Ellipse 55" cx="74.364" cy="74.364" r="74.364" transform="translate(0 145.192) rotate(-77.479)"/>
          <path id="Path_7503" data-name="Path 7503" d="M216.1,193.152a53.274,53.274,0,1,1,20.8-4.2,53.1,53.1,0,0,1-20.8,4.2Zm0-104.11a50.68,50.68,0,1,0,50.68,50.68,50.737,50.737,0,0,0-50.68-50.68Z" transform="translate(-127.382 -51.004)"/>
        </g>
        <g id="color" transform="translate(0 0)">
          <g id="Group_4778" data-name="Group 4778" transform="translate(21.771)">
            <g id="paper_plate" data-name="paper plate" transform="translate(0)">
              <circle id="color-2" data-name="color" cx="74.364" cy="74.364" r="74.364" transform="translate(0 145.191) rotate(-77.478)" fill="#fff"/>
              <path id="border" d="M213.1,190.153a53.274,53.274,0,1,1,20.8-4.2,53.1,53.1,0,0,1-20.8,4.2Zm0-104.111a50.68,50.68,0,1,0,50.68,50.68,50.737,50.737,0,0,0-50.68-50.68Z" transform="translate(-124.381 -48.003)" fill="#f3f4f4"/>
            </g>
          </g>
          <g id="Group_4835" data-name="Group 4835" transform="translate(20.213 32.582) rotate(9)">
            <g id="Group_4836" data-name="Group 4836" transform="translate(0 0)">
              <path id="Path_7564" data-name="Path 7564" d="M21.192,129.2c6.4-.958-1.346-20.985-6.162-59.524-.207-1.657,3.091-4.737,2.164-10.93S9.629,8.187,8.641,1.581-1.86,9.7.325,34.169C2.125,54.338,5.6,68,9.937,70.2c0,0,2.255,15.071,3.475,23.226S15.721,130.014,21.192,129.2Z" fill="#f7f7f9"/>
              <path id="Path_7565" data-name="Path 7565" d="M8.624,69.671c-.207-1.657,3.091-4.737,2.164-10.93S3.224,8.186,2.235,1.58C1.971-.187,1.1-.427,0,.635H0S5.469,37.189,6.89,46.686,8.4,60.435,6.318,64.841s4.58,27.787,6.269,37.666S17.654,126.9,13.776,129h0a1.549,1.549,0,0,0,1.01.2C21.186,128.237,13.441,108.21,8.624,69.671Z" transform="translate(6.406 0.001)" fill="#a69d99" opacity="0.4"/>
              <g id="Group_4835-2" data-name="Group 4835" transform="translate(5.795 14.624)" opacity="0.4">
                <path id="Path_7566" data-name="Path 7566" d="M1.585.021A1.86,1.86,0,0,0,.021,2.136L3.038,22.3a1.86,1.86,0,1,0,3.68-.551L3.7,1.585A1.861,1.861,0,0,0,1.585.021Z" fill="#fff"/>
                <path id="Path_7567" data-name="Path 7567" d="M1.585.021A1.86,1.86,0,0,0,.021,2.136L.258,3.721a1.86,1.86,0,0,0,3.68-.551L3.7,1.585A1.86,1.86,0,0,0,1.585.021Z" transform="translate(3.985 26.632)" fill="#fff"/>
              </g>
            </g>
            <path id="Path_7568" data-name="Path 7568" d="M.325,25.861C2.125,46.03,5.6,59.688,9.937,61.888A299.068,299.068,0,0,1,4.163,32.463C2.1,18.675,2.568.125,2.577,0A68.211,68.211,0,0,0,.325,25.861Z" transform="translate(0 8.308)" fill="#fff" opacity="0.4"/>
          </g>
        </g>
        <g id="Group_4837" data-name="Group 4837" transform="matrix(0.985, -0.174, 0.174, 0.985, 175.584, 36.88)">
          <path id="Path_7560" data-name="Path 7560" d="M32.4,4.349c-2.134-.374-3.62,27.629-6.385,27.145S30.714,1.446,27.869.948,22.533,31.4,19.847,30.928,25.34.5,22.5.006s-5.88,29.84-8.646,29.355,5.358-27.325,3.225-27.7S7.221,34.051,7.58,37.25c.753,6.7,7.4,9.767,7.4,9.767S2.018,111.916.387,118.743s2.419,9.438,2.419,9.438,4.7-1.078,5.484-8.053S18.957,47.714,18.957,47.714s7.289-.623,10.276-6.67C30.658,38.158,34.538,4.723,32.4,4.349Z" transform="translate(0 0)" fill="#f7f7f9"/>
          <path id="Path_7561" data-name="Path 7561" d="M5.483,115.779C6.271,108.8,16.15,43.365,16.15,43.365s7.289-.624,10.276-6.67C27.852,33.809,31.732.374,29.6,0c0,0-.673,13.837-2.444,22.7-1.632,8.169-3.454,15.061-9.9,17.391a3.264,3.264,0,0,0-2.127,2.447c-1.79,9.424-9.479,50.2-10.625,61.119A80.24,80.24,0,0,1,0,123.832S4.7,122.755,5.483,115.779Z" transform="translate(2.806 4.349)" fill="#a69d99" opacity="0.3"/>
          <path id="Path_7562" data-name="Path 7562" d="M.17,29.506c1.245,2.58,3.847,2.14,4.743-2.509C5.576,23.56,8.863,7.937,10.532.028A.393.393,0,0,0,10.47.006c-2.845-.5-5.88,29.84-8.646,29.355S7.182,2.036,5.049,1.663C4.912,2.214-1.075,26.926.17,29.506Z" transform="translate(12.025 0)" fill="#fff" opacity="0.8"/>
          <path id="Path_7563" data-name="Path 7563" d="M7.981,3.257C5.848,2.883,4.362,30.886,1.6,30.4-1.079,29.933,5.808,2.277,3.694,0,2.157,9.312-2.1,31.655,1.256,32.031,3.692,32.3,4.4,29.657,7.981,3.257Z" transform="translate(24.344 1.078)" fill="#fff" opacity="0.8"/>
        </g>
      </g>
    </g>
    <g id="Group_4833" data-name="Group 4833" transform="translate(684.265 257.636)">
      <path id="Path_7557" data-name="Path 7557" d="M381.2,1453.429a11.675,11.675,0,1,0-16.4,1.925A11.675,11.675,0,0,0,381.2,1453.429Zm-16.862-14.335a9.977,9.977,0,1,1,1.645,14.014A9.977,9.977,0,0,1,364.337,1439.093Z" transform="translate(-296.894 -1345.257)" fill="#f2f28f"/>
      <path id="Path_7558" data-name="Path 7558" d="M285.065,1484.055a9.673,9.673,0,1,0,6.045-12.272A9.673,9.673,0,0,0,285.065,1484.055Zm17.563-5.273a8.267,8.267,0,1,1-10.488-5.166A8.267,8.267,0,0,1,302.628,1478.782Z" transform="translate(-230.755 -1370.331)" fill="#f2f28f"/>
      <path id="Path_7559" data-name="Path 7559" d="M330.265,1127.741a14.239,14.239,0,1,0,8.9-18.064A14.238,14.238,0,0,0,330.265,1127.741Zm25.852-7.762a12.168,12.168,0,1,1-15.437-7.6A12.168,12.168,0,0,1,356.117,1119.979Z" transform="translate(-329.504 -1108.916)" fill="#f2f28f"/>
    </g>
    <g id="Group_4787" data-name="Group 4787" transform="translate(668.006 284.96)">
      <text id="Create_Your_Group" data-name="Create
Your Group" transform="translate(53.173 22.455)" fill="#18314c" font-size="20" font-family="BerkshireSwash-Regular, Berkshire Swash"><tspan x="-26.729" y="0">Create</tspan><tspan x="-49.023" y="25">Your Group</tspan></text>
      <g id="Group_4786" data-name="Group 4786" transform="translate(34.164 61.502)">
        <path id="Path_7518" data-name="Path 7518" d="M1175.082,815.455a3.348,3.348,0,1,0,3.348,3.348A3.348,3.348,0,0,0,1175.082,815.455Z" transform="translate(-1170.615 -814.284)" fill="#dad8d7"/>
        <path id="Path_7519" data-name="Path 7519" d="M1249.2,815.455a3.348,3.348,0,1,0,3.348,3.348A3.348,3.348,0,0,0,1249.2,815.455Z" transform="translate(-1227.96 -814.284)" fill="#dad8d7"/>
        <path id="Path_7520" data-name="Path 7520" d="M1323.315,815.455a3.348,3.348,0,1,0,3.347,3.348A3.348,3.348,0,0,0,1323.315,815.455Z" transform="translate(-1284.687 -814.284)" fill="#dad8d7"/>
        <g id="Group_4785" data-name="Group 4785">
          <circle id="Ellipse_56" data-name="Ellipse 56" cx="3.348" cy="3.348" r="3.348" fill="#18314c"/>
          <circle id="Ellipse_57" data-name="Ellipse 57" cx="3.348" cy="3.348" r="3.348" transform="translate(17.081)" fill="#18314c"/>
          <circle id="Ellipse_58" data-name="Ellipse 58" cx="3.348" cy="3.348" r="3.348" transform="translate(34.161)" fill="#18314c"/>
        </g>
      </g>
    </g>
    <g id="Group_4830" data-name="Group 4830" transform="translate(660.357 245.513)">
      <g id="Group_4799" data-name="Group 4799" transform="translate(0 16.893)">
        <g id="Group_4798" data-name="Group 4798" transform="translate(0 0)">
          <g id="Group_4788" data-name="Group 4788">
            <path id="Path_7521" data-name="Path 7521" d="M-605.337,1040.49c-1.019-.187-2.315,3.577-3.494,3.028s.09-2.905-1.248-3.3c-1.046-.308-2.329,1.889-3.5,1.3-1.14-.572-.986-2.537-3.415-2.778s-2.5-1.417-2.5-1.417.158-1.174,2.6-1.384,2.432-2.176,3.613-2.733c1.21-.571,2.333,1.641,3.4,1.347,1.367-.377.267-2.747,1.485-3.282s2.243,3.245,3.275,3.071c1.357-.229-.293-5.289,2.428-4.571,1.5.4,1.691,3.181,5.389,4.35,3.15,1,3.361,3.365,3.361,3.365s-.382,2.367-3.6,3.321c-3.78,1.121-4.169,3.9-5.7,4.279C-606.011,1045.772-604,1040.736-605.337,1040.49Z" transform="translate(619.494 -1029.705)" fill="#35b676"/>
          </g>
          <g id="Group_4789" data-name="Group 4789" transform="translate(0 7.621)">
            <path id="Path_7522" data-name="Path 7522" d="M-605.337,1089.189c-1.019-.187-2.315,3.578-3.494,3.027s.09-2.905-1.248-3.3c-1.046-.308-2.329,1.889-3.5,1.3-1.14-.572-.986-2.537-3.415-2.778s-2.5-1.417-2.5-1.417l25.556.164s-.382,2.366-3.6,3.321c-3.78,1.12-4.169,3.9-5.7,4.279C-606.011,1094.471-604,1089.435-605.337,1089.189Z" transform="translate(619.494 -1086.025)" fill="#05925a"/>
          </g>
          <g id="Group_4790" data-name="Group 4790" transform="translate(5.137 7.315)">
            <path id="Path_7523" data-name="Path 7523" d="M-563.046,1084.532a.355.355,0,0,0,.219-.311.334.334,0,0,0-.337-.344l-18.007-.115a.358.358,0,0,0-.362.339.334.334,0,0,0,.337.344l18.007.115A.369.369,0,0,0-563.046,1084.532Z" transform="translate(581.534 -1083.762)" fill="#0f7241"/>
          </g>
          <g id="Group_4791" data-name="Group 4791" transform="translate(2.216 7.296)">
            <path id="Path_7524" data-name="Path 7524" d="M-601.495,1084.285a.355.355,0,0,0,.219-.311.334.334,0,0,0-.337-.344l-1.141-.007a.358.358,0,0,0-.362.339.333.333,0,0,0,.337.344l1.141.007A.36.36,0,0,0-601.495,1084.285Z" transform="translate(603.117 -1083.623)" fill="#0f7241"/>
          </g>
          <g id="Group_4792" data-name="Group 4792" transform="translate(16.447 2.149)">
            <path id="Path_7525" data-name="Path 7525" d="M-493.313,1051.506a.357.357,0,0,0,.209-.242.331.331,0,0,0-.257-.405c-3.166-.662-3.893-4.95-3.9-4.994a.338.338,0,0,0-.4-.273.354.354,0,0,0-.292.4c.031.195.8,4.78,4.426,5.537A.358.358,0,0,0-493.313,1051.506Z" transform="translate(497.957 -1045.586)" fill="#0f7241"/>
          </g>
          <g id="Group_4793" data-name="Group 4793" transform="translate(16.069 7.414)">
            <path id="Path_7526" data-name="Path 7526" d="M-500.264,1090.357a.356.356,0,0,0,.21-.246c.01-.043,1.045-4.32,4.258-4.941a.353.353,0,0,0,.286-.4.338.338,0,0,0-.4-.268c-3.675.71-4.778,5.283-4.823,5.478a.331.331,0,0,0,.263.4A.358.358,0,0,0-500.264,1090.357Z" transform="translate(500.744 -1084.494)" fill="#0f7241"/>
          </g>
          <g id="Group_4794" data-name="Group 4794" transform="translate(11.438 4.07)">
            <path id="Path_7527" data-name="Path 7527" d="M-531.9,1063.736a.357.357,0,0,0,.207-.234.331.331,0,0,0-.247-.411c-2.037-.475-2.329-2.99-2.332-3.015a.336.336,0,0,0-.384-.294.355.355,0,0,0-.312.382c.013.123.34,3.006,2.847,3.591A.356.356,0,0,0-531.9,1063.736Z" transform="translate(534.97 -1059.779)" fill="#0f7241"/>
          </g>
          <g id="Group_4795" data-name="Group 4795" transform="translate(11.201 7.372)">
            <path id="Path_7528" data-name="Path 7528" d="M-536.238,1088.1a.356.356,0,0,0,.214-.264c.007-.037.484-2.536,2.548-2.983a.353.353,0,0,0,.277-.408.339.339,0,0,0-.41-.259c-2.548.552-3.083,3.43-3.1,3.553a.331.331,0,0,0,.285.386A.357.357,0,0,0-536.238,1088.1Z" transform="translate(536.719 -1084.182)" fill="#0f7241"/>
          </g>
          <g id="Group_4796" data-name="Group 4796" transform="translate(6.354 5.744)">
            <path id="Path_7529" data-name="Path 7529" d="M-570.568,1074.4a.357.357,0,0,0,.209-.241.331.331,0,0,0-.256-.406c-.919-.194-1.232-1.337-1.235-1.348a.34.34,0,0,0-.426-.234.351.351,0,0,0-.252.422,2.6,2.6,0,0,0,1.746,1.827A.361.361,0,0,0-570.568,1074.4Z" transform="translate(572.539 -1072.156)" fill="#0f7241"/>
          </g>
          <g id="Group_4797" data-name="Group 4797" transform="translate(6.24 7.332)">
            <path id="Path_7530" data-name="Path 7530" d="M-572.9,1086.111a.358.358,0,0,0,.2-.214c.007-.019.41-1.153,1.332-1.333a.354.354,0,0,0,.285-.4.338.338,0,0,0-.4-.267,2.819,2.819,0,0,0-1.876,1.8.33.33,0,0,0,.221.426A.36.36,0,0,0-572.9,1086.111Z" transform="translate(573.379 -1083.889)" fill="#0f7241"/>
          </g>
        </g>
      </g>
      <g id="Group_4811" data-name="Group 4811" transform="translate(18.548)">
        <g id="Group_4810" data-name="Group 4810" transform="translate(0)">
          <g id="Group_4800" data-name="Group 4800">
            <path id="Path_7531" data-name="Path 7531" d="M-477.635,918.93c.269-1.013-3.384-2.414-2.74-3.578s2.892.172,3.394-1.156c.392-1.038-1.7-2.381-1.018-3.532.663-1.124,2.611-.915,3.049-3.336s1.616-2.462,1.616-2.462,1.159.191,1.171,2.641,1.976,2.492,2.436,3.688c.472,1.226-1.827,2.287-1.619,3.363.266,1.377,2.72.343,3.156,1.576s-3.42,2.152-3.33,3.188c.119,1.363,5.3-.146,4.366,2.554-.517,1.491-3.312,1.6-4.776,5.266-1.247,3.121-3.63,3.266-3.63,3.266s-2.331-.448-3.024-3.693c-.813-3.81-3.558-4.276-3.811-5.817C-482.854,918.11-477.99,920.263-477.635,918.93Z" transform="translate(482.426 -904.866)" fill="#35b676"/>
          </g>
          <g id="Group_4801" data-name="Group 4801">
            <path id="Path_7532" data-name="Path 7532" d="M-477.635,918.93c.269-1.013-3.384-2.414-2.74-3.578s2.892.172,3.394-1.156c.392-1.038-1.7-2.381-1.018-3.532.663-1.124,2.611-.915,3.049-3.336s1.616-2.462,1.616-2.462l-2.226,25.543s-2.331-.448-3.024-3.693c-.813-3.81-3.558-4.276-3.811-5.817C-482.854,918.11-477.99,920.263-477.635,918.93Z" transform="translate(482.426 -904.866)" fill="#05925a"/>
          </g>
          <g id="Group_4802" data-name="Group 4802" transform="translate(6.703 5.134)">
            <path id="Path_7533" data-name="Path 7533" d="M-432.872,961.273a.331.331,0,0,0,.292.227.355.355,0,0,0,.37-.328l1.568-18a.336.336,0,0,0-.309-.371.355.355,0,0,0-.37.328l-1.568,18A.355.355,0,0,0-432.872,961.273Z" transform="translate(432.89 -942.803)" fill="#0f7241"/>
          </g>
          <g id="Group_4803" data-name="Group 4803" transform="translate(8.427 2.215)">
            <path id="Path_7534" data-name="Path 7534" d="M-420.136,922.844a.331.331,0,0,0,.292.227.356.356,0,0,0,.37-.328l.1-1.141a.336.336,0,0,0-.309-.371.355.355,0,0,0-.37.328l-.1,1.141A.353.353,0,0,0-420.136,922.844Z" transform="translate(420.154 -921.232)" fill="#0f7241"/>
          </g>
          <g id="Group_4804" data-name="Group 4804" transform="translate(6.924 16.583)">
            <path id="Path_7535" data-name="Path 7535" d="M-431.241,1031.9a.331.331,0,0,0,.225.216.349.349,0,0,0,.425-.246c.916-3.147,5.255-3.754,5.3-3.76a.36.36,0,0,0,.305-.392.333.333,0,0,0-.373-.3c-.2.026-4.836.67-5.884,4.271A.355.355,0,0,0-431.241,1031.9Z" transform="translate(431.26 -1027.415)" fill="#0f7241"/>
          </g>
          <g id="Group_4805" data-name="Group 4805" transform="translate(2.091 15.915)">
            <path id="Path_7536" data-name="Path 7536" d="M-466.955,1022.947a.332.332,0,0,0,.229.217c.042.011,4.228,1.165,4.588,4.394a.332.332,0,0,0,.378.3.36.36,0,0,0,.3-.4c-.412-3.693-4.888-4.923-5.078-4.974a.35.35,0,0,0-.422.252A.357.357,0,0,0-466.955,1022.947Z" transform="translate(466.973 -1022.475)" fill="#0f7241"/>
          </g>
          <g id="Group_4806" data-name="Group 4806" transform="translate(7.497 11.523)">
            <path id="Path_7537" data-name="Path 7537" d="M-427,992.988a.332.332,0,0,0,.217.213.349.349,0,0,0,.43-.236c.639-2.023,3.172-2.245,3.2-2.247a.359.359,0,0,0,.324-.375.333.333,0,0,0-.356-.323c-.123.009-3.027.257-3.813,2.746A.357.357,0,0,0-427,992.988Z" transform="translate(427.023 -990.019)" fill="#0f7241"/>
          </g>
          <g id="Group_4807" data-name="Group 4807" transform="translate(4.464 11.104)">
            <path id="Path_7538" data-name="Path 7538" d="M-449.421,987.392a.332.332,0,0,0,.246.221c.037.008,2.492.555,2.772,2.63a.332.332,0,0,0,.384.288.36.36,0,0,0,.291-.4c-.346-2.563-3.175-3.177-3.3-3.2a.352.352,0,0,0-.409.274A.354.354,0,0,0-449.421,987.392Z" transform="translate(449.439 -986.92)" fill="#0f7241"/>
          </g>
          <g id="Group_4808" data-name="Group 4808" transform="translate(8.036 6.394)">
            <path id="Path_7539" data-name="Path 7539" d="M-423.025,954.036a.332.332,0,0,0,.224.216.35.35,0,0,0,.426-.245c.268-.913,1.434-1.194,1.446-1.2a.361.361,0,0,0,.267-.419.331.331,0,0,0-.4-.263,2.79,2.79,0,0,0-1.965,1.695A.356.356,0,0,0-423.025,954.036Z" transform="translate(423.043 -952.118)" fill="#0f7241"/>
          </g>
          <g id="Group_4809" data-name="Group 4809" transform="translate(6.6 6.193)">
            <path id="Path_7540" data-name="Path 7540" d="M-433.633,951.1a.332.332,0,0,0,.2.207c.018.007,1.118.442,1.223,1.368a.333.333,0,0,0,.378.3.36.36,0,0,0,.3-.4,2.621,2.621,0,0,0-1.649-1.926.347.347,0,0,0-.443.209A.357.357,0,0,0-433.633,951.1Z" transform="translate(433.652 -950.63)" fill="#0f7241"/>
          </g>
        </g>
      </g>
      <g id="Group_4817" data-name="Group 4817" transform="translate(17.786 21.228)">
        <g id="Group_4812" data-name="Group 4812" transform="translate(0 0)">
          <ellipse id="Ellipse_59" data-name="Ellipse 59" cx="2.945" cy="2.837" rx="2.945" ry="2.837" transform="translate(0 2.483) rotate(-24.927)" fill="#ed2238"/>
        </g>
        <g id="Group_4813" data-name="Group 4813" transform="translate(1.247 2.233)">
          <path id="Path_7541" data-name="Path 7541" d="M-474.668,1080.493a2.156,2.156,0,0,1-2.35,1.827,1.989,1.989,0,0,1-1.8-2.242,2.156,2.156,0,0,1,2.35-1.827A1.989,1.989,0,0,1-474.668,1080.493Z" transform="translate(478.841 -1078.24)" fill="#ed3c4e"/>
        </g>
        <g id="Group_4814" data-name="Group 4814" transform="translate(1.799 0.957)">
          <path id="Path_7542" data-name="Path 7542" d="M-471.228,1074.1a2.91,2.91,0,0,0,.834-1.672,2.778,2.778,0,0,0-2.521-3.132,3.021,3.021,0,0,0-1.847.412,3.038,3.038,0,0,1,2.449-.88,2.778,2.778,0,0,1,2.521,3.132A2.954,2.954,0,0,1-471.228,1074.1Z" transform="translate(474.763 -1068.811)" fill="#c4202f"/>
        </g>
        <g id="Group_4815" data-name="Group 4815" transform="translate(2.181 4.218)" opacity="0.8">
          <path id="Path_7543" data-name="Path 7543" d="M-469.787,1094.063A1.11,1.11,0,0,1-471,1095a1.024,1.024,0,0,1-.929-1.155,1.11,1.11,0,0,1,1.21-.941A1.024,1.024,0,0,1-469.787,1094.063Z" transform="translate(471.936 -1092.903)" fill="#f7f9fc"/>
        </g>
        <g id="Group_4816" data-name="Group 4816" transform="translate(1.41 3.142)" opacity="0.8">
          <path id="Path_7544" data-name="Path 7544" d="M-476.443,1085.6a.617.617,0,0,1-.672.523.569.569,0,0,1-.516-.642.617.617,0,0,1,.672-.523A.569.569,0,0,1-476.443,1085.6Z" transform="translate(477.637 -1084.953)" fill="#f7f9fc"/>
        </g>
      </g>
      <g id="Group_4823" data-name="Group 4823" transform="translate(22.009 18.341)">
        <g id="Group_4818" data-name="Group 4818" transform="translate(0 0)">
          <ellipse id="Ellipse_60" data-name="Ellipse 60" cx="2.595" cy="2.5" rx="2.595" ry="2.5" transform="translate(0 2.188) rotate(-24.93)" fill="#ed2238"/>
        </g>
        <g id="Group_4819" data-name="Group 4819" transform="translate(1.86 1.025)">
          <path id="Path_7545" data-name="Path 7545" d="M-440.637,1051.458a1.838,1.838,0,0,0,1.116-2.334,1.812,1.812,0,0,0-2.36-1.023,1.838,1.838,0,0,0-1.116,2.334A1.812,1.812,0,0,0-440.637,1051.458Z" transform="translate(443.106 -1047.977)" fill="#ed3c4e"/>
        </g>
        <g id="Group_4820" data-name="Group 4820" transform="translate(0.828 2.06)">
          <path id="Path_7546" data-name="Path 7546" d="M-445.7,1057.63a2.658,2.658,0,0,1-1.3,1.044,2.531,2.531,0,0,1-3.3-1.429,2.444,2.444,0,0,1-.026-1.619,2.482,2.482,0,0,0-.26,2.216,2.531,2.531,0,0,0,3.3,1.429A2.642,2.642,0,0,0-445.7,1057.63Z" transform="translate(450.729 -1055.627)" fill="#c4202f"/>
        </g>
        <g id="Group_4821" data-name="Group 4821" transform="translate(1.698 2.912)" opacity="0.8">
          <path id="Path_7547" data-name="Path 7547" d="M-443.612,1063.743a.982.982,0,0,0,1.177-.666.9.9,0,0,0-.649-1.131.982.982,0,0,0-1.178.666A.9.9,0,0,0-443.612,1063.743Z" transform="translate(444.299 -1061.917)" fill="#f7f9fc"/>
        </g>
        <g id="Group_4822" data-name="Group 4822" transform="translate(1.491 1.667)" opacity="0.8">
          <path id="Path_7548" data-name="Path 7548" d="M-445.452,1053.735a.546.546,0,0,0,.654-.37.5.5,0,0,0-.36-.628.545.545,0,0,0-.654.37A.5.5,0,0,0-445.452,1053.735Z" transform="translate(445.834 -1052.72)" fill="#f7f9fc"/>
        </g>
      </g>
      <g id="Group_4829" data-name="Group 4829" transform="translate(22.16 22.207)">
        <g id="Group_4824" data-name="Group 4824" transform="translate(0 0)">
          <ellipse id="Ellipse_61" data-name="Ellipse 61" cx="3.129" cy="3.014" rx="3.129" ry="3.014" transform="translate(0 2.638) rotate(-24.928)" fill="#ed2238"/>
        </g>
        <g id="Group_4825" data-name="Group 4825" transform="translate(1.202 1.873)">
          <ellipse id="Ellipse_62" data-name="Ellipse 62" cx="2.24" cy="2.158" rx="2.24" ry="2.158" transform="matrix(0.907, -0.421, 0.421, 0.907, 0, 1.888)" fill="#ed3c4e"/>
        </g>
        <g id="Group_4826" data-name="Group 4826" transform="translate(1 1.017)">
          <path id="Path_7549" data-name="Path 7549" d="M-442.168,1079.889a2.894,2.894,0,0,0-.85-1.744,3.162,3.162,0,0,0-4.4.043,3.1,3.1,0,0,0-.917,1.761,3.061,3.061,0,0,1,.932-2.547,3.162,3.162,0,0,1,4.4-.043A2.914,2.914,0,0,1-442.168,1079.889Z" transform="translate(448.35 -1076.492)" fill="#c4202f"/>
        </g>
        <g id="Group_4827" data-name="Group 4827" transform="translate(3.785 4.356)" opacity="0.8">
          <path id="Path_7550" data-name="Path 7550" d="M-425.8,1101.48a1.1,1.1,0,0,1-.03,1.582,1.166,1.166,0,0,1-1.621.016,1.1,1.1,0,0,1,.03-1.582A1.166,1.166,0,0,1-425.8,1101.48Z" transform="translate(427.769 -1101.161)" fill="#f7f9fc"/>
        </g>
        <g id="Group_4828" data-name="Group 4828" transform="translate(2.122 4.881)" opacity="0.8">
          <path id="Path_7551" data-name="Path 7551" d="M-438.962,1105.219a.611.611,0,0,1-.017.879.648.648,0,0,1-.9.009.612.612,0,0,1,.017-.879A.648.648,0,0,1-438.962,1105.219Z" transform="translate(440.058 -1105.041)" fill="#f7f9fc"/>
        </g>
      </g>
    </g>
    <g id="Group_4832" data-name="Group 4832" transform="translate(685.921 319.644) rotate(30)">
      <circle id="Ellipse_63" data-name="Ellipse 63" cx="5.212" cy="5.212" r="5.212" transform="translate(0 0.837) rotate(-4.608)" fill="#fc4330"/>
      <path id="Path_7552" data-name="Path 7552" d="M2.419.01C1.793.057.277.218.031.684S1.057.559,1.206.674s-.836.478-.541.755S1.818.875,2.1,1.081,2.848,2.286,3.229,2.16,3.09.876,3.315.928s.919.545,1.141.5S3.975.575,4.237.563,5.1.734,4.862.434A4.758,4.758,0,0,0,2.419.01Z" transform="translate(3.034 0.618)" fill="#db2219" opacity="0.4" style="mix-blend-mode: multiply;isolation: isolate"/>
      <path id="Path_7553" data-name="Path 7553" d="M5.361,0A5.184,5.184,0,0,1,6.618,2.114,5.211,5.211,0,0,1,0,8.592,5.212,5.212,0,1,0,5.361,0Z" transform="translate(1.888 0.666)" fill="#db2219"/>
      <path id="Path_7554" data-name="Path 7554" d="M2.327.034c.657.2-.5,1.4-.882,2.4C1,3.594,1.513,5.094.775,5.23S-.177,3.757.146,2.351C.455,1.013,1.5-.222,2.327.034Z" transform="translate(1.182 1.81)" fill="#fff" opacity="0.5"/>
      <path id="Path_7555" data-name="Path 7555" d="M.216.033C.6-.213,1.37.986.8,1.32S-.317.372.216.033Z" transform="translate(1.841 7.534)" fill="#fff" opacity="0.5"/>
      <path id="Path_7556" data-name="Path 7556" d="M2.419.01C1.793.057.278.218.031.685S1.057.559,1.206.674s-.836.478-.542.755,1.154-.555,1.44-.349S2.849,2.286,3.229,2.16,3.09.876,3.315.928s.919.545,1.141.5S3.975.575,4.237.563,5.1.734,4.862.434A4.758,4.758,0,0,0,2.419.01Z" transform="translate(2.953 0.356)" fill="url(#linear-gradient)"/>
    </g>
    <g id="Group_4969" data-name="Group 4969" transform="matrix(0.966, -0.259, 0.259, 0.966, 736.1, 323.344)">
      <circle id="Ellipse_63-2" data-name="Ellipse 63" cx="5.212" cy="5.212" r="5.212" transform="translate(0 0.837) rotate(-4.608)" fill="#fc4330"/>
      <path id="Path_7552-2" data-name="Path 7552" d="M2.419.01C1.793.057.277.218.031.684S1.057.559,1.206.674s-.836.478-.541.755S1.818.875,2.1,1.081,2.848,2.286,3.229,2.16,3.09.876,3.315.928s.919.545,1.141.5S3.975.575,4.237.563,5.1.734,4.862.434A4.758,4.758,0,0,0,2.419.01Z" transform="translate(3.034 0.618)" fill="#db2219" opacity="0.4" style="mix-blend-mode: multiply;isolation: isolate"/>
      <path id="Path_7553-2" data-name="Path 7553" d="M5.361,0A5.184,5.184,0,0,1,6.618,2.114,5.211,5.211,0,0,1,0,8.592,5.212,5.212,0,1,0,5.361,0Z" transform="translate(1.888 0.666)" fill="#db2219"/>
      <path id="Path_7554-2" data-name="Path 7554" d="M2.327.034c.657.2-.5,1.4-.882,2.4C1,3.594,1.513,5.094.775,5.23S-.177,3.757.146,2.351C.455,1.013,1.5-.222,2.327.034Z" transform="translate(1.182 1.81)" fill="#fff" opacity="0.5"/>
      <path id="Path_7555-2" data-name="Path 7555" d="M.216.033C.6-.213,1.37.986.8,1.32S-.317.372.216.033Z" transform="translate(1.841 7.534)" fill="#fff" opacity="0.5"/>
      <path id="Path_7556-2" data-name="Path 7556" d="M2.419.01C1.793.057.278.218.031.685S1.057.559,1.206.674s-.836.478-.542.755,1.154-.555,1.44-.349S2.849,2.286,3.229,2.16,3.09.876,3.315.928s.919.545,1.141.5S3.975.575,4.237.563,5.1.734,4.862.434A4.758,4.758,0,0,0,2.419.01Z" transform="translate(2.953 0.356)" fill="url(#linear-gradient)"/>
    </g>
  </g>
</svg>
